{
	"asset":{
		"generator":"Khronos glTF Blender I/O v5.1.19",
		"version":"2.0"
	},
	"scene":0,
	"scenes":[
		{
			"name":"Scene",
			"nodes":[
				13
			]
		}
	],
	"nodes":[
		{
			"name":"Head",
			"rotation":[
				0.4662971496582031,
				-0.5315701961517334,
				0.46629732847213745,
				0.5315701961517334
			],
			"scale":[
				1,
				0.9999998211860657,
				1.0000001192092896
			],
			"translation":[
				0.21255910396575928,
				0.013263794593513012,
				3.24983275845625e-08
			]
		},
		{
			"name":"WingLeft03",
			"rotation":[
				-1.4859843133763206e-07,
				0.23727045953273773,
				-2.708326292122365e-07,
				0.9714435935020447
			],
			"translation":[
				0.2734907269477844,
				-1.7136335372924805e-07,
				3.6903657019138336e-07
			]
		},
		{
			"children":[
				1
			],
			"name":"WingLeft02",
			"rotation":[
				-7.264508639082123e-08,
				0.0072773536667227745,
				1.5646632789412251e-07,
				0.9999735355377197
			],
			"scale":[
				1,
				1.0000001192092896,
				1
			],
			"translation":[
				0.326112300157547,
				5.960464477539063e-08,
				-9.546056389808655e-09
			]
		},
		{
			"children":[
				2
			],
			"name":"WingLeft01",
			"rotation":[
				0.477469801902771,
				-0.7366448044776917,
				0.36453619599342346,
				0.31062906980514526
			],
			"scale":[
				1.0000001192092896,
				1.0000005960464478,
				1
			],
			"translation":[
				-0.05692710354924202,
				-0.09977880865335464,
				0.12765246629714966
			]
		},
		{
			"name":"WingRight03",
			"rotation":[
				6.11170980491238e-09,
				0.23727041482925415,
				-3.1157736390952095e-09,
				0.9714436531066895
			],
			"translation":[
				-0.2734936475753784,
				7.078051567077637e-07,
				-4.42960299551487e-06
			]
		},
		{
			"children":[
				4
			],
			"name":"WingRight02",
			"rotation":[
				4.889573546051906e-08,
				0.007278086617588997,
				9.686012703014057e-08,
				0.9999735355377197
			],
			"scale":[
				0.9999998807907104,
				0.9999998807907104,
				0.9999999403953552
			],
			"translation":[
				-0.32611215114593506,
				3.650784492492676e-07,
				7.261987775564194e-07
			]
		},
		{
			"children":[
				5
			],
			"name":"WingRight01",
			"rotation":[
				-0.7366448640823364,
				-0.47747015953063965,
				-0.3106288015842438,
				0.3645358383655548
			],
			"scale":[
				1.0000001192092896,
				1,
				1.0000001192092896
			],
			"translation":[
				-0.05692723020911217,
				-0.09977884590625763,
				-0.12765216827392578
			]
		},
		{
			"children":[
				0,
				3,
				6
			],
			"name":"Spine",
			"rotation":[
				0.9578976035118103,
				-0.28711003065109253,
				1.0199506794705826e-09,
				2.1645130132696977e-08
			],
			"scale":[
				0.9999997019767761,
				0.9999998211860657,
				1
			],
			"translation":[
				0.16183896362781525,
				8.211191016016528e-08,
				-2.4127352560299187e-08
			]
		},
		{
			"name":"Tail02",
			"rotation":[
				0.05474470183253288,
				-0.7049844264984131,
				0.054744694381952286,
				0.7049844264984131
			],
			"scale":[
				0.9999999403953552,
				0.9999999403953552,
				1
			],
			"translation":[
				0.20328477025032043,
				-8.811184670776129e-08,
				1.5103250206038865e-08
			]
		},
		{
			"children":[
				8
			],
			"name":"Tail01",
			"rotation":[
				0.5947921276092529,
				-0.8038795590400696,
				3.1619844520491824e-09,
				6.057422297089943e-08
			],
			"scale":[
				0.9999998807907104,
				1.0000001192092896,
				1
			],
			"translation":[
				-0.1496543288230896,
				-0.10353488475084305,
				2.7458206375285954e-08
			]
		},
		{
			"children":[
				7,
				9
			],
			"name":"Body",
			"rotation":[
				-4.907332851189494e-08,
				-7.351935948918253e-08,
				-0.6521003246307373,
				0.7581326961517334
			],
			"translation":[
				0.6223025321960449,
				-1.7426646081730723e-07,
				4.6627263827758725e-08
			]
		},
		{
			"children":[
				10
			],
			"name":"Root",
			"rotation":[
				0.5630961060523987,
				0.41450369358062744,
				0.5757495760917664,
				0.4238184988498688
			],
			"scale":[
				0.9999999403953552,
				0.9999998807907104,
				0.9999985694885254
			]
		},
		{
			"mesh":0,
			"name":"Swarm09.001",
			"skin":0
		},
		{
			"children":[
				12,
				11
			],
			"name":"BlueSwarm"
		}
	],
	"animations":[
		{
			"channels":[
				{
					"sampler":0,
					"target":{
						"node":11,
						"path":"translation"
					}
				},
				{
					"sampler":1,
					"target":{
						"node":11,
						"path":"rotation"
					}
				},
				{
					"sampler":2,
					"target":{
						"node":11,
						"path":"scale"
					}
				},
				{
					"sampler":3,
					"target":{
						"node":10,
						"path":"translation"
					}
				},
				{
					"sampler":4,
					"target":{
						"node":10,
						"path":"rotation"
					}
				},
				{
					"sampler":5,
					"target":{
						"node":10,
						"path":"scale"
					}
				},
				{
					"sampler":6,
					"target":{
						"node":7,
						"path":"translation"
					}
				},
				{
					"sampler":7,
					"target":{
						"node":7,
						"path":"rotation"
					}
				},
				{
					"sampler":8,
					"target":{
						"node":7,
						"path":"scale"
					}
				},
				{
					"sampler":9,
					"target":{
						"node":0,
						"path":"translation"
					}
				},
				{
					"sampler":10,
					"target":{
						"node":0,
						"path":"rotation"
					}
				},
				{
					"sampler":11,
					"target":{
						"node":0,
						"path":"scale"
					}
				},
				{
					"sampler":12,
					"target":{
						"node":3,
						"path":"translation"
					}
				},
				{
					"sampler":13,
					"target":{
						"node":3,
						"path":"rotation"
					}
				},
				{
					"sampler":14,
					"target":{
						"node":3,
						"path":"scale"
					}
				},
				{
					"sampler":15,
					"target":{
						"node":2,
						"path":"translation"
					}
				},
				{
					"sampler":16,
					"target":{
						"node":2,
						"path":"rotation"
					}
				},
				{
					"sampler":17,
					"target":{
						"node":2,
						"path":"scale"
					}
				},
				{
					"sampler":18,
					"target":{
						"node":1,
						"path":"translation"
					}
				},
				{
					"sampler":19,
					"target":{
						"node":1,
						"path":"rotation"
					}
				},
				{
					"sampler":20,
					"target":{
						"node":1,
						"path":"scale"
					}
				},
				{
					"sampler":21,
					"target":{
						"node":6,
						"path":"translation"
					}
				},
				{
					"sampler":22,
					"target":{
						"node":6,
						"path":"rotation"
					}
				},
				{
					"sampler":23,
					"target":{
						"node":6,
						"path":"scale"
					}
				},
				{
					"sampler":24,
					"target":{
						"node":5,
						"path":"translation"
					}
				},
				{
					"sampler":25,
					"target":{
						"node":5,
						"path":"rotation"
					}
				},
				{
					"sampler":26,
					"target":{
						"node":5,
						"path":"scale"
					}
				},
				{
					"sampler":27,
					"target":{
						"node":4,
						"path":"translation"
					}
				},
				{
					"sampler":28,
					"target":{
						"node":4,
						"path":"rotation"
					}
				},
				{
					"sampler":29,
					"target":{
						"node":4,
						"path":"scale"
					}
				},
				{
					"sampler":30,
					"target":{
						"node":9,
						"path":"translation"
					}
				},
				{
					"sampler":31,
					"target":{
						"node":9,
						"path":"rotation"
					}
				},
				{
					"sampler":32,
					"target":{
						"node":9,
						"path":"scale"
					}
				},
				{
					"sampler":33,
					"target":{
						"node":8,
						"path":"translation"
					}
				},
				{
					"sampler":34,
					"target":{
						"node":8,
						"path":"rotation"
					}
				},
				{
					"sampler":35,
					"target":{
						"node":8,
						"path":"scale"
					}
				}
			],
			"name":"Attack",
			"samplers":[
				{
					"input":7,
					"interpolation":"STEP",
					"output":8
				},
				{
					"input":7,
					"interpolation":"STEP",
					"output":9
				},
				{
					"input":7,
					"interpolation":"STEP",
					"output":10
				},
				{
					"input":11,
					"interpolation":"LINEAR",
					"output":12
				},
				{
					"input":11,
					"interpolation":"LINEAR",
					"output":13
				},
				{
					"input":7,
					"interpolation":"LINEAR",
					"output":14
				},
				{
					"input":7,
					"interpolation":"LINEAR",
					"output":15
				},
				{
					"input":7,
					"interpolation":"LINEAR",
					"output":16
				},
				{
					"input":7,
					"interpolation":"STEP",
					"output":17
				},
				{
					"input":11,
					"interpolation":"LINEAR",
					"output":18
				},
				{
					"input":11,
					"interpolation":"LINEAR",
					"output":19
				},
				{
					"input":7,
					"interpolation":"LINEAR",
					"output":20
				},
				{
					"input":7,
					"interpolation":"LINEAR",
					"output":21
				},
				{
					"input":11,
					"interpolation":"LINEAR",
					"output":22
				},
				{
					"input":7,
					"interpolation":"STEP",
					"output":23
				},
				{
					"input":7,
					"interpolation":"LINEAR",
					"output":24
				},
				{
					"input":11,
					"interpolation":"LINEAR",
					"output":25
				},
				{
					"input":7,
					"interpolation":"LINEAR",
					"output":26
				},
				{
					"input":7,
					"interpolation":"LINEAR",
					"output":27
				},
				{
					"input":11,
					"interpolation":"LINEAR",
					"output":28
				},
				{
					"input":7,
					"interpolation":"STEP",
					"output":29
				},
				{
					"input":7,
					"interpolation":"LINEAR",
					"output":30
				},
				{
					"input":11,
					"interpolation":"LINEAR",
					"output":31
				},
				{
					"input":7,
					"interpolation":"LINEAR",
					"output":32
				},
				{
					"input":7,
					"interpolation":"LINEAR",
					"output":33
				},
				{
					"input":11,
					"interpolation":"LINEAR",
					"output":34
				},
				{
					"input":7,
					"interpolation":"LINEAR",
					"output":35
				},
				{
					"input":7,
					"interpolation":"LINEAR",
					"output":36
				},
				{
					"input":11,
					"interpolation":"LINEAR",
					"output":37
				},
				{
					"input":7,
					"interpolation":"LINEAR",
					"output":38
				},
				{
					"input":11,
					"interpolation":"LINEAR",
					"output":39
				},
				{
					"input":11,
					"interpolation":"LINEAR",
					"output":40
				},
				{
					"input":7,
					"interpolation":"STEP",
					"output":41
				},
				{
					"input":11,
					"interpolation":"LINEAR",
					"output":42
				},
				{
					"input":11,
					"interpolation":"LINEAR",
					"output":43
				},
				{
					"input":7,
					"interpolation":"LINEAR",
					"output":44
				}
			]
		},
		{
			"channels":[
				{
					"sampler":0,
					"target":{
						"node":11,
						"path":"translation"
					}
				},
				{
					"sampler":1,
					"target":{
						"node":11,
						"path":"rotation"
					}
				},
				{
					"sampler":2,
					"target":{
						"node":11,
						"path":"scale"
					}
				},
				{
					"sampler":3,
					"target":{
						"node":10,
						"path":"translation"
					}
				},
				{
					"sampler":4,
					"target":{
						"node":10,
						"path":"rotation"
					}
				},
				{
					"sampler":5,
					"target":{
						"node":10,
						"path":"scale"
					}
				},
				{
					"sampler":6,
					"target":{
						"node":7,
						"path":"translation"
					}
				},
				{
					"sampler":7,
					"target":{
						"node":7,
						"path":"rotation"
					}
				},
				{
					"sampler":8,
					"target":{
						"node":7,
						"path":"scale"
					}
				},
				{
					"sampler":9,
					"target":{
						"node":0,
						"path":"translation"
					}
				},
				{
					"sampler":10,
					"target":{
						"node":0,
						"path":"rotation"
					}
				},
				{
					"sampler":11,
					"target":{
						"node":0,
						"path":"scale"
					}
				},
				{
					"sampler":12,
					"target":{
						"node":3,
						"path":"translation"
					}
				},
				{
					"sampler":13,
					"target":{
						"node":3,
						"path":"rotation"
					}
				},
				{
					"sampler":14,
					"target":{
						"node":3,
						"path":"scale"
					}
				},
				{
					"sampler":15,
					"target":{
						"node":2,
						"path":"translation"
					}
				},
				{
					"sampler":16,
					"target":{
						"node":2,
						"path":"rotation"
					}
				},
				{
					"sampler":17,
					"target":{
						"node":2,
						"path":"scale"
					}
				},
				{
					"sampler":18,
					"target":{
						"node":1,
						"path":"translation"
					}
				},
				{
					"sampler":19,
					"target":{
						"node":1,
						"path":"rotation"
					}
				},
				{
					"sampler":20,
					"target":{
						"node":1,
						"path":"scale"
					}
				},
				{
					"sampler":21,
					"target":{
						"node":6,
						"path":"translation"
					}
				},
				{
					"sampler":22,
					"target":{
						"node":6,
						"path":"rotation"
					}
				},
				{
					"sampler":23,
					"target":{
						"node":6,
						"path":"scale"
					}
				},
				{
					"sampler":24,
					"target":{
						"node":5,
						"path":"translation"
					}
				},
				{
					"sampler":25,
					"target":{
						"node":5,
						"path":"rotation"
					}
				},
				{
					"sampler":26,
					"target":{
						"node":5,
						"path":"scale"
					}
				},
				{
					"sampler":27,
					"target":{
						"node":4,
						"path":"translation"
					}
				},
				{
					"sampler":28,
					"target":{
						"node":4,
						"path":"rotation"
					}
				},
				{
					"sampler":29,
					"target":{
						"node":4,
						"path":"scale"
					}
				},
				{
					"sampler":30,
					"target":{
						"node":9,
						"path":"translation"
					}
				},
				{
					"sampler":31,
					"target":{
						"node":9,
						"path":"rotation"
					}
				},
				{
					"sampler":32,
					"target":{
						"node":9,
						"path":"scale"
					}
				},
				{
					"sampler":33,
					"target":{
						"node":8,
						"path":"translation"
					}
				},
				{
					"sampler":34,
					"target":{
						"node":8,
						"path":"rotation"
					}
				},
				{
					"sampler":35,
					"target":{
						"node":8,
						"path":"scale"
					}
				}
			],
			"name":"Die",
			"samplers":[
				{
					"input":45,
					"interpolation":"STEP",
					"output":8
				},
				{
					"input":45,
					"interpolation":"STEP",
					"output":9
				},
				{
					"input":45,
					"interpolation":"STEP",
					"output":10
				},
				{
					"input":46,
					"interpolation":"LINEAR",
					"output":47
				},
				{
					"input":46,
					"interpolation":"LINEAR",
					"output":48
				},
				{
					"input":45,
					"interpolation":"LINEAR",
					"output":49
				},
				{
					"input":45,
					"interpolation":"LINEAR",
					"output":50
				},
				{
					"input":46,
					"interpolation":"LINEAR",
					"output":51
				},
				{
					"input":45,
					"interpolation":"STEP",
					"output":52
				},
				{
					"input":46,
					"interpolation":"LINEAR",
					"output":53
				},
				{
					"input":46,
					"interpolation":"LINEAR",
					"output":54
				},
				{
					"input":45,
					"interpolation":"LINEAR",
					"output":55
				},
				{
					"input":45,
					"interpolation":"LINEAR",
					"output":56
				},
				{
					"input":46,
					"interpolation":"LINEAR",
					"output":57
				},
				{
					"input":45,
					"interpolation":"LINEAR",
					"output":58
				},
				{
					"input":45,
					"interpolation":"LINEAR",
					"output":59
				},
				{
					"input":46,
					"interpolation":"LINEAR",
					"output":60
				},
				{
					"input":45,
					"interpolation":"LINEAR",
					"output":61
				},
				{
					"input":45,
					"interpolation":"LINEAR",
					"output":62
				},
				{
					"input":46,
					"interpolation":"LINEAR",
					"output":63
				},
				{
					"input":45,
					"interpolation":"STEP",
					"output":64
				},
				{
					"input":45,
					"interpolation":"LINEAR",
					"output":65
				},
				{
					"input":46,
					"interpolation":"LINEAR",
					"output":66
				},
				{
					"input":45,
					"interpolation":"STEP",
					"output":67
				},
				{
					"input":45,
					"interpolation":"LINEAR",
					"output":68
				},
				{
					"input":46,
					"interpolation":"LINEAR",
					"output":69
				},
				{
					"input":45,
					"interpolation":"LINEAR",
					"output":70
				},
				{
					"input":45,
					"interpolation":"LINEAR",
					"output":71
				},
				{
					"input":46,
					"interpolation":"LINEAR",
					"output":72
				},
				{
					"input":45,
					"interpolation":"LINEAR",
					"output":73
				},
				{
					"input":46,
					"interpolation":"LINEAR",
					"output":74
				},
				{
					"input":46,
					"interpolation":"LINEAR",
					"output":75
				},
				{
					"input":45,
					"interpolation":"LINEAR",
					"output":76
				},
				{
					"input":46,
					"interpolation":"LINEAR",
					"output":77
				},
				{
					"input":46,
					"interpolation":"LINEAR",
					"output":78
				},
				{
					"input":45,
					"interpolation":"LINEAR",
					"output":79
				}
			]
		},
		{
			"channels":[
				{
					"sampler":0,
					"target":{
						"node":11,
						"path":"translation"
					}
				},
				{
					"sampler":1,
					"target":{
						"node":11,
						"path":"rotation"
					}
				},
				{
					"sampler":2,
					"target":{
						"node":11,
						"path":"scale"
					}
				},
				{
					"sampler":3,
					"target":{
						"node":10,
						"path":"translation"
					}
				},
				{
					"sampler":4,
					"target":{
						"node":10,
						"path":"rotation"
					}
				},
				{
					"sampler":5,
					"target":{
						"node":10,
						"path":"scale"
					}
				},
				{
					"sampler":6,
					"target":{
						"node":7,
						"path":"translation"
					}
				},
				{
					"sampler":7,
					"target":{
						"node":7,
						"path":"rotation"
					}
				},
				{
					"sampler":8,
					"target":{
						"node":7,
						"path":"scale"
					}
				},
				{
					"sampler":9,
					"target":{
						"node":0,
						"path":"translation"
					}
				},
				{
					"sampler":10,
					"target":{
						"node":0,
						"path":"rotation"
					}
				},
				{
					"sampler":11,
					"target":{
						"node":0,
						"path":"scale"
					}
				},
				{
					"sampler":12,
					"target":{
						"node":3,
						"path":"translation"
					}
				},
				{
					"sampler":13,
					"target":{
						"node":3,
						"path":"rotation"
					}
				},
				{
					"sampler":14,
					"target":{
						"node":3,
						"path":"scale"
					}
				},
				{
					"sampler":15,
					"target":{
						"node":2,
						"path":"translation"
					}
				},
				{
					"sampler":16,
					"target":{
						"node":2,
						"path":"rotation"
					}
				},
				{
					"sampler":17,
					"target":{
						"node":2,
						"path":"scale"
					}
				},
				{
					"sampler":18,
					"target":{
						"node":1,
						"path":"translation"
					}
				},
				{
					"sampler":19,
					"target":{
						"node":1,
						"path":"rotation"
					}
				},
				{
					"sampler":20,
					"target":{
						"node":1,
						"path":"scale"
					}
				},
				{
					"sampler":21,
					"target":{
						"node":6,
						"path":"translation"
					}
				},
				{
					"sampler":22,
					"target":{
						"node":6,
						"path":"rotation"
					}
				},
				{
					"sampler":23,
					"target":{
						"node":6,
						"path":"scale"
					}
				},
				{
					"sampler":24,
					"target":{
						"node":5,
						"path":"translation"
					}
				},
				{
					"sampler":25,
					"target":{
						"node":5,
						"path":"rotation"
					}
				},
				{
					"sampler":26,
					"target":{
						"node":5,
						"path":"scale"
					}
				},
				{
					"sampler":27,
					"target":{
						"node":4,
						"path":"translation"
					}
				},
				{
					"sampler":28,
					"target":{
						"node":4,
						"path":"rotation"
					}
				},
				{
					"sampler":29,
					"target":{
						"node":4,
						"path":"scale"
					}
				},
				{
					"sampler":30,
					"target":{
						"node":9,
						"path":"translation"
					}
				},
				{
					"sampler":31,
					"target":{
						"node":9,
						"path":"rotation"
					}
				},
				{
					"sampler":32,
					"target":{
						"node":9,
						"path":"scale"
					}
				},
				{
					"sampler":33,
					"target":{
						"node":8,
						"path":"translation"
					}
				},
				{
					"sampler":34,
					"target":{
						"node":8,
						"path":"rotation"
					}
				},
				{
					"sampler":35,
					"target":{
						"node":8,
						"path":"scale"
					}
				}
			],
			"name":"GetHit",
			"samplers":[
				{
					"input":80,
					"interpolation":"STEP",
					"output":8
				},
				{
					"input":80,
					"interpolation":"STEP",
					"output":9
				},
				{
					"input":80,
					"interpolation":"STEP",
					"output":10
				},
				{
					"input":81,
					"interpolation":"LINEAR",
					"output":82
				},
				{
					"input":81,
					"interpolation":"LINEAR",
					"output":83
				},
				{
					"input":80,
					"interpolation":"STEP",
					"output":84
				},
				{
					"input":80,
					"interpolation":"LINEAR",
					"output":85
				},
				{
					"input":81,
					"interpolation":"LINEAR",
					"output":86
				},
				{
					"input":80,
					"interpolation":"LINEAR",
					"output":87
				},
				{
					"input":81,
					"interpolation":"LINEAR",
					"output":88
				},
				{
					"input":81,
					"interpolation":"LINEAR",
					"output":89
				},
				{
					"input":80,
					"interpolation":"LINEAR",
					"output":90
				},
				{
					"input":80,
					"interpolation":"LINEAR",
					"output":91
				},
				{
					"input":81,
					"interpolation":"LINEAR",
					"output":92
				},
				{
					"input":80,
					"interpolation":"LINEAR",
					"output":93
				},
				{
					"input":80,
					"interpolation":"LINEAR",
					"output":94
				},
				{
					"input":81,
					"interpolation":"LINEAR",
					"output":95
				},
				{
					"input":80,
					"interpolation":"LINEAR",
					"output":96
				},
				{
					"input":80,
					"interpolation":"LINEAR",
					"output":97
				},
				{
					"input":81,
					"interpolation":"LINEAR",
					"output":98
				},
				{
					"input":80,
					"interpolation":"LINEAR",
					"output":99
				},
				{
					"input":80,
					"interpolation":"LINEAR",
					"output":100
				},
				{
					"input":81,
					"interpolation":"LINEAR",
					"output":101
				},
				{
					"input":80,
					"interpolation":"LINEAR",
					"output":102
				},
				{
					"input":80,
					"interpolation":"LINEAR",
					"output":103
				},
				{
					"input":81,
					"interpolation":"LINEAR",
					"output":104
				},
				{
					"input":80,
					"interpolation":"STEP",
					"output":105
				},
				{
					"input":80,
					"interpolation":"LINEAR",
					"output":106
				},
				{
					"input":81,
					"interpolation":"LINEAR",
					"output":107
				},
				{
					"input":80,
					"interpolation":"LINEAR",
					"output":108
				},
				{
					"input":81,
					"interpolation":"LINEAR",
					"output":109
				},
				{
					"input":81,
					"interpolation":"LINEAR",
					"output":110
				},
				{
					"input":80,
					"interpolation":"LINEAR",
					"output":111
				},
				{
					"input":81,
					"interpolation":"LINEAR",
					"output":112
				},
				{
					"input":81,
					"interpolation":"LINEAR",
					"output":113
				},
				{
					"input":80,
					"interpolation":"LINEAR",
					"output":114
				}
			]
		},
		{
			"channels":[
				{
					"sampler":0,
					"target":{
						"node":11,
						"path":"translation"
					}
				},
				{
					"sampler":1,
					"target":{
						"node":11,
						"path":"rotation"
					}
				},
				{
					"sampler":2,
					"target":{
						"node":11,
						"path":"scale"
					}
				},
				{
					"sampler":3,
					"target":{
						"node":10,
						"path":"translation"
					}
				},
				{
					"sampler":4,
					"target":{
						"node":10,
						"path":"rotation"
					}
				},
				{
					"sampler":5,
					"target":{
						"node":10,
						"path":"scale"
					}
				},
				{
					"sampler":6,
					"target":{
						"node":7,
						"path":"translation"
					}
				},
				{
					"sampler":7,
					"target":{
						"node":7,
						"path":"rotation"
					}
				},
				{
					"sampler":8,
					"target":{
						"node":7,
						"path":"scale"
					}
				},
				{
					"sampler":9,
					"target":{
						"node":0,
						"path":"translation"
					}
				},
				{
					"sampler":10,
					"target":{
						"node":0,
						"path":"rotation"
					}
				},
				{
					"sampler":11,
					"target":{
						"node":0,
						"path":"scale"
					}
				},
				{
					"sampler":12,
					"target":{
						"node":3,
						"path":"translation"
					}
				},
				{
					"sampler":13,
					"target":{
						"node":3,
						"path":"rotation"
					}
				},
				{
					"sampler":14,
					"target":{
						"node":3,
						"path":"scale"
					}
				},
				{
					"sampler":15,
					"target":{
						"node":2,
						"path":"translation"
					}
				},
				{
					"sampler":16,
					"target":{
						"node":2,
						"path":"rotation"
					}
				},
				{
					"sampler":17,
					"target":{
						"node":2,
						"path":"scale"
					}
				},
				{
					"sampler":18,
					"target":{
						"node":1,
						"path":"translation"
					}
				},
				{
					"sampler":19,
					"target":{
						"node":1,
						"path":"rotation"
					}
				},
				{
					"sampler":20,
					"target":{
						"node":1,
						"path":"scale"
					}
				},
				{
					"sampler":21,
					"target":{
						"node":6,
						"path":"translation"
					}
				},
				{
					"sampler":22,
					"target":{
						"node":6,
						"path":"rotation"
					}
				},
				{
					"sampler":23,
					"target":{
						"node":6,
						"path":"scale"
					}
				},
				{
					"sampler":24,
					"target":{
						"node":5,
						"path":"translation"
					}
				},
				{
					"sampler":25,
					"target":{
						"node":5,
						"path":"rotation"
					}
				},
				{
					"sampler":26,
					"target":{
						"node":5,
						"path":"scale"
					}
				},
				{
					"sampler":27,
					"target":{
						"node":4,
						"path":"translation"
					}
				},
				{
					"sampler":28,
					"target":{
						"node":4,
						"path":"rotation"
					}
				},
				{
					"sampler":29,
					"target":{
						"node":4,
						"path":"scale"
					}
				},
				{
					"sampler":30,
					"target":{
						"node":9,
						"path":"translation"
					}
				},
				{
					"sampler":31,
					"target":{
						"node":9,
						"path":"rotation"
					}
				},
				{
					"sampler":32,
					"target":{
						"node":9,
						"path":"scale"
					}
				},
				{
					"sampler":33,
					"target":{
						"node":8,
						"path":"translation"
					}
				},
				{
					"sampler":34,
					"target":{
						"node":8,
						"path":"rotation"
					}
				},
				{
					"sampler":35,
					"target":{
						"node":8,
						"path":"scale"
					}
				}
			],
			"name":"Idle",
			"samplers":[
				{
					"input":115,
					"interpolation":"STEP",
					"output":8
				},
				{
					"input":115,
					"interpolation":"STEP",
					"output":9
				},
				{
					"input":115,
					"interpolation":"STEP",
					"output":10
				},
				{
					"input":116,
					"interpolation":"LINEAR",
					"output":117
				},
				{
					"input":116,
					"interpolation":"LINEAR",
					"output":118
				},
				{
					"input":115,
					"interpolation":"STEP",
					"output":119
				},
				{
					"input":116,
					"interpolation":"LINEAR",
					"output":120
				},
				{
					"input":116,
					"interpolation":"LINEAR",
					"output":121
				},
				{
					"input":115,
					"interpolation":"STEP",
					"output":122
				},
				{
					"input":115,
					"interpolation":"STEP",
					"output":123
				},
				{
					"input":116,
					"interpolation":"LINEAR",
					"output":124
				},
				{
					"input":115,
					"interpolation":"STEP",
					"output":125
				},
				{
					"input":115,
					"interpolation":"STEP",
					"output":126
				},
				{
					"input":116,
					"interpolation":"LINEAR",
					"output":127
				},
				{
					"input":115,
					"interpolation":"STEP",
					"output":128
				},
				{
					"input":116,
					"interpolation":"LINEAR",
					"output":129
				},
				{
					"input":116,
					"interpolation":"LINEAR",
					"output":130
				},
				{
					"input":115,
					"interpolation":"STEP",
					"output":131
				},
				{
					"input":116,
					"interpolation":"LINEAR",
					"output":132
				},
				{
					"input":116,
					"interpolation":"LINEAR",
					"output":133
				},
				{
					"input":115,
					"interpolation":"STEP",
					"output":134
				},
				{
					"input":115,
					"interpolation":"STEP",
					"output":135
				},
				{
					"input":116,
					"interpolation":"LINEAR",
					"output":136
				},
				{
					"input":115,
					"interpolation":"STEP",
					"output":137
				},
				{
					"input":116,
					"interpolation":"LINEAR",
					"output":138
				},
				{
					"input":116,
					"interpolation":"LINEAR",
					"output":139
				},
				{
					"input":115,
					"interpolation":"STEP",
					"output":140
				},
				{
					"input":116,
					"interpolation":"LINEAR",
					"output":141
				},
				{
					"input":116,
					"interpolation":"LINEAR",
					"output":142
				},
				{
					"input":115,
					"interpolation":"STEP",
					"output":143
				},
				{
					"input":116,
					"interpolation":"LINEAR",
					"output":144
				},
				{
					"input":116,
					"interpolation":"LINEAR",
					"output":145
				},
				{
					"input":115,
					"interpolation":"STEP",
					"output":146
				},
				{
					"input":116,
					"interpolation":"LINEAR",
					"output":147
				},
				{
					"input":116,
					"interpolation":"LINEAR",
					"output":148
				},
				{
					"input":115,
					"interpolation":"STEP",
					"output":149
				}
			]
		},
		{
			"channels":[
				{
					"sampler":0,
					"target":{
						"node":11,
						"path":"translation"
					}
				},
				{
					"sampler":1,
					"target":{
						"node":11,
						"path":"rotation"
					}
				},
				{
					"sampler":2,
					"target":{
						"node":11,
						"path":"scale"
					}
				},
				{
					"sampler":3,
					"target":{
						"node":10,
						"path":"translation"
					}
				},
				{
					"sampler":4,
					"target":{
						"node":10,
						"path":"rotation"
					}
				},
				{
					"sampler":5,
					"target":{
						"node":10,
						"path":"scale"
					}
				},
				{
					"sampler":6,
					"target":{
						"node":7,
						"path":"translation"
					}
				},
				{
					"sampler":7,
					"target":{
						"node":7,
						"path":"rotation"
					}
				},
				{
					"sampler":8,
					"target":{
						"node":7,
						"path":"scale"
					}
				},
				{
					"sampler":9,
					"target":{
						"node":0,
						"path":"translation"
					}
				},
				{
					"sampler":10,
					"target":{
						"node":0,
						"path":"rotation"
					}
				},
				{
					"sampler":11,
					"target":{
						"node":0,
						"path":"scale"
					}
				},
				{
					"sampler":12,
					"target":{
						"node":3,
						"path":"translation"
					}
				},
				{
					"sampler":13,
					"target":{
						"node":3,
						"path":"rotation"
					}
				},
				{
					"sampler":14,
					"target":{
						"node":3,
						"path":"scale"
					}
				},
				{
					"sampler":15,
					"target":{
						"node":2,
						"path":"translation"
					}
				},
				{
					"sampler":16,
					"target":{
						"node":2,
						"path":"rotation"
					}
				},
				{
					"sampler":17,
					"target":{
						"node":2,
						"path":"scale"
					}
				},
				{
					"sampler":18,
					"target":{
						"node":1,
						"path":"translation"
					}
				},
				{
					"sampler":19,
					"target":{
						"node":1,
						"path":"rotation"
					}
				},
				{
					"sampler":20,
					"target":{
						"node":1,
						"path":"scale"
					}
				},
				{
					"sampler":21,
					"target":{
						"node":6,
						"path":"translation"
					}
				},
				{
					"sampler":22,
					"target":{
						"node":6,
						"path":"rotation"
					}
				},
				{
					"sampler":23,
					"target":{
						"node":6,
						"path":"scale"
					}
				},
				{
					"sampler":24,
					"target":{
						"node":5,
						"path":"translation"
					}
				},
				{
					"sampler":25,
					"target":{
						"node":5,
						"path":"rotation"
					}
				},
				{
					"sampler":26,
					"target":{
						"node":5,
						"path":"scale"
					}
				},
				{
					"sampler":27,
					"target":{
						"node":4,
						"path":"translation"
					}
				},
				{
					"sampler":28,
					"target":{
						"node":4,
						"path":"rotation"
					}
				},
				{
					"sampler":29,
					"target":{
						"node":4,
						"path":"scale"
					}
				},
				{
					"sampler":30,
					"target":{
						"node":9,
						"path":"translation"
					}
				},
				{
					"sampler":31,
					"target":{
						"node":9,
						"path":"rotation"
					}
				},
				{
					"sampler":32,
					"target":{
						"node":9,
						"path":"scale"
					}
				},
				{
					"sampler":33,
					"target":{
						"node":8,
						"path":"translation"
					}
				},
				{
					"sampler":34,
					"target":{
						"node":8,
						"path":"rotation"
					}
				},
				{
					"sampler":35,
					"target":{
						"node":8,
						"path":"scale"
					}
				}
			],
			"name":"MoveBWD",
			"samplers":[
				{
					"input":115,
					"interpolation":"STEP",
					"output":8
				},
				{
					"input":115,
					"interpolation":"STEP",
					"output":9
				},
				{
					"input":115,
					"interpolation":"STEP",
					"output":10
				},
				{
					"input":116,
					"interpolation":"LINEAR",
					"output":150
				},
				{
					"input":116,
					"interpolation":"LINEAR",
					"output":151
				},
				{
					"input":115,
					"interpolation":"STEP",
					"output":152
				},
				{
					"input":116,
					"interpolation":"LINEAR",
					"output":153
				},
				{
					"input":116,
					"interpolation":"LINEAR",
					"output":154
				},
				{
					"input":115,
					"interpolation":"STEP",
					"output":119
				},
				{
					"input":116,
					"interpolation":"LINEAR",
					"output":155
				},
				{
					"input":116,
					"interpolation":"LINEAR",
					"output":156
				},
				{
					"input":115,
					"interpolation":"STEP",
					"output":157
				},
				{
					"input":115,
					"interpolation":"STEP",
					"output":158
				},
				{
					"input":116,
					"interpolation":"LINEAR",
					"output":159
				},
				{
					"input":115,
					"interpolation":"STEP",
					"output":160
				},
				{
					"input":116,
					"interpolation":"LINEAR",
					"output":161
				},
				{
					"input":116,
					"interpolation":"LINEAR",
					"output":162
				},
				{
					"input":115,
					"interpolation":"STEP",
					"output":163
				},
				{
					"input":116,
					"interpolation":"LINEAR",
					"output":164
				},
				{
					"input":116,
					"interpolation":"LINEAR",
					"output":165
				},
				{
					"input":115,
					"interpolation":"STEP",
					"output":166
				},
				{
					"input":115,
					"interpolation":"STEP",
					"output":167
				},
				{
					"input":116,
					"interpolation":"LINEAR",
					"output":168
				},
				{
					"input":115,
					"interpolation":"STEP",
					"output":146
				},
				{
					"input":116,
					"interpolation":"LINEAR",
					"output":169
				},
				{
					"input":116,
					"interpolation":"LINEAR",
					"output":170
				},
				{
					"input":115,
					"interpolation":"STEP",
					"output":171
				},
				{
					"input":116,
					"interpolation":"LINEAR",
					"output":172
				},
				{
					"input":116,
					"interpolation":"LINEAR",
					"output":173
				},
				{
					"input":115,
					"interpolation":"STEP",
					"output":174
				},
				{
					"input":116,
					"interpolation":"LINEAR",
					"output":175
				},
				{
					"input":116,
					"interpolation":"LINEAR",
					"output":176
				},
				{
					"input":115,
					"interpolation":"STEP",
					"output":177
				},
				{
					"input":116,
					"interpolation":"LINEAR",
					"output":178
				},
				{
					"input":116,
					"interpolation":"LINEAR",
					"output":179
				},
				{
					"input":115,
					"interpolation":"STEP",
					"output":180
				}
			]
		},
		{
			"channels":[
				{
					"sampler":0,
					"target":{
						"node":11,
						"path":"translation"
					}
				},
				{
					"sampler":1,
					"target":{
						"node":11,
						"path":"rotation"
					}
				},
				{
					"sampler":2,
					"target":{
						"node":11,
						"path":"scale"
					}
				},
				{
					"sampler":3,
					"target":{
						"node":10,
						"path":"translation"
					}
				},
				{
					"sampler":4,
					"target":{
						"node":10,
						"path":"rotation"
					}
				},
				{
					"sampler":5,
					"target":{
						"node":10,
						"path":"scale"
					}
				},
				{
					"sampler":6,
					"target":{
						"node":7,
						"path":"translation"
					}
				},
				{
					"sampler":7,
					"target":{
						"node":7,
						"path":"rotation"
					}
				},
				{
					"sampler":8,
					"target":{
						"node":7,
						"path":"scale"
					}
				},
				{
					"sampler":9,
					"target":{
						"node":0,
						"path":"translation"
					}
				},
				{
					"sampler":10,
					"target":{
						"node":0,
						"path":"rotation"
					}
				},
				{
					"sampler":11,
					"target":{
						"node":0,
						"path":"scale"
					}
				},
				{
					"sampler":12,
					"target":{
						"node":3,
						"path":"translation"
					}
				},
				{
					"sampler":13,
					"target":{
						"node":3,
						"path":"rotation"
					}
				},
				{
					"sampler":14,
					"target":{
						"node":3,
						"path":"scale"
					}
				},
				{
					"sampler":15,
					"target":{
						"node":2,
						"path":"translation"
					}
				},
				{
					"sampler":16,
					"target":{
						"node":2,
						"path":"rotation"
					}
				},
				{
					"sampler":17,
					"target":{
						"node":2,
						"path":"scale"
					}
				},
				{
					"sampler":18,
					"target":{
						"node":1,
						"path":"translation"
					}
				},
				{
					"sampler":19,
					"target":{
						"node":1,
						"path":"rotation"
					}
				},
				{
					"sampler":20,
					"target":{
						"node":1,
						"path":"scale"
					}
				},
				{
					"sampler":21,
					"target":{
						"node":6,
						"path":"translation"
					}
				},
				{
					"sampler":22,
					"target":{
						"node":6,
						"path":"rotation"
					}
				},
				{
					"sampler":23,
					"target":{
						"node":6,
						"path":"scale"
					}
				},
				{
					"sampler":24,
					"target":{
						"node":5,
						"path":"translation"
					}
				},
				{
					"sampler":25,
					"target":{
						"node":5,
						"path":"rotation"
					}
				},
				{
					"sampler":26,
					"target":{
						"node":5,
						"path":"scale"
					}
				},
				{
					"sampler":27,
					"target":{
						"node":4,
						"path":"translation"
					}
				},
				{
					"sampler":28,
					"target":{
						"node":4,
						"path":"rotation"
					}
				},
				{
					"sampler":29,
					"target":{
						"node":4,
						"path":"scale"
					}
				},
				{
					"sampler":30,
					"target":{
						"node":9,
						"path":"translation"
					}
				},
				{
					"sampler":31,
					"target":{
						"node":9,
						"path":"rotation"
					}
				},
				{
					"sampler":32,
					"target":{
						"node":9,
						"path":"scale"
					}
				},
				{
					"sampler":33,
					"target":{
						"node":8,
						"path":"translation"
					}
				},
				{
					"sampler":34,
					"target":{
						"node":8,
						"path":"rotation"
					}
				},
				{
					"sampler":35,
					"target":{
						"node":8,
						"path":"scale"
					}
				}
			],
			"name":"MoveFWD",
			"samplers":[
				{
					"input":115,
					"interpolation":"STEP",
					"output":8
				},
				{
					"input":115,
					"interpolation":"STEP",
					"output":9
				},
				{
					"input":115,
					"interpolation":"STEP",
					"output":10
				},
				{
					"input":116,
					"interpolation":"LINEAR",
					"output":181
				},
				{
					"input":116,
					"interpolation":"LINEAR",
					"output":182
				},
				{
					"input":115,
					"interpolation":"STEP",
					"output":174
				},
				{
					"input":116,
					"interpolation":"LINEAR",
					"output":183
				},
				{
					"input":116,
					"interpolation":"LINEAR",
					"output":184
				},
				{
					"input":115,
					"interpolation":"STEP",
					"output":185
				},
				{
					"input":116,
					"interpolation":"LINEAR",
					"output":186
				},
				{
					"input":116,
					"interpolation":"LINEAR",
					"output":187
				},
				{
					"input":115,
					"interpolation":"STEP",
					"output":188
				},
				{
					"input":115,
					"interpolation":"STEP",
					"output":189
				},
				{
					"input":116,
					"interpolation":"LINEAR",
					"output":190
				},
				{
					"input":115,
					"interpolation":"STEP",
					"output":191
				},
				{
					"input":116,
					"interpolation":"LINEAR",
					"output":192
				},
				{
					"input":116,
					"interpolation":"LINEAR",
					"output":193
				},
				{
					"input":115,
					"interpolation":"STEP",
					"output":194
				},
				{
					"input":116,
					"interpolation":"LINEAR",
					"output":195
				},
				{
					"input":116,
					"interpolation":"LINEAR",
					"output":196
				},
				{
					"input":115,
					"interpolation":"STEP",
					"output":197
				},
				{
					"input":115,
					"interpolation":"STEP",
					"output":198
				},
				{
					"input":116,
					"interpolation":"LINEAR",
					"output":199
				},
				{
					"input":115,
					"interpolation":"STEP",
					"output":200
				},
				{
					"input":116,
					"interpolation":"LINEAR",
					"output":201
				},
				{
					"input":116,
					"interpolation":"LINEAR",
					"output":202
				},
				{
					"input":115,
					"interpolation":"STEP",
					"output":203
				},
				{
					"input":116,
					"interpolation":"LINEAR",
					"output":204
				},
				{
					"input":116,
					"interpolation":"LINEAR",
					"output":205
				},
				{
					"input":115,
					"interpolation":"STEP",
					"output":206
				},
				{
					"input":116,
					"interpolation":"LINEAR",
					"output":207
				},
				{
					"input":116,
					"interpolation":"LINEAR",
					"output":208
				},
				{
					"input":115,
					"interpolation":"STEP",
					"output":209
				},
				{
					"input":116,
					"interpolation":"LINEAR",
					"output":210
				},
				{
					"input":116,
					"interpolation":"LINEAR",
					"output":211
				},
				{
					"input":115,
					"interpolation":"STEP",
					"output":212
				}
			]
		},
		{
			"channels":[
				{
					"sampler":0,
					"target":{
						"node":11,
						"path":"translation"
					}
				},
				{
					"sampler":1,
					"target":{
						"node":11,
						"path":"rotation"
					}
				},
				{
					"sampler":2,
					"target":{
						"node":11,
						"path":"scale"
					}
				},
				{
					"sampler":3,
					"target":{
						"node":10,
						"path":"translation"
					}
				},
				{
					"sampler":4,
					"target":{
						"node":10,
						"path":"rotation"
					}
				},
				{
					"sampler":5,
					"target":{
						"node":10,
						"path":"scale"
					}
				},
				{
					"sampler":6,
					"target":{
						"node":7,
						"path":"translation"
					}
				},
				{
					"sampler":7,
					"target":{
						"node":7,
						"path":"rotation"
					}
				},
				{
					"sampler":8,
					"target":{
						"node":7,
						"path":"scale"
					}
				},
				{
					"sampler":9,
					"target":{
						"node":0,
						"path":"translation"
					}
				},
				{
					"sampler":10,
					"target":{
						"node":0,
						"path":"rotation"
					}
				},
				{
					"sampler":11,
					"target":{
						"node":0,
						"path":"scale"
					}
				},
				{
					"sampler":12,
					"target":{
						"node":3,
						"path":"translation"
					}
				},
				{
					"sampler":13,
					"target":{
						"node":3,
						"path":"rotation"
					}
				},
				{
					"sampler":14,
					"target":{
						"node":3,
						"path":"scale"
					}
				},
				{
					"sampler":15,
					"target":{
						"node":2,
						"path":"translation"
					}
				},
				{
					"sampler":16,
					"target":{
						"node":2,
						"path":"rotation"
					}
				},
				{
					"sampler":17,
					"target":{
						"node":2,
						"path":"scale"
					}
				},
				{
					"sampler":18,
					"target":{
						"node":1,
						"path":"translation"
					}
				},
				{
					"sampler":19,
					"target":{
						"node":1,
						"path":"rotation"
					}
				},
				{
					"sampler":20,
					"target":{
						"node":1,
						"path":"scale"
					}
				},
				{
					"sampler":21,
					"target":{
						"node":6,
						"path":"translation"
					}
				},
				{
					"sampler":22,
					"target":{
						"node":6,
						"path":"rotation"
					}
				},
				{
					"sampler":23,
					"target":{
						"node":6,
						"path":"scale"
					}
				},
				{
					"sampler":24,
					"target":{
						"node":5,
						"path":"translation"
					}
				},
				{
					"sampler":25,
					"target":{
						"node":5,
						"path":"rotation"
					}
				},
				{
					"sampler":26,
					"target":{
						"node":5,
						"path":"scale"
					}
				},
				{
					"sampler":27,
					"target":{
						"node":4,
						"path":"translation"
					}
				},
				{
					"sampler":28,
					"target":{
						"node":4,
						"path":"rotation"
					}
				},
				{
					"sampler":29,
					"target":{
						"node":4,
						"path":"scale"
					}
				},
				{
					"sampler":30,
					"target":{
						"node":9,
						"path":"translation"
					}
				},
				{
					"sampler":31,
					"target":{
						"node":9,
						"path":"rotation"
					}
				},
				{
					"sampler":32,
					"target":{
						"node":9,
						"path":"scale"
					}
				},
				{
					"sampler":33,
					"target":{
						"node":8,
						"path":"translation"
					}
				},
				{
					"sampler":34,
					"target":{
						"node":8,
						"path":"rotation"
					}
				},
				{
					"sampler":35,
					"target":{
						"node":8,
						"path":"scale"
					}
				}
			],
			"name":"MoveLFT",
			"samplers":[
				{
					"input":115,
					"interpolation":"STEP",
					"output":8
				},
				{
					"input":115,
					"interpolation":"STEP",
					"output":9
				},
				{
					"input":115,
					"interpolation":"STEP",
					"output":10
				},
				{
					"input":116,
					"interpolation":"LINEAR",
					"output":213
				},
				{
					"input":116,
					"interpolation":"LINEAR",
					"output":214
				},
				{
					"input":115,
					"interpolation":"STEP",
					"output":140
				},
				{
					"input":116,
					"interpolation":"LINEAR",
					"output":215
				},
				{
					"input":116,
					"interpolation":"LINEAR",
					"output":216
				},
				{
					"input":115,
					"interpolation":"STEP",
					"output":217
				},
				{
					"input":116,
					"interpolation":"LINEAR",
					"output":218
				},
				{
					"input":116,
					"interpolation":"LINEAR",
					"output":219
				},
				{
					"input":115,
					"interpolation":"STEP",
					"output":220
				},
				{
					"input":115,
					"interpolation":"STEP",
					"output":221
				},
				{
					"input":116,
					"interpolation":"LINEAR",
					"output":222
				},
				{
					"input":115,
					"interpolation":"STEP",
					"output":223
				},
				{
					"input":116,
					"interpolation":"LINEAR",
					"output":224
				},
				{
					"input":116,
					"interpolation":"LINEAR",
					"output":225
				},
				{
					"input":115,
					"interpolation":"STEP",
					"output":226
				},
				{
					"input":116,
					"interpolation":"LINEAR",
					"output":227
				},
				{
					"input":116,
					"interpolation":"LINEAR",
					"output":228
				},
				{
					"input":115,
					"interpolation":"STEP",
					"output":229
				},
				{
					"input":115,
					"interpolation":"STEP",
					"output":230
				},
				{
					"input":116,
					"interpolation":"LINEAR",
					"output":231
				},
				{
					"input":115,
					"interpolation":"STEP",
					"output":232
				},
				{
					"input":116,
					"interpolation":"LINEAR",
					"output":233
				},
				{
					"input":116,
					"interpolation":"LINEAR",
					"output":234
				},
				{
					"input":115,
					"interpolation":"STEP",
					"output":235
				},
				{
					"input":116,
					"interpolation":"LINEAR",
					"output":236
				},
				{
					"input":116,
					"interpolation":"LINEAR",
					"output":237
				},
				{
					"input":115,
					"interpolation":"STEP",
					"output":238
				},
				{
					"input":116,
					"interpolation":"LINEAR",
					"output":239
				},
				{
					"input":116,
					"interpolation":"LINEAR",
					"output":240
				},
				{
					"input":115,
					"interpolation":"STEP",
					"output":241
				},
				{
					"input":116,
					"interpolation":"LINEAR",
					"output":242
				},
				{
					"input":116,
					"interpolation":"LINEAR",
					"output":243
				},
				{
					"input":115,
					"interpolation":"STEP",
					"output":244
				}
			]
		},
		{
			"channels":[
				{
					"sampler":0,
					"target":{
						"node":11,
						"path":"translation"
					}
				},
				{
					"sampler":1,
					"target":{
						"node":11,
						"path":"rotation"
					}
				},
				{
					"sampler":2,
					"target":{
						"node":11,
						"path":"scale"
					}
				},
				{
					"sampler":3,
					"target":{
						"node":10,
						"path":"translation"
					}
				},
				{
					"sampler":4,
					"target":{
						"node":10,
						"path":"rotation"
					}
				},
				{
					"sampler":5,
					"target":{
						"node":10,
						"path":"scale"
					}
				},
				{
					"sampler":6,
					"target":{
						"node":7,
						"path":"translation"
					}
				},
				{
					"sampler":7,
					"target":{
						"node":7,
						"path":"rotation"
					}
				},
				{
					"sampler":8,
					"target":{
						"node":7,
						"path":"scale"
					}
				},
				{
					"sampler":9,
					"target":{
						"node":0,
						"path":"translation"
					}
				},
				{
					"sampler":10,
					"target":{
						"node":0,
						"path":"rotation"
					}
				},
				{
					"sampler":11,
					"target":{
						"node":0,
						"path":"scale"
					}
				},
				{
					"sampler":12,
					"target":{
						"node":3,
						"path":"translation"
					}
				},
				{
					"sampler":13,
					"target":{
						"node":3,
						"path":"rotation"
					}
				},
				{
					"sampler":14,
					"target":{
						"node":3,
						"path":"scale"
					}
				},
				{
					"sampler":15,
					"target":{
						"node":2,
						"path":"translation"
					}
				},
				{
					"sampler":16,
					"target":{
						"node":2,
						"path":"rotation"
					}
				},
				{
					"sampler":17,
					"target":{
						"node":2,
						"path":"scale"
					}
				},
				{
					"sampler":18,
					"target":{
						"node":1,
						"path":"translation"
					}
				},
				{
					"sampler":19,
					"target":{
						"node":1,
						"path":"rotation"
					}
				},
				{
					"sampler":20,
					"target":{
						"node":1,
						"path":"scale"
					}
				},
				{
					"sampler":21,
					"target":{
						"node":6,
						"path":"translation"
					}
				},
				{
					"sampler":22,
					"target":{
						"node":6,
						"path":"rotation"
					}
				},
				{
					"sampler":23,
					"target":{
						"node":6,
						"path":"scale"
					}
				},
				{
					"sampler":24,
					"target":{
						"node":5,
						"path":"translation"
					}
				},
				{
					"sampler":25,
					"target":{
						"node":5,
						"path":"rotation"
					}
				},
				{
					"sampler":26,
					"target":{
						"node":5,
						"path":"scale"
					}
				},
				{
					"sampler":27,
					"target":{
						"node":4,
						"path":"translation"
					}
				},
				{
					"sampler":28,
					"target":{
						"node":4,
						"path":"rotation"
					}
				},
				{
					"sampler":29,
					"target":{
						"node":4,
						"path":"scale"
					}
				},
				{
					"sampler":30,
					"target":{
						"node":9,
						"path":"translation"
					}
				},
				{
					"sampler":31,
					"target":{
						"node":9,
						"path":"rotation"
					}
				},
				{
					"sampler":32,
					"target":{
						"node":9,
						"path":"scale"
					}
				},
				{
					"sampler":33,
					"target":{
						"node":8,
						"path":"translation"
					}
				},
				{
					"sampler":34,
					"target":{
						"node":8,
						"path":"rotation"
					}
				},
				{
					"sampler":35,
					"target":{
						"node":8,
						"path":"scale"
					}
				}
			],
			"name":"MoveRGT",
			"samplers":[
				{
					"input":115,
					"interpolation":"STEP",
					"output":8
				},
				{
					"input":115,
					"interpolation":"STEP",
					"output":9
				},
				{
					"input":115,
					"interpolation":"STEP",
					"output":10
				},
				{
					"input":116,
					"interpolation":"LINEAR",
					"output":245
				},
				{
					"input":116,
					"interpolation":"LINEAR",
					"output":246
				},
				{
					"input":115,
					"interpolation":"STEP",
					"output":134
				},
				{
					"input":116,
					"interpolation":"LINEAR",
					"output":247
				},
				{
					"input":116,
					"interpolation":"LINEAR",
					"output":248
				},
				{
					"input":115,
					"interpolation":"STEP",
					"output":249
				},
				{
					"input":116,
					"interpolation":"LINEAR",
					"output":250
				},
				{
					"input":116,
					"interpolation":"LINEAR",
					"output":251
				},
				{
					"input":115,
					"interpolation":"STEP",
					"output":252
				},
				{
					"input":115,
					"interpolation":"STEP",
					"output":253
				},
				{
					"input":116,
					"interpolation":"LINEAR",
					"output":254
				},
				{
					"input":115,
					"interpolation":"STEP",
					"output":255
				},
				{
					"input":116,
					"interpolation":"LINEAR",
					"output":256
				},
				{
					"input":116,
					"interpolation":"LINEAR",
					"output":257
				},
				{
					"input":115,
					"interpolation":"STEP",
					"output":258
				},
				{
					"input":116,
					"interpolation":"LINEAR",
					"output":259
				},
				{
					"input":116,
					"interpolation":"LINEAR",
					"output":260
				},
				{
					"input":115,
					"interpolation":"STEP",
					"output":261
				},
				{
					"input":115,
					"interpolation":"STEP",
					"output":262
				},
				{
					"input":116,
					"interpolation":"LINEAR",
					"output":263
				},
				{
					"input":115,
					"interpolation":"STEP",
					"output":264
				},
				{
					"input":116,
					"interpolation":"LINEAR",
					"output":265
				},
				{
					"input":116,
					"interpolation":"LINEAR",
					"output":266
				},
				{
					"input":115,
					"interpolation":"STEP",
					"output":140
				},
				{
					"input":116,
					"interpolation":"LINEAR",
					"output":267
				},
				{
					"input":116,
					"interpolation":"LINEAR",
					"output":268
				},
				{
					"input":115,
					"interpolation":"STEP",
					"output":140
				},
				{
					"input":116,
					"interpolation":"LINEAR",
					"output":269
				},
				{
					"input":116,
					"interpolation":"LINEAR",
					"output":270
				},
				{
					"input":115,
					"interpolation":"STEP",
					"output":271
				},
				{
					"input":116,
					"interpolation":"LINEAR",
					"output":272
				},
				{
					"input":116,
					"interpolation":"LINEAR",
					"output":273
				},
				{
					"input":115,
					"interpolation":"STEP",
					"output":274
				}
			]
		}
	],
	"materials":[
		{
			"name":"PBR_Default",
			"pbrMetallicRoughness":{
				"baseColorTexture":{
					"index":0
				},
				"metallicRoughnessTexture":{
					"index":1
				}
			}
		}
	],
	"meshes":[
		{
			"name":"Swarm09",
			"primitives":[
				{
					"attributes":{
						"POSITION":0,
						"NORMAL":1,
						"TEXCOORD_0":2,
						"JOINTS_0":3,
						"WEIGHTS_0":4
					},
					"indices":5,
					"material":0
				}
			]
		}
	],
	"textures":[
		{
			"sampler":0,
			"source":0
		},
		{
			"sampler":0,
			"source":1
		}
	],
	"images":[
		{
			"mimeType":"image/jpeg",
			"name":"Albedo",
			"uri":"Albedo.jpg"
		},
		{
			"mimeType":"image/jpeg",
			"name":"Metallic-Smoothness",
			"uri":"Metallic-Smoothness.jpg"
		}
	],
	"skins":[
		{
			"inverseBindMatrices":6,
			"joints":[
				11,
				10,
				7,
				0,
				3,
				2,
				1,
				6,
				5,
				4,
				9,
				8
			],
			"name":"BlueSwarm"
		}
	],
	"accessors":[
		{
			"bufferView":0,
			"componentType":5126,
			"count":889,
			"max":[
				0.690837562084198,
				1.2119110822677612,
				0.5585315823554993
			],
			"min":[
				-0.7025602459907532,
				0.11299773305654526,
				-0.606123685836792
			],
			"type":"VEC3"
		},
		{
			"bufferView":1,
			"componentType":5126,
			"count":889,
			"type":"VEC3"
		},
		{
			"bufferView":2,
			"componentType":5126,
			"count":889,
			"type":"VEC2"
		},
		{
			"bufferView":3,
			"componentType":5121,
			"count":889,
			"type":"VEC4"
		},
		{
			"bufferView":4,
			"componentType":5126,
			"count":889,
			"type":"VEC4"
		},
		{
			"bufferView":5,
			"componentType":5123,
			"count":3414,
			"type":"SCALAR"
		},
		{
			"bufferView":6,
			"componentType":5126,
			"count":12,
			"type":"MAT4"
		},
		{
			"bufferView":7,
			"componentType":5126,
			"count":2,
			"max":[
				0.5
			],
			"min":[
				0
			],
			"type":"SCALAR"
		},
		{
			"bufferView":8,
			"componentType":5126,
			"count":2,
			"type":"VEC3"
		},
		{
			"bufferView":9,
			"componentType":5126,
			"count":2,
			"type":"VEC4"
		},
		{
			"bufferView":10,
			"componentType":5126,
			"count":2,
			"type":"VEC3"
		},
		{
			"bufferView":11,
			"componentType":5126,
			"count":13,
			"max":[
				0.5
			],
			"min":[
				0
			],
			"type":"SCALAR"
		},
		{
			"bufferView":12,
			"componentType":5126,
			"count":13,
			"type":"VEC3"
		},
		{
			"bufferView":13,
			"componentType":5126,
			"count":13,
			"type":"VEC4"
		},
		{
			"bufferView":14,
			"componentType":5126,
			"count":2,
			"type":"VEC3"
		},
		{
			"bufferView":15,
			"componentType":5126,
			"count":2,
			"type":"VEC3"
		},
		{
			"bufferView":16,
			"componentType":5126,
			"count":2,
			"type":"VEC4"
		},
		{
			"bufferView":17,
			"componentType":5126,
			"count":2,
			"type":"VEC3"
		},
		{
			"bufferView":18,
			"componentType":5126,
			"count":13,
			"type":"VEC3"
		},
		{
			"bufferView":19,
			"componentType":5126,
			"count":13,
			"type":"VEC4"
		},
		{
			"bufferView":20,
			"componentType":5126,
			"count":2,
			"type":"VEC3"
		},
		{
			"bufferView":21,
			"componentType":5126,
			"count":2,
			"type":"VEC3"
		},
		{
			"bufferView":22,
			"componentType":5126,
			"count":13,
			"type":"VEC4"
		},
		{
			"bufferView":23,
			"componentType":5126,
			"count":2,
			"type":"VEC3"
		},
		{
			"bufferView":24,
			"componentType":5126,
			"count":2,
			"type":"VEC3"
		},
		{
			"bufferView":25,
			"componentType":5126,
			"count":13,
			"type":"VEC4"
		},
		{
			"bufferView":26,
			"componentType":5126,
			"count":2,
			"type":"VEC3"
		},
		{
			"bufferView":27,
			"componentType":5126,
			"count":2,
			"type":"VEC3"
		},
		{
			"bufferView":28,
			"componentType":5126,
			"count":13,
			"type":"VEC4"
		},
		{
			"bufferView":29,
			"componentType":5126,
			"count":2,
			"type":"VEC3"
		},
		{
			"bufferView":30,
			"componentType":5126,
			"count":2,
			"type":"VEC3"
		},
		{
			"bufferView":31,
			"componentType":5126,
			"count":13,
			"type":"VEC4"
		},
		{
			"bufferView":32,
			"componentType":5126,
			"count":2,
			"type":"VEC3"
		},
		{
			"bufferView":33,
			"componentType":5126,
			"count":2,
			"type":"VEC3"
		},
		{
			"bufferView":34,
			"componentType":5126,
			"count":13,
			"type":"VEC4"
		},
		{
			"bufferView":35,
			"componentType":5126,
			"count":2,
			"type":"VEC3"
		},
		{
			"bufferView":36,
			"componentType":5126,
			"count":2,
			"type":"VEC3"
		},
		{
			"bufferView":37,
			"componentType":5126,
			"count":13,
			"type":"VEC4"
		},
		{
			"bufferView":38,
			"componentType":5126,
			"count":2,
			"type":"VEC3"
		},
		{
			"bufferView":39,
			"componentType":5126,
			"count":13,
			"type":"VEC3"
		},
		{
			"bufferView":40,
			"componentType":5126,
			"count":13,
			"type":"VEC4"
		},
		{
			"bufferView":41,
			"componentType":5126,
			"count":2,
			"type":"VEC3"
		},
		{
			"bufferView":42,
			"componentType":5126,
			"count":13,
			"type":"VEC3"
		},
		{
			"bufferView":43,
			"componentType":5126,
			"count":13,
			"type":"VEC4"
		},
		{
			"bufferView":44,
			"componentType":5126,
			"count":2,
			"type":"VEC3"
		},
		{
			"bufferView":45,
			"componentType":5126,
			"count":2,
			"max":[
				0.625
			],
			"min":[
				0
			],
			"type":"SCALAR"
		},
		{
			"bufferView":46,
			"componentType":5126,
			"count":16,
			"max":[
				0.625
			],
			"min":[
				0
			],
			"type":"SCALAR"
		},
		{
			"bufferView":47,
			"componentType":5126,
			"count":16,
			"type":"VEC3"
		},
		{
			"bufferView":48,
			"componentType":5126,
			"count":16,
			"type":"VEC4"
		},
		{
			"bufferView":49,
			"componentType":5126,
			"count":2,
			"type":"VEC3"
		},
		{
			"bufferView":50,
			"componentType":5126,
			"count":2,
			"type":"VEC3"
		},
		{
			"bufferView":51,
			"componentType":5126,
			"count":16,
			"type":"VEC4"
		},
		{
			"bufferView":52,
			"componentType":5126,
			"count":2,
			"type":"VEC3"
		},
		{
			"bufferView":53,
			"componentType":5126,
			"count":16,
			"type":"VEC3"
		},
		{
			"bufferView":54,
			"componentType":5126,
			"count":16,
			"type":"VEC4"
		},
		{
			"bufferView":55,
			"componentType":5126,
			"count":2,
			"type":"VEC3"
		},
		{
			"bufferView":56,
			"componentType":5126,
			"count":2,
			"type":"VEC3"
		},
		{
			"bufferView":57,
			"componentType":5126,
			"count":16,
			"type":"VEC4"
		},
		{
			"bufferView":58,
			"componentType":5126,
			"count":2,
			"type":"VEC3"
		},
		{
			"bufferView":59,
			"componentType":5126,
			"count":2,
			"type":"VEC3"
		},
		{
			"bufferView":60,
			"componentType":5126,
			"count":16,
			"type":"VEC4"
		},
		{
			"bufferView":61,
			"componentType":5126,
			"count":2,
			"type":"VEC3"
		},
		{
			"bufferView":62,
			"componentType":5126,
			"count":2,
			"type":"VEC3"
		},
		{
			"bufferView":63,
			"componentType":5126,
			"count":16,
			"type":"VEC4"
		},
		{
			"bufferView":64,
			"componentType":5126,
			"count":2,
			"type":"VEC3"
		},
		{
			"bufferView":65,
			"componentType":5126,
			"count":2,
			"type":"VEC3"
		},
		{
			"bufferView":66,
			"componentType":5126,
			"count":16,
			"type":"VEC4"
		},
		{
			"bufferView":67,
			"componentType":5126,
			"count":2,
			"type":"VEC3"
		},
		{
			"bufferView":68,
			"componentType":5126,
			"count":2,
			"type":"VEC3"
		},
		{
			"bufferView":69,
			"componentType":5126,
			"count":16,
			"type":"VEC4"
		},
		{
			"bufferView":70,
			"componentType":5126,
			"count":2,
			"type":"VEC3"
		},
		{
			"bufferView":71,
			"componentType":5126,
			"count":2,
			"type":"VEC3"
		},
		{
			"bufferView":72,
			"componentType":5126,
			"count":16,
			"type":"VEC4"
		},
		{
			"bufferView":73,
			"componentType":5126,
			"count":2,
			"type":"VEC3"
		},
		{
			"bufferView":74,
			"componentType":5126,
			"count":16,
			"type":"VEC3"
		},
		{
			"bufferView":75,
			"componentType":5126,
			"count":16,
			"type":"VEC4"
		},
		{
			"bufferView":76,
			"componentType":5126,
			"count":2,
			"type":"VEC3"
		},
		{
			"bufferView":77,
			"componentType":5126,
			"count":16,
			"type":"VEC3"
		},
		{
			"bufferView":78,
			"componentType":5126,
			"count":16,
			"type":"VEC4"
		},
		{
			"bufferView":79,
			"componentType":5126,
			"count":2,
			"type":"VEC3"
		},
		{
			"bufferView":80,
			"componentType":5126,
			"count":2,
			"max":[
				0.375
			],
			"min":[
				0
			],
			"type":"SCALAR"
		},
		{
			"bufferView":81,
			"componentType":5126,
			"count":10,
			"max":[
				0.375
			],
			"min":[
				0
			],
			"type":"SCALAR"
		},
		{
			"bufferView":82,
			"componentType":5126,
			"count":10,
			"type":"VEC3"
		},
		{
			"bufferView":83,
			"componentType":5126,
			"count":10,
			"type":"VEC4"
		},
		{
			"bufferView":84,
			"componentType":5126,
			"count":2,
			"type":"VEC3"
		},
		{
			"bufferView":85,
			"componentType":5126,
			"count":2,
			"type":"VEC3"
		},
		{
			"bufferView":86,
			"componentType":5126,
			"count":10,
			"type":"VEC4"
		},
		{
			"bufferView":87,
			"componentType":5126,
			"count":2,
			"type":"VEC3"
		},
		{
			"bufferView":88,
			"componentType":5126,
			"count":10,
			"type":"VEC3"
		},
		{
			"bufferView":89,
			"componentType":5126,
			"count":10,
			"type":"VEC4"
		},
		{
			"bufferView":90,
			"componentType":5126,
			"count":2,
			"type":"VEC3"
		},
		{
			"bufferView":91,
			"componentType":5126,
			"count":2,
			"type":"VEC3"
		},
		{
			"bufferView":92,
			"componentType":5126,
			"count":10,
			"type":"VEC4"
		},
		{
			"bufferView":93,
			"componentType":5126,
			"count":2,
			"type":"VEC3"
		},
		{
			"bufferView":94,
			"componentType":5126,
			"count":2,
			"type":"VEC3"
		},
		{
			"bufferView":95,
			"componentType":5126,
			"count":10,
			"type":"VEC4"
		},
		{
			"bufferView":96,
			"componentType":5126,
			"count":2,
			"type":"VEC3"
		},
		{
			"bufferView":97,
			"componentType":5126,
			"count":2,
			"type":"VEC3"
		},
		{
			"bufferView":98,
			"componentType":5126,
			"count":10,
			"type":"VEC4"
		},
		{
			"bufferView":99,
			"componentType":5126,
			"count":2,
			"type":"VEC3"
		},
		{
			"bufferView":100,
			"componentType":5126,
			"count":2,
			"type":"VEC3"
		},
		{
			"bufferView":101,
			"componentType":5126,
			"count":10,
			"type":"VEC4"
		},
		{
			"bufferView":102,
			"componentType":5126,
			"count":2,
			"type":"VEC3"
		},
		{
			"bufferView":103,
			"componentType":5126,
			"count":2,
			"type":"VEC3"
		},
		{
			"bufferView":104,
			"componentType":5126,
			"count":10,
			"type":"VEC4"
		},
		{
			"bufferView":105,
			"componentType":5126,
			"count":2,
			"type":"VEC3"
		},
		{
			"bufferView":106,
			"componentType":5126,
			"count":2,
			"type":"VEC3"
		},
		{
			"bufferView":107,
			"componentType":5126,
			"count":10,
			"type":"VEC4"
		},
		{
			"bufferView":108,
			"componentType":5126,
			"count":2,
			"type":"VEC3"
		},
		{
			"bufferView":109,
			"componentType":5126,
			"count":10,
			"type":"VEC3"
		},
		{
			"bufferView":110,
			"componentType":5126,
			"count":10,
			"type":"VEC4"
		},
		{
			"bufferView":111,
			"componentType":5126,
			"count":2,
			"type":"VEC3"
		},
		{
			"bufferView":112,
			"componentType":5126,
			"count":10,
			"type":"VEC3"
		},
		{
			"bufferView":113,
			"componentType":5126,
			"count":10,
			"type":"VEC4"
		},
		{
			"bufferView":114,
			"componentType":5126,
			"count":2,
			"type":"VEC3"
		},
		{
			"bufferView":115,
			"componentType":5126,
			"count":2,
			"max":[
				0.6666666666666666
			],
			"min":[
				0
			],
			"type":"SCALAR"
		},
		{
			"bufferView":116,
			"componentType":5126,
			"count":17,
			"max":[
				0.6666666666666666
			],
			"min":[
				0
			],
			"type":"SCALAR"
		},
		{
			"bufferView":117,
			"componentType":5126,
			"count":17,
			"type":"VEC3"
		},
		{
			"bufferView":118,
			"componentType":5126,
			"count":17,
			"type":"VEC4"
		},
		{
			"bufferView":119,
			"componentType":5126,
			"count":2,
			"type":"VEC3"
		},
		{
			"bufferView":120,
			"componentType":5126,
			"count":17,
			"type":"VEC3"
		},
		{
			"bufferView":121,
			"componentType":5126,
			"count":17,
			"type":"VEC4"
		},
		{
			"bufferView":122,
			"componentType":5126,
			"count":2,
			"type":"VEC3"
		},
		{
			"bufferView":123,
			"componentType":5126,
			"count":2,
			"type":"VEC3"
		},
		{
			"bufferView":124,
			"componentType":5126,
			"count":17,
			"type":"VEC4"
		},
		{
			"bufferView":125,
			"componentType":5126,
			"count":2,
			"type":"VEC3"
		},
		{
			"bufferView":126,
			"componentType":5126,
			"count":2,
			"type":"VEC3"
		},
		{
			"bufferView":127,
			"componentType":5126,
			"count":17,
			"type":"VEC4"
		},
		{
			"bufferView":128,
			"componentType":5126,
			"count":2,
			"type":"VEC3"
		},
		{
			"bufferView":129,
			"componentType":5126,
			"count":17,
			"type":"VEC3"
		},
		{
			"bufferView":130,
			"componentType":5126,
			"count":17,
			"type":"VEC4"
		},
		{
			"bufferView":131,
			"componentType":5126,
			"count":2,
			"type":"VEC3"
		},
		{
			"bufferView":132,
			"componentType":5126,
			"count":17,
			"type":"VEC3"
		},
		{
			"bufferView":133,
			"componentType":5126,
			"count":17,
			"type":"VEC4"
		},
		{
			"bufferView":134,
			"componentType":5126,
			"count":2,
			"type":"VEC3"
		},
		{
			"bufferView":135,
			"componentType":5126,
			"count":2,
			"type":"VEC3"
		},
		{
			"bufferView":136,
			"componentType":5126,
			"count":17,
			"type":"VEC4"
		},
		{
			"bufferView":137,
			"componentType":5126,
			"count":2,
			"type":"VEC3"
		},
		{
			"bufferView":138,
			"componentType":5126,
			"count":17,
			"type":"VEC3"
		},
		{
			"bufferView":139,
			"componentType":5126,
			"count":17,
			"type":"VEC4"
		},
		{
			"bufferView":140,
			"componentType":5126,
			"count":2,
			"type":"VEC3"
		},
		{
			"bufferView":141,
			"componentType":5126,
			"count":17,
			"type":"VEC3"
		},
		{
			"bufferView":142,
			"componentType":5126,
			"count":17,
			"type":"VEC4"
		},
		{
			"bufferView":143,
			"componentType":5126,
			"count":2,
			"type":"VEC3"
		},
		{
			"bufferView":144,
			"componentType":5126,
			"count":17,
			"type":"VEC3"
		},
		{
			"bufferView":145,
			"componentType":5126,
			"count":17,
			"type":"VEC4"
		},
		{
			"bufferView":146,
			"componentType":5126,
			"count":2,
			"type":"VEC3"
		},
		{
			"bufferView":147,
			"componentType":5126,
			"count":17,
			"type":"VEC3"
		},
		{
			"bufferView":148,
			"componentType":5126,
			"count":17,
			"type":"VEC4"
		},
		{
			"bufferView":149,
			"componentType":5126,
			"count":2,
			"type":"VEC3"
		},
		{
			"bufferView":150,
			"componentType":5126,
			"count":17,
			"type":"VEC3"
		},
		{
			"bufferView":151,
			"componentType":5126,
			"count":17,
			"type":"VEC4"
		},
		{
			"bufferView":152,
			"componentType":5126,
			"count":2,
			"type":"VEC3"
		},
		{
			"bufferView":153,
			"componentType":5126,
			"count":17,
			"type":"VEC3"
		},
		{
			"bufferView":154,
			"componentType":5126,
			"count":17,
			"type":"VEC4"
		},
		{
			"bufferView":155,
			"componentType":5126,
			"count":17,
			"type":"VEC3"
		},
		{
			"bufferView":156,
			"componentType":5126,
			"count":17,
			"type":"VEC4"
		},
		{
			"bufferView":157,
			"componentType":5126,
			"count":2,
			"type":"VEC3"
		},
		{
			"bufferView":158,
			"componentType":5126,
			"count":2,
			"type":"VEC3"
		},
		{
			"bufferView":159,
			"componentType":5126,
			"count":17,
			"type":"VEC4"
		},
		{
			"bufferView":160,
			"componentType":5126,
			"count":2,
			"type":"VEC3"
		},
		{
			"bufferView":161,
			"componentType":5126,
			"count":17,
			"type":"VEC3"
		},
		{
			"bufferView":162,
			"componentType":5126,
			"count":17,
			"type":"VEC4"
		},
		{
			"bufferView":163,
			"componentType":5126,
			"count":2,
			"type":"VEC3"
		},
		{
			"bufferView":164,
			"componentType":5126,
			"count":17,
			"type":"VEC3"
		},
		{
			"bufferView":165,
			"componentType":5126,
			"count":17,
			"type":"VEC4"
		},
		{
			"bufferView":166,
			"componentType":5126,
			"count":2,
			"type":"VEC3"
		},
		{
			"bufferView":167,
			"componentType":5126,
			"count":2,
			"type":"VEC3"
		},
		{
			"bufferView":168,
			"componentType":5126,
			"count":17,
			"type":"VEC4"
		},
		{
			"bufferView":169,
			"componentType":5126,
			"count":17,
			"type":"VEC3"
		},
		{
			"bufferView":170,
			"componentType":5126,
			"count":17,
			"type":"VEC4"
		},
		{
			"bufferView":171,
			"componentType":5126,
			"count":2,
			"type":"VEC3"
		},
		{
			"bufferView":172,
			"componentType":5126,
			"count":17,
			"type":"VEC3"
		},
		{
			"bufferView":173,
			"componentType":5126,
			"count":17,
			"type":"VEC4"
		},
		{
			"bufferView":174,
			"componentType":5126,
			"count":2,
			"type":"VEC3"
		},
		{
			"bufferView":175,
			"componentType":5126,
			"count":17,
			"type":"VEC3"
		},
		{
			"bufferView":176,
			"componentType":5126,
			"count":17,
			"type":"VEC4"
		},
		{
			"bufferView":177,
			"componentType":5126,
			"count":2,
			"type":"VEC3"
		},
		{
			"bufferView":178,
			"componentType":5126,
			"count":17,
			"type":"VEC3"
		},
		{
			"bufferView":179,
			"componentType":5126,
			"count":17,
			"type":"VEC4"
		},
		{
			"bufferView":180,
			"componentType":5126,
			"count":2,
			"type":"VEC3"
		},
		{
			"bufferView":181,
			"componentType":5126,
			"count":17,
			"type":"VEC3"
		},
		{
			"bufferView":182,
			"componentType":5126,
			"count":17,
			"type":"VEC4"
		},
		{
			"bufferView":183,
			"componentType":5126,
			"count":17,
			"type":"VEC3"
		},
		{
			"bufferView":184,
			"componentType":5126,
			"count":17,
			"type":"VEC4"
		},
		{
			"bufferView":185,
			"componentType":5126,
			"count":2,
			"type":"VEC3"
		},
		{
			"bufferView":186,
			"componentType":5126,
			"count":17,
			"type":"VEC3"
		},
		{
			"bufferView":187,
			"componentType":5126,
			"count":17,
			"type":"VEC4"
		},
		{
			"bufferView":188,
			"componentType":5126,
			"count":2,
			"type":"VEC3"
		},
		{
			"bufferView":189,
			"componentType":5126,
			"count":2,
			"type":"VEC3"
		},
		{
			"bufferView":190,
			"componentType":5126,
			"count":17,
			"type":"VEC4"
		},
		{
			"bufferView":191,
			"componentType":5126,
			"count":2,
			"type":"VEC3"
		},
		{
			"bufferView":192,
			"componentType":5126,
			"count":17,
			"type":"VEC3"
		},
		{
			"bufferView":193,
			"componentType":5126,
			"count":17,
			"type":"VEC4"
		},
		{
			"bufferView":194,
			"componentType":5126,
			"count":2,
			"type":"VEC3"
		},
		{
			"bufferView":195,
			"componentType":5126,
			"count":17,
			"type":"VEC3"
		},
		{
			"bufferView":196,
			"componentType":5126,
			"count":17,
			"type":"VEC4"
		},
		{
			"bufferView":197,
			"componentType":5126,
			"count":2,
			"type":"VEC3"
		},
		{
			"bufferView":198,
			"componentType":5126,
			"count":2,
			"type":"VEC3"
		},
		{
			"bufferView":199,
			"componentType":5126,
			"count":17,
			"type":"VEC4"
		},
		{
			"bufferView":200,
			"componentType":5126,
			"count":2,
			"type":"VEC3"
		},
		{
			"bufferView":201,
			"componentType":5126,
			"count":17,
			"type":"VEC3"
		},
		{
			"bufferView":202,
			"componentType":5126,
			"count":17,
			"type":"VEC4"
		},
		{
			"bufferView":203,
			"componentType":5126,
			"count":2,
			"type":"VEC3"
		},
		{
			"bufferView":204,
			"componentType":5126,
			"count":17,
			"type":"VEC3"
		},
		{
			"bufferView":205,
			"componentType":5126,
			"count":17,
			"type":"VEC4"
		},
		{
			"bufferView":206,
			"componentType":5126,
			"count":2,
			"type":"VEC3"
		},
		{
			"bufferView":207,
			"componentType":5126,
			"count":17,
			"type":"VEC3"
		},
		{
			"bufferView":208,
			"componentType":5126,
			"count":17,
			"type":"VEC4"
		},
		{
			"bufferView":209,
			"componentType":5126,
			"count":2,
			"type":"VEC3"
		},
		{
			"bufferView":210,
			"componentType":5126,
			"count":17,
			"type":"VEC3"
		},
		{
			"bufferView":211,
			"componentType":5126,
			"count":17,
			"type":"VEC4"
		},
		{
			"bufferView":212,
			"componentType":5126,
			"count":2,
			"type":"VEC3"
		},
		{
			"bufferView":213,
			"componentType":5126,
			"count":17,
			"type":"VEC3"
		},
		{
			"bufferView":214,
			"componentType":5126,
			"count":17,
			"type":"VEC4"
		},
		{
			"bufferView":215,
			"componentType":5126,
			"count":17,
			"type":"VEC3"
		},
		{
			"bufferView":216,
			"componentType":5126,
			"count":17,
			"type":"VEC4"
		},
		{
			"bufferView":217,
			"componentType":5126,
			"count":2,
			"type":"VEC3"
		},
		{
			"bufferView":218,
			"componentType":5126,
			"count":17,
			"type":"VEC3"
		},
		{
			"bufferView":219,
			"componentType":5126,
			"count":17,
			"type":"VEC4"
		},
		{
			"bufferView":220,
			"componentType":5126,
			"count":2,
			"type":"VEC3"
		},
		{
			"bufferView":221,
			"componentType":5126,
			"count":2,
			"type":"VEC3"
		},
		{
			"bufferView":222,
			"componentType":5126,
			"count":17,
			"type":"VEC4"
		},
		{
			"bufferView":223,
			"componentType":5126,
			"count":2,
			"type":"VEC3"
		},
		{
			"bufferView":224,
			"componentType":5126,
			"count":17,
			"type":"VEC3"
		},
		{
			"bufferView":225,
			"componentType":5126,
			"count":17,
			"type":"VEC4"
		},
		{
			"bufferView":226,
			"componentType":5126,
			"count":2,
			"type":"VEC3"
		},
		{
			"bufferView":227,
			"componentType":5126,
			"count":17,
			"type":"VEC3"
		},
		{
			"bufferView":228,
			"componentType":5126,
			"count":17,
			"type":"VEC4"
		},
		{
			"bufferView":229,
			"componentType":5126,
			"count":2,
			"type":"VEC3"
		},
		{
			"bufferView":230,
			"componentType":5126,
			"count":2,
			"type":"VEC3"
		},
		{
			"bufferView":231,
			"componentType":5126,
			"count":17,
			"type":"VEC4"
		},
		{
			"bufferView":232,
			"componentType":5126,
			"count":2,
			"type":"VEC3"
		},
		{
			"bufferView":233,
			"componentType":5126,
			"count":17,
			"type":"VEC3"
		},
		{
			"bufferView":234,
			"componentType":5126,
			"count":17,
			"type":"VEC4"
		},
		{
			"bufferView":235,
			"componentType":5126,
			"count":2,
			"type":"VEC3"
		},
		{
			"bufferView":236,
			"componentType":5126,
			"count":17,
			"type":"VEC3"
		},
		{
			"bufferView":237,
			"componentType":5126,
			"count":17,
			"type":"VEC4"
		},
		{
			"bufferView":238,
			"componentType":5126,
			"count":2,
			"type":"VEC3"
		},
		{
			"bufferView":239,
			"componentType":5126,
			"count":17,
			"type":"VEC3"
		},
		{
			"bufferView":240,
			"componentType":5126,
			"count":17,
			"type":"VEC4"
		},
		{
			"bufferView":241,
			"componentType":5126,
			"count":2,
			"type":"VEC3"
		},
		{
			"bufferView":242,
			"componentType":5126,
			"count":17,
			"type":"VEC3"
		},
		{
			"bufferView":243,
			"componentType":5126,
			"count":17,
			"type":"VEC4"
		},
		{
			"bufferView":244,
			"componentType":5126,
			"count":2,
			"type":"VEC3"
		},
		{
			"bufferView":245,
			"componentType":5126,
			"count":17,
			"type":"VEC3"
		},
		{
			"bufferView":246,
			"componentType":5126,
			"count":17,
			"type":"VEC4"
		},
		{
			"bufferView":247,
			"componentType":5126,
			"count":17,
			"type":"VEC3"
		},
		{
			"bufferView":248,
			"componentType":5126,
			"count":17,
			"type":"VEC4"
		},
		{
			"bufferView":249,
			"componentType":5126,
			"count":2,
			"type":"VEC3"
		},
		{
			"bufferView":250,
			"componentType":5126,
			"count":17,
			"type":"VEC3"
		},
		{
			"bufferView":251,
			"componentType":5126,
			"count":17,
			"type":"VEC4"
		},
		{
			"bufferView":252,
			"componentType":5126,
			"count":2,
			"type":"VEC3"
		},
		{
			"bufferView":253,
			"componentType":5126,
			"count":2,
			"type":"VEC3"
		},
		{
			"bufferView":254,
			"componentType":5126,
			"count":17,
			"type":"VEC4"
		},
		{
			"bufferView":255,
			"componentType":5126,
			"count":2,
			"type":"VEC3"
		},
		{
			"bufferView":256,
			"componentType":5126,
			"count":17,
			"type":"VEC3"
		},
		{
			"bufferView":257,
			"componentType":5126,
			"count":17,
			"type":"VEC4"
		},
		{
			"bufferView":258,
			"componentType":5126,
			"count":2,
			"type":"VEC3"
		},
		{
			"bufferView":259,
			"componentType":5126,
			"count":17,
			"type":"VEC3"
		},
		{
			"bufferView":260,
			"componentType":5126,
			"count":17,
			"type":"VEC4"
		},
		{
			"bufferView":261,
			"componentType":5126,
			"count":2,
			"type":"VEC3"
		},
		{
			"bufferView":262,
			"componentType":5126,
			"count":2,
			"type":"VEC3"
		},
		{
			"bufferView":263,
			"componentType":5126,
			"count":17,
			"type":"VEC4"
		},
		{
			"bufferView":264,
			"componentType":5126,
			"count":2,
			"type":"VEC3"
		},
		{
			"bufferView":265,
			"componentType":5126,
			"count":17,
			"type":"VEC3"
		},
		{
			"bufferView":266,
			"componentType":5126,
			"count":17,
			"type":"VEC4"
		},
		{
			"bufferView":267,
			"componentType":5126,
			"count":17,
			"type":"VEC3"
		},
		{
			"bufferView":268,
			"componentType":5126,
			"count":17,
			"type":"VEC4"
		},
		{
			"bufferView":269,
			"componentType":5126,
			"count":17,
			"type":"VEC3"
		},
		{
			"bufferView":270,
			"componentType":5126,
			"count":17,
			"type":"VEC4"
		},
		{
			"bufferView":271,
			"componentType":5126,
			"count":2,
			"type":"VEC3"
		},
		{
			"bufferView":272,
			"componentType":5126,
			"count":17,
			"type":"VEC3"
		},
		{
			"bufferView":273,
			"componentType":5126,
			"count":17,
			"type":"VEC4"
		},
		{
			"bufferView":274,
			"componentType":5126,
			"count":2,
			"type":"VEC3"
		}
	],
	"bufferViews":[
		{
			"buffer":0,
			"byteLength":10668,
			"byteOffset":0,
			"target":34962
		},
		{
			"buffer":0,
			"byteLength":10668,
			"byteOffset":10668,
			"target":34962
		},
		{
			"buffer":0,
			"byteLength":7112,
			"byteOffset":21336,
			"target":34962
		},
		{
			"buffer":0,
			"byteLength":3556,
			"byteOffset":28448,
			"target":34962
		},
		{
			"buffer":0,
			"byteLength":14224,
			"byteOffset":32004,
			"target":34962
		},
		{
			"buffer":0,
			"byteLength":6828,
			"byteOffset":46228,
			"target":34963
		},
		{
			"buffer":0,
			"byteLength":768,
			"byteOffset":53056
		},
		{
			"buffer":0,
			"byteLength":8,
			"byteOffset":53824
		},
		{
			"buffer":0,
			"byteLength":24,
			"byteOffset":53832
		},
		{
			"buffer":0,
			"byteLength":32,
			"byteOffset":53856
		},
		{
			"buffer":0,
			"byteLength":24,
			"byteOffset":53888
		},
		{
			"buffer":0,
			"byteLength":52,
			"byteOffset":53912
		},
		{
			"buffer":0,
			"byteLength":156,
			"byteOffset":53964
		},
		{
			"buffer":0,
			"byteLength":208,
			"byteOffset":54120
		},
		{
			"buffer":0,
			"byteLength":24,
			"byteOffset":54328
		},
		{
			"buffer":0,
			"byteLength":24,
			"byteOffset":54352
		},
		{
			"buffer":0,
			"byteLength":32,
			"byteOffset":54376
		},
		{
			"buffer":0,
			"byteLength":24,
			"byteOffset":54408
		},
		{
			"buffer":0,
			"byteLength":156,
			"byteOffset":54432
		},
		{
			"buffer":0,
			"byteLength":208,
			"byteOffset":54588
		},
		{
			"buffer":0,
			"byteLength":24,
			"byteOffset":54796
		},
		{
			"buffer":0,
			"byteLength":24,
			"byteOffset":54820
		},
		{
			"buffer":0,
			"byteLength":208,
			"byteOffset":54844
		},
		{
			"buffer":0,
			"byteLength":24,
			"byteOffset":55052
		},
		{
			"buffer":0,
			"byteLength":24,
			"byteOffset":55076
		},
		{
			"buffer":0,
			"byteLength":208,
			"byteOffset":55100
		},
		{
			"buffer":0,
			"byteLength":24,
			"byteOffset":55308
		},
		{
			"buffer":0,
			"byteLength":24,
			"byteOffset":55332
		},
		{
			"buffer":0,
			"byteLength":208,
			"byteOffset":55356
		},
		{
			"buffer":0,
			"byteLength":24,
			"byteOffset":55564
		},
		{
			"buffer":0,
			"byteLength":24,
			"byteOffset":55588
		},
		{
			"buffer":0,
			"byteLength":208,
			"byteOffset":55612
		},
		{
			"buffer":0,
			"byteLength":24,
			"byteOffset":55820
		},
		{
			"buffer":0,
			"byteLength":24,
			"byteOffset":55844
		},
		{
			"buffer":0,
			"byteLength":208,
			"byteOffset":55868
		},
		{
			"buffer":0,
			"byteLength":24,
			"byteOffset":56076
		},
		{
			"buffer":0,
			"byteLength":24,
			"byteOffset":56100
		},
		{
			"buffer":0,
			"byteLength":208,
			"byteOffset":56124
		},
		{
			"buffer":0,
			"byteLength":24,
			"byteOffset":56332
		},
		{
			"buffer":0,
			"byteLength":156,
			"byteOffset":56356
		},
		{
			"buffer":0,
			"byteLength":208,
			"byteOffset":56512
		},
		{
			"buffer":0,
			"byteLength":24,
			"byteOffset":56720
		},
		{
			"buffer":0,
			"byteLength":156,
			"byteOffset":56744
		},
		{
			"buffer":0,
			"byteLength":208,
			"byteOffset":56900
		},
		{
			"buffer":0,
			"byteLength":24,
			"byteOffset":57108
		},
		{
			"buffer":0,
			"byteLength":8,
			"byteOffset":57132
		},
		{
			"buffer":0,
			"byteLength":64,
			"byteOffset":57140
		},
		{
			"buffer":0,
			"byteLength":192,
			"byteOffset":57204
		},
		{
			"buffer":0,
			"byteLength":256,
			"byteOffset":57396
		},
		{
			"buffer":0,
			"byteLength":24,
			"byteOffset":57652
		},
		{
			"buffer":0,
			"byteLength":24,
			"byteOffset":57676
		},
		{
			"buffer":0,
			"byteLength":256,
			"byteOffset":57700
		},
		{
			"buffer":0,
			"byteLength":24,
			"byteOffset":57956
		},
		{
			"buffer":0,
			"byteLength":192,
			"byteOffset":57980
		},
		{
			"buffer":0,
			"byteLength":256,
			"byteOffset":58172
		},
		{
			"buffer":0,
			"byteLength":24,
			"byteOffset":58428
		},
		{
			"buffer":0,
			"byteLength":24,
			"byteOffset":58452
		},
		{
			"buffer":0,
			"byteLength":256,
			"byteOffset":58476
		},
		{
			"buffer":0,
			"byteLength":24,
			"byteOffset":58732
		},
		{
			"buffer":0,
			"byteLength":24,
			"byteOffset":58756
		},
		{
			"buffer":0,
			"byteLength":256,
			"byteOffset":58780
		},
		{
			"buffer":0,
			"byteLength":24,
			"byteOffset":59036
		},
		{
			"buffer":0,
			"byteLength":24,
			"byteOffset":59060
		},
		{
			"buffer":0,
			"byteLength":256,
			"byteOffset":59084
		},
		{
			"buffer":0,
			"byteLength":24,
			"byteOffset":59340
		},
		{
			"buffer":0,
			"byteLength":24,
			"byteOffset":59364
		},
		{
			"buffer":0,
			"byteLength":256,
			"byteOffset":59388
		},
		{
			"buffer":0,
			"byteLength":24,
			"byteOffset":59644
		},
		{
			"buffer":0,
			"byteLength":24,
			"byteOffset":59668
		},
		{
			"buffer":0,
			"byteLength":256,
			"byteOffset":59692
		},
		{
			"buffer":0,
			"byteLength":24,
			"byteOffset":59948
		},
		{
			"buffer":0,
			"byteLength":24,
			"byteOffset":59972
		},
		{
			"buffer":0,
			"byteLength":256,
			"byteOffset":59996
		},
		{
			"buffer":0,
			"byteLength":24,
			"byteOffset":60252
		},
		{
			"buffer":0,
			"byteLength":192,
			"byteOffset":60276
		},
		{
			"buffer":0,
			"byteLength":256,
			"byteOffset":60468
		},
		{
			"buffer":0,
			"byteLength":24,
			"byteOffset":60724
		},
		{
			"buffer":0,
			"byteLength":192,
			"byteOffset":60748
		},
		{
			"buffer":0,
			"byteLength":256,
			"byteOffset":60940
		},
		{
			"buffer":0,
			"byteLength":24,
			"byteOffset":61196
		},
		{
			"buffer":0,
			"byteLength":8,
			"byteOffset":61220
		},
		{
			"buffer":0,
			"byteLength":40,
			"byteOffset":61228
		},
		{
			"buffer":0,
			"byteLength":120,
			"byteOffset":61268
		},
		{
			"buffer":0,
			"byteLength":160,
			"byteOffset":61388
		},
		{
			"buffer":0,
			"byteLength":24,
			"byteOffset":61548
		},
		{
			"buffer":0,
			"byteLength":24,
			"byteOffset":61572
		},
		{
			"buffer":0,
			"byteLength":160,
			"byteOffset":61596
		},
		{
			"buffer":0,
			"byteLength":24,
			"byteOffset":61756
		},
		{
			"buffer":0,
			"byteLength":120,
			"byteOffset":61780
		},
		{
			"buffer":0,
			"byteLength":160,
			"byteOffset":61900
		},
		{
			"buffer":0,
			"byteLength":24,
			"byteOffset":62060
		},
		{
			"buffer":0,
			"byteLength":24,
			"byteOffset":62084
		},
		{
			"buffer":0,
			"byteLength":160,
			"byteOffset":62108
		},
		{
			"buffer":0,
			"byteLength":24,
			"byteOffset":62268
		},
		{
			"buffer":0,
			"byteLength":24,
			"byteOffset":62292
		},
		{
			"buffer":0,
			"byteLength":160,
			"byteOffset":62316
		},
		{
			"buffer":0,
			"byteLength":24,
			"byteOffset":62476
		},
		{
			"buffer":0,
			"byteLength":24,
			"byteOffset":62500
		},
		{
			"buffer":0,
			"byteLength":160,
			"byteOffset":62524
		},
		{
			"buffer":0,
			"byteLength":24,
			"byteOffset":62684
		},
		{
			"buffer":0,
			"byteLength":24,
			"byteOffset":62708
		},
		{
			"buffer":0,
			"byteLength":160,
			"byteOffset":62732
		},
		{
			"buffer":0,
			"byteLength":24,
			"byteOffset":62892
		},
		{
			"buffer":0,
			"byteLength":24,
			"byteOffset":62916
		},
		{
			"buffer":0,
			"byteLength":160,
			"byteOffset":62940
		},
		{
			"buffer":0,
			"byteLength":24,
			"byteOffset":63100
		},
		{
			"buffer":0,
			"byteLength":24,
			"byteOffset":63124
		},
		{
			"buffer":0,
			"byteLength":160,
			"byteOffset":63148
		},
		{
			"buffer":0,
			"byteLength":24,
			"byteOffset":63308
		},
		{
			"buffer":0,
			"byteLength":120,
			"byteOffset":63332
		},
		{
			"buffer":0,
			"byteLength":160,
			"byteOffset":63452
		},
		{
			"buffer":0,
			"byteLength":24,
			"byteOffset":63612
		},
		{
			"buffer":0,
			"byteLength":120,
			"byteOffset":63636
		},
		{
			"buffer":0,
			"byteLength":160,
			"byteOffset":63756
		},
		{
			"buffer":0,
			"byteLength":24,
			"byteOffset":63916
		},
		{
			"buffer":0,
			"byteLength":8,
			"byteOffset":63940
		},
		{
			"buffer":0,
			"byteLength":68,
			"byteOffset":63948
		},
		{
			"buffer":0,
			"byteLength":204,
			"byteOffset":64016
		},
		{
			"buffer":0,
			"byteLength":272,
			"byteOffset":64220
		},
		{
			"buffer":0,
			"byteLength":24,
			"byteOffset":64492
		},
		{
			"buffer":0,
			"byteLength":204,
			"byteOffset":64516
		},
		{
			"buffer":0,
			"byteLength":272,
			"byteOffset":64720
		},
		{
			"buffer":0,
			"byteLength":24,
			"byteOffset":64992
		},
		{
			"buffer":0,
			"byteLength":24,
			"byteOffset":65016
		},
		{
			"buffer":0,
			"byteLength":272,
			"byteOffset":65040
		},
		{
			"buffer":0,
			"byteLength":24,
			"byteOffset":65312
		},
		{
			"buffer":0,
			"byteLength":24,
			"byteOffset":65336
		},
		{
			"buffer":0,
			"byteLength":272,
			"byteOffset":65360
		},
		{
			"buffer":0,
			"byteLength":24,
			"byteOffset":65632
		},
		{
			"buffer":0,
			"byteLength":204,
			"byteOffset":65656
		},
		{
			"buffer":0,
			"byteLength":272,
			"byteOffset":65860
		},
		{
			"buffer":0,
			"byteLength":24,
			"byteOffset":66132
		},
		{
			"buffer":0,
			"byteLength":204,
			"byteOffset":66156
		},
		{
			"buffer":0,
			"byteLength":272,
			"byteOffset":66360
		},
		{
			"buffer":0,
			"byteLength":24,
			"byteOffset":66632
		},
		{
			"buffer":0,
			"byteLength":24,
			"byteOffset":66656
		},
		{
			"buffer":0,
			"byteLength":272,
			"byteOffset":66680
		},
		{
			"buffer":0,
			"byteLength":24,
			"byteOffset":66952
		},
		{
			"buffer":0,
			"byteLength":204,
			"byteOffset":66976
		},
		{
			"buffer":0,
			"byteLength":272,
			"byteOffset":67180
		},
		{
			"buffer":0,
			"byteLength":24,
			"byteOffset":67452
		},
		{
			"buffer":0,
			"byteLength":204,
			"byteOffset":67476
		},
		{
			"buffer":0,
			"byteLength":272,
			"byteOffset":67680
		},
		{
			"buffer":0,
			"byteLength":24,
			"byteOffset":67952
		},
		{
			"buffer":0,
			"byteLength":204,
			"byteOffset":67976
		},
		{
			"buffer":0,
			"byteLength":272,
			"byteOffset":68180
		},
		{
			"buffer":0,
			"byteLength":24,
			"byteOffset":68452
		},
		{
			"buffer":0,
			"byteLength":204,
			"byteOffset":68476
		},
		{
			"buffer":0,
			"byteLength":272,
			"byteOffset":68680
		},
		{
			"buffer":0,
			"byteLength":24,
			"byteOffset":68952
		},
		{
			"buffer":0,
			"byteLength":204,
			"byteOffset":68976
		},
		{
			"buffer":0,
			"byteLength":272,
			"byteOffset":69180
		},
		{
			"buffer":0,
			"byteLength":24,
			"byteOffset":69452
		},
		{
			"buffer":0,
			"byteLength":204,
			"byteOffset":69476
		},
		{
			"buffer":0,
			"byteLength":272,
			"byteOffset":69680
		},
		{
			"buffer":0,
			"byteLength":204,
			"byteOffset":69952
		},
		{
			"buffer":0,
			"byteLength":272,
			"byteOffset":70156
		},
		{
			"buffer":0,
			"byteLength":24,
			"byteOffset":70428
		},
		{
			"buffer":0,
			"byteLength":24,
			"byteOffset":70452
		},
		{
			"buffer":0,
			"byteLength":272,
			"byteOffset":70476
		},
		{
			"buffer":0,
			"byteLength":24,
			"byteOffset":70748
		},
		{
			"buffer":0,
			"byteLength":204,
			"byteOffset":70772
		},
		{
			"buffer":0,
			"byteLength":272,
			"byteOffset":70976
		},
		{
			"buffer":0,
			"byteLength":24,
			"byteOffset":71248
		},
		{
			"buffer":0,
			"byteLength":204,
			"byteOffset":71272
		},
		{
			"buffer":0,
			"byteLength":272,
			"byteOffset":71476
		},
		{
			"buffer":0,
			"byteLength":24,
			"byteOffset":71748
		},
		{
			"buffer":0,
			"byteLength":24,
			"byteOffset":71772
		},
		{
			"buffer":0,
			"byteLength":272,
			"byteOffset":71796
		},
		{
			"buffer":0,
			"byteLength":204,
			"byteOffset":72068
		},
		{
			"buffer":0,
			"byteLength":272,
			"byteOffset":72272
		},
		{
			"buffer":0,
			"byteLength":24,
			"byteOffset":72544
		},
		{
			"buffer":0,
			"byteLength":204,
			"byteOffset":72568
		},
		{
			"buffer":0,
			"byteLength":272,
			"byteOffset":72772
		},
		{
			"buffer":0,
			"byteLength":24,
			"byteOffset":73044
		},
		{
			"buffer":0,
			"byteLength":204,
			"byteOffset":73068
		},
		{
			"buffer":0,
			"byteLength":272,
			"byteOffset":73272
		},
		{
			"buffer":0,
			"byteLength":24,
			"byteOffset":73544
		},
		{
			"buffer":0,
			"byteLength":204,
			"byteOffset":73568
		},
		{
			"buffer":0,
			"byteLength":272,
			"byteOffset":73772
		},
		{
			"buffer":0,
			"byteLength":24,
			"byteOffset":74044
		},
		{
			"buffer":0,
			"byteLength":204,
			"byteOffset":74068
		},
		{
			"buffer":0,
			"byteLength":272,
			"byteOffset":74272
		},
		{
			"buffer":0,
			"byteLength":204,
			"byteOffset":74544
		},
		{
			"buffer":0,
			"byteLength":272,
			"byteOffset":74748
		},
		{
			"buffer":0,
			"byteLength":24,
			"byteOffset":75020
		},
		{
			"buffer":0,
			"byteLength":204,
			"byteOffset":75044
		},
		{
			"buffer":0,
			"byteLength":272,
			"byteOffset":75248
		},
		{
			"buffer":0,
			"byteLength":24,
			"byteOffset":75520
		},
		{
			"buffer":0,
			"byteLength":24,
			"byteOffset":75544
		},
		{
			"buffer":0,
			"byteLength":272,
			"byteOffset":75568
		},
		{
			"buffer":0,
			"byteLength":24,
			"byteOffset":75840
		},
		{
			"buffer":0,
			"byteLength":204,
			"byteOffset":75864
		},
		{
			"buffer":0,
			"byteLength":272,
			"byteOffset":76068
		},
		{
			"buffer":0,
			"byteLength":24,
			"byteOffset":76340
		},
		{
			"buffer":0,
			"byteLength":204,
			"byteOffset":76364
		},
		{
			"buffer":0,
			"byteLength":272,
			"byteOffset":76568
		},
		{
			"buffer":0,
			"byteLength":24,
			"byteOffset":76840
		},
		{
			"buffer":0,
			"byteLength":24,
			"byteOffset":76864
		},
		{
			"buffer":0,
			"byteLength":272,
			"byteOffset":76888
		},
		{
			"buffer":0,
			"byteLength":24,
			"byteOffset":77160
		},
		{
			"buffer":0,
			"byteLength":204,
			"byteOffset":77184
		},
		{
			"buffer":0,
			"byteLength":272,
			"byteOffset":77388
		},
		{
			"buffer":0,
			"byteLength":24,
			"byteOffset":77660
		},
		{
			"buffer":0,
			"byteLength":204,
			"byteOffset":77684
		},
		{
			"buffer":0,
			"byteLength":272,
			"byteOffset":77888
		},
		{
			"buffer":0,
			"byteLength":24,
			"byteOffset":78160
		},
		{
			"buffer":0,
			"byteLength":204,
			"byteOffset":78184
		},
		{
			"buffer":0,
			"byteLength":272,
			"byteOffset":78388
		},
		{
			"buffer":0,
			"byteLength":24,
			"byteOffset":78660
		},
		{
			"buffer":0,
			"byteLength":204,
			"byteOffset":78684
		},
		{
			"buffer":0,
			"byteLength":272,
			"byteOffset":78888
		},
		{
			"buffer":0,
			"byteLength":24,
			"byteOffset":79160
		},
		{
			"buffer":0,
			"byteLength":204,
			"byteOffset":79184
		},
		{
			"buffer":0,
			"byteLength":272,
			"byteOffset":79388
		},
		{
			"buffer":0,
			"byteLength":204,
			"byteOffset":79660
		},
		{
			"buffer":0,
			"byteLength":272,
			"byteOffset":79864
		},
		{
			"buffer":0,
			"byteLength":24,
			"byteOffset":80136
		},
		{
			"buffer":0,
			"byteLength":204,
			"byteOffset":80160
		},
		{
			"buffer":0,
			"byteLength":272,
			"byteOffset":80364
		},
		{
			"buffer":0,
			"byteLength":24,
			"byteOffset":80636
		},
		{
			"buffer":0,
			"byteLength":24,
			"byteOffset":80660
		},
		{
			"buffer":0,
			"byteLength":272,
			"byteOffset":80684
		},
		{
			"buffer":0,
			"byteLength":24,
			"byteOffset":80956
		},
		{
			"buffer":0,
			"byteLength":204,
			"byteOffset":80980
		},
		{
			"buffer":0,
			"byteLength":272,
			"byteOffset":81184
		},
		{
			"buffer":0,
			"byteLength":24,
			"byteOffset":81456
		},
		{
			"buffer":0,
			"byteLength":204,
			"byteOffset":81480
		},
		{
			"buffer":0,
			"byteLength":272,
			"byteOffset":81684
		},
		{
			"buffer":0,
			"byteLength":24,
			"byteOffset":81956
		},
		{
			"buffer":0,
			"byteLength":24,
			"byteOffset":81980
		},
		{
			"buffer":0,
			"byteLength":272,
			"byteOffset":82004
		},
		{
			"buffer":0,
			"byteLength":24,
			"byteOffset":82276
		},
		{
			"buffer":0,
			"byteLength":204,
			"byteOffset":82300
		},
		{
			"buffer":0,
			"byteLength":272,
			"byteOffset":82504
		},
		{
			"buffer":0,
			"byteLength":24,
			"byteOffset":82776
		},
		{
			"buffer":0,
			"byteLength":204,
			"byteOffset":82800
		},
		{
			"buffer":0,
			"byteLength":272,
			"byteOffset":83004
		},
		{
			"buffer":0,
			"byteLength":24,
			"byteOffset":83276
		},
		{
			"buffer":0,
			"byteLength":204,
			"byteOffset":83300
		},
		{
			"buffer":0,
			"byteLength":272,
			"byteOffset":83504
		},
		{
			"buffer":0,
			"byteLength":24,
			"byteOffset":83776
		},
		{
			"buffer":0,
			"byteLength":204,
			"byteOffset":83800
		},
		{
			"buffer":0,
			"byteLength":272,
			"byteOffset":84004
		},
		{
			"buffer":0,
			"byteLength":24,
			"byteOffset":84276
		},
		{
			"buffer":0,
			"byteLength":204,
			"byteOffset":84300
		},
		{
			"buffer":0,
			"byteLength":272,
			"byteOffset":84504
		},
		{
			"buffer":0,
			"byteLength":204,
			"byteOffset":84776
		},
		{
			"buffer":0,
			"byteLength":272,
			"byteOffset":84980
		},
		{
			"buffer":0,
			"byteLength":24,
			"byteOffset":85252
		},
		{
			"buffer":0,
			"byteLength":204,
			"byteOffset":85276
		},
		{
			"buffer":0,
			"byteLength":272,
			"byteOffset":85480
		},
		{
			"buffer":0,
			"byteLength":24,
			"byteOffset":85752
		},
		{
			"buffer":0,
			"byteLength":24,
			"byteOffset":85776
		},
		{
			"buffer":0,
			"byteLength":272,
			"byteOffset":85800
		},
		{
			"buffer":0,
			"byteLength":24,
			"byteOffset":86072
		},
		{
			"buffer":0,
			"byteLength":204,
			"byteOffset":86096
		},
		{
			"buffer":0,
			"byteLength":272,
			"byteOffset":86300
		},
		{
			"buffer":0,
			"byteLength":24,
			"byteOffset":86572
		},
		{
			"buffer":0,
			"byteLength":204,
			"byteOffset":86596
		},
		{
			"buffer":0,
			"byteLength":272,
			"byteOffset":86800
		},
		{
			"buffer":0,
			"byteLength":24,
			"byteOffset":87072
		},
		{
			"buffer":0,
			"byteLength":24,
			"byteOffset":87096
		},
		{
			"buffer":0,
			"byteLength":272,
			"byteOffset":87120
		},
		{
			"buffer":0,
			"byteLength":24,
			"byteOffset":87392
		},
		{
			"buffer":0,
			"byteLength":204,
			"byteOffset":87416
		},
		{
			"buffer":0,
			"byteLength":272,
			"byteOffset":87620
		},
		{
			"buffer":0,
			"byteLength":204,
			"byteOffset":87892
		},
		{
			"buffer":0,
			"byteLength":272,
			"byteOffset":88096
		},
		{
			"buffer":0,
			"byteLength":204,
			"byteOffset":88368
		},
		{
			"buffer":0,
			"byteLength":272,
			"byteOffset":88572
		},
		{
			"buffer":0,
			"byteLength":24,
			"byteOffset":88844
		},
		{
			"buffer":0,
			"byteLength":204,
			"byteOffset":88868
		},
		{
			"buffer":0,
			"byteLength":272,
			"byteOffset":89072
		},
		{
			"buffer":0,
			"byteLength":24,
			"byteOffset":89344
		}
	],
	"samplers":[
		{
			"magFilter":9729,
			"minFilter":9987
		}
	],
	"buffers":[
		{
			"byteLength":89368,
			"uri":"BlueSwarm.bin"
		}
	]
}
