{
	"asset":{
		"generator":"Khronos glTF Blender I/O v5.1.19",
		"version":"2.0"
	},
	"scene":0,
	"scenes":[
		{
			"name":"Scene",
			"nodes":[
				12
			]
		}
	],
	"nodes":[
		{
			"name":"Head",
			"rotation":[
				-3.5527119847346064e-15,
				0,
				-4.235166755755419e-22,
				1
			],
			"translation":[
				0,
				2.057238817214966,
				0
			]
		},
		{
			"name":"LowerArm.R",
			"rotation":[
				-5.082480108351646e-22,
				1.509903313490213e-14,
				-1.4210853021136109e-14,
				1
			],
			"translation":[
				2.3841863594498136e-07,
				1.2270392179489136,
				7.10542481650216e-15
			]
		},
		{
			"children":[
				1
			],
			"name":"UpperArm.R",
			"rotation":[
				-6.883937686552599e-08,
				-9.974801429279978e-08,
				0.7071067690849304,
				0.7071067690849304
			],
			"translation":[
				-0.9860137104988098,
				1.458327054977417,
				-1.506895159764099e-07
			]
		},
		{
			"name":"LowerArm.L",
			"rotation":[
				5.364448530829927e-22,
				-8.881784197001252e-16,
				-1.4210853868169056e-14,
				1
			],
			"translation":[
				-2.3841850804728892e-07,
				1.2270392179489136,
				7.105429898699844e-15
			]
		},
		{
			"children":[
				3
			],
			"name":"UpperArm.L",
			"rotation":[
				9.974800718737242e-08,
				-6.883938397095335e-08,
				-0.7071067690849304,
				0.7071067690849304
			],
			"translation":[
				0.9860137104988098,
				1.458327054977417,
				3.1947843126545195e-07
			]
		},
		{
			"children":[
				0,
				2,
				4
			],
			"name":"Spain",
			"rotation":[
				-3.5527119847346064e-15,
				1.4210854715202004e-14,
				-4.235166755755419e-22,
				1
			],
			"translation":[
				0,
				2.5089454650878906,
				0
			]
		},
		{
			"name":"LowerLeg.R",
			"rotation":[
				1.7202174129593573e-09,
				-8.33307183256693e-08,
				-0.010074046440422535,
				0.9999492764472961
			],
			"translation":[
				-5.587974083454128e-09,
				1.2084163427352905,
				5.684341886080802e-14
			]
		},
		{
			"children":[
				6
			],
			"name":"UpperLeg.R",
			"rotation":[
				2.4556649691476196e-07,
				-6.709706923402337e-08,
				-0.9999492764472961,
				0.010074048303067684
			],
			"translation":[
				-0.572131335735321,
				2.5089454650878906,
				-1.4294893446731294e-07
			]
		},
		{
			"name":"LowerLeg.L",
			"rotation":[
				1.7202184121600794e-09,
				8.333020673489955e-08,
				0.010074046440422535,
				0.9999492764472961
			],
			"translation":[
				5.587974083454128e-09,
				1.2084163427352905,
				4.263256414560601e-14
			]
		},
		{
			"children":[
				8
			],
			"name":"UpperLeg.L",
			"rotation":[
				7.1601333750948015e-09,
				6.469522872976086e-08,
				0.9999492764472961,
				0.010074048303067684
			],
			"translation":[
				0.572131335735321,
				2.5089454650878906,
				1.2986451736196614e-07
			]
		},
		{
			"children":[
				5,
				7,
				9
			],
			"name":"Root",
			"rotation":[
				-2.980232594040899e-08,
				1.1920927533992653e-07,
				0,
				1
			],
			"scale":[
				1,
				0.9999999403953552,
				0.9999999403953552
			]
		},
		{
			"mesh":0,
			"name":"\u7acb\u65b9\u4f53.002",
			"skin":0
		},
		{
			"children":[
				11,
				10
			],
			"name":"\u30a2\u30fc\u30de\u30c1\u30e5\u30a2"
		}
	],
	"animations":[
		{
			"channels":[
				{
					"sampler":0,
					"target":{
						"node":10,
						"path":"translation"
					}
				},
				{
					"sampler":1,
					"target":{
						"node":10,
						"path":"rotation"
					}
				},
				{
					"sampler":2,
					"target":{
						"node":10,
						"path":"scale"
					}
				},
				{
					"sampler":3,
					"target":{
						"node":5,
						"path":"translation"
					}
				},
				{
					"sampler":4,
					"target":{
						"node":5,
						"path":"rotation"
					}
				},
				{
					"sampler":5,
					"target":{
						"node":5,
						"path":"scale"
					}
				},
				{
					"sampler":6,
					"target":{
						"node":0,
						"path":"translation"
					}
				},
				{
					"sampler":7,
					"target":{
						"node":0,
						"path":"rotation"
					}
				},
				{
					"sampler":8,
					"target":{
						"node":0,
						"path":"scale"
					}
				},
				{
					"sampler":9,
					"target":{
						"node":2,
						"path":"translation"
					}
				},
				{
					"sampler":10,
					"target":{
						"node":2,
						"path":"rotation"
					}
				},
				{
					"sampler":11,
					"target":{
						"node":2,
						"path":"scale"
					}
				},
				{
					"sampler":12,
					"target":{
						"node":1,
						"path":"translation"
					}
				},
				{
					"sampler":13,
					"target":{
						"node":1,
						"path":"rotation"
					}
				},
				{
					"sampler":14,
					"target":{
						"node":1,
						"path":"scale"
					}
				},
				{
					"sampler":15,
					"target":{
						"node":4,
						"path":"translation"
					}
				},
				{
					"sampler":16,
					"target":{
						"node":4,
						"path":"rotation"
					}
				},
				{
					"sampler":17,
					"target":{
						"node":4,
						"path":"scale"
					}
				},
				{
					"sampler":18,
					"target":{
						"node":3,
						"path":"translation"
					}
				},
				{
					"sampler":19,
					"target":{
						"node":3,
						"path":"rotation"
					}
				},
				{
					"sampler":20,
					"target":{
						"node":3,
						"path":"scale"
					}
				},
				{
					"sampler":21,
					"target":{
						"node":7,
						"path":"translation"
					}
				},
				{
					"sampler":22,
					"target":{
						"node":7,
						"path":"rotation"
					}
				},
				{
					"sampler":23,
					"target":{
						"node":7,
						"path":"scale"
					}
				},
				{
					"sampler":24,
					"target":{
						"node":6,
						"path":"translation"
					}
				},
				{
					"sampler":25,
					"target":{
						"node":6,
						"path":"rotation"
					}
				},
				{
					"sampler":26,
					"target":{
						"node":6,
						"path":"scale"
					}
				},
				{
					"sampler":27,
					"target":{
						"node":9,
						"path":"translation"
					}
				},
				{
					"sampler":28,
					"target":{
						"node":9,
						"path":"rotation"
					}
				},
				{
					"sampler":29,
					"target":{
						"node":9,
						"path":"scale"
					}
				},
				{
					"sampler":30,
					"target":{
						"node":8,
						"path":"translation"
					}
				},
				{
					"sampler":31,
					"target":{
						"node":8,
						"path":"rotation"
					}
				},
				{
					"sampler":32,
					"target":{
						"node":8,
						"path":"scale"
					}
				}
			],
			"name":"Bow",
			"samplers":[
				{
					"input":7,
					"interpolation":"STEP",
					"output":8
				},
				{
					"input":7,
					"interpolation":"STEP",
					"output":9
				},
				{
					"input":7,
					"interpolation":"STEP",
					"output":10
				},
				{
					"input":7,
					"interpolation":"STEP",
					"output":11
				},
				{
					"input":12,
					"interpolation":"LINEAR",
					"output":13
				},
				{
					"input":7,
					"interpolation":"STEP",
					"output":14
				},
				{
					"input":7,
					"interpolation":"STEP",
					"output":15
				},
				{
					"input":12,
					"interpolation":"LINEAR",
					"output":16
				},
				{
					"input":7,
					"interpolation":"STEP",
					"output":14
				},
				{
					"input":7,
					"interpolation":"STEP",
					"output":17
				},
				{
					"input":12,
					"interpolation":"LINEAR",
					"output":18
				},
				{
					"input":7,
					"interpolation":"STEP",
					"output":14
				},
				{
					"input":7,
					"interpolation":"STEP",
					"output":19
				},
				{
					"input":12,
					"interpolation":"LINEAR",
					"output":20
				},
				{
					"input":7,
					"interpolation":"STEP",
					"output":21
				},
				{
					"input":7,
					"interpolation":"STEP",
					"output":22
				},
				{
					"input":12,
					"interpolation":"LINEAR",
					"output":23
				},
				{
					"input":7,
					"interpolation":"STEP",
					"output":14
				},
				{
					"input":7,
					"interpolation":"STEP",
					"output":24
				},
				{
					"input":12,
					"interpolation":"LINEAR",
					"output":25
				},
				{
					"input":7,
					"interpolation":"STEP",
					"output":21
				},
				{
					"input":7,
					"interpolation":"STEP",
					"output":26
				},
				{
					"input":7,
					"interpolation":"STEP",
					"output":27
				},
				{
					"input":7,
					"interpolation":"STEP",
					"output":14
				},
				{
					"input":7,
					"interpolation":"STEP",
					"output":28
				},
				{
					"input":7,
					"interpolation":"STEP",
					"output":29
				},
				{
					"input":7,
					"interpolation":"STEP",
					"output":14
				},
				{
					"input":7,
					"interpolation":"STEP",
					"output":30
				},
				{
					"input":7,
					"interpolation":"STEP",
					"output":31
				},
				{
					"input":7,
					"interpolation":"STEP",
					"output":14
				},
				{
					"input":7,
					"interpolation":"STEP",
					"output":32
				},
				{
					"input":7,
					"interpolation":"STEP",
					"output":33
				},
				{
					"input":7,
					"interpolation":"STEP",
					"output":14
				}
			]
		}
	],
	"meshes":[
		{
			"name":"\u7acb\u65b9\u4f53.002",
			"primitives":[
				{
					"attributes":{
						"POSITION":0,
						"NORMAL":1,
						"TEXCOORD_0":2,
						"JOINTS_0":3,
						"WEIGHTS_0":4
					},
					"indices":5
				}
			]
		}
	],
	"skins":[
		{
			"inverseBindMatrices":6,
			"joints":[
				10,
				5,
				0,
				2,
				1,
				4,
				3,
				7,
				6,
				9,
				8
			],
			"name":"\u30a2\u30fc\u30de\u30c1\u30e5\u30a2"
		}
	],
	"accessors":[
		{
			"bufferView":0,
			"componentType":5126,
			"count":336,
			"max":[
				3.5697219371795654,
				6.648549556732178,
				1
			],
			"min":[
				-3.5697226524353027,
				0.024162769317626953,
				-1
			],
			"type":"VEC3"
		},
		{
			"bufferView":1,
			"componentType":5126,
			"count":336,
			"type":"VEC3"
		},
		{
			"bufferView":2,
			"componentType":5126,
			"count":336,
			"type":"VEC2"
		},
		{
			"bufferView":3,
			"componentType":5121,
			"count":336,
			"type":"VEC4"
		},
		{
			"bufferView":4,
			"componentType":5126,
			"count":336,
			"type":"VEC4"
		},
		{
			"bufferView":5,
			"componentType":5123,
			"count":792,
			"type":"SCALAR"
		},
		{
			"bufferView":6,
			"componentType":5126,
			"count":11,
			"type":"MAT4"
		},
		{
			"bufferView":7,
			"componentType":5126,
			"count":2,
			"max":[
				5.958333333333333
			],
			"min":[
				0.041666666666666664
			],
			"type":"SCALAR"
		},
		{
			"bufferView":8,
			"componentType":5126,
			"count":2,
			"type":"VEC3"
		},
		{
			"bufferView":9,
			"componentType":5126,
			"count":2,
			"type":"VEC4"
		},
		{
			"bufferView":10,
			"componentType":5126,
			"count":2,
			"type":"VEC3"
		},
		{
			"bufferView":11,
			"componentType":5126,
			"count":2,
			"type":"VEC3"
		},
		{
			"bufferView":12,
			"componentType":5126,
			"count":143,
			"max":[
				5.958333333333333
			],
			"min":[
				0.041666666666666664
			],
			"type":"SCALAR"
		},
		{
			"bufferView":13,
			"componentType":5126,
			"count":143,
			"type":"VEC4"
		},
		{
			"bufferView":14,
			"componentType":5126,
			"count":2,
			"type":"VEC3"
		},
		{
			"bufferView":15,
			"componentType":5126,
			"count":2,
			"type":"VEC3"
		},
		{
			"bufferView":16,
			"componentType":5126,
			"count":143,
			"type":"VEC4"
		},
		{
			"bufferView":17,
			"componentType":5126,
			"count":2,
			"type":"VEC3"
		},
		{
			"bufferView":18,
			"componentType":5126,
			"count":143,
			"type":"VEC4"
		},
		{
			"bufferView":19,
			"componentType":5126,
			"count":2,
			"type":"VEC3"
		},
		{
			"bufferView":20,
			"componentType":5126,
			"count":143,
			"type":"VEC4"
		},
		{
			"bufferView":21,
			"componentType":5126,
			"count":2,
			"type":"VEC3"
		},
		{
			"bufferView":22,
			"componentType":5126,
			"count":2,
			"type":"VEC3"
		},
		{
			"bufferView":23,
			"componentType":5126,
			"count":143,
			"type":"VEC4"
		},
		{
			"bufferView":24,
			"componentType":5126,
			"count":2,
			"type":"VEC3"
		},
		{
			"bufferView":25,
			"componentType":5126,
			"count":143,
			"type":"VEC4"
		},
		{
			"bufferView":26,
			"componentType":5126,
			"count":2,
			"type":"VEC3"
		},
		{
			"bufferView":27,
			"componentType":5126,
			"count":2,
			"type":"VEC4"
		},
		{
			"bufferView":28,
			"componentType":5126,
			"count":2,
			"type":"VEC3"
		},
		{
			"bufferView":29,
			"componentType":5126,
			"count":2,
			"type":"VEC4"
		},
		{
			"bufferView":30,
			"componentType":5126,
			"count":2,
			"type":"VEC3"
		},
		{
			"bufferView":31,
			"componentType":5126,
			"count":2,
			"type":"VEC4"
		},
		{
			"bufferView":32,
			"componentType":5126,
			"count":2,
			"type":"VEC3"
		},
		{
			"bufferView":33,
			"componentType":5126,
			"count":2,
			"type":"VEC4"
		}
	],
	"bufferViews":[
		{
			"buffer":0,
			"byteLength":4032,
			"byteOffset":0,
			"target":34962
		},
		{
			"buffer":0,
			"byteLength":4032,
			"byteOffset":4032,
			"target":34962
		},
		{
			"buffer":0,
			"byteLength":2688,
			"byteOffset":8064,
			"target":34962
		},
		{
			"buffer":0,
			"byteLength":1344,
			"byteOffset":10752,
			"target":34962
		},
		{
			"buffer":0,
			"byteLength":5376,
			"byteOffset":12096,
			"target":34962
		},
		{
			"buffer":0,
			"byteLength":1584,
			"byteOffset":17472,
			"target":34963
		},
		{
			"buffer":0,
			"byteLength":704,
			"byteOffset":19056
		},
		{
			"buffer":0,
			"byteLength":8,
			"byteOffset":19760
		},
		{
			"buffer":0,
			"byteLength":24,
			"byteOffset":19768
		},
		{
			"buffer":0,
			"byteLength":32,
			"byteOffset":19792
		},
		{
			"buffer":0,
			"byteLength":24,
			"byteOffset":19824
		},
		{
			"buffer":0,
			"byteLength":24,
			"byteOffset":19848
		},
		{
			"buffer":0,
			"byteLength":572,
			"byteOffset":19872
		},
		{
			"buffer":0,
			"byteLength":2288,
			"byteOffset":20444
		},
		{
			"buffer":0,
			"byteLength":24,
			"byteOffset":22732
		},
		{
			"buffer":0,
			"byteLength":24,
			"byteOffset":22756
		},
		{
			"buffer":0,
			"byteLength":2288,
			"byteOffset":22780
		},
		{
			"buffer":0,
			"byteLength":24,
			"byteOffset":25068
		},
		{
			"buffer":0,
			"byteLength":2288,
			"byteOffset":25092
		},
		{
			"buffer":0,
			"byteLength":24,
			"byteOffset":27380
		},
		{
			"buffer":0,
			"byteLength":2288,
			"byteOffset":27404
		},
		{
			"buffer":0,
			"byteLength":24,
			"byteOffset":29692
		},
		{
			"buffer":0,
			"byteLength":24,
			"byteOffset":29716
		},
		{
			"buffer":0,
			"byteLength":2288,
			"byteOffset":29740
		},
		{
			"buffer":0,
			"byteLength":24,
			"byteOffset":32028
		},
		{
			"buffer":0,
			"byteLength":2288,
			"byteOffset":32052
		},
		{
			"buffer":0,
			"byteLength":24,
			"byteOffset":34340
		},
		{
			"buffer":0,
			"byteLength":32,
			"byteOffset":34364
		},
		{
			"buffer":0,
			"byteLength":24,
			"byteOffset":34396
		},
		{
			"buffer":0,
			"byteLength":32,
			"byteOffset":34420
		},
		{
			"buffer":0,
			"byteLength":24,
			"byteOffset":34452
		},
		{
			"buffer":0,
			"byteLength":32,
			"byteOffset":34476
		},
		{
			"buffer":0,
			"byteLength":24,
			"byteOffset":34508
		},
		{
			"buffer":0,
			"byteLength":32,
			"byteOffset":34532
		}
	],
	"buffers":[
		{
			"byteLength":34564,
			"uri":"TestChara.bin"
		}
	]
}
