{
	"asset":{
		"generator":"Khronos glTF Blender I/O v5.1.19",
		"version":"2.0"
	},
	"scene":0,
	"scenes":[
		{
			"name":"Scene",
			"nodes":[
				0,
				1,
				2,
				3,
				4,
				5,
				6,
				7,
				8,
				9,
				10,
				11,
				12,
				13,
				14,
				15,
				16,
				17,
				18,
				19,
				20,
				21,
				22,
				23,
				24,
				25,
				26,
				27,
				28,
				29,
				30,
				31,
				32,
				33,
				34,
				35,
				36,
				37,
				38,
				39,
				40,
				41,
				42,
				43,
				44,
				45,
				46,
				47,
				48,
				49,
				50,
				51,
				52,
				53,
				54,
				55,
				56,
				57,
				58,
				59,
				60,
				61,
				62,
				63,
				64,
				65,
				66,
				67,
				68,
				69,
				70,
				71,
				72,
				73,
				74,
				75,
				76
			]
		}
	],
	"nodes":[
		{
			"mesh":0,
			"name":"COL1_Ground",
			"scale":[
				9.200004577636719,
				1,
				9.200004577636719
			],
			"translation":[
				0,
				1,
				0
			]
		},
		{
			"mesh":1,
			"name":"COL2_Ground",
			"scale":[
				6.100002288818359,
				1,
				6.100002288818359
			],
			"translation":[
				15,
				4.599999904632568,
				-15
			]
		},
		{
			"mesh":2,
			"name":"COL3_Ground",
			"scale":[
				6.100002288818359,
				1,
				6.100002288818359
			],
			"translation":[
				-15,
				4.599999904632568,
				-15
			]
		},
		{
			"mesh":3,
			"name":"COL4_Ground",
			"scale":[
				6.100002288818359,
				1,
				6.100002288818359
			],
			"translation":[
				-15,
				4.599999904632568,
				15
			]
		},
		{
			"mesh":4,
			"name":"COL5_Ground",
			"scale":[
				6.100002288818359,
				1,
				6.100002288818359
			],
			"translation":[
				15,
				4.599999904632568,
				15
			]
		},
		{
			"mesh":5,
			"name":"COL6_Ground",
			"scale":[
				3.0999999046325684,
				1,
				6.100002288818359
			],
			"translation":[
				6,
				4.599999904632568,
				15
			]
		},
		{
			"mesh":6,
			"name":"COL7_Ground",
			"scale":[
				3.0999999046325684,
				1,
				6.100002288818359
			],
			"translation":[
				-6,
				4.599999904632568,
				15
			]
		},
		{
			"mesh":7,
			"name":"COL8_Ground",
			"scale":[
				3.0999999046325684,
				1,
				6.100002288818359
			],
			"translation":[
				6,
				4.599999904632568,
				-15
			]
		},
		{
			"mesh":8,
			"name":"COL10_Ground",
			"scale":[
				3.0999999046325684,
				1,
				6.100002288818359
			],
			"translation":[
				-6,
				4.599999904632568,
				-15
			]
		},
		{
			"mesh":9,
			"name":"COL9_Ground",
			"rotation":[
				0,
				0.7071068286895752,
				0,
				0.7071068286895752
			],
			"scale":[
				3.0999999046325684,
				1,
				6.100002288818359
			],
			"translation":[
				15,
				4.599999904632568,
				-6
			]
		},
		{
			"mesh":10,
			"name":"COL11_Ground",
			"rotation":[
				0,
				0.7071068286895752,
				0,
				0.7071068286895752
			],
			"scale":[
				3.0999999046325684,
				1,
				6.100002288818359
			],
			"translation":[
				15,
				4.599999904632568,
				6
			]
		},
		{
			"mesh":11,
			"name":"COL12_Ground",
			"rotation":[
				0,
				0.7071068286895752,
				0,
				0.7071068286895752
			],
			"scale":[
				3.0999999046325684,
				1,
				6.100002288818359
			],
			"translation":[
				-15,
				4.599999904632568,
				-6
			]
		},
		{
			"mesh":12,
			"name":"COL13_Ground",
			"rotation":[
				0,
				0.7071068286895752,
				0,
				0.7071068286895752
			],
			"scale":[
				3.0999999046325684,
				1,
				6.100002288818359
			],
			"translation":[
				-15,
				4.599999904632568,
				6
			]
		},
		{
			"mesh":13,
			"name":"COL14_Ground",
			"scale":[
				3.0999999046325684,
				1,
				3.5999999046325684
			],
			"translation":[
				0,
				4.599999904632568,
				-17.5
			]
		},
		{
			"mesh":14,
			"name":"COL15_Ground",
			"scale":[
				3.0999999046325684,
				1,
				3.5999999046325684
			],
			"translation":[
				0,
				4.599999904632568,
				17.5
			]
		},
		{
			"mesh":15,
			"name":"COL16_Ground",
			"scale":[
				3.5999999046325684,
				1,
				3.0999999046325684
			],
			"translation":[
				17.5,
				4.599999904632568,
				0
			]
		},
		{
			"mesh":16,
			"name":"COL17_Ground",
			"scale":[
				3.5999999046325684,
				1,
				3.0999999046325684
			],
			"translation":[
				-17.5,
				4.599999904632568,
				0
			]
		},
		{
			"mesh":17,
			"name":"COL18_Ground",
			"rotation":[
				0,
				0,
				0.3065260648727417,
				0.9518622756004333
			],
			"scale":[
				3.0999999046325684,
				1,
				3.0999999046325684
			],
			"translation":[
				11.5,
				2.799999952316284,
				0
			]
		},
		{
			"mesh":18,
			"name":"COL19_Ground",
			"rotation":[
				0.21674668788909912,
				0.6730682253837585,
				0.21674668788909912,
				0.6730682849884033
			],
			"scale":[
				3.0999999046325684,
				1,
				3.0999999046325684
			],
			"translation":[
				0,
				2.799999952316284,
				-11.5
			]
		},
		{
			"mesh":19,
			"name":"COL20_Ground",
			"rotation":[
				-0.3065260648727417,
				-0.9518622756004333,
				0,
				1.5507805528613972e-07
			],
			"scale":[
				3.0999999046325684,
				1,
				3.0999999046325684
			],
			"translation":[
				-11.5,
				2.799999952316284,
				0
			]
		},
		{
			"mesh":20,
			"name":"COL21_Ground",
			"rotation":[
				-0.21674664318561554,
				-0.673068106174469,
				0.2167467623949051,
				0.6730684638023376
			],
			"scale":[
				3.0999999046325684,
				1,
				3.0999999046325684
			],
			"translation":[
				0,
				2.799999952316284,
				11.5
			]
		},
		{
			"mesh":21,
			"name":"COL22_Ground",
			"scale":[
				0.3500005900859833,
				1,
				22.060001373291016
			],
			"translation":[
				21.700000762939453,
				6.070000171661377,
				0.009999999776482582
			]
		},
		{
			"mesh":22,
			"name":"COL23_Ground",
			"scale":[
				0.3500005900859833,
				1,
				22.060001373291016
			],
			"translation":[
				-21.700000762939453,
				6.070000171661377,
				0.009999999776482582
			]
		},
		{
			"mesh":23,
			"name":"COL24_Ground",
			"rotation":[
				0,
				0.7071068286895752,
				0,
				0.7071068286895752
			],
			"scale":[
				0.3500005900859833,
				1,
				22.060001373291016
			],
			"translation":[
				-0.009999999776482582,
				6.070000171661377,
				21.700000762939453
			]
		},
		{
			"mesh":24,
			"name":"COL25_Ground",
			"rotation":[
				0,
				0.7071068286895752,
				0,
				0.7071068286895752
			],
			"scale":[
				0.3500005900859833,
				1,
				22.060001373291016
			],
			"translation":[
				-0.009999999776482582,
				6.070000171661377,
				-21.700000762939453
			]
		},
		{
			"mesh":25,
			"name":"COL26_Ground",
			"rotation":[
				0,
				0.7071068286895752,
				0,
				0.7071068286895752
			],
			"scale":[
				0.7200002670288086,
				1,
				22.460010528564453
			],
			"translation":[
				-0.009999999776482582,
				4.599999904632568,
				-21.700000762939453
			]
		},
		{
			"mesh":26,
			"name":"COL27_Ground",
			"rotation":[
				0,
				0.7071068286895752,
				0,
				0.7071068286895752
			],
			"scale":[
				0.7200002670288086,
				1,
				22.460010528564453
			],
			"translation":[
				-0.009999999776482582,
				4.599999904632568,
				21.700000762939453
			]
		},
		{
			"mesh":27,
			"name":"COL28_Ground",
			"rotation":[
				0,
				-1,
				0,
				1.6292068494294654e-07
			],
			"scale":[
				0.7200002670288086,
				1,
				22.460010528564453
			],
			"translation":[
				-21.700000762939453,
				4.599999904632568,
				0.009999999776482582
			]
		},
		{
			"mesh":28,
			"name":"COL29_Ground",
			"rotation":[
				0,
				-1,
				0,
				1.6292068494294654e-07
			],
			"scale":[
				0.7200002670288086,
				1,
				22.460010528564453
			],
			"translation":[
				21.700000762939453,
				4.599999904632568,
				0.009999999776482582
			]
		},
		{
			"mesh":29,
			"name":"COL1_Wall",
			"rotation":[
				0.7071068286895752,
				0,
				0,
				0.7071068286895752
			],
			"scale":[
				3,
				1,
				1.8499999046325684
			],
			"translation":[
				6,
				2.819999933242798,
				-9
			]
		},
		{
			"mesh":30,
			"name":"COL2_Wall",
			"rotation":[
				0.5,
				0.5,
				-0.5,
				0.5
			],
			"scale":[
				3,
				1,
				1.8499999046325684
			],
			"translation":[
				9,
				2.819999933242798,
				-6
			]
		},
		{
			"mesh":31,
			"name":"COL3_Wall",
			"rotation":[
				0.7071068286895752,
				0,
				0,
				0.7071068286895752
			],
			"scale":[
				3,
				1,
				1.8499999046325684
			],
			"translation":[
				-6,
				2.819999933242798,
				-9
			]
		},
		{
			"mesh":32,
			"name":"COL4_Wall",
			"rotation":[
				0.5,
				0.5,
				-0.5,
				0.5
			],
			"scale":[
				3,
				1,
				1.8499999046325684
			],
			"translation":[
				-9,
				2.819999933242798,
				-6
			]
		},
		{
			"mesh":33,
			"name":"COL5_Wall",
			"rotation":[
				0.7071068286895752,
				0,
				0,
				0.7071068286895752
			],
			"scale":[
				3,
				1,
				1.8499999046325684
			],
			"translation":[
				-6,
				2.819999933242798,
				9
			]
		},
		{
			"mesh":34,
			"name":"COL6_Wall",
			"rotation":[
				0.5,
				0.5,
				-0.5,
				0.5
			],
			"scale":[
				3,
				1,
				1.850000023841858
			],
			"translation":[
				-9,
				2.819999933242798,
				6
			]
		},
		{
			"mesh":35,
			"name":"COL7_Wall",
			"rotation":[
				0.7071068286895752,
				0,
				0,
				0.7071068286895752
			],
			"scale":[
				3,
				1,
				1.8499999046325684
			],
			"translation":[
				6,
				2.819999933242798,
				9
			]
		},
		{
			"mesh":36,
			"name":"COL8_Wall",
			"rotation":[
				0.5,
				0.5,
				-0.5,
				0.5
			],
			"scale":[
				3,
				1,
				1.8499999046325684
			],
			"translation":[
				9,
				2.819999933242798,
				6
			]
		},
		{
			"mesh":37,
			"name":"COL9_Wall",
			"rotation":[
				0.5,
				0.5,
				-0.5,
				0.5
			],
			"scale":[
				3,
				1,
				1.8499999046325684
			],
			"translation":[
				-3,
				2.819999933242798,
				-12
			]
		},
		{
			"mesh":38,
			"name":"COL10_Wall",
			"rotation":[
				0.5,
				0.5,
				-0.5,
				0.5
			],
			"scale":[
				3,
				1,
				1.8499999046325684
			],
			"translation":[
				3,
				2.819999933242798,
				-12
			]
		},
		{
			"mesh":39,
			"name":"COL11_Wall",
			"rotation":[
				0.5,
				0.5,
				-0.5,
				0.5
			],
			"scale":[
				3,
				1,
				1.8499999046325684
			],
			"translation":[
				-3,
				2.819999933242798,
				12
			]
		},
		{
			"mesh":40,
			"name":"COL12_Wall",
			"rotation":[
				0.5,
				0.5,
				-0.5,
				0.5
			],
			"scale":[
				3,
				1,
				1.8499999046325684
			],
			"translation":[
				3,
				2.819999933242798,
				12
			]
		},
		{
			"mesh":41,
			"name":"COL13_Wall",
			"rotation":[
				0,
				-0.7071068286895752,
				0.7071068286895752,
				1.1520233300643667e-07
			],
			"scale":[
				3,
				1,
				1.8499999046325684
			],
			"translation":[
				12,
				2.819999933242798,
				-3
			]
		},
		{
			"mesh":42,
			"name":"COL14_Wall",
			"rotation":[
				0,
				-0.7071068286895752,
				0.7071068286895752,
				1.1520233300643667e-07
			],
			"scale":[
				3,
				1,
				1.8499999046325684
			],
			"translation":[
				12,
				2.819999933242798,
				3
			]
		},
		{
			"mesh":43,
			"name":"COL15_Wall",
			"rotation":[
				0,
				-0.7071068286895752,
				0.7071068286895752,
				1.1520233300643667e-07
			],
			"scale":[
				3,
				1,
				1.8499999046325684
			],
			"translation":[
				-12,
				2.819999933242798,
				-3
			]
		},
		{
			"mesh":44,
			"name":"COL16_Wall",
			"rotation":[
				0,
				-0.7071068286895752,
				0.7071068286895752,
				1.1520233300643667e-07
			],
			"scale":[
				3,
				1,
				1.8499999046325684
			],
			"translation":[
				-12,
				2.819999933242798,
				3
			]
		},
		{
			"mesh":45,
			"name":"COL17_Wall",
			"rotation":[
				0.7071068286895752,
				0,
				0,
				0.7071068286895752
			],
			"scale":[
				22.399999618530273,
				1,
				1.999999761581421
			],
			"translation":[
				0,
				2.5999999046325684,
				-22.399999618530273
			]
		},
		{
			"mesh":46,
			"name":"COL18_Wall",
			"rotation":[
				0.7071068286895752,
				0,
				0,
				0.7071068286895752
			],
			"scale":[
				22.399999618530273,
				1,
				1.999999761581421
			],
			"translation":[
				0,
				2.5999999046325684,
				22.399999618530273
			]
		},
		{
			"mesh":47,
			"name":"COL25_Wall",
			"rotation":[
				0.5,
				0.5,
				-0.5,
				0.5
			],
			"scale":[
				22.399999618530273,
				1,
				1.999999761581421
			],
			"translation":[
				22.399999618530273,
				2.5999999046325684,
				0
			]
		},
		{
			"mesh":48,
			"name":"COL26_Wall",
			"rotation":[
				0.5,
				0.5,
				-0.5,
				0.5
			],
			"scale":[
				22.399999618530273,
				1,
				1.999999761581421
			],
			"translation":[
				-22.399999618530273,
				2.5999999046325684,
				0
			]
		},
		{
			"mesh":49,
			"name":"COL19_Wall",
			"rotation":[
				0.5,
				0.5,
				-0.5,
				0.5
			],
			"scale":[
				22.060001373291016,
				1,
				0.7300000190734863
			],
			"translation":[
				-22.044836044311523,
				5.329999923706055,
				0
			]
		},
		{
			"mesh":50,
			"name":"COL20_Wall",
			"rotation":[
				0.5,
				0.5,
				-0.5,
				0.5
			],
			"scale":[
				22.060001373291016,
				1,
				0.7300000190734863
			],
			"translation":[
				22.0447998046875,
				5.329999923706055,
				0
			]
		},
		{
			"mesh":51,
			"name":"COL21_Wall",
			"rotation":[
				0,
				-0.7071068286895752,
				0.7071068286895752,
				1.1520233300643667e-07
			],
			"scale":[
				22.060001373291016,
				1,
				0.7300000190734863
			],
			"translation":[
				0,
				5.329999923706055,
				22.0447998046875
			]
		},
		{
			"mesh":52,
			"name":"COL22_Wall",
			"rotation":[
				0,
				-0.7071068286895752,
				0.7071068286895752,
				1.1520233300643667e-07
			],
			"scale":[
				22.060001373291016,
				1,
				0.7300000190734863
			],
			"translation":[
				0,
				5.329999923706055,
				-22.0447998046875
			]
		},
		{
			"mesh":53,
			"name":"COL23_Wall",
			"rotation":[
				0,
				-0.7071068286895752,
				0.7071068286895752,
				1.1520233300643667e-07
			],
			"scale":[
				21.349985122680664,
				1,
				0.7300000190734863
			],
			"translation":[
				0,
				5.329999923706055,
				21.350000381469727
			]
		},
		{
			"mesh":54,
			"name":"COL24_Wall",
			"rotation":[
				0,
				-0.7071068286895752,
				0.7071068286895752,
				1.1520233300643667e-07
			],
			"scale":[
				21.349985122680664,
				1,
				0.7300000190734863
			],
			"translation":[
				0,
				5.329999923706055,
				-21.350000381469727
			]
		},
		{
			"mesh":55,
			"name":"COL27_Wall",
			"rotation":[
				0.5000001192092896,
				-0.49999988079071045,
				0.49999988079071045,
				0.5000001192092896
			],
			"scale":[
				21.349985122680664,
				1,
				0.7300000190734863
			],
			"translation":[
				-21.350000381469727,
				5.329999923706055,
				0
			]
		},
		{
			"mesh":56,
			"name":"COL28_Wall",
			"rotation":[
				0.5000001192092896,
				-0.49999988079071045,
				0.49999988079071045,
				0.5000001192092896
			],
			"scale":[
				21.349985122680664,
				1,
				0.7300000190734863
			],
			"translation":[
				21.350000381469727,
				5.329999923706055,
				0
			]
		},
		{
			"mesh":57,
			"name":"Railing_Static",
			"rotation":[
				0,
				0.7071068286895752,
				0,
				0.7071067094802856
			],
			"scale":[
				1.8000000715255737,
				1,
				1.8000000715255737
			],
			"translation":[
				-21.700000762939453,
				4.599999904632568,
				-18.670000076293945
			]
		},
		{
			"mesh":58,
			"name":"Stair_Static",
			"scale":[
				1.2999999523162842,
				1,
				1
			],
			"translation":[
				0,
				0.5,
				-12
			]
		},
		{
			"mesh":59,
			"name":"Ground_Static"
		},
		{
			"mesh":60,
			"name":"Wall_Static",
			"translation":[
				6.599999904632568,
				0.5,
				-9.600000381469727
			]
		},
		{
			"mesh":61,
			"name":"COL1_AIBlock",
			"rotation":[
				0.7071068286895752,
				0,
				0,
				0.7071068286895752
			],
			"scale":[
				3,
				1,
				4
			],
			"translation":[
				-6,
				5,
				9
			]
		},
		{
			"mesh":62,
			"name":"COL2_AIBlock",
			"rotation":[
				0.5,
				0.5,
				-0.5,
				0.5
			],
			"scale":[
				3,
				1,
				4
			],
			"translation":[
				-9,
				5,
				6
			]
		},
		{
			"mesh":63,
			"name":"COL3_AIBlock",
			"rotation":[
				0.5,
				0.5,
				-0.5,
				0.5
			],
			"scale":[
				3,
				1,
				4
			],
			"translation":[
				-9,
				5,
				-6
			]
		},
		{
			"mesh":64,
			"name":"COL4_AIBlock",
			"rotation":[
				0.7071068286895752,
				0,
				0,
				0.7071068286895752
			],
			"scale":[
				3,
				1,
				4
			],
			"translation":[
				-6,
				5,
				-9
			]
		},
		{
			"mesh":65,
			"name":"COL5_AIBlock",
			"rotation":[
				0.7071068286895752,
				0,
				0,
				0.7071068286895752
			],
			"scale":[
				3,
				1,
				4
			],
			"translation":[
				6,
				5,
				-9
			]
		},
		{
			"mesh":66,
			"name":"COL6_AIBlock",
			"rotation":[
				0.5,
				0.5,
				-0.5,
				0.5
			],
			"scale":[
				3,
				1,
				4
			],
			"translation":[
				9,
				5,
				-6
			]
		},
		{
			"mesh":67,
			"name":"COL7_AIBlock",
			"rotation":[
				0.5,
				0.5,
				-0.5,
				0.5
			],
			"scale":[
				3,
				1,
				4
			],
			"translation":[
				9,
				5,
				6
			]
		},
		{
			"mesh":68,
			"name":"COL8_AIBlock",
			"rotation":[
				0.7071068286895752,
				0,
				0,
				0.7071068286895752
			],
			"scale":[
				3,
				1,
				4
			],
			"translation":[
				6,
				5,
				9
			]
		},
		{
			"mesh":69,
			"name":"COL9_AIBlock",
			"rotation":[
				0.7071068286895752,
				0,
				0,
				0.7071068286895752
			],
			"scale":[
				3,
				1,
				4
			],
			"translation":[
				12,
				5,
				3
			]
		},
		{
			"mesh":70,
			"name":"COL10_AIBlock",
			"rotation":[
				0.7071068286895752,
				0,
				0,
				0.7071068286895752
			],
			"scale":[
				3,
				1,
				4
			],
			"translation":[
				12,
				5,
				-3
			]
		},
		{
			"mesh":71,
			"name":"COL11_AIBlock",
			"rotation":[
				0.7071068286895752,
				0,
				0,
				0.7071068286895752
			],
			"scale":[
				3,
				1,
				4
			],
			"translation":[
				-12,
				5,
				3
			]
		},
		{
			"mesh":72,
			"name":"COL12_AIBlock",
			"rotation":[
				0.7071068286895752,
				0,
				0,
				0.7071068286895752
			],
			"scale":[
				3,
				1,
				4
			],
			"translation":[
				-12,
				5,
				-3
			]
		},
		{
			"mesh":73,
			"name":"COL13_AIBlock",
			"rotation":[
				0.5,
				0.5,
				-0.5,
				0.5
			],
			"scale":[
				3,
				1,
				4
			],
			"translation":[
				3,
				5,
				12
			]
		},
		{
			"mesh":74,
			"name":"COL14_AIBlock",
			"rotation":[
				0.5,
				0.5,
				-0.5,
				0.5
			],
			"scale":[
				3,
				1,
				4
			],
			"translation":[
				-3,
				5,
				12
			]
		},
		{
			"mesh":75,
			"name":"COL15_AIBlock",
			"rotation":[
				0.5,
				0.5,
				-0.5,
				0.5
			],
			"scale":[
				3,
				1,
				4
			],
			"translation":[
				3,
				5,
				-12
			]
		},
		{
			"mesh":76,
			"name":"COL16_AIBlock",
			"rotation":[
				0.5,
				0.5,
				-0.5,
				0.5
			],
			"scale":[
				3,
				1,
				4
			],
			"translation":[
				-3,
				5,
				-12
			]
		}
	],
	"materials":[
		{
			"doubleSided":true,
			"name":"grey.001",
			"pbrMetallicRoughness":{
				"baseColorFactor":[
					0.15896087884902954,
					0.20507878065109253,
					0.33716365694999695,
					1
				],
				"metallicFactor":0
			}
		},
		{
			"name":"Stone.010",
			"pbrMetallicRoughness":{
				"baseColorFactor":[
					0.5711250901222229,
					0.6866854429244995,
					0.7379107475280762,
					1
				],
				"metallicFactor":0,
				"roughnessFactor":0.5
			}
		},
		{
			"name":"Stone",
			"pbrMetallicRoughness":{
				"baseColorFactor":[
					0.5711250901222229,
					0.6866854429244995,
					0.7379107475280762,
					1
				],
				"metallicFactor":0,
				"roughnessFactor":0.5
			}
		},
		{
			"name":"Stone.012",
			"pbrMetallicRoughness":{
				"baseColorFactor":[
					0.4072403609752655,
					0.479320228099823,
					0.5209956169128418,
					1
				],
				"metallicFactor":0,
				"roughnessFactor":0.5
			}
		},
		{
			"name":"StoneDark.009",
			"pbrMetallicRoughness":{
				"baseColorFactor":[
					0.10092172026634216,
					0.11823292821645737,
					0.12790560722351074,
					1
				],
				"metallicFactor":0,
				"roughnessFactor":0.5
			}
		},
		{
			"name":"Stone.014",
			"pbrMetallicRoughness":{
				"baseColorFactor":[
					0.4072403609752655,
					0.479320228099823,
					0.5209956169128418,
					1
				],
				"metallicFactor":0,
				"roughnessFactor":0.5
			}
		},
		{
			"name":"StoneDark.011",
			"pbrMetallicRoughness":{
				"baseColorFactor":[
					0.10092172026634216,
					0.11823292821645737,
					0.12790560722351074,
					1
				],
				"metallicFactor":0,
				"roughnessFactor":0.5
			}
		}
	],
	"meshes":[
		{
			"name":"\u5e73\u9762",
			"primitives":[
				{
					"attributes":{
						"POSITION":0,
						"NORMAL":1,
						"TEXCOORD_0":2
					},
					"indices":3
				}
			]
		},
		{
			"name":"\u5e73\u9762.001",
			"primitives":[
				{
					"attributes":{
						"POSITION":4,
						"NORMAL":5,
						"TEXCOORD_0":6
					},
					"indices":3
				}
			]
		},
		{
			"name":"\u5e73\u9762.002",
			"primitives":[
				{
					"attributes":{
						"POSITION":7,
						"NORMAL":8,
						"TEXCOORD_0":9
					},
					"indices":3
				}
			]
		},
		{
			"name":"\u5e73\u9762.003",
			"primitives":[
				{
					"attributes":{
						"POSITION":10,
						"NORMAL":11,
						"TEXCOORD_0":12
					},
					"indices":3
				}
			]
		},
		{
			"name":"\u5e73\u9762.004",
			"primitives":[
				{
					"attributes":{
						"POSITION":13,
						"NORMAL":14,
						"TEXCOORD_0":15
					},
					"indices":3
				}
			]
		},
		{
			"name":"\u5e73\u9762.005",
			"primitives":[
				{
					"attributes":{
						"POSITION":16,
						"NORMAL":17,
						"TEXCOORD_0":18
					},
					"indices":3
				}
			]
		},
		{
			"name":"\u5e73\u9762.006",
			"primitives":[
				{
					"attributes":{
						"POSITION":19,
						"NORMAL":20,
						"TEXCOORD_0":21
					},
					"indices":3
				}
			]
		},
		{
			"name":"\u5e73\u9762.007",
			"primitives":[
				{
					"attributes":{
						"POSITION":22,
						"NORMAL":23,
						"TEXCOORD_0":24
					},
					"indices":3
				}
			]
		},
		{
			"name":"\u5e73\u9762.008",
			"primitives":[
				{
					"attributes":{
						"POSITION":25,
						"NORMAL":26,
						"TEXCOORD_0":27
					},
					"indices":3
				}
			]
		},
		{
			"name":"\u5e73\u9762.009",
			"primitives":[
				{
					"attributes":{
						"POSITION":28,
						"NORMAL":29,
						"TEXCOORD_0":30
					},
					"indices":3
				}
			]
		},
		{
			"name":"\u5e73\u9762.010",
			"primitives":[
				{
					"attributes":{
						"POSITION":31,
						"NORMAL":32,
						"TEXCOORD_0":33
					},
					"indices":3
				}
			]
		},
		{
			"name":"\u5e73\u9762.011",
			"primitives":[
				{
					"attributes":{
						"POSITION":34,
						"NORMAL":35,
						"TEXCOORD_0":36
					},
					"indices":3
				}
			]
		},
		{
			"name":"\u5e73\u9762.012",
			"primitives":[
				{
					"attributes":{
						"POSITION":37,
						"NORMAL":38,
						"TEXCOORD_0":39
					},
					"indices":3
				}
			]
		},
		{
			"name":"\u5e73\u9762.013",
			"primitives":[
				{
					"attributes":{
						"POSITION":40,
						"NORMAL":41,
						"TEXCOORD_0":42
					},
					"indices":3
				}
			]
		},
		{
			"name":"\u5e73\u9762.014",
			"primitives":[
				{
					"attributes":{
						"POSITION":43,
						"NORMAL":44,
						"TEXCOORD_0":45
					},
					"indices":3
				}
			]
		},
		{
			"name":"\u5e73\u9762.015",
			"primitives":[
				{
					"attributes":{
						"POSITION":46,
						"NORMAL":47,
						"TEXCOORD_0":48
					},
					"indices":3
				}
			]
		},
		{
			"name":"\u5e73\u9762.016",
			"primitives":[
				{
					"attributes":{
						"POSITION":49,
						"NORMAL":50,
						"TEXCOORD_0":51
					},
					"indices":3
				}
			]
		},
		{
			"name":"\u5e73\u9762.017",
			"primitives":[
				{
					"attributes":{
						"POSITION":52,
						"NORMAL":53,
						"TEXCOORD_0":54
					},
					"indices":3
				}
			]
		},
		{
			"name":"\u5e73\u9762.018",
			"primitives":[
				{
					"attributes":{
						"POSITION":55,
						"NORMAL":56,
						"TEXCOORD_0":57
					},
					"indices":3
				}
			]
		},
		{
			"name":"\u5e73\u9762.019",
			"primitives":[
				{
					"attributes":{
						"POSITION":58,
						"NORMAL":59,
						"TEXCOORD_0":60
					},
					"indices":3
				}
			]
		},
		{
			"name":"\u5e73\u9762.020",
			"primitives":[
				{
					"attributes":{
						"POSITION":61,
						"NORMAL":62,
						"TEXCOORD_0":63
					},
					"indices":3
				}
			]
		},
		{
			"name":"\u5e73\u9762.021",
			"primitives":[
				{
					"attributes":{
						"POSITION":64,
						"NORMAL":65,
						"TEXCOORD_0":66
					},
					"indices":3
				}
			]
		},
		{
			"name":"\u5e73\u9762.022",
			"primitives":[
				{
					"attributes":{
						"POSITION":67,
						"NORMAL":68,
						"TEXCOORD_0":69
					},
					"indices":3
				}
			]
		},
		{
			"name":"\u5e73\u9762.023",
			"primitives":[
				{
					"attributes":{
						"POSITION":70,
						"NORMAL":71,
						"TEXCOORD_0":72
					},
					"indices":3
				}
			]
		},
		{
			"name":"\u5e73\u9762.024",
			"primitives":[
				{
					"attributes":{
						"POSITION":73,
						"NORMAL":74,
						"TEXCOORD_0":75
					},
					"indices":3
				}
			]
		},
		{
			"name":"\u5e73\u9762.041",
			"primitives":[
				{
					"attributes":{
						"POSITION":76,
						"NORMAL":77,
						"TEXCOORD_0":78
					},
					"indices":3
				}
			]
		},
		{
			"name":"\u5e73\u9762.042",
			"primitives":[
				{
					"attributes":{
						"POSITION":79,
						"NORMAL":80,
						"TEXCOORD_0":81
					},
					"indices":3
				}
			]
		},
		{
			"name":"\u5e73\u9762.043",
			"primitives":[
				{
					"attributes":{
						"POSITION":82,
						"NORMAL":83,
						"TEXCOORD_0":84
					},
					"indices":3
				}
			]
		},
		{
			"name":"\u5e73\u9762.044",
			"primitives":[
				{
					"attributes":{
						"POSITION":85,
						"NORMAL":86,
						"TEXCOORD_0":87
					},
					"indices":3
				}
			]
		},
		{
			"name":"\u5e73\u9762.025",
			"primitives":[
				{
					"attributes":{
						"POSITION":88,
						"NORMAL":89,
						"TEXCOORD_0":90
					},
					"indices":3
				}
			]
		},
		{
			"name":"\u5e73\u9762.026",
			"primitives":[
				{
					"attributes":{
						"POSITION":91,
						"NORMAL":92,
						"TEXCOORD_0":93
					},
					"indices":3
				}
			]
		},
		{
			"name":"\u5e73\u9762.027",
			"primitives":[
				{
					"attributes":{
						"POSITION":94,
						"NORMAL":95,
						"TEXCOORD_0":96
					},
					"indices":3
				}
			]
		},
		{
			"name":"\u5e73\u9762.028",
			"primitives":[
				{
					"attributes":{
						"POSITION":97,
						"NORMAL":98,
						"TEXCOORD_0":99
					},
					"indices":3
				}
			]
		},
		{
			"name":"\u5e73\u9762.029",
			"primitives":[
				{
					"attributes":{
						"POSITION":100,
						"NORMAL":101,
						"TEXCOORD_0":102
					},
					"indices":3
				}
			]
		},
		{
			"name":"\u5e73\u9762.030",
			"primitives":[
				{
					"attributes":{
						"POSITION":103,
						"NORMAL":104,
						"TEXCOORD_0":105
					},
					"indices":3
				}
			]
		},
		{
			"name":"\u5e73\u9762.031",
			"primitives":[
				{
					"attributes":{
						"POSITION":106,
						"NORMAL":107,
						"TEXCOORD_0":108
					},
					"indices":3
				}
			]
		},
		{
			"name":"\u5e73\u9762.032",
			"primitives":[
				{
					"attributes":{
						"POSITION":109,
						"NORMAL":110,
						"TEXCOORD_0":111
					},
					"indices":3
				}
			]
		},
		{
			"name":"\u5e73\u9762.033",
			"primitives":[
				{
					"attributes":{
						"POSITION":112,
						"NORMAL":113,
						"TEXCOORD_0":114
					},
					"indices":3
				}
			]
		},
		{
			"name":"\u5e73\u9762.034",
			"primitives":[
				{
					"attributes":{
						"POSITION":115,
						"NORMAL":116,
						"TEXCOORD_0":117
					},
					"indices":3
				}
			]
		},
		{
			"name":"\u5e73\u9762.035",
			"primitives":[
				{
					"attributes":{
						"POSITION":118,
						"NORMAL":119,
						"TEXCOORD_0":120
					},
					"indices":3
				}
			]
		},
		{
			"name":"\u5e73\u9762.036",
			"primitives":[
				{
					"attributes":{
						"POSITION":121,
						"NORMAL":122,
						"TEXCOORD_0":123
					},
					"indices":3
				}
			]
		},
		{
			"name":"\u5e73\u9762.037",
			"primitives":[
				{
					"attributes":{
						"POSITION":124,
						"NORMAL":125,
						"TEXCOORD_0":126
					},
					"indices":3
				}
			]
		},
		{
			"name":"\u5e73\u9762.038",
			"primitives":[
				{
					"attributes":{
						"POSITION":127,
						"NORMAL":128,
						"TEXCOORD_0":129
					},
					"indices":3
				}
			]
		},
		{
			"name":"\u5e73\u9762.039",
			"primitives":[
				{
					"attributes":{
						"POSITION":130,
						"NORMAL":131,
						"TEXCOORD_0":132
					},
					"indices":3
				}
			]
		},
		{
			"name":"\u5e73\u9762.040",
			"primitives":[
				{
					"attributes":{
						"POSITION":133,
						"NORMAL":134,
						"TEXCOORD_0":135
					},
					"indices":3
				}
			]
		},
		{
			"name":"\u5e73\u9762.045",
			"primitives":[
				{
					"attributes":{
						"POSITION":136,
						"NORMAL":137,
						"TEXCOORD_0":138
					},
					"indices":3
				}
			]
		},
		{
			"name":"\u5e73\u9762.046",
			"primitives":[
				{
					"attributes":{
						"POSITION":139,
						"NORMAL":140,
						"TEXCOORD_0":141
					},
					"indices":3
				}
			]
		},
		{
			"name":"\u5e73\u9762.047",
			"primitives":[
				{
					"attributes":{
						"POSITION":142,
						"NORMAL":143,
						"TEXCOORD_0":144
					},
					"indices":3
				}
			]
		},
		{
			"name":"\u5e73\u9762.048",
			"primitives":[
				{
					"attributes":{
						"POSITION":145,
						"NORMAL":146,
						"TEXCOORD_0":147
					},
					"indices":3
				}
			]
		},
		{
			"name":"\u5e73\u9762.049",
			"primitives":[
				{
					"attributes":{
						"POSITION":148,
						"NORMAL":149,
						"TEXCOORD_0":150
					},
					"indices":3
				}
			]
		},
		{
			"name":"\u5e73\u9762.050",
			"primitives":[
				{
					"attributes":{
						"POSITION":151,
						"NORMAL":152,
						"TEXCOORD_0":153
					},
					"indices":3
				}
			]
		},
		{
			"name":"\u5e73\u9762.051",
			"primitives":[
				{
					"attributes":{
						"POSITION":154,
						"NORMAL":155,
						"TEXCOORD_0":156
					},
					"indices":3
				}
			]
		},
		{
			"name":"\u5e73\u9762.052",
			"primitives":[
				{
					"attributes":{
						"POSITION":157,
						"NORMAL":158,
						"TEXCOORD_0":159
					},
					"indices":3
				}
			]
		},
		{
			"name":"\u5e73\u9762.053",
			"primitives":[
				{
					"attributes":{
						"POSITION":160,
						"NORMAL":161,
						"TEXCOORD_0":162
					},
					"indices":3
				}
			]
		},
		{
			"name":"\u5e73\u9762.054",
			"primitives":[
				{
					"attributes":{
						"POSITION":163,
						"NORMAL":164,
						"TEXCOORD_0":165
					},
					"indices":3
				}
			]
		},
		{
			"name":"\u5e73\u9762.055",
			"primitives":[
				{
					"attributes":{
						"POSITION":166,
						"NORMAL":167,
						"TEXCOORD_0":168
					},
					"indices":3
				}
			]
		},
		{
			"name":"\u5e73\u9762.056",
			"primitives":[
				{
					"attributes":{
						"POSITION":169,
						"NORMAL":170,
						"TEXCOORD_0":171
					},
					"indices":3
				}
			]
		},
		{
			"name":"Railing_Static_Mesh",
			"primitives":[
				{
					"attributes":{
						"POSITION":172,
						"NORMAL":173,
						"TEXCOORD_0":174
					},
					"indices":175,
					"material":0
				}
			]
		},
		{
			"name":"Stair_Static_Mesh",
			"primitives":[
				{
					"attributes":{
						"POSITION":176,
						"NORMAL":177,
						"TEXCOORD_0":178
					},
					"indices":179,
					"material":1
				}
			]
		},
		{
			"name":"Ground_Static_Mesh",
			"primitives":[
				{
					"attributes":{
						"POSITION":180,
						"NORMAL":181,
						"TEXCOORD_0":182
					},
					"indices":183,
					"material":2
				}
			]
		},
		{
			"name":"Wall_Static_Mesh",
			"primitives":[
				{
					"attributes":{
						"POSITION":184,
						"NORMAL":185,
						"TEXCOORD_0":186
					},
					"indices":187,
					"material":3
				},
				{
					"attributes":{
						"POSITION":188,
						"NORMAL":189,
						"TEXCOORD_0":190
					},
					"indices":191,
					"material":4
				},
				{
					"attributes":{
						"POSITION":192,
						"NORMAL":193,
						"TEXCOORD_0":194
					},
					"indices":195,
					"material":5
				},
				{
					"attributes":{
						"POSITION":196,
						"NORMAL":197,
						"TEXCOORD_0":198
					},
					"indices":199,
					"material":6
				}
			]
		},
		{
			"name":"\u5e73\u9762.057",
			"primitives":[
				{
					"attributes":{
						"POSITION":200,
						"NORMAL":201,
						"TEXCOORD_0":202
					},
					"indices":3
				}
			]
		},
		{
			"name":"\u5e73\u9762.058",
			"primitives":[
				{
					"attributes":{
						"POSITION":203,
						"NORMAL":204,
						"TEXCOORD_0":205
					},
					"indices":3
				}
			]
		},
		{
			"name":"\u5e73\u9762.059",
			"primitives":[
				{
					"attributes":{
						"POSITION":206,
						"NORMAL":207,
						"TEXCOORD_0":208
					},
					"indices":3
				}
			]
		},
		{
			"name":"\u5e73\u9762.060",
			"primitives":[
				{
					"attributes":{
						"POSITION":209,
						"NORMAL":210,
						"TEXCOORD_0":211
					},
					"indices":3
				}
			]
		},
		{
			"name":"\u5e73\u9762.061",
			"primitives":[
				{
					"attributes":{
						"POSITION":212,
						"NORMAL":213,
						"TEXCOORD_0":214
					},
					"indices":3
				}
			]
		},
		{
			"name":"\u5e73\u9762.062",
			"primitives":[
				{
					"attributes":{
						"POSITION":215,
						"NORMAL":216,
						"TEXCOORD_0":217
					},
					"indices":3
				}
			]
		},
		{
			"name":"\u5e73\u9762.064",
			"primitives":[
				{
					"attributes":{
						"POSITION":218,
						"NORMAL":219,
						"TEXCOORD_0":220
					},
					"indices":3
				}
			]
		},
		{
			"name":"\u5e73\u9762.065",
			"primitives":[
				{
					"attributes":{
						"POSITION":221,
						"NORMAL":222,
						"TEXCOORD_0":223
					},
					"indices":3
				}
			]
		},
		{
			"name":"\u5e73\u9762.066",
			"primitives":[
				{
					"attributes":{
						"POSITION":224,
						"NORMAL":225,
						"TEXCOORD_0":226
					},
					"indices":3
				}
			]
		},
		{
			"name":"\u5e73\u9762.067",
			"primitives":[
				{
					"attributes":{
						"POSITION":227,
						"NORMAL":228,
						"TEXCOORD_0":229
					},
					"indices":3
				}
			]
		},
		{
			"name":"\u5e73\u9762.068",
			"primitives":[
				{
					"attributes":{
						"POSITION":230,
						"NORMAL":231,
						"TEXCOORD_0":232
					},
					"indices":3
				}
			]
		},
		{
			"name":"\u5e73\u9762.069",
			"primitives":[
				{
					"attributes":{
						"POSITION":233,
						"NORMAL":234,
						"TEXCOORD_0":235
					},
					"indices":3
				}
			]
		},
		{
			"name":"\u5e73\u9762.070",
			"primitives":[
				{
					"attributes":{
						"POSITION":236,
						"NORMAL":237,
						"TEXCOORD_0":238
					},
					"indices":3
				}
			]
		},
		{
			"name":"\u5e73\u9762.071",
			"primitives":[
				{
					"attributes":{
						"POSITION":239,
						"NORMAL":240,
						"TEXCOORD_0":241
					},
					"indices":3
				}
			]
		},
		{
			"name":"\u5e73\u9762.072",
			"primitives":[
				{
					"attributes":{
						"POSITION":242,
						"NORMAL":243,
						"TEXCOORD_0":244
					},
					"indices":3
				}
			]
		},
		{
			"name":"\u5e73\u9762.073",
			"primitives":[
				{
					"attributes":{
						"POSITION":245,
						"NORMAL":246,
						"TEXCOORD_0":247
					},
					"indices":3
				}
			]
		}
	],
	"accessors":[
		{
			"bufferView":0,
			"componentType":5126,
			"count":4,
			"max":[
				1,
				0,
				1
			],
			"min":[
				-1,
				0,
				-1
			],
			"type":"VEC3"
		},
		{
			"bufferView":1,
			"componentType":5126,
			"count":4,
			"type":"VEC3"
		},
		{
			"bufferView":2,
			"componentType":5126,
			"count":4,
			"type":"VEC2"
		},
		{
			"bufferView":3,
			"componentType":5123,
			"count":6,
			"type":"SCALAR"
		},
		{
			"bufferView":4,
			"componentType":5126,
			"count":4,
			"max":[
				1,
				0,
				1
			],
			"min":[
				-1,
				0,
				-1
			],
			"type":"VEC3"
		},
		{
			"bufferView":5,
			"componentType":5126,
			"count":4,
			"type":"VEC3"
		},
		{
			"bufferView":6,
			"componentType":5126,
			"count":4,
			"type":"VEC2"
		},
		{
			"bufferView":7,
			"componentType":5126,
			"count":4,
			"max":[
				1,
				0,
				1
			],
			"min":[
				-1,
				0,
				-1
			],
			"type":"VEC3"
		},
		{
			"bufferView":8,
			"componentType":5126,
			"count":4,
			"type":"VEC3"
		},
		{
			"bufferView":9,
			"componentType":5126,
			"count":4,
			"type":"VEC2"
		},
		{
			"bufferView":10,
			"componentType":5126,
			"count":4,
			"max":[
				1,
				0,
				1
			],
			"min":[
				-1,
				0,
				-1
			],
			"type":"VEC3"
		},
		{
			"bufferView":11,
			"componentType":5126,
			"count":4,
			"type":"VEC3"
		},
		{
			"bufferView":12,
			"componentType":5126,
			"count":4,
			"type":"VEC2"
		},
		{
			"bufferView":13,
			"componentType":5126,
			"count":4,
			"max":[
				1,
				0,
				1
			],
			"min":[
				-1,
				0,
				-1
			],
			"type":"VEC3"
		},
		{
			"bufferView":14,
			"componentType":5126,
			"count":4,
			"type":"VEC3"
		},
		{
			"bufferView":15,
			"componentType":5126,
			"count":4,
			"type":"VEC2"
		},
		{
			"bufferView":16,
			"componentType":5126,
			"count":4,
			"max":[
				1,
				0,
				1
			],
			"min":[
				-1,
				0,
				-1
			],
			"type":"VEC3"
		},
		{
			"bufferView":17,
			"componentType":5126,
			"count":4,
			"type":"VEC3"
		},
		{
			"bufferView":18,
			"componentType":5126,
			"count":4,
			"type":"VEC2"
		},
		{
			"bufferView":19,
			"componentType":5126,
			"count":4,
			"max":[
				1,
				0,
				1
			],
			"min":[
				-1,
				0,
				-1
			],
			"type":"VEC3"
		},
		{
			"bufferView":20,
			"componentType":5126,
			"count":4,
			"type":"VEC3"
		},
		{
			"bufferView":21,
			"componentType":5126,
			"count":4,
			"type":"VEC2"
		},
		{
			"bufferView":22,
			"componentType":5126,
			"count":4,
			"max":[
				1,
				0,
				1
			],
			"min":[
				-1,
				0,
				-1
			],
			"type":"VEC3"
		},
		{
			"bufferView":23,
			"componentType":5126,
			"count":4,
			"type":"VEC3"
		},
		{
			"bufferView":24,
			"componentType":5126,
			"count":4,
			"type":"VEC2"
		},
		{
			"bufferView":25,
			"componentType":5126,
			"count":4,
			"max":[
				1,
				0,
				1
			],
			"min":[
				-1,
				0,
				-1
			],
			"type":"VEC3"
		},
		{
			"bufferView":26,
			"componentType":5126,
			"count":4,
			"type":"VEC3"
		},
		{
			"bufferView":27,
			"componentType":5126,
			"count":4,
			"type":"VEC2"
		},
		{
			"bufferView":28,
			"componentType":5126,
			"count":4,
			"max":[
				1,
				0,
				1
			],
			"min":[
				-1,
				0,
				-1
			],
			"type":"VEC3"
		},
		{
			"bufferView":29,
			"componentType":5126,
			"count":4,
			"type":"VEC3"
		},
		{
			"bufferView":30,
			"componentType":5126,
			"count":4,
			"type":"VEC2"
		},
		{
			"bufferView":31,
			"componentType":5126,
			"count":4,
			"max":[
				1,
				0,
				1
			],
			"min":[
				-1,
				0,
				-1
			],
			"type":"VEC3"
		},
		{
			"bufferView":32,
			"componentType":5126,
			"count":4,
			"type":"VEC3"
		},
		{
			"bufferView":33,
			"componentType":5126,
			"count":4,
			"type":"VEC2"
		},
		{
			"bufferView":34,
			"componentType":5126,
			"count":4,
			"max":[
				1,
				0,
				1
			],
			"min":[
				-1,
				0,
				-1
			],
			"type":"VEC3"
		},
		{
			"bufferView":35,
			"componentType":5126,
			"count":4,
			"type":"VEC3"
		},
		{
			"bufferView":36,
			"componentType":5126,
			"count":4,
			"type":"VEC2"
		},
		{
			"bufferView":37,
			"componentType":5126,
			"count":4,
			"max":[
				1,
				0,
				1
			],
			"min":[
				-1,
				0,
				-1
			],
			"type":"VEC3"
		},
		{
			"bufferView":38,
			"componentType":5126,
			"count":4,
			"type":"VEC3"
		},
		{
			"bufferView":39,
			"componentType":5126,
			"count":4,
			"type":"VEC2"
		},
		{
			"bufferView":40,
			"componentType":5126,
			"count":4,
			"max":[
				1,
				0,
				1
			],
			"min":[
				-1,
				0,
				-1
			],
			"type":"VEC3"
		},
		{
			"bufferView":41,
			"componentType":5126,
			"count":4,
			"type":"VEC3"
		},
		{
			"bufferView":42,
			"componentType":5126,
			"count":4,
			"type":"VEC2"
		},
		{
			"bufferView":43,
			"componentType":5126,
			"count":4,
			"max":[
				1,
				0,
				1
			],
			"min":[
				-1,
				0,
				-1
			],
			"type":"VEC3"
		},
		{
			"bufferView":44,
			"componentType":5126,
			"count":4,
			"type":"VEC3"
		},
		{
			"bufferView":45,
			"componentType":5126,
			"count":4,
			"type":"VEC2"
		},
		{
			"bufferView":46,
			"componentType":5126,
			"count":4,
			"max":[
				1,
				0,
				1
			],
			"min":[
				-1,
				0,
				-1
			],
			"type":"VEC3"
		},
		{
			"bufferView":47,
			"componentType":5126,
			"count":4,
			"type":"VEC3"
		},
		{
			"bufferView":48,
			"componentType":5126,
			"count":4,
			"type":"VEC2"
		},
		{
			"bufferView":49,
			"componentType":5126,
			"count":4,
			"max":[
				1,
				0,
				1
			],
			"min":[
				-1,
				0,
				-1
			],
			"type":"VEC3"
		},
		{
			"bufferView":50,
			"componentType":5126,
			"count":4,
			"type":"VEC3"
		},
		{
			"bufferView":51,
			"componentType":5126,
			"count":4,
			"type":"VEC2"
		},
		{
			"bufferView":52,
			"componentType":5126,
			"count":4,
			"max":[
				1,
				0,
				1
			],
			"min":[
				-1,
				0,
				-1
			],
			"type":"VEC3"
		},
		{
			"bufferView":53,
			"componentType":5126,
			"count":4,
			"type":"VEC3"
		},
		{
			"bufferView":54,
			"componentType":5126,
			"count":4,
			"type":"VEC2"
		},
		{
			"bufferView":55,
			"componentType":5126,
			"count":4,
			"max":[
				1,
				0,
				1
			],
			"min":[
				-1,
				0,
				-1
			],
			"type":"VEC3"
		},
		{
			"bufferView":56,
			"componentType":5126,
			"count":4,
			"type":"VEC3"
		},
		{
			"bufferView":57,
			"componentType":5126,
			"count":4,
			"type":"VEC2"
		},
		{
			"bufferView":58,
			"componentType":5126,
			"count":4,
			"max":[
				1,
				0,
				1
			],
			"min":[
				-1,
				0,
				-1
			],
			"type":"VEC3"
		},
		{
			"bufferView":59,
			"componentType":5126,
			"count":4,
			"type":"VEC3"
		},
		{
			"bufferView":60,
			"componentType":5126,
			"count":4,
			"type":"VEC2"
		},
		{
			"bufferView":61,
			"componentType":5126,
			"count":4,
			"max":[
				1,
				0,
				1
			],
			"min":[
				-1,
				0,
				-1
			],
			"type":"VEC3"
		},
		{
			"bufferView":62,
			"componentType":5126,
			"count":4,
			"type":"VEC3"
		},
		{
			"bufferView":63,
			"componentType":5126,
			"count":4,
			"type":"VEC2"
		},
		{
			"bufferView":64,
			"componentType":5126,
			"count":4,
			"max":[
				1,
				0,
				1
			],
			"min":[
				-1,
				0,
				-1
			],
			"type":"VEC3"
		},
		{
			"bufferView":65,
			"componentType":5126,
			"count":4,
			"type":"VEC3"
		},
		{
			"bufferView":66,
			"componentType":5126,
			"count":4,
			"type":"VEC2"
		},
		{
			"bufferView":67,
			"componentType":5126,
			"count":4,
			"max":[
				1,
				0,
				1
			],
			"min":[
				-1,
				0,
				-1
			],
			"type":"VEC3"
		},
		{
			"bufferView":68,
			"componentType":5126,
			"count":4,
			"type":"VEC3"
		},
		{
			"bufferView":69,
			"componentType":5126,
			"count":4,
			"type":"VEC2"
		},
		{
			"bufferView":70,
			"componentType":5126,
			"count":4,
			"max":[
				1,
				0,
				1
			],
			"min":[
				-1,
				0,
				-1
			],
			"type":"VEC3"
		},
		{
			"bufferView":71,
			"componentType":5126,
			"count":4,
			"type":"VEC3"
		},
		{
			"bufferView":72,
			"componentType":5126,
			"count":4,
			"type":"VEC2"
		},
		{
			"bufferView":73,
			"componentType":5126,
			"count":4,
			"max":[
				1,
				0,
				1
			],
			"min":[
				-1,
				0,
				-1
			],
			"type":"VEC3"
		},
		{
			"bufferView":74,
			"componentType":5126,
			"count":4,
			"type":"VEC3"
		},
		{
			"bufferView":75,
			"componentType":5126,
			"count":4,
			"type":"VEC2"
		},
		{
			"bufferView":76,
			"componentType":5126,
			"count":4,
			"max":[
				1,
				0,
				1
			],
			"min":[
				-1,
				0,
				-1
			],
			"type":"VEC3"
		},
		{
			"bufferView":77,
			"componentType":5126,
			"count":4,
			"type":"VEC3"
		},
		{
			"bufferView":78,
			"componentType":5126,
			"count":4,
			"type":"VEC2"
		},
		{
			"bufferView":79,
			"componentType":5126,
			"count":4,
			"max":[
				1,
				0,
				1
			],
			"min":[
				-1,
				0,
				-1
			],
			"type":"VEC3"
		},
		{
			"bufferView":80,
			"componentType":5126,
			"count":4,
			"type":"VEC3"
		},
		{
			"bufferView":81,
			"componentType":5126,
			"count":4,
			"type":"VEC2"
		},
		{
			"bufferView":82,
			"componentType":5126,
			"count":4,
			"max":[
				1,
				0,
				1
			],
			"min":[
				-1,
				0,
				-1
			],
			"type":"VEC3"
		},
		{
			"bufferView":83,
			"componentType":5126,
			"count":4,
			"type":"VEC3"
		},
		{
			"bufferView":84,
			"componentType":5126,
			"count":4,
			"type":"VEC2"
		},
		{
			"bufferView":85,
			"componentType":5126,
			"count":4,
			"max":[
				1,
				0,
				1
			],
			"min":[
				-1,
				0,
				-1
			],
			"type":"VEC3"
		},
		{
			"bufferView":86,
			"componentType":5126,
			"count":4,
			"type":"VEC3"
		},
		{
			"bufferView":87,
			"componentType":5126,
			"count":4,
			"type":"VEC2"
		},
		{
			"bufferView":88,
			"componentType":5126,
			"count":4,
			"max":[
				1,
				0,
				1
			],
			"min":[
				-1,
				0,
				-1
			],
			"type":"VEC3"
		},
		{
			"bufferView":89,
			"componentType":5126,
			"count":4,
			"type":"VEC3"
		},
		{
			"bufferView":90,
			"componentType":5126,
			"count":4,
			"type":"VEC2"
		},
		{
			"bufferView":91,
			"componentType":5126,
			"count":4,
			"max":[
				1,
				0,
				1
			],
			"min":[
				-1,
				0,
				-1
			],
			"type":"VEC3"
		},
		{
			"bufferView":92,
			"componentType":5126,
			"count":4,
			"type":"VEC3"
		},
		{
			"bufferView":93,
			"componentType":5126,
			"count":4,
			"type":"VEC2"
		},
		{
			"bufferView":94,
			"componentType":5126,
			"count":4,
			"max":[
				1,
				0,
				1
			],
			"min":[
				-1,
				0,
				-1
			],
			"type":"VEC3"
		},
		{
			"bufferView":95,
			"componentType":5126,
			"count":4,
			"type":"VEC3"
		},
		{
			"bufferView":96,
			"componentType":5126,
			"count":4,
			"type":"VEC2"
		},
		{
			"bufferView":97,
			"componentType":5126,
			"count":4,
			"max":[
				1,
				0,
				1
			],
			"min":[
				-1,
				0,
				-1
			],
			"type":"VEC3"
		},
		{
			"bufferView":98,
			"componentType":5126,
			"count":4,
			"type":"VEC3"
		},
		{
			"bufferView":99,
			"componentType":5126,
			"count":4,
			"type":"VEC2"
		},
		{
			"bufferView":100,
			"componentType":5126,
			"count":4,
			"max":[
				1,
				0,
				1
			],
			"min":[
				-1,
				0,
				-1
			],
			"type":"VEC3"
		},
		{
			"bufferView":101,
			"componentType":5126,
			"count":4,
			"type":"VEC3"
		},
		{
			"bufferView":102,
			"componentType":5126,
			"count":4,
			"type":"VEC2"
		},
		{
			"bufferView":103,
			"componentType":5126,
			"count":4,
			"max":[
				1,
				0,
				1
			],
			"min":[
				-1,
				0,
				-1
			],
			"type":"VEC3"
		},
		{
			"bufferView":104,
			"componentType":5126,
			"count":4,
			"type":"VEC3"
		},
		{
			"bufferView":105,
			"componentType":5126,
			"count":4,
			"type":"VEC2"
		},
		{
			"bufferView":106,
			"componentType":5126,
			"count":4,
			"max":[
				1,
				0,
				1
			],
			"min":[
				-1,
				0,
				-1
			],
			"type":"VEC3"
		},
		{
			"bufferView":107,
			"componentType":5126,
			"count":4,
			"type":"VEC3"
		},
		{
			"bufferView":108,
			"componentType":5126,
			"count":4,
			"type":"VEC2"
		},
		{
			"bufferView":109,
			"componentType":5126,
			"count":4,
			"max":[
				1,
				0,
				1
			],
			"min":[
				-1,
				0,
				-1
			],
			"type":"VEC3"
		},
		{
			"bufferView":110,
			"componentType":5126,
			"count":4,
			"type":"VEC3"
		},
		{
			"bufferView":111,
			"componentType":5126,
			"count":4,
			"type":"VEC2"
		},
		{
			"bufferView":112,
			"componentType":5126,
			"count":4,
			"max":[
				1,
				0,
				1
			],
			"min":[
				-1,
				0,
				-1
			],
			"type":"VEC3"
		},
		{
			"bufferView":113,
			"componentType":5126,
			"count":4,
			"type":"VEC3"
		},
		{
			"bufferView":114,
			"componentType":5126,
			"count":4,
			"type":"VEC2"
		},
		{
			"bufferView":115,
			"componentType":5126,
			"count":4,
			"max":[
				1,
				0,
				1
			],
			"min":[
				-1,
				0,
				-1
			],
			"type":"VEC3"
		},
		{
			"bufferView":116,
			"componentType":5126,
			"count":4,
			"type":"VEC3"
		},
		{
			"bufferView":117,
			"componentType":5126,
			"count":4,
			"type":"VEC2"
		},
		{
			"bufferView":118,
			"componentType":5126,
			"count":4,
			"max":[
				1,
				0,
				1
			],
			"min":[
				-1,
				0,
				-1
			],
			"type":"VEC3"
		},
		{
			"bufferView":119,
			"componentType":5126,
			"count":4,
			"type":"VEC3"
		},
		{
			"bufferView":120,
			"componentType":5126,
			"count":4,
			"type":"VEC2"
		},
		{
			"bufferView":121,
			"componentType":5126,
			"count":4,
			"max":[
				1,
				0,
				1
			],
			"min":[
				-1,
				0,
				-1
			],
			"type":"VEC3"
		},
		{
			"bufferView":122,
			"componentType":5126,
			"count":4,
			"type":"VEC3"
		},
		{
			"bufferView":123,
			"componentType":5126,
			"count":4,
			"type":"VEC2"
		},
		{
			"bufferView":124,
			"componentType":5126,
			"count":4,
			"max":[
				1,
				0,
				1
			],
			"min":[
				-1,
				0,
				-1
			],
			"type":"VEC3"
		},
		{
			"bufferView":125,
			"componentType":5126,
			"count":4,
			"type":"VEC3"
		},
		{
			"bufferView":126,
			"componentType":5126,
			"count":4,
			"type":"VEC2"
		},
		{
			"bufferView":127,
			"componentType":5126,
			"count":4,
			"max":[
				1,
				0,
				1
			],
			"min":[
				-1,
				0,
				-1
			],
			"type":"VEC3"
		},
		{
			"bufferView":128,
			"componentType":5126,
			"count":4,
			"type":"VEC3"
		},
		{
			"bufferView":129,
			"componentType":5126,
			"count":4,
			"type":"VEC2"
		},
		{
			"bufferView":130,
			"componentType":5126,
			"count":4,
			"max":[
				1,
				0,
				1
			],
			"min":[
				-1,
				0,
				-1
			],
			"type":"VEC3"
		},
		{
			"bufferView":131,
			"componentType":5126,
			"count":4,
			"type":"VEC3"
		},
		{
			"bufferView":132,
			"componentType":5126,
			"count":4,
			"type":"VEC2"
		},
		{
			"bufferView":133,
			"componentType":5126,
			"count":4,
			"max":[
				1,
				0,
				1
			],
			"min":[
				-1,
				0,
				-1
			],
			"type":"VEC3"
		},
		{
			"bufferView":134,
			"componentType":5126,
			"count":4,
			"type":"VEC3"
		},
		{
			"bufferView":135,
			"componentType":5126,
			"count":4,
			"type":"VEC2"
		},
		{
			"bufferView":136,
			"componentType":5126,
			"count":4,
			"max":[
				1,
				0,
				1
			],
			"min":[
				-1,
				0,
				-1
			],
			"type":"VEC3"
		},
		{
			"bufferView":137,
			"componentType":5126,
			"count":4,
			"type":"VEC3"
		},
		{
			"bufferView":138,
			"componentType":5126,
			"count":4,
			"type":"VEC2"
		},
		{
			"bufferView":139,
			"componentType":5126,
			"count":4,
			"max":[
				1,
				0,
				1
			],
			"min":[
				-1,
				0,
				-1
			],
			"type":"VEC3"
		},
		{
			"bufferView":140,
			"componentType":5126,
			"count":4,
			"type":"VEC3"
		},
		{
			"bufferView":141,
			"componentType":5126,
			"count":4,
			"type":"VEC2"
		},
		{
			"bufferView":142,
			"componentType":5126,
			"count":4,
			"max":[
				1,
				0,
				1
			],
			"min":[
				-1,
				0,
				-1
			],
			"type":"VEC3"
		},
		{
			"bufferView":143,
			"componentType":5126,
			"count":4,
			"type":"VEC3"
		},
		{
			"bufferView":144,
			"componentType":5126,
			"count":4,
			"type":"VEC2"
		},
		{
			"bufferView":145,
			"componentType":5126,
			"count":4,
			"max":[
				1,
				0,
				1
			],
			"min":[
				-1,
				0,
				-1
			],
			"type":"VEC3"
		},
		{
			"bufferView":146,
			"componentType":5126,
			"count":4,
			"type":"VEC3"
		},
		{
			"bufferView":147,
			"componentType":5126,
			"count":4,
			"type":"VEC2"
		},
		{
			"bufferView":148,
			"componentType":5126,
			"count":4,
			"max":[
				1,
				0,
				1
			],
			"min":[
				-1,
				0,
				-1
			],
			"type":"VEC3"
		},
		{
			"bufferView":149,
			"componentType":5126,
			"count":4,
			"type":"VEC3"
		},
		{
			"bufferView":150,
			"componentType":5126,
			"count":4,
			"type":"VEC2"
		},
		{
			"bufferView":151,
			"componentType":5126,
			"count":4,
			"max":[
				1,
				0,
				1
			],
			"min":[
				-1,
				0,
				-1
			],
			"type":"VEC3"
		},
		{
			"bufferView":152,
			"componentType":5126,
			"count":4,
			"type":"VEC3"
		},
		{
			"bufferView":153,
			"componentType":5126,
			"count":4,
			"type":"VEC2"
		},
		{
			"bufferView":154,
			"componentType":5126,
			"count":4,
			"max":[
				1,
				0,
				1
			],
			"min":[
				-1,
				0,
				-1
			],
			"type":"VEC3"
		},
		{
			"bufferView":155,
			"componentType":5126,
			"count":4,
			"type":"VEC3"
		},
		{
			"bufferView":156,
			"componentType":5126,
			"count":4,
			"type":"VEC2"
		},
		{
			"bufferView":157,
			"componentType":5126,
			"count":4,
			"max":[
				1,
				0,
				1
			],
			"min":[
				-1,
				0,
				-1
			],
			"type":"VEC3"
		},
		{
			"bufferView":158,
			"componentType":5126,
			"count":4,
			"type":"VEC3"
		},
		{
			"bufferView":159,
			"componentType":5126,
			"count":4,
			"type":"VEC2"
		},
		{
			"bufferView":160,
			"componentType":5126,
			"count":4,
			"max":[
				1,
				0,
				1
			],
			"min":[
				-1,
				0,
				-1
			],
			"type":"VEC3"
		},
		{
			"bufferView":161,
			"componentType":5126,
			"count":4,
			"type":"VEC3"
		},
		{
			"bufferView":162,
			"componentType":5126,
			"count":4,
			"type":"VEC2"
		},
		{
			"bufferView":163,
			"componentType":5126,
			"count":4,
			"max":[
				1,
				0,
				1
			],
			"min":[
				-1,
				0,
				-1
			],
			"type":"VEC3"
		},
		{
			"bufferView":164,
			"componentType":5126,
			"count":4,
			"type":"VEC3"
		},
		{
			"bufferView":165,
			"componentType":5126,
			"count":4,
			"type":"VEC2"
		},
		{
			"bufferView":166,
			"componentType":5126,
			"count":4,
			"max":[
				1,
				0,
				1
			],
			"min":[
				-1,
				0,
				-1
			],
			"type":"VEC3"
		},
		{
			"bufferView":167,
			"componentType":5126,
			"count":4,
			"type":"VEC3"
		},
		{
			"bufferView":168,
			"componentType":5126,
			"count":4,
			"type":"VEC2"
		},
		{
			"bufferView":169,
			"componentType":5126,
			"count":4,
			"max":[
				1,
				0,
				1
			],
			"min":[
				-1,
				0,
				-1
			],
			"type":"VEC3"
		},
		{
			"bufferView":170,
			"componentType":5126,
			"count":4,
			"type":"VEC3"
		},
		{
			"bufferView":171,
			"componentType":5126,
			"count":4,
			"type":"VEC2"
		},
		{
			"bufferView":172,
			"componentType":5126,
			"count":6396,
			"max":[
				1.8833346366882324,
				1.4678620100021362,
				24.313121795654297
			],
			"min":[
				-22.634639739990234,
				-4.76837158203125e-07,
				-0.200003981590271
			],
			"type":"VEC3"
		},
		{
			"bufferView":173,
			"componentType":5126,
			"count":6396,
			"type":"VEC3"
		},
		{
			"bufferView":174,
			"componentType":5126,
			"count":6396,
			"type":"VEC2"
		},
		{
			"bufferView":175,
			"componentType":5123,
			"count":9984,
			"type":"SCALAR"
		},
		{
			"bufferView":176,
			"componentType":5126,
			"count":7615,
			"max":[
				11.538461685180664,
				4.699999809265137,
				27
			],
			"min":[
				-11.538461685180664,
				0,
				-3
			],
			"type":"VEC3"
		},
		{
			"bufferView":177,
			"componentType":5126,
			"count":7615,
			"type":"VEC3"
		},
		{
			"bufferView":178,
			"componentType":5126,
			"count":7615,
			"type":"VEC2"
		},
		{
			"bufferView":179,
			"componentType":5123,
			"count":13104,
			"type":"SCALAR"
		},
		{
			"bufferView":180,
			"componentType":5126,
			"count":32418,
			"max":[
				21,
				4.599999904632568,
				21
			],
			"min":[
				-21,
				0,
				-21
			],
			"type":"VEC3"
		},
		{
			"bufferView":181,
			"componentType":5126,
			"count":32418,
			"type":"VEC3"
		},
		{
			"bufferView":182,
			"componentType":5126,
			"count":32418,
			"type":"VEC2"
		},
		{
			"bufferView":183,
			"componentType":5123,
			"count":48780,
			"type":"SCALAR"
		},
		{
			"bufferView":184,
			"componentType":5126,
			"count":269638,
			"max":[
				15.77015209197998,
				3.679999828338623,
				31.97015380859375
			],
			"min":[
				-28.97015380859375,
				0.4000000059604645,
				-12.770153045654297
			],
			"type":"VEC3"
		},
		{
			"bufferView":185,
			"componentType":5126,
			"count":269638,
			"type":"VEC3"
		},
		{
			"bufferView":186,
			"componentType":5126,
			"count":269638,
			"type":"VEC2"
		},
		{
			"bufferView":187,
			"componentType":5125,
			"count":917442,
			"type":"SCALAR"
		},
		{
			"bufferView":188,
			"componentType":5126,
			"count":16376,
			"max":[
				15.850000381469727,
				4.079999923706055,
				32.05000305175781
			],
			"min":[
				-29.05000114440918,
				0,
				-12.850000381469727
			],
			"type":"VEC3"
		},
		{
			"bufferView":189,
			"componentType":5126,
			"count":16376,
			"type":"VEC3"
		},
		{
			"bufferView":190,
			"componentType":5126,
			"count":16376,
			"type":"VEC2"
		},
		{
			"bufferView":191,
			"componentType":5123,
			"count":44586,
			"type":"SCALAR"
		},
		{
			"bufferView":192,
			"componentType":5126,
			"count":81970,
			"max":[
				15.770856857299805,
				3.679999828338623,
				31.970857620239258
			],
			"min":[
				-28.970857620239258,
				0.4000000059604645,
				-12.770856857299805
			],
			"type":"VEC3"
		},
		{
			"bufferView":193,
			"componentType":5126,
			"count":81970,
			"type":"VEC3"
		},
		{
			"bufferView":194,
			"componentType":5126,
			"count":81970,
			"type":"VEC2"
		},
		{
			"bufferView":195,
			"componentType":5125,
			"count":276510,
			"type":"SCALAR"
		},
		{
			"bufferView":196,
			"componentType":5126,
			"count":5542,
			"max":[
				15.851500511169434,
				4.079999923706055,
				32.0515022277832
			],
			"min":[
				-29.05150032043457,
				0,
				-12.85150146484375
			],
			"type":"VEC3"
		},
		{
			"bufferView":197,
			"componentType":5126,
			"count":5542,
			"type":"VEC3"
		},
		{
			"bufferView":198,
			"componentType":5126,
			"count":5542,
			"type":"VEC2"
		},
		{
			"bufferView":199,
			"componentType":5123,
			"count":13734,
			"type":"SCALAR"
		},
		{
			"bufferView":200,
			"componentType":5126,
			"count":4,
			"max":[
				1,
				0,
				1
			],
			"min":[
				-1,
				0,
				-1
			],
			"type":"VEC3"
		},
		{
			"bufferView":201,
			"componentType":5126,
			"count":4,
			"type":"VEC3"
		},
		{
			"bufferView":202,
			"componentType":5126,
			"count":4,
			"type":"VEC2"
		},
		{
			"bufferView":203,
			"componentType":5126,
			"count":4,
			"max":[
				1,
				0,
				1
			],
			"min":[
				-1,
				0,
				-1
			],
			"type":"VEC3"
		},
		{
			"bufferView":204,
			"componentType":5126,
			"count":4,
			"type":"VEC3"
		},
		{
			"bufferView":205,
			"componentType":5126,
			"count":4,
			"type":"VEC2"
		},
		{
			"bufferView":206,
			"componentType":5126,
			"count":4,
			"max":[
				1,
				0,
				1
			],
			"min":[
				-1,
				0,
				-1
			],
			"type":"VEC3"
		},
		{
			"bufferView":207,
			"componentType":5126,
			"count":4,
			"type":"VEC3"
		},
		{
			"bufferView":208,
			"componentType":5126,
			"count":4,
			"type":"VEC2"
		},
		{
			"bufferView":209,
			"componentType":5126,
			"count":4,
			"max":[
				1,
				0,
				1
			],
			"min":[
				-1,
				0,
				-1
			],
			"type":"VEC3"
		},
		{
			"bufferView":210,
			"componentType":5126,
			"count":4,
			"type":"VEC3"
		},
		{
			"bufferView":211,
			"componentType":5126,
			"count":4,
			"type":"VEC2"
		},
		{
			"bufferView":212,
			"componentType":5126,
			"count":4,
			"max":[
				1,
				0,
				1
			],
			"min":[
				-1,
				0,
				-1
			],
			"type":"VEC3"
		},
		{
			"bufferView":213,
			"componentType":5126,
			"count":4,
			"type":"VEC3"
		},
		{
			"bufferView":214,
			"componentType":5126,
			"count":4,
			"type":"VEC2"
		},
		{
			"bufferView":215,
			"componentType":5126,
			"count":4,
			"max":[
				1,
				0,
				1
			],
			"min":[
				-1,
				0,
				-1
			],
			"type":"VEC3"
		},
		{
			"bufferView":216,
			"componentType":5126,
			"count":4,
			"type":"VEC3"
		},
		{
			"bufferView":217,
			"componentType":5126,
			"count":4,
			"type":"VEC2"
		},
		{
			"bufferView":218,
			"componentType":5126,
			"count":4,
			"max":[
				1,
				0,
				1
			],
			"min":[
				-1,
				0,
				-1
			],
			"type":"VEC3"
		},
		{
			"bufferView":219,
			"componentType":5126,
			"count":4,
			"type":"VEC3"
		},
		{
			"bufferView":220,
			"componentType":5126,
			"count":4,
			"type":"VEC2"
		},
		{
			"bufferView":221,
			"componentType":5126,
			"count":4,
			"max":[
				1,
				0,
				1
			],
			"min":[
				-1,
				0,
				-1
			],
			"type":"VEC3"
		},
		{
			"bufferView":222,
			"componentType":5126,
			"count":4,
			"type":"VEC3"
		},
		{
			"bufferView":223,
			"componentType":5126,
			"count":4,
			"type":"VEC2"
		},
		{
			"bufferView":224,
			"componentType":5126,
			"count":4,
			"max":[
				1,
				0,
				1
			],
			"min":[
				-1,
				0,
				-1
			],
			"type":"VEC3"
		},
		{
			"bufferView":225,
			"componentType":5126,
			"count":4,
			"type":"VEC3"
		},
		{
			"bufferView":226,
			"componentType":5126,
			"count":4,
			"type":"VEC2"
		},
		{
			"bufferView":227,
			"componentType":5126,
			"count":4,
			"max":[
				1,
				0,
				1
			],
			"min":[
				-1,
				0,
				-1
			],
			"type":"VEC3"
		},
		{
			"bufferView":228,
			"componentType":5126,
			"count":4,
			"type":"VEC3"
		},
		{
			"bufferView":229,
			"componentType":5126,
			"count":4,
			"type":"VEC2"
		},
		{
			"bufferView":230,
			"componentType":5126,
			"count":4,
			"max":[
				1,
				0,
				1
			],
			"min":[
				-1,
				0,
				-1
			],
			"type":"VEC3"
		},
		{
			"bufferView":231,
			"componentType":5126,
			"count":4,
			"type":"VEC3"
		},
		{
			"bufferView":232,
			"componentType":5126,
			"count":4,
			"type":"VEC2"
		},
		{
			"bufferView":233,
			"componentType":5126,
			"count":4,
			"max":[
				1,
				0,
				1
			],
			"min":[
				-1,
				0,
				-1
			],
			"type":"VEC3"
		},
		{
			"bufferView":234,
			"componentType":5126,
			"count":4,
			"type":"VEC3"
		},
		{
			"bufferView":235,
			"componentType":5126,
			"count":4,
			"type":"VEC2"
		},
		{
			"bufferView":236,
			"componentType":5126,
			"count":4,
			"max":[
				1,
				0,
				1
			],
			"min":[
				-1,
				0,
				-1
			],
			"type":"VEC3"
		},
		{
			"bufferView":237,
			"componentType":5126,
			"count":4,
			"type":"VEC3"
		},
		{
			"bufferView":238,
			"componentType":5126,
			"count":4,
			"type":"VEC2"
		},
		{
			"bufferView":239,
			"componentType":5126,
			"count":4,
			"max":[
				1,
				0,
				1
			],
			"min":[
				-1,
				0,
				-1
			],
			"type":"VEC3"
		},
		{
			"bufferView":240,
			"componentType":5126,
			"count":4,
			"type":"VEC3"
		},
		{
			"bufferView":241,
			"componentType":5126,
			"count":4,
			"type":"VEC2"
		},
		{
			"bufferView":242,
			"componentType":5126,
			"count":4,
			"max":[
				1,
				0,
				1
			],
			"min":[
				-1,
				0,
				-1
			],
			"type":"VEC3"
		},
		{
			"bufferView":243,
			"componentType":5126,
			"count":4,
			"type":"VEC3"
		},
		{
			"bufferView":244,
			"componentType":5126,
			"count":4,
			"type":"VEC2"
		},
		{
			"bufferView":245,
			"componentType":5126,
			"count":4,
			"max":[
				1,
				0,
				1
			],
			"min":[
				-1,
				0,
				-1
			],
			"type":"VEC3"
		},
		{
			"bufferView":246,
			"componentType":5126,
			"count":4,
			"type":"VEC3"
		},
		{
			"bufferView":247,
			"componentType":5126,
			"count":4,
			"type":"VEC2"
		}
	],
	"bufferViews":[
		{
			"buffer":0,
			"byteLength":48,
			"byteOffset":0,
			"target":34962
		},
		{
			"buffer":0,
			"byteLength":48,
			"byteOffset":48,
			"target":34962
		},
		{
			"buffer":0,
			"byteLength":32,
			"byteOffset":96,
			"target":34962
		},
		{
			"buffer":0,
			"byteLength":12,
			"byteOffset":128,
			"target":34963
		},
		{
			"buffer":0,
			"byteLength":48,
			"byteOffset":140,
			"target":34962
		},
		{
			"buffer":0,
			"byteLength":48,
			"byteOffset":188,
			"target":34962
		},
		{
			"buffer":0,
			"byteLength":32,
			"byteOffset":236,
			"target":34962
		},
		{
			"buffer":0,
			"byteLength":48,
			"byteOffset":268,
			"target":34962
		},
		{
			"buffer":0,
			"byteLength":48,
			"byteOffset":316,
			"target":34962
		},
		{
			"buffer":0,
			"byteLength":32,
			"byteOffset":364,
			"target":34962
		},
		{
			"buffer":0,
			"byteLength":48,
			"byteOffset":396,
			"target":34962
		},
		{
			"buffer":0,
			"byteLength":48,
			"byteOffset":444,
			"target":34962
		},
		{
			"buffer":0,
			"byteLength":32,
			"byteOffset":492,
			"target":34962
		},
		{
			"buffer":0,
			"byteLength":48,
			"byteOffset":524,
			"target":34962
		},
		{
			"buffer":0,
			"byteLength":48,
			"byteOffset":572,
			"target":34962
		},
		{
			"buffer":0,
			"byteLength":32,
			"byteOffset":620,
			"target":34962
		},
		{
			"buffer":0,
			"byteLength":48,
			"byteOffset":652,
			"target":34962
		},
		{
			"buffer":0,
			"byteLength":48,
			"byteOffset":700,
			"target":34962
		},
		{
			"buffer":0,
			"byteLength":32,
			"byteOffset":748,
			"target":34962
		},
		{
			"buffer":0,
			"byteLength":48,
			"byteOffset":780,
			"target":34962
		},
		{
			"buffer":0,
			"byteLength":48,
			"byteOffset":828,
			"target":34962
		},
		{
			"buffer":0,
			"byteLength":32,
			"byteOffset":876,
			"target":34962
		},
		{
			"buffer":0,
			"byteLength":48,
			"byteOffset":908,
			"target":34962
		},
		{
			"buffer":0,
			"byteLength":48,
			"byteOffset":956,
			"target":34962
		},
		{
			"buffer":0,
			"byteLength":32,
			"byteOffset":1004,
			"target":34962
		},
		{
			"buffer":0,
			"byteLength":48,
			"byteOffset":1036,
			"target":34962
		},
		{
			"buffer":0,
			"byteLength":48,
			"byteOffset":1084,
			"target":34962
		},
		{
			"buffer":0,
			"byteLength":32,
			"byteOffset":1132,
			"target":34962
		},
		{
			"buffer":0,
			"byteLength":48,
			"byteOffset":1164,
			"target":34962
		},
		{
			"buffer":0,
			"byteLength":48,
			"byteOffset":1212,
			"target":34962
		},
		{
			"buffer":0,
			"byteLength":32,
			"byteOffset":1260,
			"target":34962
		},
		{
			"buffer":0,
			"byteLength":48,
			"byteOffset":1292,
			"target":34962
		},
		{
			"buffer":0,
			"byteLength":48,
			"byteOffset":1340,
			"target":34962
		},
		{
			"buffer":0,
			"byteLength":32,
			"byteOffset":1388,
			"target":34962
		},
		{
			"buffer":0,
			"byteLength":48,
			"byteOffset":1420,
			"target":34962
		},
		{
			"buffer":0,
			"byteLength":48,
			"byteOffset":1468,
			"target":34962
		},
		{
			"buffer":0,
			"byteLength":32,
			"byteOffset":1516,
			"target":34962
		},
		{
			"buffer":0,
			"byteLength":48,
			"byteOffset":1548,
			"target":34962
		},
		{
			"buffer":0,
			"byteLength":48,
			"byteOffset":1596,
			"target":34962
		},
		{
			"buffer":0,
			"byteLength":32,
			"byteOffset":1644,
			"target":34962
		},
		{
			"buffer":0,
			"byteLength":48,
			"byteOffset":1676,
			"target":34962
		},
		{
			"buffer":0,
			"byteLength":48,
			"byteOffset":1724,
			"target":34962
		},
		{
			"buffer":0,
			"byteLength":32,
			"byteOffset":1772,
			"target":34962
		},
		{
			"buffer":0,
			"byteLength":48,
			"byteOffset":1804,
			"target":34962
		},
		{
			"buffer":0,
			"byteLength":48,
			"byteOffset":1852,
			"target":34962
		},
		{
			"buffer":0,
			"byteLength":32,
			"byteOffset":1900,
			"target":34962
		},
		{
			"buffer":0,
			"byteLength":48,
			"byteOffset":1932,
			"target":34962
		},
		{
			"buffer":0,
			"byteLength":48,
			"byteOffset":1980,
			"target":34962
		},
		{
			"buffer":0,
			"byteLength":32,
			"byteOffset":2028,
			"target":34962
		},
		{
			"buffer":0,
			"byteLength":48,
			"byteOffset":2060,
			"target":34962
		},
		{
			"buffer":0,
			"byteLength":48,
			"byteOffset":2108,
			"target":34962
		},
		{
			"buffer":0,
			"byteLength":32,
			"byteOffset":2156,
			"target":34962
		},
		{
			"buffer":0,
			"byteLength":48,
			"byteOffset":2188,
			"target":34962
		},
		{
			"buffer":0,
			"byteLength":48,
			"byteOffset":2236,
			"target":34962
		},
		{
			"buffer":0,
			"byteLength":32,
			"byteOffset":2284,
			"target":34962
		},
		{
			"buffer":0,
			"byteLength":48,
			"byteOffset":2316,
			"target":34962
		},
		{
			"buffer":0,
			"byteLength":48,
			"byteOffset":2364,
			"target":34962
		},
		{
			"buffer":0,
			"byteLength":32,
			"byteOffset":2412,
			"target":34962
		},
		{
			"buffer":0,
			"byteLength":48,
			"byteOffset":2444,
			"target":34962
		},
		{
			"buffer":0,
			"byteLength":48,
			"byteOffset":2492,
			"target":34962
		},
		{
			"buffer":0,
			"byteLength":32,
			"byteOffset":2540,
			"target":34962
		},
		{
			"buffer":0,
			"byteLength":48,
			"byteOffset":2572,
			"target":34962
		},
		{
			"buffer":0,
			"byteLength":48,
			"byteOffset":2620,
			"target":34962
		},
		{
			"buffer":0,
			"byteLength":32,
			"byteOffset":2668,
			"target":34962
		},
		{
			"buffer":0,
			"byteLength":48,
			"byteOffset":2700,
			"target":34962
		},
		{
			"buffer":0,
			"byteLength":48,
			"byteOffset":2748,
			"target":34962
		},
		{
			"buffer":0,
			"byteLength":32,
			"byteOffset":2796,
			"target":34962
		},
		{
			"buffer":0,
			"byteLength":48,
			"byteOffset":2828,
			"target":34962
		},
		{
			"buffer":0,
			"byteLength":48,
			"byteOffset":2876,
			"target":34962
		},
		{
			"buffer":0,
			"byteLength":32,
			"byteOffset":2924,
			"target":34962
		},
		{
			"buffer":0,
			"byteLength":48,
			"byteOffset":2956,
			"target":34962
		},
		{
			"buffer":0,
			"byteLength":48,
			"byteOffset":3004,
			"target":34962
		},
		{
			"buffer":0,
			"byteLength":32,
			"byteOffset":3052,
			"target":34962
		},
		{
			"buffer":0,
			"byteLength":48,
			"byteOffset":3084,
			"target":34962
		},
		{
			"buffer":0,
			"byteLength":48,
			"byteOffset":3132,
			"target":34962
		},
		{
			"buffer":0,
			"byteLength":32,
			"byteOffset":3180,
			"target":34962
		},
		{
			"buffer":0,
			"byteLength":48,
			"byteOffset":3212,
			"target":34962
		},
		{
			"buffer":0,
			"byteLength":48,
			"byteOffset":3260,
			"target":34962
		},
		{
			"buffer":0,
			"byteLength":32,
			"byteOffset":3308,
			"target":34962
		},
		{
			"buffer":0,
			"byteLength":48,
			"byteOffset":3340,
			"target":34962
		},
		{
			"buffer":0,
			"byteLength":48,
			"byteOffset":3388,
			"target":34962
		},
		{
			"buffer":0,
			"byteLength":32,
			"byteOffset":3436,
			"target":34962
		},
		{
			"buffer":0,
			"byteLength":48,
			"byteOffset":3468,
			"target":34962
		},
		{
			"buffer":0,
			"byteLength":48,
			"byteOffset":3516,
			"target":34962
		},
		{
			"buffer":0,
			"byteLength":32,
			"byteOffset":3564,
			"target":34962
		},
		{
			"buffer":0,
			"byteLength":48,
			"byteOffset":3596,
			"target":34962
		},
		{
			"buffer":0,
			"byteLength":48,
			"byteOffset":3644,
			"target":34962
		},
		{
			"buffer":0,
			"byteLength":32,
			"byteOffset":3692,
			"target":34962
		},
		{
			"buffer":0,
			"byteLength":48,
			"byteOffset":3724,
			"target":34962
		},
		{
			"buffer":0,
			"byteLength":48,
			"byteOffset":3772,
			"target":34962
		},
		{
			"buffer":0,
			"byteLength":32,
			"byteOffset":3820,
			"target":34962
		},
		{
			"buffer":0,
			"byteLength":48,
			"byteOffset":3852,
			"target":34962
		},
		{
			"buffer":0,
			"byteLength":48,
			"byteOffset":3900,
			"target":34962
		},
		{
			"buffer":0,
			"byteLength":32,
			"byteOffset":3948,
			"target":34962
		},
		{
			"buffer":0,
			"byteLength":48,
			"byteOffset":3980,
			"target":34962
		},
		{
			"buffer":0,
			"byteLength":48,
			"byteOffset":4028,
			"target":34962
		},
		{
			"buffer":0,
			"byteLength":32,
			"byteOffset":4076,
			"target":34962
		},
		{
			"buffer":0,
			"byteLength":48,
			"byteOffset":4108,
			"target":34962
		},
		{
			"buffer":0,
			"byteLength":48,
			"byteOffset":4156,
			"target":34962
		},
		{
			"buffer":0,
			"byteLength":32,
			"byteOffset":4204,
			"target":34962
		},
		{
			"buffer":0,
			"byteLength":48,
			"byteOffset":4236,
			"target":34962
		},
		{
			"buffer":0,
			"byteLength":48,
			"byteOffset":4284,
			"target":34962
		},
		{
			"buffer":0,
			"byteLength":32,
			"byteOffset":4332,
			"target":34962
		},
		{
			"buffer":0,
			"byteLength":48,
			"byteOffset":4364,
			"target":34962
		},
		{
			"buffer":0,
			"byteLength":48,
			"byteOffset":4412,
			"target":34962
		},
		{
			"buffer":0,
			"byteLength":32,
			"byteOffset":4460,
			"target":34962
		},
		{
			"buffer":0,
			"byteLength":48,
			"byteOffset":4492,
			"target":34962
		},
		{
			"buffer":0,
			"byteLength":48,
			"byteOffset":4540,
			"target":34962
		},
		{
			"buffer":0,
			"byteLength":32,
			"byteOffset":4588,
			"target":34962
		},
		{
			"buffer":0,
			"byteLength":48,
			"byteOffset":4620,
			"target":34962
		},
		{
			"buffer":0,
			"byteLength":48,
			"byteOffset":4668,
			"target":34962
		},
		{
			"buffer":0,
			"byteLength":32,
			"byteOffset":4716,
			"target":34962
		},
		{
			"buffer":0,
			"byteLength":48,
			"byteOffset":4748,
			"target":34962
		},
		{
			"buffer":0,
			"byteLength":48,
			"byteOffset":4796,
			"target":34962
		},
		{
			"buffer":0,
			"byteLength":32,
			"byteOffset":4844,
			"target":34962
		},
		{
			"buffer":0,
			"byteLength":48,
			"byteOffset":4876,
			"target":34962
		},
		{
			"buffer":0,
			"byteLength":48,
			"byteOffset":4924,
			"target":34962
		},
		{
			"buffer":0,
			"byteLength":32,
			"byteOffset":4972,
			"target":34962
		},
		{
			"buffer":0,
			"byteLength":48,
			"byteOffset":5004,
			"target":34962
		},
		{
			"buffer":0,
			"byteLength":48,
			"byteOffset":5052,
			"target":34962
		},
		{
			"buffer":0,
			"byteLength":32,
			"byteOffset":5100,
			"target":34962
		},
		{
			"buffer":0,
			"byteLength":48,
			"byteOffset":5132,
			"target":34962
		},
		{
			"buffer":0,
			"byteLength":48,
			"byteOffset":5180,
			"target":34962
		},
		{
			"buffer":0,
			"byteLength":32,
			"byteOffset":5228,
			"target":34962
		},
		{
			"buffer":0,
			"byteLength":48,
			"byteOffset":5260,
			"target":34962
		},
		{
			"buffer":0,
			"byteLength":48,
			"byteOffset":5308,
			"target":34962
		},
		{
			"buffer":0,
			"byteLength":32,
			"byteOffset":5356,
			"target":34962
		},
		{
			"buffer":0,
			"byteLength":48,
			"byteOffset":5388,
			"target":34962
		},
		{
			"buffer":0,
			"byteLength":48,
			"byteOffset":5436,
			"target":34962
		},
		{
			"buffer":0,
			"byteLength":32,
			"byteOffset":5484,
			"target":34962
		},
		{
			"buffer":0,
			"byteLength":48,
			"byteOffset":5516,
			"target":34962
		},
		{
			"buffer":0,
			"byteLength":48,
			"byteOffset":5564,
			"target":34962
		},
		{
			"buffer":0,
			"byteLength":32,
			"byteOffset":5612,
			"target":34962
		},
		{
			"buffer":0,
			"byteLength":48,
			"byteOffset":5644,
			"target":34962
		},
		{
			"buffer":0,
			"byteLength":48,
			"byteOffset":5692,
			"target":34962
		},
		{
			"buffer":0,
			"byteLength":32,
			"byteOffset":5740,
			"target":34962
		},
		{
			"buffer":0,
			"byteLength":48,
			"byteOffset":5772,
			"target":34962
		},
		{
			"buffer":0,
			"byteLength":48,
			"byteOffset":5820,
			"target":34962
		},
		{
			"buffer":0,
			"byteLength":32,
			"byteOffset":5868,
			"target":34962
		},
		{
			"buffer":0,
			"byteLength":48,
			"byteOffset":5900,
			"target":34962
		},
		{
			"buffer":0,
			"byteLength":48,
			"byteOffset":5948,
			"target":34962
		},
		{
			"buffer":0,
			"byteLength":32,
			"byteOffset":5996,
			"target":34962
		},
		{
			"buffer":0,
			"byteLength":48,
			"byteOffset":6028,
			"target":34962
		},
		{
			"buffer":0,
			"byteLength":48,
			"byteOffset":6076,
			"target":34962
		},
		{
			"buffer":0,
			"byteLength":32,
			"byteOffset":6124,
			"target":34962
		},
		{
			"buffer":0,
			"byteLength":48,
			"byteOffset":6156,
			"target":34962
		},
		{
			"buffer":0,
			"byteLength":48,
			"byteOffset":6204,
			"target":34962
		},
		{
			"buffer":0,
			"byteLength":32,
			"byteOffset":6252,
			"target":34962
		},
		{
			"buffer":0,
			"byteLength":48,
			"byteOffset":6284,
			"target":34962
		},
		{
			"buffer":0,
			"byteLength":48,
			"byteOffset":6332,
			"target":34962
		},
		{
			"buffer":0,
			"byteLength":32,
			"byteOffset":6380,
			"target":34962
		},
		{
			"buffer":0,
			"byteLength":48,
			"byteOffset":6412,
			"target":34962
		},
		{
			"buffer":0,
			"byteLength":48,
			"byteOffset":6460,
			"target":34962
		},
		{
			"buffer":0,
			"byteLength":32,
			"byteOffset":6508,
			"target":34962
		},
		{
			"buffer":0,
			"byteLength":48,
			"byteOffset":6540,
			"target":34962
		},
		{
			"buffer":0,
			"byteLength":48,
			"byteOffset":6588,
			"target":34962
		},
		{
			"buffer":0,
			"byteLength":32,
			"byteOffset":6636,
			"target":34962
		},
		{
			"buffer":0,
			"byteLength":48,
			"byteOffset":6668,
			"target":34962
		},
		{
			"buffer":0,
			"byteLength":48,
			"byteOffset":6716,
			"target":34962
		},
		{
			"buffer":0,
			"byteLength":32,
			"byteOffset":6764,
			"target":34962
		},
		{
			"buffer":0,
			"byteLength":48,
			"byteOffset":6796,
			"target":34962
		},
		{
			"buffer":0,
			"byteLength":48,
			"byteOffset":6844,
			"target":34962
		},
		{
			"buffer":0,
			"byteLength":32,
			"byteOffset":6892,
			"target":34962
		},
		{
			"buffer":0,
			"byteLength":48,
			"byteOffset":6924,
			"target":34962
		},
		{
			"buffer":0,
			"byteLength":48,
			"byteOffset":6972,
			"target":34962
		},
		{
			"buffer":0,
			"byteLength":32,
			"byteOffset":7020,
			"target":34962
		},
		{
			"buffer":0,
			"byteLength":48,
			"byteOffset":7052,
			"target":34962
		},
		{
			"buffer":0,
			"byteLength":48,
			"byteOffset":7100,
			"target":34962
		},
		{
			"buffer":0,
			"byteLength":32,
			"byteOffset":7148,
			"target":34962
		},
		{
			"buffer":0,
			"byteLength":48,
			"byteOffset":7180,
			"target":34962
		},
		{
			"buffer":0,
			"byteLength":48,
			"byteOffset":7228,
			"target":34962
		},
		{
			"buffer":0,
			"byteLength":32,
			"byteOffset":7276,
			"target":34962
		},
		{
			"buffer":0,
			"byteLength":76752,
			"byteOffset":7308,
			"target":34962
		},
		{
			"buffer":0,
			"byteLength":76752,
			"byteOffset":84060,
			"target":34962
		},
		{
			"buffer":0,
			"byteLength":51168,
			"byteOffset":160812,
			"target":34962
		},
		{
			"buffer":0,
			"byteLength":19968,
			"byteOffset":211980,
			"target":34963
		},
		{
			"buffer":0,
			"byteLength":91380,
			"byteOffset":231948,
			"target":34962
		},
		{
			"buffer":0,
			"byteLength":91380,
			"byteOffset":323328,
			"target":34962
		},
		{
			"buffer":0,
			"byteLength":60920,
			"byteOffset":414708,
			"target":34962
		},
		{
			"buffer":0,
			"byteLength":26208,
			"byteOffset":475628,
			"target":34963
		},
		{
			"buffer":0,
			"byteLength":389016,
			"byteOffset":501836,
			"target":34962
		},
		{
			"buffer":0,
			"byteLength":389016,
			"byteOffset":890852,
			"target":34962
		},
		{
			"buffer":0,
			"byteLength":259344,
			"byteOffset":1279868,
			"target":34962
		},
		{
			"buffer":0,
			"byteLength":97560,
			"byteOffset":1539212,
			"target":34963
		},
		{
			"buffer":0,
			"byteLength":3235656,
			"byteOffset":1636772,
			"target":34962
		},
		{
			"buffer":0,
			"byteLength":3235656,
			"byteOffset":4872428,
			"target":34962
		},
		{
			"buffer":0,
			"byteLength":2157104,
			"byteOffset":8108084,
			"target":34962
		},
		{
			"buffer":0,
			"byteLength":3669768,
			"byteOffset":10265188,
			"target":34963
		},
		{
			"buffer":0,
			"byteLength":196512,
			"byteOffset":13934956,
			"target":34962
		},
		{
			"buffer":0,
			"byteLength":196512,
			"byteOffset":14131468,
			"target":34962
		},
		{
			"buffer":0,
			"byteLength":131008,
			"byteOffset":14327980,
			"target":34962
		},
		{
			"buffer":0,
			"byteLength":89172,
			"byteOffset":14458988,
			"target":34963
		},
		{
			"buffer":0,
			"byteLength":983640,
			"byteOffset":14548160,
			"target":34962
		},
		{
			"buffer":0,
			"byteLength":983640,
			"byteOffset":15531800,
			"target":34962
		},
		{
			"buffer":0,
			"byteLength":655760,
			"byteOffset":16515440,
			"target":34962
		},
		{
			"buffer":0,
			"byteLength":1106040,
			"byteOffset":17171200,
			"target":34963
		},
		{
			"buffer":0,
			"byteLength":66504,
			"byteOffset":18277240,
			"target":34962
		},
		{
			"buffer":0,
			"byteLength":66504,
			"byteOffset":18343744,
			"target":34962
		},
		{
			"buffer":0,
			"byteLength":44336,
			"byteOffset":18410248,
			"target":34962
		},
		{
			"buffer":0,
			"byteLength":27468,
			"byteOffset":18454584,
			"target":34963
		},
		{
			"buffer":0,
			"byteLength":48,
			"byteOffset":18482052,
			"target":34962
		},
		{
			"buffer":0,
			"byteLength":48,
			"byteOffset":18482100,
			"target":34962
		},
		{
			"buffer":0,
			"byteLength":32,
			"byteOffset":18482148,
			"target":34962
		},
		{
			"buffer":0,
			"byteLength":48,
			"byteOffset":18482180,
			"target":34962
		},
		{
			"buffer":0,
			"byteLength":48,
			"byteOffset":18482228,
			"target":34962
		},
		{
			"buffer":0,
			"byteLength":32,
			"byteOffset":18482276,
			"target":34962
		},
		{
			"buffer":0,
			"byteLength":48,
			"byteOffset":18482308,
			"target":34962
		},
		{
			"buffer":0,
			"byteLength":48,
			"byteOffset":18482356,
			"target":34962
		},
		{
			"buffer":0,
			"byteLength":32,
			"byteOffset":18482404,
			"target":34962
		},
		{
			"buffer":0,
			"byteLength":48,
			"byteOffset":18482436,
			"target":34962
		},
		{
			"buffer":0,
			"byteLength":48,
			"byteOffset":18482484,
			"target":34962
		},
		{
			"buffer":0,
			"byteLength":32,
			"byteOffset":18482532,
			"target":34962
		},
		{
			"buffer":0,
			"byteLength":48,
			"byteOffset":18482564,
			"target":34962
		},
		{
			"buffer":0,
			"byteLength":48,
			"byteOffset":18482612,
			"target":34962
		},
		{
			"buffer":0,
			"byteLength":32,
			"byteOffset":18482660,
			"target":34962
		},
		{
			"buffer":0,
			"byteLength":48,
			"byteOffset":18482692,
			"target":34962
		},
		{
			"buffer":0,
			"byteLength":48,
			"byteOffset":18482740,
			"target":34962
		},
		{
			"buffer":0,
			"byteLength":32,
			"byteOffset":18482788,
			"target":34962
		},
		{
			"buffer":0,
			"byteLength":48,
			"byteOffset":18482820,
			"target":34962
		},
		{
			"buffer":0,
			"byteLength":48,
			"byteOffset":18482868,
			"target":34962
		},
		{
			"buffer":0,
			"byteLength":32,
			"byteOffset":18482916,
			"target":34962
		},
		{
			"buffer":0,
			"byteLength":48,
			"byteOffset":18482948,
			"target":34962
		},
		{
			"buffer":0,
			"byteLength":48,
			"byteOffset":18482996,
			"target":34962
		},
		{
			"buffer":0,
			"byteLength":32,
			"byteOffset":18483044,
			"target":34962
		},
		{
			"buffer":0,
			"byteLength":48,
			"byteOffset":18483076,
			"target":34962
		},
		{
			"buffer":0,
			"byteLength":48,
			"byteOffset":18483124,
			"target":34962
		},
		{
			"buffer":0,
			"byteLength":32,
			"byteOffset":18483172,
			"target":34962
		},
		{
			"buffer":0,
			"byteLength":48,
			"byteOffset":18483204,
			"target":34962
		},
		{
			"buffer":0,
			"byteLength":48,
			"byteOffset":18483252,
			"target":34962
		},
		{
			"buffer":0,
			"byteLength":32,
			"byteOffset":18483300,
			"target":34962
		},
		{
			"buffer":0,
			"byteLength":48,
			"byteOffset":18483332,
			"target":34962
		},
		{
			"buffer":0,
			"byteLength":48,
			"byteOffset":18483380,
			"target":34962
		},
		{
			"buffer":0,
			"byteLength":32,
			"byteOffset":18483428,
			"target":34962
		},
		{
			"buffer":0,
			"byteLength":48,
			"byteOffset":18483460,
			"target":34962
		},
		{
			"buffer":0,
			"byteLength":48,
			"byteOffset":18483508,
			"target":34962
		},
		{
			"buffer":0,
			"byteLength":32,
			"byteOffset":18483556,
			"target":34962
		},
		{
			"buffer":0,
			"byteLength":48,
			"byteOffset":18483588,
			"target":34962
		},
		{
			"buffer":0,
			"byteLength":48,
			"byteOffset":18483636,
			"target":34962
		},
		{
			"buffer":0,
			"byteLength":32,
			"byteOffset":18483684,
			"target":34962
		},
		{
			"buffer":0,
			"byteLength":48,
			"byteOffset":18483716,
			"target":34962
		},
		{
			"buffer":0,
			"byteLength":48,
			"byteOffset":18483764,
			"target":34962
		},
		{
			"buffer":0,
			"byteLength":32,
			"byteOffset":18483812,
			"target":34962
		},
		{
			"buffer":0,
			"byteLength":48,
			"byteOffset":18483844,
			"target":34962
		},
		{
			"buffer":0,
			"byteLength":48,
			"byteOffset":18483892,
			"target":34962
		},
		{
			"buffer":0,
			"byteLength":32,
			"byteOffset":18483940,
			"target":34962
		},
		{
			"buffer":0,
			"byteLength":48,
			"byteOffset":18483972,
			"target":34962
		},
		{
			"buffer":0,
			"byteLength":48,
			"byteOffset":18484020,
			"target":34962
		},
		{
			"buffer":0,
			"byteLength":32,
			"byteOffset":18484068,
			"target":34962
		}
	],
	"buffers":[
		{
			"byteLength":18484100,
			"uri":"AllStage.bin"
		}
	]
}
