{
	"asset":{
		"generator":"Khronos glTF Blender I/O v5.1.19",
		"version":"2.0"
	},
	"scene":0,
	"scenes":[
		{
			"name":"Scene",
			"nodes":[
				0,
				1,
				2,
				3
			]
		}
	],
	"nodes":[
		{
			"mesh":0,
			"name":"Railing_Static",
			"rotation":[
				0,
				0.70710688829422,
				0,
				0.7071067094802856
			],
			"scale":[
				1.7999998331069946,
				1,
				1.7999998331069946
			],
			"translation":[
				-21.700000762939453,
				4.599999904632568,
				-18.670000076293945
			]
		},
		{
			"mesh":1,
			"name":"Stair_Static",
			"scale":[
				1.2999999523162842,
				1,
				1
			],
			"translation":[
				0,
				0.5,
				-12
			]
		},
		{
			"mesh":2,
			"name":"Ground_Static"
		},
		{
			"mesh":3,
			"name":"Wall_Static",
			"translation":[
				6.599999904632568,
				0.5,
				-9.600000381469727
			]
		}
	],
	"materials":[
		{
			"doubleSided":true,
			"name":"grey.001",
			"pbrMetallicRoughness":{
				"baseColorFactor":[
					0.15896087884902954,
					0.20507878065109253,
					0.33716365694999695,
					1
				],
				"metallicFactor":0
			}
		},
		{
			"name":"Stone.010",
			"pbrMetallicRoughness":{
				"baseColorFactor":[
					0.5711250901222229,
					0.6866854429244995,
					0.7379107475280762,
					1
				],
				"metallicFactor":0,
				"roughnessFactor":0.5
			}
		},
		{
			"name":"Stone",
			"pbrMetallicRoughness":{
				"baseColorFactor":[
					0.5711250901222229,
					0.6866854429244995,
					0.7379107475280762,
					1
				],
				"metallicFactor":0,
				"roughnessFactor":0.5
			}
		},
		{
			"name":"Stone.012",
			"pbrMetallicRoughness":{
				"baseColorFactor":[
					0.4072403609752655,
					0.479320228099823,
					0.5209956169128418,
					1
				],
				"metallicFactor":0,
				"roughnessFactor":0.5
			}
		},
		{
			"name":"StoneDark.009",
			"pbrMetallicRoughness":{
				"baseColorFactor":[
					0.10092172026634216,
					0.11823292821645737,
					0.12790560722351074,
					1
				],
				"metallicFactor":0,
				"roughnessFactor":0.5
			}
		},
		{
			"name":"Stone.014",
			"pbrMetallicRoughness":{
				"baseColorFactor":[
					0.4072403609752655,
					0.479320228099823,
					0.5209956169128418,
					1
				],
				"metallicFactor":0,
				"roughnessFactor":0.5
			}
		},
		{
			"name":"StoneDark.011",
			"pbrMetallicRoughness":{
				"baseColorFactor":[
					0.10092172026634216,
					0.11823292821645737,
					0.12790560722351074,
					1
				],
				"metallicFactor":0,
				"roughnessFactor":0.5
			}
		}
	],
	"meshes":[
		{
			"name":"Railing_Static_Mesh",
			"primitives":[
				{
					"attributes":{
						"POSITION":0,
						"NORMAL":1,
						"TEXCOORD_0":2
					},
					"indices":3,
					"material":0
				}
			]
		},
		{
			"name":"Stair_Static_Mesh",
			"primitives":[
				{
					"attributes":{
						"POSITION":4,
						"NORMAL":5,
						"TEXCOORD_0":6
					},
					"indices":7,
					"material":1
				}
			]
		},
		{
			"name":"Ground_Static_Mesh",
			"primitives":[
				{
					"attributes":{
						"POSITION":8,
						"NORMAL":9,
						"TEXCOORD_0":10
					},
					"indices":11,
					"material":2
				}
			]
		},
		{
			"name":"Wall_Static_Mesh",
			"primitives":[
				{
					"attributes":{
						"POSITION":12,
						"NORMAL":13,
						"TEXCOORD_0":14
					},
					"indices":15,
					"material":3
				},
				{
					"attributes":{
						"POSITION":16,
						"NORMAL":17,
						"TEXCOORD_0":18
					},
					"indices":19,
					"material":4
				},
				{
					"attributes":{
						"POSITION":20,
						"NORMAL":21,
						"TEXCOORD_0":22
					},
					"indices":23,
					"material":5
				},
				{
					"attributes":{
						"POSITION":24,
						"NORMAL":25,
						"TEXCOORD_0":26
					},
					"indices":27,
					"material":6
				}
			]
		}
	],
	"accessors":[
		{
			"bufferView":0,
			"componentType":5126,
			"count":6428,
			"max":[
				1.8833346366882324,
				1.4678620100021362,
				24.313121795654297
			],
			"min":[
				-22.634639739990234,
				-4.76837158203125e-07,
				-0.200003981590271
			],
			"type":"VEC3"
		},
		{
			"bufferView":1,
			"componentType":5126,
			"count":6428,
			"type":"VEC3"
		},
		{
			"bufferView":2,
			"componentType":5126,
			"count":6428,
			"type":"VEC2"
		},
		{
			"bufferView":3,
			"componentType":5123,
			"count":9984,
			"type":"SCALAR"
		},
		{
			"bufferView":4,
			"componentType":5126,
			"count":7620,
			"max":[
				11.538461685180664,
				4.699999809265137,
				27
			],
			"min":[
				-11.538461685180664,
				0,
				-3
			],
			"type":"VEC3"
		},
		{
			"bufferView":5,
			"componentType":5126,
			"count":7620,
			"type":"VEC3"
		},
		{
			"bufferView":6,
			"componentType":5126,
			"count":7620,
			"type":"VEC2"
		},
		{
			"bufferView":7,
			"componentType":5123,
			"count":13104,
			"type":"SCALAR"
		},
		{
			"bufferView":8,
			"componentType":5126,
			"count":32495,
			"max":[
				21,
				4.599999904632568,
				21
			],
			"min":[
				-21,
				0,
				-21
			],
			"type":"VEC3"
		},
		{
			"bufferView":9,
			"componentType":5126,
			"count":32495,
			"type":"VEC3"
		},
		{
			"bufferView":10,
			"componentType":5126,
			"count":32495,
			"type":"VEC2"
		},
		{
			"bufferView":11,
			"componentType":5123,
			"count":48780,
			"type":"SCALAR"
		},
		{
			"bufferView":12,
			"componentType":5126,
			"count":271113,
			"max":[
				15.77015209197998,
				3.679999828338623,
				31.97015380859375
			],
			"min":[
				-28.97015380859375,
				0.4000000059604645,
				-12.770153045654297
			],
			"type":"VEC3"
		},
		{
			"bufferView":13,
			"componentType":5126,
			"count":271113,
			"type":"VEC3"
		},
		{
			"bufferView":14,
			"componentType":5126,
			"count":271113,
			"type":"VEC2"
		},
		{
			"bufferView":15,
			"componentType":5125,
			"count":917442,
			"type":"SCALAR"
		},
		{
			"bufferView":16,
			"componentType":5126,
			"count":17171,
			"max":[
				15.850000381469727,
				4.079999923706055,
				32.05000305175781
			],
			"min":[
				-29.05000114440918,
				0,
				-12.850000381469727
			],
			"type":"VEC3"
		},
		{
			"bufferView":17,
			"componentType":5126,
			"count":17171,
			"type":"VEC3"
		},
		{
			"bufferView":18,
			"componentType":5126,
			"count":17171,
			"type":"VEC2"
		},
		{
			"bufferView":19,
			"componentType":5123,
			"count":44586,
			"type":"SCALAR"
		},
		{
			"bufferView":20,
			"componentType":5126,
			"count":82216,
			"max":[
				15.770856857299805,
				3.679999828338623,
				31.970857620239258
			],
			"min":[
				-28.970857620239258,
				0.4000000059604645,
				-12.770856857299805
			],
			"type":"VEC3"
		},
		{
			"bufferView":21,
			"componentType":5126,
			"count":82216,
			"type":"VEC3"
		},
		{
			"bufferView":22,
			"componentType":5126,
			"count":82216,
			"type":"VEC2"
		},
		{
			"bufferView":23,
			"componentType":5125,
			"count":276510,
			"type":"SCALAR"
		},
		{
			"bufferView":24,
			"componentType":5126,
			"count":5657,
			"max":[
				15.851500511169434,
				4.079999923706055,
				32.0515022277832
			],
			"min":[
				-29.05150032043457,
				0,
				-12.85150146484375
			],
			"type":"VEC3"
		},
		{
			"bufferView":25,
			"componentType":5126,
			"count":5657,
			"type":"VEC3"
		},
		{
			"bufferView":26,
			"componentType":5126,
			"count":5657,
			"type":"VEC2"
		},
		{
			"bufferView":27,
			"componentType":5123,
			"count":13734,
			"type":"SCALAR"
		}
	],
	"bufferViews":[
		{
			"buffer":0,
			"byteLength":77136,
			"byteOffset":0,
			"target":34962
		},
		{
			"buffer":0,
			"byteLength":77136,
			"byteOffset":77136,
			"target":34962
		},
		{
			"buffer":0,
			"byteLength":51424,
			"byteOffset":154272,
			"target":34962
		},
		{
			"buffer":0,
			"byteLength":19968,
			"byteOffset":205696,
			"target":34963
		},
		{
			"buffer":0,
			"byteLength":91440,
			"byteOffset":225664,
			"target":34962
		},
		{
			"buffer":0,
			"byteLength":91440,
			"byteOffset":317104,
			"target":34962
		},
		{
			"buffer":0,
			"byteLength":60960,
			"byteOffset":408544,
			"target":34962
		},
		{
			"buffer":0,
			"byteLength":26208,
			"byteOffset":469504,
			"target":34963
		},
		{
			"buffer":0,
			"byteLength":389940,
			"byteOffset":495712,
			"target":34962
		},
		{
			"buffer":0,
			"byteLength":389940,
			"byteOffset":885652,
			"target":34962
		},
		{
			"buffer":0,
			"byteLength":259960,
			"byteOffset":1275592,
			"target":34962
		},
		{
			"buffer":0,
			"byteLength":97560,
			"byteOffset":1535552,
			"target":34963
		},
		{
			"buffer":0,
			"byteLength":3253356,
			"byteOffset":1633112,
			"target":34962
		},
		{
			"buffer":0,
			"byteLength":3253356,
			"byteOffset":4886468,
			"target":34962
		},
		{
			"buffer":0,
			"byteLength":2168904,
			"byteOffset":8139824,
			"target":34962
		},
		{
			"buffer":0,
			"byteLength":3669768,
			"byteOffset":10308728,
			"target":34963
		},
		{
			"buffer":0,
			"byteLength":206052,
			"byteOffset":13978496,
			"target":34962
		},
		{
			"buffer":0,
			"byteLength":206052,
			"byteOffset":14184548,
			"target":34962
		},
		{
			"buffer":0,
			"byteLength":137368,
			"byteOffset":14390600,
			"target":34962
		},
		{
			"buffer":0,
			"byteLength":89172,
			"byteOffset":14527968,
			"target":34963
		},
		{
			"buffer":0,
			"byteLength":986592,
			"byteOffset":14617140,
			"target":34962
		},
		{
			"buffer":0,
			"byteLength":986592,
			"byteOffset":15603732,
			"target":34962
		},
		{
			"buffer":0,
			"byteLength":657728,
			"byteOffset":16590324,
			"target":34962
		},
		{
			"buffer":0,
			"byteLength":1106040,
			"byteOffset":17248052,
			"target":34963
		},
		{
			"buffer":0,
			"byteLength":67884,
			"byteOffset":18354092,
			"target":34962
		},
		{
			"buffer":0,
			"byteLength":67884,
			"byteOffset":18421976,
			"target":34962
		},
		{
			"buffer":0,
			"byteLength":45256,
			"byteOffset":18489860,
			"target":34962
		},
		{
			"buffer":0,
			"byteLength":27468,
			"byteOffset":18535116,
			"target":34963
		}
	],
	"buffers":[
		{
			"byteLength":18562584,
			"uri":"Stage01.bin"
		}
	]
}
