{
	"asset":{
		"generator":"Khronos glTF Blender I/O v5.1.19",
		"version":"2.0"
	},
	"scene":0,
	"scenes":[
		{
			"name":"Scene",
			"nodes":[
				0,
				1,
				2,
				3,
				4,
				5,
				6,
				7,
				8,
				9,
				10,
				11,
				12,
				13,
				14,
				15,
				16,
				17,
				18,
				19,
				20,
				21,
				22,
				23,
				24,
				25,
				26,
				27
			]
		}
	],
	"nodes":[
		{
			"mesh":0,
			"name":"COL1_Wall",
			"rotation":[
				0.7071068286895752,
				0,
				0,
				0.7071068286895752
			],
			"scale":[
				3,
				1,
				1.7999999523162842
			],
			"translation":[
				6,
				2.799999952316284,
				-9
			]
		},
		{
			"mesh":1,
			"name":"COL2_Wall",
			"rotation":[
				0.5,
				0.5,
				-0.5,
				0.5
			],
			"scale":[
				3,
				1,
				1.7999999523162842
			],
			"translation":[
				9,
				2.799999952316284,
				-6
			]
		},
		{
			"mesh":2,
			"name":"COL3_Wall",
			"rotation":[
				0.7071068286895752,
				0,
				0,
				0.7071068286895752
			],
			"scale":[
				3,
				1,
				1.7999999523162842
			],
			"translation":[
				-6,
				2.799999952316284,
				-9
			]
		},
		{
			"mesh":3,
			"name":"COL4_Wall",
			"rotation":[
				0.5,
				0.5,
				-0.5,
				0.5
			],
			"scale":[
				3,
				1,
				1.7999999523162842
			],
			"translation":[
				-9,
				2.799999952316284,
				-6
			]
		},
		{
			"mesh":4,
			"name":"COL5_Wall",
			"rotation":[
				0.7071068286895752,
				0,
				0,
				0.7071068286895752
			],
			"scale":[
				3,
				1,
				1.7999999523162842
			],
			"translation":[
				-6,
				2.799999952316284,
				9
			]
		},
		{
			"mesh":5,
			"name":"COL6_Wall",
			"rotation":[
				0.5,
				0.5,
				-0.5,
				0.5
			],
			"scale":[
				3,
				1,
				1.7999999523162842
			],
			"translation":[
				-9,
				2.799999952316284,
				6
			]
		},
		{
			"mesh":6,
			"name":"COL7_Wall",
			"rotation":[
				0.7071068286895752,
				0,
				0,
				0.7071068286895752
			],
			"scale":[
				3,
				1,
				1.7999999523162842
			],
			"translation":[
				6,
				2.799999952316284,
				9
			]
		},
		{
			"mesh":7,
			"name":"COL8_Wall",
			"rotation":[
				0.5,
				0.5,
				-0.5,
				0.5
			],
			"scale":[
				3,
				1,
				1.7999999523162842
			],
			"translation":[
				9,
				2.799999952316284,
				6
			]
		},
		{
			"mesh":8,
			"name":"COL9_Wall",
			"rotation":[
				0.5,
				0.5,
				-0.5,
				0.5
			],
			"scale":[
				3,
				1,
				1.7999999523162842
			],
			"translation":[
				-3,
				2.799999952316284,
				-12
			]
		},
		{
			"mesh":9,
			"name":"COL10_Wall",
			"rotation":[
				0.5,
				0.5,
				-0.5,
				0.5
			],
			"scale":[
				3,
				1,
				1.7999999523162842
			],
			"translation":[
				3,
				2.799999952316284,
				-12
			]
		},
		{
			"mesh":10,
			"name":"COL11_Wall",
			"rotation":[
				0.5,
				0.5,
				-0.5,
				0.5
			],
			"scale":[
				3,
				1,
				1.7999999523162842
			],
			"translation":[
				-3,
				2.799999952316284,
				12
			]
		},
		{
			"mesh":11,
			"name":"COL12_Wall",
			"rotation":[
				0.5,
				0.5,
				-0.5,
				0.5
			],
			"scale":[
				3,
				1,
				1.7999999523162842
			],
			"translation":[
				3,
				2.799999952316284,
				12
			]
		},
		{
			"mesh":12,
			"name":"COL13_Wall",
			"rotation":[
				0,
				-0.7071068286895752,
				0.7071068286895752,
				1.1520233300643667e-07
			],
			"scale":[
				3,
				1,
				1.7999999523162842
			],
			"translation":[
				12,
				2.799999952316284,
				-3
			]
		},
		{
			"mesh":13,
			"name":"COL14_Wall",
			"rotation":[
				0,
				-0.7071068286895752,
				0.7071068286895752,
				1.1520233300643667e-07
			],
			"scale":[
				3,
				1,
				1.7999999523162842
			],
			"translation":[
				12,
				2.799999952316284,
				3
			]
		},
		{
			"mesh":14,
			"name":"COL15_Wall",
			"rotation":[
				0,
				-0.7071068286895752,
				0.7071068286895752,
				1.1520233300643667e-07
			],
			"scale":[
				3,
				1,
				1.7999999523162842
			],
			"translation":[
				-12,
				2.799999952316284,
				-3
			]
		},
		{
			"mesh":15,
			"name":"COL16_Wall",
			"rotation":[
				0,
				-0.7071068286895752,
				0.7071068286895752,
				1.1520233300643667e-07
			],
			"scale":[
				3,
				1,
				1.7999999523162842
			],
			"translation":[
				-12,
				2.799999952316284,
				3
			]
		},
		{
			"mesh":16,
			"name":"COL17_Wall",
			"rotation":[
				0.7071068286895752,
				0,
				0,
				0.7071068286895752
			],
			"scale":[
				22.399999618530273,
				1,
				1.999999761581421
			],
			"translation":[
				0,
				2.5999999046325684,
				-22.399999618530273
			]
		},
		{
			"mesh":17,
			"name":"COL18_Wall",
			"rotation":[
				0.7071068286895752,
				0,
				0,
				0.7071068286895752
			],
			"scale":[
				22.399999618530273,
				1,
				1.999999761581421
			],
			"translation":[
				0,
				2.5999999046325684,
				22.399999618530273
			]
		},
		{
			"mesh":18,
			"name":"COL25_Wall",
			"rotation":[
				0.5,
				0.5,
				-0.5,
				0.5
			],
			"scale":[
				22.399999618530273,
				1,
				1.999999761581421
			],
			"translation":[
				22.399999618530273,
				2.5999999046325684,
				0
			]
		},
		{
			"mesh":19,
			"name":"COL26_Wall",
			"rotation":[
				0.5,
				0.5,
				-0.5,
				0.5
			],
			"scale":[
				22.399999618530273,
				1,
				1.999999761581421
			],
			"translation":[
				-22.399999618530273,
				2.5999999046325684,
				0
			]
		},
		{
			"mesh":20,
			"name":"COL19_Wall",
			"rotation":[
				0.5,
				0.5,
				-0.5,
				0.5
			],
			"scale":[
				22.060001373291016,
				1,
				0.7300000190734863
			],
			"translation":[
				-22.044836044311523,
				5.329999923706055,
				0
			]
		},
		{
			"mesh":21,
			"name":"COL20_Wall",
			"rotation":[
				0.5,
				0.5,
				-0.5,
				0.5
			],
			"scale":[
				22.060001373291016,
				1,
				0.7300000190734863
			],
			"translation":[
				22.0447998046875,
				5.329999923706055,
				0
			]
		},
		{
			"mesh":22,
			"name":"COL21_Wall",
			"rotation":[
				0,
				-0.7071068286895752,
				0.7071068286895752,
				1.1520233300643667e-07
			],
			"scale":[
				22.060001373291016,
				1,
				0.7300000190734863
			],
			"translation":[
				0,
				5.329999923706055,
				22.0447998046875
			]
		},
		{
			"mesh":23,
			"name":"COL22_Wall",
			"rotation":[
				0,
				-0.7071068286895752,
				0.7071068286895752,
				1.1520233300643667e-07
			],
			"scale":[
				22.060001373291016,
				1,
				0.7300000190734863
			],
			"translation":[
				0,
				5.329999923706055,
				-22.0447998046875
			]
		},
		{
			"mesh":24,
			"name":"COL23_Wall",
			"rotation":[
				0,
				-0.7071068286895752,
				0.7071068286895752,
				1.1520233300643667e-07
			],
			"scale":[
				21.349985122680664,
				1,
				0.7300000190734863
			],
			"translation":[
				0,
				5.329999923706055,
				21.350000381469727
			]
		},
		{
			"mesh":25,
			"name":"COL24_Wall",
			"rotation":[
				0,
				-0.7071068286895752,
				0.7071068286895752,
				1.1520233300643667e-07
			],
			"scale":[
				21.349985122680664,
				1,
				0.7300000190734863
			],
			"translation":[
				0,
				5.329999923706055,
				-21.350000381469727
			]
		},
		{
			"mesh":26,
			"name":"COL27_Wall",
			"rotation":[
				0.5000001192092896,
				-0.49999988079071045,
				0.49999988079071045,
				0.5000001192092896
			],
			"scale":[
				21.349985122680664,
				1,
				0.7300000190734863
			],
			"translation":[
				-21.350000381469727,
				5.329999923706055,
				0
			]
		},
		{
			"mesh":27,
			"name":"COL28_Wall",
			"rotation":[
				0.5000001192092896,
				-0.49999988079071045,
				0.49999988079071045,
				0.5000001192092896
			],
			"scale":[
				21.349985122680664,
				1,
				0.7300000190734863
			],
			"translation":[
				21.350000381469727,
				5.329999923706055,
				0
			]
		}
	],
	"meshes":[
		{
			"name":"\u5e73\u9762.025",
			"primitives":[
				{
					"attributes":{
						"POSITION":0,
						"NORMAL":1,
						"TEXCOORD_0":2
					},
					"indices":3
				}
			]
		},
		{
			"name":"\u5e73\u9762.026",
			"primitives":[
				{
					"attributes":{
						"POSITION":4,
						"NORMAL":5,
						"TEXCOORD_0":6
					},
					"indices":3
				}
			]
		},
		{
			"name":"\u5e73\u9762.027",
			"primitives":[
				{
					"attributes":{
						"POSITION":7,
						"NORMAL":8,
						"TEXCOORD_0":9
					},
					"indices":3
				}
			]
		},
		{
			"name":"\u5e73\u9762.028",
			"primitives":[
				{
					"attributes":{
						"POSITION":10,
						"NORMAL":11,
						"TEXCOORD_0":12
					},
					"indices":3
				}
			]
		},
		{
			"name":"\u5e73\u9762.029",
			"primitives":[
				{
					"attributes":{
						"POSITION":13,
						"NORMAL":14,
						"TEXCOORD_0":15
					},
					"indices":3
				}
			]
		},
		{
			"name":"\u5e73\u9762.030",
			"primitives":[
				{
					"attributes":{
						"POSITION":16,
						"NORMAL":17,
						"TEXCOORD_0":18
					},
					"indices":3
				}
			]
		},
		{
			"name":"\u5e73\u9762.031",
			"primitives":[
				{
					"attributes":{
						"POSITION":19,
						"NORMAL":20,
						"TEXCOORD_0":21
					},
					"indices":3
				}
			]
		},
		{
			"name":"\u5e73\u9762.032",
			"primitives":[
				{
					"attributes":{
						"POSITION":22,
						"NORMAL":23,
						"TEXCOORD_0":24
					},
					"indices":3
				}
			]
		},
		{
			"name":"\u5e73\u9762.033",
			"primitives":[
				{
					"attributes":{
						"POSITION":25,
						"NORMAL":26,
						"TEXCOORD_0":27
					},
					"indices":3
				}
			]
		},
		{
			"name":"\u5e73\u9762.034",
			"primitives":[
				{
					"attributes":{
						"POSITION":28,
						"NORMAL":29,
						"TEXCOORD_0":30
					},
					"indices":3
				}
			]
		},
		{
			"name":"\u5e73\u9762.035",
			"primitives":[
				{
					"attributes":{
						"POSITION":31,
						"NORMAL":32,
						"TEXCOORD_0":33
					},
					"indices":3
				}
			]
		},
		{
			"name":"\u5e73\u9762.036",
			"primitives":[
				{
					"attributes":{
						"POSITION":34,
						"NORMAL":35,
						"TEXCOORD_0":36
					},
					"indices":3
				}
			]
		},
		{
			"name":"\u5e73\u9762.037",
			"primitives":[
				{
					"attributes":{
						"POSITION":37,
						"NORMAL":38,
						"TEXCOORD_0":39
					},
					"indices":3
				}
			]
		},
		{
			"name":"\u5e73\u9762.038",
			"primitives":[
				{
					"attributes":{
						"POSITION":40,
						"NORMAL":41,
						"TEXCOORD_0":42
					},
					"indices":3
				}
			]
		},
		{
			"name":"\u5e73\u9762.039",
			"primitives":[
				{
					"attributes":{
						"POSITION":43,
						"NORMAL":44,
						"TEXCOORD_0":45
					},
					"indices":3
				}
			]
		},
		{
			"name":"\u5e73\u9762.040",
			"primitives":[
				{
					"attributes":{
						"POSITION":46,
						"NORMAL":47,
						"TEXCOORD_0":48
					},
					"indices":3
				}
			]
		},
		{
			"name":"\u5e73\u9762.045",
			"primitives":[
				{
					"attributes":{
						"POSITION":49,
						"NORMAL":50,
						"TEXCOORD_0":51
					},
					"indices":3
				}
			]
		},
		{
			"name":"\u5e73\u9762.046",
			"primitives":[
				{
					"attributes":{
						"POSITION":52,
						"NORMAL":53,
						"TEXCOORD_0":54
					},
					"indices":3
				}
			]
		},
		{
			"name":"\u5e73\u9762.047",
			"primitives":[
				{
					"attributes":{
						"POSITION":55,
						"NORMAL":56,
						"TEXCOORD_0":57
					},
					"indices":3
				}
			]
		},
		{
			"name":"\u5e73\u9762.048",
			"primitives":[
				{
					"attributes":{
						"POSITION":58,
						"NORMAL":59,
						"TEXCOORD_0":60
					},
					"indices":3
				}
			]
		},
		{
			"name":"\u5e73\u9762.049",
			"primitives":[
				{
					"attributes":{
						"POSITION":61,
						"NORMAL":62,
						"TEXCOORD_0":63
					},
					"indices":3
				}
			]
		},
		{
			"name":"\u5e73\u9762.050",
			"primitives":[
				{
					"attributes":{
						"POSITION":64,
						"NORMAL":65,
						"TEXCOORD_0":66
					},
					"indices":3
				}
			]
		},
		{
			"name":"\u5e73\u9762.051",
			"primitives":[
				{
					"attributes":{
						"POSITION":67,
						"NORMAL":68,
						"TEXCOORD_0":69
					},
					"indices":3
				}
			]
		},
		{
			"name":"\u5e73\u9762.052",
			"primitives":[
				{
					"attributes":{
						"POSITION":70,
						"NORMAL":71,
						"TEXCOORD_0":72
					},
					"indices":3
				}
			]
		},
		{
			"name":"\u5e73\u9762.053",
			"primitives":[
				{
					"attributes":{
						"POSITION":73,
						"NORMAL":74,
						"TEXCOORD_0":75
					},
					"indices":3
				}
			]
		},
		{
			"name":"\u5e73\u9762.054",
			"primitives":[
				{
					"attributes":{
						"POSITION":76,
						"NORMAL":77,
						"TEXCOORD_0":78
					},
					"indices":3
				}
			]
		},
		{
			"name":"\u5e73\u9762.055",
			"primitives":[
				{
					"attributes":{
						"POSITION":79,
						"NORMAL":80,
						"TEXCOORD_0":81
					},
					"indices":3
				}
			]
		},
		{
			"name":"\u5e73\u9762.056",
			"primitives":[
				{
					"attributes":{
						"POSITION":82,
						"NORMAL":83,
						"TEXCOORD_0":84
					},
					"indices":3
				}
			]
		}
	],
	"accessors":[
		{
			"bufferView":0,
			"componentType":5126,
			"count":4,
			"max":[
				1,
				0,
				1
			],
			"min":[
				-1,
				0,
				-1
			],
			"type":"VEC3"
		},
		{
			"bufferView":1,
			"componentType":5126,
			"count":4,
			"type":"VEC3"
		},
		{
			"bufferView":2,
			"componentType":5126,
			"count":4,
			"type":"VEC2"
		},
		{
			"bufferView":3,
			"componentType":5123,
			"count":6,
			"type":"SCALAR"
		},
		{
			"bufferView":4,
			"componentType":5126,
			"count":4,
			"max":[
				1,
				0,
				1
			],
			"min":[
				-1,
				0,
				-1
			],
			"type":"VEC3"
		},
		{
			"bufferView":5,
			"componentType":5126,
			"count":4,
			"type":"VEC3"
		},
		{
			"bufferView":6,
			"componentType":5126,
			"count":4,
			"type":"VEC2"
		},
		{
			"bufferView":7,
			"componentType":5126,
			"count":4,
			"max":[
				1,
				0,
				1
			],
			"min":[
				-1,
				0,
				-1
			],
			"type":"VEC3"
		},
		{
			"bufferView":8,
			"componentType":5126,
			"count":4,
			"type":"VEC3"
		},
		{
			"bufferView":9,
			"componentType":5126,
			"count":4,
			"type":"VEC2"
		},
		{
			"bufferView":10,
			"componentType":5126,
			"count":4,
			"max":[
				1,
				0,
				1
			],
			"min":[
				-1,
				0,
				-1
			],
			"type":"VEC3"
		},
		{
			"bufferView":11,
			"componentType":5126,
			"count":4,
			"type":"VEC3"
		},
		{
			"bufferView":12,
			"componentType":5126,
			"count":4,
			"type":"VEC2"
		},
		{
			"bufferView":13,
			"componentType":5126,
			"count":4,
			"max":[
				1,
				0,
				1
			],
			"min":[
				-1,
				0,
				-1
			],
			"type":"VEC3"
		},
		{
			"bufferView":14,
			"componentType":5126,
			"count":4,
			"type":"VEC3"
		},
		{
			"bufferView":15,
			"componentType":5126,
			"count":4,
			"type":"VEC2"
		},
		{
			"bufferView":16,
			"componentType":5126,
			"count":4,
			"max":[
				1,
				0,
				1
			],
			"min":[
				-1,
				0,
				-1
			],
			"type":"VEC3"
		},
		{
			"bufferView":17,
			"componentType":5126,
			"count":4,
			"type":"VEC3"
		},
		{
			"bufferView":18,
			"componentType":5126,
			"count":4,
			"type":"VEC2"
		},
		{
			"bufferView":19,
			"componentType":5126,
			"count":4,
			"max":[
				1,
				0,
				1
			],
			"min":[
				-1,
				0,
				-1
			],
			"type":"VEC3"
		},
		{
			"bufferView":20,
			"componentType":5126,
			"count":4,
			"type":"VEC3"
		},
		{
			"bufferView":21,
			"componentType":5126,
			"count":4,
			"type":"VEC2"
		},
		{
			"bufferView":22,
			"componentType":5126,
			"count":4,
			"max":[
				1,
				0,
				1
			],
			"min":[
				-1,
				0,
				-1
			],
			"type":"VEC3"
		},
		{
			"bufferView":23,
			"componentType":5126,
			"count":4,
			"type":"VEC3"
		},
		{
			"bufferView":24,
			"componentType":5126,
			"count":4,
			"type":"VEC2"
		},
		{
			"bufferView":25,
			"componentType":5126,
			"count":4,
			"max":[
				1,
				0,
				1
			],
			"min":[
				-1,
				0,
				-1
			],
			"type":"VEC3"
		},
		{
			"bufferView":26,
			"componentType":5126,
			"count":4,
			"type":"VEC3"
		},
		{
			"bufferView":27,
			"componentType":5126,
			"count":4,
			"type":"VEC2"
		},
		{
			"bufferView":28,
			"componentType":5126,
			"count":4,
			"max":[
				1,
				0,
				1
			],
			"min":[
				-1,
				0,
				-1
			],
			"type":"VEC3"
		},
		{
			"bufferView":29,
			"componentType":5126,
			"count":4,
			"type":"VEC3"
		},
		{
			"bufferView":30,
			"componentType":5126,
			"count":4,
			"type":"VEC2"
		},
		{
			"bufferView":31,
			"componentType":5126,
			"count":4,
			"max":[
				1,
				0,
				1
			],
			"min":[
				-1,
				0,
				-1
			],
			"type":"VEC3"
		},
		{
			"bufferView":32,
			"componentType":5126,
			"count":4,
			"type":"VEC3"
		},
		{
			"bufferView":33,
			"componentType":5126,
			"count":4,
			"type":"VEC2"
		},
		{
			"bufferView":34,
			"componentType":5126,
			"count":4,
			"max":[
				1,
				0,
				1
			],
			"min":[
				-1,
				0,
				-1
			],
			"type":"VEC3"
		},
		{
			"bufferView":35,
			"componentType":5126,
			"count":4,
			"type":"VEC3"
		},
		{
			"bufferView":36,
			"componentType":5126,
			"count":4,
			"type":"VEC2"
		},
		{
			"bufferView":37,
			"componentType":5126,
			"count":4,
			"max":[
				1,
				0,
				1
			],
			"min":[
				-1,
				0,
				-1
			],
			"type":"VEC3"
		},
		{
			"bufferView":38,
			"componentType":5126,
			"count":4,
			"type":"VEC3"
		},
		{
			"bufferView":39,
			"componentType":5126,
			"count":4,
			"type":"VEC2"
		},
		{
			"bufferView":40,
			"componentType":5126,
			"count":4,
			"max":[
				1,
				0,
				1
			],
			"min":[
				-1,
				0,
				-1
			],
			"type":"VEC3"
		},
		{
			"bufferView":41,
			"componentType":5126,
			"count":4,
			"type":"VEC3"
		},
		{
			"bufferView":42,
			"componentType":5126,
			"count":4,
			"type":"VEC2"
		},
		{
			"bufferView":43,
			"componentType":5126,
			"count":4,
			"max":[
				1,
				0,
				1
			],
			"min":[
				-1,
				0,
				-1
			],
			"type":"VEC3"
		},
		{
			"bufferView":44,
			"componentType":5126,
			"count":4,
			"type":"VEC3"
		},
		{
			"bufferView":45,
			"componentType":5126,
			"count":4,
			"type":"VEC2"
		},
		{
			"bufferView":46,
			"componentType":5126,
			"count":4,
			"max":[
				1,
				0,
				1
			],
			"min":[
				-1,
				0,
				-1
			],
			"type":"VEC3"
		},
		{
			"bufferView":47,
			"componentType":5126,
			"count":4,
			"type":"VEC3"
		},
		{
			"bufferView":48,
			"componentType":5126,
			"count":4,
			"type":"VEC2"
		},
		{
			"bufferView":49,
			"componentType":5126,
			"count":4,
			"max":[
				1,
				0,
				1
			],
			"min":[
				-1,
				0,
				-1
			],
			"type":"VEC3"
		},
		{
			"bufferView":50,
			"componentType":5126,
			"count":4,
			"type":"VEC3"
		},
		{
			"bufferView":51,
			"componentType":5126,
			"count":4,
			"type":"VEC2"
		},
		{
			"bufferView":52,
			"componentType":5126,
			"count":4,
			"max":[
				1,
				0,
				1
			],
			"min":[
				-1,
				0,
				-1
			],
			"type":"VEC3"
		},
		{
			"bufferView":53,
			"componentType":5126,
			"count":4,
			"type":"VEC3"
		},
		{
			"bufferView":54,
			"componentType":5126,
			"count":4,
			"type":"VEC2"
		},
		{
			"bufferView":55,
			"componentType":5126,
			"count":4,
			"max":[
				1,
				0,
				1
			],
			"min":[
				-1,
				0,
				-1
			],
			"type":"VEC3"
		},
		{
			"bufferView":56,
			"componentType":5126,
			"count":4,
			"type":"VEC3"
		},
		{
			"bufferView":57,
			"componentType":5126,
			"count":4,
			"type":"VEC2"
		},
		{
			"bufferView":58,
			"componentType":5126,
			"count":4,
			"max":[
				1,
				0,
				1
			],
			"min":[
				-1,
				0,
				-1
			],
			"type":"VEC3"
		},
		{
			"bufferView":59,
			"componentType":5126,
			"count":4,
			"type":"VEC3"
		},
		{
			"bufferView":60,
			"componentType":5126,
			"count":4,
			"type":"VEC2"
		},
		{
			"bufferView":61,
			"componentType":5126,
			"count":4,
			"max":[
				1,
				0,
				1
			],
			"min":[
				-1,
				0,
				-1
			],
			"type":"VEC3"
		},
		{
			"bufferView":62,
			"componentType":5126,
			"count":4,
			"type":"VEC3"
		},
		{
			"bufferView":63,
			"componentType":5126,
			"count":4,
			"type":"VEC2"
		},
		{
			"bufferView":64,
			"componentType":5126,
			"count":4,
			"max":[
				1,
				0,
				1
			],
			"min":[
				-1,
				0,
				-1
			],
			"type":"VEC3"
		},
		{
			"bufferView":65,
			"componentType":5126,
			"count":4,
			"type":"VEC3"
		},
		{
			"bufferView":66,
			"componentType":5126,
			"count":4,
			"type":"VEC2"
		},
		{
			"bufferView":67,
			"componentType":5126,
			"count":4,
			"max":[
				1,
				0,
				1
			],
			"min":[
				-1,
				0,
				-1
			],
			"type":"VEC3"
		},
		{
			"bufferView":68,
			"componentType":5126,
			"count":4,
			"type":"VEC3"
		},
		{
			"bufferView":69,
			"componentType":5126,
			"count":4,
			"type":"VEC2"
		},
		{
			"bufferView":70,
			"componentType":5126,
			"count":4,
			"max":[
				1,
				0,
				1
			],
			"min":[
				-1,
				0,
				-1
			],
			"type":"VEC3"
		},
		{
			"bufferView":71,
			"componentType":5126,
			"count":4,
			"type":"VEC3"
		},
		{
			"bufferView":72,
			"componentType":5126,
			"count":4,
			"type":"VEC2"
		},
		{
			"bufferView":73,
			"componentType":5126,
			"count":4,
			"max":[
				1,
				0,
				1
			],
			"min":[
				-1,
				0,
				-1
			],
			"type":"VEC3"
		},
		{
			"bufferView":74,
			"componentType":5126,
			"count":4,
			"type":"VEC3"
		},
		{
			"bufferView":75,
			"componentType":5126,
			"count":4,
			"type":"VEC2"
		},
		{
			"bufferView":76,
			"componentType":5126,
			"count":4,
			"max":[
				1,
				0,
				1
			],
			"min":[
				-1,
				0,
				-1
			],
			"type":"VEC3"
		},
		{
			"bufferView":77,
			"componentType":5126,
			"count":4,
			"type":"VEC3"
		},
		{
			"bufferView":78,
			"componentType":5126,
			"count":4,
			"type":"VEC2"
		},
		{
			"bufferView":79,
			"componentType":5126,
			"count":4,
			"max":[
				1,
				0,
				1
			],
			"min":[
				-1,
				0,
				-1
			],
			"type":"VEC3"
		},
		{
			"bufferView":80,
			"componentType":5126,
			"count":4,
			"type":"VEC3"
		},
		{
			"bufferView":81,
			"componentType":5126,
			"count":4,
			"type":"VEC2"
		},
		{
			"bufferView":82,
			"componentType":5126,
			"count":4,
			"max":[
				1,
				0,
				1
			],
			"min":[
				-1,
				0,
				-1
			],
			"type":"VEC3"
		},
		{
			"bufferView":83,
			"componentType":5126,
			"count":4,
			"type":"VEC3"
		},
		{
			"bufferView":84,
			"componentType":5126,
			"count":4,
			"type":"VEC2"
		}
	],
	"bufferViews":[
		{
			"buffer":0,
			"byteLength":48,
			"byteOffset":0,
			"target":34962
		},
		{
			"buffer":0,
			"byteLength":48,
			"byteOffset":48,
			"target":34962
		},
		{
			"buffer":0,
			"byteLength":32,
			"byteOffset":96,
			"target":34962
		},
		{
			"buffer":0,
			"byteLength":12,
			"byteOffset":128,
			"target":34963
		},
		{
			"buffer":0,
			"byteLength":48,
			"byteOffset":140,
			"target":34962
		},
		{
			"buffer":0,
			"byteLength":48,
			"byteOffset":188,
			"target":34962
		},
		{
			"buffer":0,
			"byteLength":32,
			"byteOffset":236,
			"target":34962
		},
		{
			"buffer":0,
			"byteLength":48,
			"byteOffset":268,
			"target":34962
		},
		{
			"buffer":0,
			"byteLength":48,
			"byteOffset":316,
			"target":34962
		},
		{
			"buffer":0,
			"byteLength":32,
			"byteOffset":364,
			"target":34962
		},
		{
			"buffer":0,
			"byteLength":48,
			"byteOffset":396,
			"target":34962
		},
		{
			"buffer":0,
			"byteLength":48,
			"byteOffset":444,
			"target":34962
		},
		{
			"buffer":0,
			"byteLength":32,
			"byteOffset":492,
			"target":34962
		},
		{
			"buffer":0,
			"byteLength":48,
			"byteOffset":524,
			"target":34962
		},
		{
			"buffer":0,
			"byteLength":48,
			"byteOffset":572,
			"target":34962
		},
		{
			"buffer":0,
			"byteLength":32,
			"byteOffset":620,
			"target":34962
		},
		{
			"buffer":0,
			"byteLength":48,
			"byteOffset":652,
			"target":34962
		},
		{
			"buffer":0,
			"byteLength":48,
			"byteOffset":700,
			"target":34962
		},
		{
			"buffer":0,
			"byteLength":32,
			"byteOffset":748,
			"target":34962
		},
		{
			"buffer":0,
			"byteLength":48,
			"byteOffset":780,
			"target":34962
		},
		{
			"buffer":0,
			"byteLength":48,
			"byteOffset":828,
			"target":34962
		},
		{
			"buffer":0,
			"byteLength":32,
			"byteOffset":876,
			"target":34962
		},
		{
			"buffer":0,
			"byteLength":48,
			"byteOffset":908,
			"target":34962
		},
		{
			"buffer":0,
			"byteLength":48,
			"byteOffset":956,
			"target":34962
		},
		{
			"buffer":0,
			"byteLength":32,
			"byteOffset":1004,
			"target":34962
		},
		{
			"buffer":0,
			"byteLength":48,
			"byteOffset":1036,
			"target":34962
		},
		{
			"buffer":0,
			"byteLength":48,
			"byteOffset":1084,
			"target":34962
		},
		{
			"buffer":0,
			"byteLength":32,
			"byteOffset":1132,
			"target":34962
		},
		{
			"buffer":0,
			"byteLength":48,
			"byteOffset":1164,
			"target":34962
		},
		{
			"buffer":0,
			"byteLength":48,
			"byteOffset":1212,
			"target":34962
		},
		{
			"buffer":0,
			"byteLength":32,
			"byteOffset":1260,
			"target":34962
		},
		{
			"buffer":0,
			"byteLength":48,
			"byteOffset":1292,
			"target":34962
		},
		{
			"buffer":0,
			"byteLength":48,
			"byteOffset":1340,
			"target":34962
		},
		{
			"buffer":0,
			"byteLength":32,
			"byteOffset":1388,
			"target":34962
		},
		{
			"buffer":0,
			"byteLength":48,
			"byteOffset":1420,
			"target":34962
		},
		{
			"buffer":0,
			"byteLength":48,
			"byteOffset":1468,
			"target":34962
		},
		{
			"buffer":0,
			"byteLength":32,
			"byteOffset":1516,
			"target":34962
		},
		{
			"buffer":0,
			"byteLength":48,
			"byteOffset":1548,
			"target":34962
		},
		{
			"buffer":0,
			"byteLength":48,
			"byteOffset":1596,
			"target":34962
		},
		{
			"buffer":0,
			"byteLength":32,
			"byteOffset":1644,
			"target":34962
		},
		{
			"buffer":0,
			"byteLength":48,
			"byteOffset":1676,
			"target":34962
		},
		{
			"buffer":0,
			"byteLength":48,
			"byteOffset":1724,
			"target":34962
		},
		{
			"buffer":0,
			"byteLength":32,
			"byteOffset":1772,
			"target":34962
		},
		{
			"buffer":0,
			"byteLength":48,
			"byteOffset":1804,
			"target":34962
		},
		{
			"buffer":0,
			"byteLength":48,
			"byteOffset":1852,
			"target":34962
		},
		{
			"buffer":0,
			"byteLength":32,
			"byteOffset":1900,
			"target":34962
		},
		{
			"buffer":0,
			"byteLength":48,
			"byteOffset":1932,
			"target":34962
		},
		{
			"buffer":0,
			"byteLength":48,
			"byteOffset":1980,
			"target":34962
		},
		{
			"buffer":0,
			"byteLength":32,
			"byteOffset":2028,
			"target":34962
		},
		{
			"buffer":0,
			"byteLength":48,
			"byteOffset":2060,
			"target":34962
		},
		{
			"buffer":0,
			"byteLength":48,
			"byteOffset":2108,
			"target":34962
		},
		{
			"buffer":0,
			"byteLength":32,
			"byteOffset":2156,
			"target":34962
		},
		{
			"buffer":0,
			"byteLength":48,
			"byteOffset":2188,
			"target":34962
		},
		{
			"buffer":0,
			"byteLength":48,
			"byteOffset":2236,
			"target":34962
		},
		{
			"buffer":0,
			"byteLength":32,
			"byteOffset":2284,
			"target":34962
		},
		{
			"buffer":0,
			"byteLength":48,
			"byteOffset":2316,
			"target":34962
		},
		{
			"buffer":0,
			"byteLength":48,
			"byteOffset":2364,
			"target":34962
		},
		{
			"buffer":0,
			"byteLength":32,
			"byteOffset":2412,
			"target":34962
		},
		{
			"buffer":0,
			"byteLength":48,
			"byteOffset":2444,
			"target":34962
		},
		{
			"buffer":0,
			"byteLength":48,
			"byteOffset":2492,
			"target":34962
		},
		{
			"buffer":0,
			"byteLength":32,
			"byteOffset":2540,
			"target":34962
		},
		{
			"buffer":0,
			"byteLength":48,
			"byteOffset":2572,
			"target":34962
		},
		{
			"buffer":0,
			"byteLength":48,
			"byteOffset":2620,
			"target":34962
		},
		{
			"buffer":0,
			"byteLength":32,
			"byteOffset":2668,
			"target":34962
		},
		{
			"buffer":0,
			"byteLength":48,
			"byteOffset":2700,
			"target":34962
		},
		{
			"buffer":0,
			"byteLength":48,
			"byteOffset":2748,
			"target":34962
		},
		{
			"buffer":0,
			"byteLength":32,
			"byteOffset":2796,
			"target":34962
		},
		{
			"buffer":0,
			"byteLength":48,
			"byteOffset":2828,
			"target":34962
		},
		{
			"buffer":0,
			"byteLength":48,
			"byteOffset":2876,
			"target":34962
		},
		{
			"buffer":0,
			"byteLength":32,
			"byteOffset":2924,
			"target":34962
		},
		{
			"buffer":0,
			"byteLength":48,
			"byteOffset":2956,
			"target":34962
		},
		{
			"buffer":0,
			"byteLength":48,
			"byteOffset":3004,
			"target":34962
		},
		{
			"buffer":0,
			"byteLength":32,
			"byteOffset":3052,
			"target":34962
		},
		{
			"buffer":0,
			"byteLength":48,
			"byteOffset":3084,
			"target":34962
		},
		{
			"buffer":0,
			"byteLength":48,
			"byteOffset":3132,
			"target":34962
		},
		{
			"buffer":0,
			"byteLength":32,
			"byteOffset":3180,
			"target":34962
		},
		{
			"buffer":0,
			"byteLength":48,
			"byteOffset":3212,
			"target":34962
		},
		{
			"buffer":0,
			"byteLength":48,
			"byteOffset":3260,
			"target":34962
		},
		{
			"buffer":0,
			"byteLength":32,
			"byteOffset":3308,
			"target":34962
		},
		{
			"buffer":0,
			"byteLength":48,
			"byteOffset":3340,
			"target":34962
		},
		{
			"buffer":0,
			"byteLength":48,
			"byteOffset":3388,
			"target":34962
		},
		{
			"buffer":0,
			"byteLength":32,
			"byteOffset":3436,
			"target":34962
		},
		{
			"buffer":0,
			"byteLength":48,
			"byteOffset":3468,
			"target":34962
		},
		{
			"buffer":0,
			"byteLength":48,
			"byteOffset":3516,
			"target":34962
		},
		{
			"buffer":0,
			"byteLength":32,
			"byteOffset":3564,
			"target":34962
		}
	],
	"buffers":[
		{
			"byteLength":3596,
			"uri":"WallCollision.bin"
		}
	]
}
