{
	"asset":{
		"generator":"Khronos glTF Blender I/O v5.1.19",
		"version":"2.0"
	},
	"scene":0,
	"scenes":[
		{
			"name":"Scene",
			"nodes":[
				11
			]
		}
	],
	"nodes":[
		{
			"name":"Crown",
			"rotation":[
				0.12996014952659607,
				0.6950613260269165,
				-0.1299600899219513,
				0.6950615048408508
			],
			"scale":[
				1.0000001192092896,
				1,
				1.0000001192092896
			],
			"translation":[
				0.2975963354110718,
				-9.057839633896947e-08,
				-6.498420646039449e-08
			]
		},
		{
			"name":"BottomEyeCover",
			"rotation":[
				0.44996246695518494,
				-0.5454665422439575,
				0.44996243715286255,
				0.5454666614532471
			],
			"scale":[
				1,
				0.9999999403953552,
				0.9999999403953552
			],
			"translation":[
				0.12632958590984344,
				-8.00282577984035e-08,
				-1.7648083883159416e-08
			]
		},
		{
			"name":"EyeBall",
			"rotation":[
				0.44996246695518494,
				-0.5454665422439575,
				0.44996243715286255,
				0.5454666614532471
			],
			"scale":[
				1,
				0.9999999403953552,
				0.9999999403953552
			],
			"translation":[
				0.12632958590984344,
				-8.00282577984035e-08,
				-1.7648083883159416e-08
			]
		},
		{
			"name":"UpperEyeCover",
			"rotation":[
				0.44996246695518494,
				-0.5454665422439575,
				0.44996243715286255,
				0.5454666614532471
			],
			"scale":[
				1,
				0.9999999403953552,
				0.9999999403953552
			],
			"translation":[
				0.12632958590984344,
				-8.00282577984035e-08,
				-1.7648083883159416e-08
			]
		},
		{
			"children":[
				1,
				2,
				3
			],
			"name":"EyeCTRL",
			"rotation":[
				0.4837254285812378,
				-0.8752198219299316,
				-2.359460005152414e-08,
				6.620155090786284e-08
			],
			"scale":[
				1,
				1.0000001192092896,
				1.0000001192092896
			],
			"translation":[
				-0.059098128229379654,
				-0.13575364649295807,
				8.137845952660427e-09
			]
		},
		{
			"children":[
				0,
				4
			],
			"name":"Head",
			"rotation":[
				1.2127567006192663e-10,
				8.595495981644774e-10,
				0.1530291736125946,
				0.9882216453552246
			],
			"scale":[
				0.9999999403953552,
				0.9999999403953552,
				1
			],
			"translation":[
				0.2780328094959259,
				1.5726254787296057e-07,
				-5.6934936765173916e-08
			]
		},
		{
			"name":"Side_L",
			"rotation":[
				0.0220646969974041,
				0.7067623138427734,
				-0.022064704447984695,
				0.7067625522613525
			],
			"translation":[
				0.27215227484703064,
				0.1282709687948227,
				-0.3057912290096283
			]
		},
		{
			"name":"Side_R",
			"rotation":[
				0.0220648180693388,
				0.7067623138427734,
				-0.022064747288823128,
				0.7067625522613525
			],
			"scale":[
				1,
				0.9999998807907104,
				0.9999998807907104
			],
			"translation":[
				0.27215245366096497,
				0.12827102839946747,
				0.3057907223701477
			]
		},
		{
			"children":[
				5,
				6,
				7
			],
			"name":"Spine01",
			"rotation":[
				-5.5764983741823926e-09,
				-2.2745666683476884e-07,
				0.22467735409736633,
				0.9744332432746887
			],
			"scale":[
				0.9999999403953552,
				0.9999999403953552,
				1
			],
			"translation":[
				0.22764140367507935,
				-1.121225068345666e-08,
				6.048613698794725e-08
			]
		},
		{
			"children":[
				8
			],
			"name":"Body",
			"rotation":[
				0.3890090584754944,
				0.5810012221336365,
				0.39775076508522034,
				0.5940572023391724
			],
			"scale":[
				1.0000001192092896,
				1,
				1.0000004768371582
			],
			"translation":[
				-0.00018184260989073664,
				0.06317120045423508,
				0.008181906305253506
			]
		},
		{
			"mesh":0,
			"name":"Slime",
			"skin":0
		},
		{
			"children":[
				10,
				9
			],
			"name":"SlimePBR"
		}
	],
	"animations":[
		{
			"channels":[
				{
					"sampler":0,
					"target":{
						"node":9,
						"path":"translation"
					}
				},
				{
					"sampler":1,
					"target":{
						"node":9,
						"path":"rotation"
					}
				},
				{
					"sampler":2,
					"target":{
						"node":9,
						"path":"scale"
					}
				},
				{
					"sampler":3,
					"target":{
						"node":8,
						"path":"translation"
					}
				},
				{
					"sampler":4,
					"target":{
						"node":8,
						"path":"rotation"
					}
				},
				{
					"sampler":5,
					"target":{
						"node":8,
						"path":"scale"
					}
				},
				{
					"sampler":6,
					"target":{
						"node":5,
						"path":"translation"
					}
				},
				{
					"sampler":7,
					"target":{
						"node":5,
						"path":"rotation"
					}
				},
				{
					"sampler":8,
					"target":{
						"node":5,
						"path":"scale"
					}
				},
				{
					"sampler":9,
					"target":{
						"node":0,
						"path":"translation"
					}
				},
				{
					"sampler":10,
					"target":{
						"node":0,
						"path":"rotation"
					}
				},
				{
					"sampler":11,
					"target":{
						"node":0,
						"path":"scale"
					}
				},
				{
					"sampler":12,
					"target":{
						"node":4,
						"path":"translation"
					}
				},
				{
					"sampler":13,
					"target":{
						"node":4,
						"path":"rotation"
					}
				},
				{
					"sampler":14,
					"target":{
						"node":4,
						"path":"scale"
					}
				},
				{
					"sampler":15,
					"target":{
						"node":1,
						"path":"translation"
					}
				},
				{
					"sampler":16,
					"target":{
						"node":1,
						"path":"rotation"
					}
				},
				{
					"sampler":17,
					"target":{
						"node":1,
						"path":"scale"
					}
				},
				{
					"sampler":18,
					"target":{
						"node":2,
						"path":"translation"
					}
				},
				{
					"sampler":19,
					"target":{
						"node":2,
						"path":"rotation"
					}
				},
				{
					"sampler":20,
					"target":{
						"node":2,
						"path":"scale"
					}
				},
				{
					"sampler":21,
					"target":{
						"node":3,
						"path":"translation"
					}
				},
				{
					"sampler":22,
					"target":{
						"node":3,
						"path":"rotation"
					}
				},
				{
					"sampler":23,
					"target":{
						"node":3,
						"path":"scale"
					}
				},
				{
					"sampler":24,
					"target":{
						"node":6,
						"path":"translation"
					}
				},
				{
					"sampler":25,
					"target":{
						"node":6,
						"path":"rotation"
					}
				},
				{
					"sampler":26,
					"target":{
						"node":6,
						"path":"scale"
					}
				},
				{
					"sampler":27,
					"target":{
						"node":7,
						"path":"translation"
					}
				},
				{
					"sampler":28,
					"target":{
						"node":7,
						"path":"rotation"
					}
				},
				{
					"sampler":29,
					"target":{
						"node":7,
						"path":"scale"
					}
				}
			],
			"name":"Attack",
			"samplers":[
				{
					"input":7,
					"interpolation":"LINEAR",
					"output":8
				},
				{
					"input":9,
					"interpolation":"STEP",
					"output":10
				},
				{
					"input":9,
					"interpolation":"STEP",
					"output":11
				},
				{
					"input":7,
					"interpolation":"LINEAR",
					"output":12
				},
				{
					"input":7,
					"interpolation":"LINEAR",
					"output":13
				},
				{
					"input":9,
					"interpolation":"STEP",
					"output":14
				},
				{
					"input":7,
					"interpolation":"LINEAR",
					"output":15
				},
				{
					"input":7,
					"interpolation":"LINEAR",
					"output":16
				},
				{
					"input":9,
					"interpolation":"STEP",
					"output":17
				},
				{
					"input":7,
					"interpolation":"LINEAR",
					"output":18
				},
				{
					"input":7,
					"interpolation":"LINEAR",
					"output":19
				},
				{
					"input":9,
					"interpolation":"STEP",
					"output":20
				},
				{
					"input":7,
					"interpolation":"LINEAR",
					"output":21
				},
				{
					"input":7,
					"interpolation":"LINEAR",
					"output":22
				},
				{
					"input":9,
					"interpolation":"STEP",
					"output":14
				},
				{
					"input":9,
					"interpolation":"STEP",
					"output":23
				},
				{
					"input":7,
					"interpolation":"LINEAR",
					"output":24
				},
				{
					"input":9,
					"interpolation":"STEP",
					"output":25
				},
				{
					"input":9,
					"interpolation":"STEP",
					"output":26
				},
				{
					"input":9,
					"interpolation":"STEP",
					"output":27
				},
				{
					"input":9,
					"interpolation":"STEP",
					"output":25
				},
				{
					"input":9,
					"interpolation":"STEP",
					"output":23
				},
				{
					"input":7,
					"interpolation":"LINEAR",
					"output":28
				},
				{
					"input":9,
					"interpolation":"STEP",
					"output":25
				},
				{
					"input":9,
					"interpolation":"STEP",
					"output":29
				},
				{
					"input":9,
					"interpolation":"STEP",
					"output":30
				},
				{
					"input":9,
					"interpolation":"STEP",
					"output":31
				},
				{
					"input":9,
					"interpolation":"STEP",
					"output":32
				},
				{
					"input":9,
					"interpolation":"STEP",
					"output":33
				},
				{
					"input":9,
					"interpolation":"STEP",
					"output":34
				}
			]
		},
		{
			"channels":[
				{
					"sampler":0,
					"target":{
						"node":9,
						"path":"translation"
					}
				},
				{
					"sampler":1,
					"target":{
						"node":9,
						"path":"rotation"
					}
				},
				{
					"sampler":2,
					"target":{
						"node":9,
						"path":"scale"
					}
				},
				{
					"sampler":3,
					"target":{
						"node":8,
						"path":"translation"
					}
				},
				{
					"sampler":4,
					"target":{
						"node":8,
						"path":"rotation"
					}
				},
				{
					"sampler":5,
					"target":{
						"node":8,
						"path":"scale"
					}
				},
				{
					"sampler":6,
					"target":{
						"node":5,
						"path":"translation"
					}
				},
				{
					"sampler":7,
					"target":{
						"node":5,
						"path":"rotation"
					}
				},
				{
					"sampler":8,
					"target":{
						"node":5,
						"path":"scale"
					}
				},
				{
					"sampler":9,
					"target":{
						"node":0,
						"path":"translation"
					}
				},
				{
					"sampler":10,
					"target":{
						"node":0,
						"path":"rotation"
					}
				},
				{
					"sampler":11,
					"target":{
						"node":0,
						"path":"scale"
					}
				},
				{
					"sampler":12,
					"target":{
						"node":4,
						"path":"translation"
					}
				},
				{
					"sampler":13,
					"target":{
						"node":4,
						"path":"rotation"
					}
				},
				{
					"sampler":14,
					"target":{
						"node":4,
						"path":"scale"
					}
				},
				{
					"sampler":15,
					"target":{
						"node":1,
						"path":"translation"
					}
				},
				{
					"sampler":16,
					"target":{
						"node":1,
						"path":"rotation"
					}
				},
				{
					"sampler":17,
					"target":{
						"node":1,
						"path":"scale"
					}
				},
				{
					"sampler":18,
					"target":{
						"node":2,
						"path":"translation"
					}
				},
				{
					"sampler":19,
					"target":{
						"node":2,
						"path":"rotation"
					}
				},
				{
					"sampler":20,
					"target":{
						"node":2,
						"path":"scale"
					}
				},
				{
					"sampler":21,
					"target":{
						"node":3,
						"path":"translation"
					}
				},
				{
					"sampler":22,
					"target":{
						"node":3,
						"path":"rotation"
					}
				},
				{
					"sampler":23,
					"target":{
						"node":3,
						"path":"scale"
					}
				},
				{
					"sampler":24,
					"target":{
						"node":6,
						"path":"translation"
					}
				},
				{
					"sampler":25,
					"target":{
						"node":6,
						"path":"rotation"
					}
				},
				{
					"sampler":26,
					"target":{
						"node":6,
						"path":"scale"
					}
				},
				{
					"sampler":27,
					"target":{
						"node":7,
						"path":"translation"
					}
				},
				{
					"sampler":28,
					"target":{
						"node":7,
						"path":"rotation"
					}
				},
				{
					"sampler":29,
					"target":{
						"node":7,
						"path":"scale"
					}
				}
			],
			"name":"Die",
			"samplers":[
				{
					"input":35,
					"interpolation":"LINEAR",
					"output":36
				},
				{
					"input":35,
					"interpolation":"LINEAR",
					"output":37
				},
				{
					"input":38,
					"interpolation":"STEP",
					"output":11
				},
				{
					"input":35,
					"interpolation":"LINEAR",
					"output":39
				},
				{
					"input":35,
					"interpolation":"LINEAR",
					"output":40
				},
				{
					"input":38,
					"interpolation":"STEP",
					"output":14
				},
				{
					"input":35,
					"interpolation":"LINEAR",
					"output":41
				},
				{
					"input":35,
					"interpolation":"LINEAR",
					"output":42
				},
				{
					"input":38,
					"interpolation":"STEP",
					"output":17
				},
				{
					"input":35,
					"interpolation":"LINEAR",
					"output":43
				},
				{
					"input":35,
					"interpolation":"LINEAR",
					"output":44
				},
				{
					"input":38,
					"interpolation":"LINEAR",
					"output":45
				},
				{
					"input":35,
					"interpolation":"LINEAR",
					"output":46
				},
				{
					"input":35,
					"interpolation":"LINEAR",
					"output":47
				},
				{
					"input":38,
					"interpolation":"LINEAR",
					"output":48
				},
				{
					"input":38,
					"interpolation":"LINEAR",
					"output":49
				},
				{
					"input":35,
					"interpolation":"LINEAR",
					"output":50
				},
				{
					"input":38,
					"interpolation":"STEP",
					"output":51
				},
				{
					"input":38,
					"interpolation":"LINEAR",
					"output":52
				},
				{
					"input":35,
					"interpolation":"LINEAR",
					"output":53
				},
				{
					"input":38,
					"interpolation":"STEP",
					"output":54
				},
				{
					"input":38,
					"interpolation":"LINEAR",
					"output":49
				},
				{
					"input":35,
					"interpolation":"LINEAR",
					"output":55
				},
				{
					"input":38,
					"interpolation":"STEP",
					"output":56
				},
				{
					"input":38,
					"interpolation":"LINEAR",
					"output":57
				},
				{
					"input":38,
					"interpolation":"STEP",
					"output":30
				},
				{
					"input":38,
					"interpolation":"STEP",
					"output":31
				},
				{
					"input":38,
					"interpolation":"LINEAR",
					"output":58
				},
				{
					"input":38,
					"interpolation":"STEP",
					"output":33
				},
				{
					"input":38,
					"interpolation":"STEP",
					"output":34
				}
			]
		},
		{
			"channels":[
				{
					"sampler":0,
					"target":{
						"node":9,
						"path":"translation"
					}
				},
				{
					"sampler":1,
					"target":{
						"node":9,
						"path":"rotation"
					}
				},
				{
					"sampler":2,
					"target":{
						"node":9,
						"path":"scale"
					}
				},
				{
					"sampler":3,
					"target":{
						"node":8,
						"path":"translation"
					}
				},
				{
					"sampler":4,
					"target":{
						"node":8,
						"path":"rotation"
					}
				},
				{
					"sampler":5,
					"target":{
						"node":8,
						"path":"scale"
					}
				},
				{
					"sampler":6,
					"target":{
						"node":5,
						"path":"translation"
					}
				},
				{
					"sampler":7,
					"target":{
						"node":5,
						"path":"rotation"
					}
				},
				{
					"sampler":8,
					"target":{
						"node":5,
						"path":"scale"
					}
				},
				{
					"sampler":9,
					"target":{
						"node":0,
						"path":"translation"
					}
				},
				{
					"sampler":10,
					"target":{
						"node":0,
						"path":"rotation"
					}
				},
				{
					"sampler":11,
					"target":{
						"node":0,
						"path":"scale"
					}
				},
				{
					"sampler":12,
					"target":{
						"node":4,
						"path":"translation"
					}
				},
				{
					"sampler":13,
					"target":{
						"node":4,
						"path":"rotation"
					}
				},
				{
					"sampler":14,
					"target":{
						"node":4,
						"path":"scale"
					}
				},
				{
					"sampler":15,
					"target":{
						"node":1,
						"path":"translation"
					}
				},
				{
					"sampler":16,
					"target":{
						"node":1,
						"path":"rotation"
					}
				},
				{
					"sampler":17,
					"target":{
						"node":1,
						"path":"scale"
					}
				},
				{
					"sampler":18,
					"target":{
						"node":2,
						"path":"translation"
					}
				},
				{
					"sampler":19,
					"target":{
						"node":2,
						"path":"rotation"
					}
				},
				{
					"sampler":20,
					"target":{
						"node":2,
						"path":"scale"
					}
				},
				{
					"sampler":21,
					"target":{
						"node":3,
						"path":"translation"
					}
				},
				{
					"sampler":22,
					"target":{
						"node":3,
						"path":"rotation"
					}
				},
				{
					"sampler":23,
					"target":{
						"node":3,
						"path":"scale"
					}
				},
				{
					"sampler":24,
					"target":{
						"node":6,
						"path":"translation"
					}
				},
				{
					"sampler":25,
					"target":{
						"node":6,
						"path":"rotation"
					}
				},
				{
					"sampler":26,
					"target":{
						"node":6,
						"path":"scale"
					}
				},
				{
					"sampler":27,
					"target":{
						"node":7,
						"path":"translation"
					}
				},
				{
					"sampler":28,
					"target":{
						"node":7,
						"path":"rotation"
					}
				},
				{
					"sampler":29,
					"target":{
						"node":7,
						"path":"scale"
					}
				}
			],
			"name":"Dizzy",
			"samplers":[
				{
					"input":38,
					"interpolation":"STEP",
					"output":59
				},
				{
					"input":38,
					"interpolation":"STEP",
					"output":10
				},
				{
					"input":38,
					"interpolation":"STEP",
					"output":11
				},
				{
					"input":38,
					"interpolation":"STEP",
					"output":60
				},
				{
					"input":35,
					"interpolation":"LINEAR",
					"output":61
				},
				{
					"input":38,
					"interpolation":"STEP",
					"output":62
				},
				{
					"input":38,
					"interpolation":"STEP",
					"output":63
				},
				{
					"input":35,
					"interpolation":"LINEAR",
					"output":64
				},
				{
					"input":38,
					"interpolation":"STEP",
					"output":65
				},
				{
					"input":38,
					"interpolation":"STEP",
					"output":66
				},
				{
					"input":35,
					"interpolation":"LINEAR",
					"output":67
				},
				{
					"input":38,
					"interpolation":"STEP",
					"output":68
				},
				{
					"input":38,
					"interpolation":"STEP",
					"output":69
				},
				{
					"input":38,
					"interpolation":"STEP",
					"output":70
				},
				{
					"input":38,
					"interpolation":"STEP",
					"output":71
				},
				{
					"input":38,
					"interpolation":"STEP",
					"output":72
				},
				{
					"input":38,
					"interpolation":"STEP",
					"output":73
				},
				{
					"input":38,
					"interpolation":"STEP",
					"output":74
				},
				{
					"input":38,
					"interpolation":"STEP",
					"output":75
				},
				{
					"input":35,
					"interpolation":"LINEAR",
					"output":76
				},
				{
					"input":38,
					"interpolation":"STEP",
					"output":77
				},
				{
					"input":38,
					"interpolation":"STEP",
					"output":72
				},
				{
					"input":35,
					"interpolation":"LINEAR",
					"output":78
				},
				{
					"input":38,
					"interpolation":"STEP",
					"output":79
				},
				{
					"input":38,
					"interpolation":"STEP",
					"output":80
				},
				{
					"input":38,
					"interpolation":"STEP",
					"output":81
				},
				{
					"input":38,
					"interpolation":"STEP",
					"output":82
				},
				{
					"input":38,
					"interpolation":"STEP",
					"output":83
				},
				{
					"input":38,
					"interpolation":"STEP",
					"output":84
				},
				{
					"input":38,
					"interpolation":"STEP",
					"output":85
				}
			]
		},
		{
			"channels":[
				{
					"sampler":0,
					"target":{
						"node":9,
						"path":"translation"
					}
				},
				{
					"sampler":1,
					"target":{
						"node":9,
						"path":"rotation"
					}
				},
				{
					"sampler":2,
					"target":{
						"node":9,
						"path":"scale"
					}
				},
				{
					"sampler":3,
					"target":{
						"node":8,
						"path":"translation"
					}
				},
				{
					"sampler":4,
					"target":{
						"node":8,
						"path":"rotation"
					}
				},
				{
					"sampler":5,
					"target":{
						"node":8,
						"path":"scale"
					}
				},
				{
					"sampler":6,
					"target":{
						"node":5,
						"path":"translation"
					}
				},
				{
					"sampler":7,
					"target":{
						"node":5,
						"path":"rotation"
					}
				},
				{
					"sampler":8,
					"target":{
						"node":5,
						"path":"scale"
					}
				},
				{
					"sampler":9,
					"target":{
						"node":0,
						"path":"translation"
					}
				},
				{
					"sampler":10,
					"target":{
						"node":0,
						"path":"rotation"
					}
				},
				{
					"sampler":11,
					"target":{
						"node":0,
						"path":"scale"
					}
				},
				{
					"sampler":12,
					"target":{
						"node":4,
						"path":"translation"
					}
				},
				{
					"sampler":13,
					"target":{
						"node":4,
						"path":"rotation"
					}
				},
				{
					"sampler":14,
					"target":{
						"node":4,
						"path":"scale"
					}
				},
				{
					"sampler":15,
					"target":{
						"node":1,
						"path":"translation"
					}
				},
				{
					"sampler":16,
					"target":{
						"node":1,
						"path":"rotation"
					}
				},
				{
					"sampler":17,
					"target":{
						"node":1,
						"path":"scale"
					}
				},
				{
					"sampler":18,
					"target":{
						"node":2,
						"path":"translation"
					}
				},
				{
					"sampler":19,
					"target":{
						"node":2,
						"path":"rotation"
					}
				},
				{
					"sampler":20,
					"target":{
						"node":2,
						"path":"scale"
					}
				},
				{
					"sampler":21,
					"target":{
						"node":3,
						"path":"translation"
					}
				},
				{
					"sampler":22,
					"target":{
						"node":3,
						"path":"rotation"
					}
				},
				{
					"sampler":23,
					"target":{
						"node":3,
						"path":"scale"
					}
				},
				{
					"sampler":24,
					"target":{
						"node":6,
						"path":"translation"
					}
				},
				{
					"sampler":25,
					"target":{
						"node":6,
						"path":"rotation"
					}
				},
				{
					"sampler":26,
					"target":{
						"node":6,
						"path":"scale"
					}
				},
				{
					"sampler":27,
					"target":{
						"node":7,
						"path":"translation"
					}
				},
				{
					"sampler":28,
					"target":{
						"node":7,
						"path":"rotation"
					}
				},
				{
					"sampler":29,
					"target":{
						"node":7,
						"path":"scale"
					}
				}
			],
			"name":"GetHit",
			"samplers":[
				{
					"input":7,
					"interpolation":"LINEAR",
					"output":86
				},
				{
					"input":7,
					"interpolation":"LINEAR",
					"output":87
				},
				{
					"input":9,
					"interpolation":"STEP",
					"output":11
				},
				{
					"input":7,
					"interpolation":"LINEAR",
					"output":88
				},
				{
					"input":7,
					"interpolation":"LINEAR",
					"output":89
				},
				{
					"input":9,
					"interpolation":"STEP",
					"output":14
				},
				{
					"input":9,
					"interpolation":"STEP",
					"output":90
				},
				{
					"input":7,
					"interpolation":"LINEAR",
					"output":91
				},
				{
					"input":9,
					"interpolation":"STEP",
					"output":17
				},
				{
					"input":7,
					"interpolation":"LINEAR",
					"output":92
				},
				{
					"input":7,
					"interpolation":"LINEAR",
					"output":93
				},
				{
					"input":9,
					"interpolation":"STEP",
					"output":20
				},
				{
					"input":9,
					"interpolation":"STEP",
					"output":94
				},
				{
					"input":7,
					"interpolation":"LINEAR",
					"output":95
				},
				{
					"input":9,
					"interpolation":"STEP",
					"output":14
				},
				{
					"input":9,
					"interpolation":"STEP",
					"output":23
				},
				{
					"input":7,
					"interpolation":"LINEAR",
					"output":96
				},
				{
					"input":9,
					"interpolation":"STEP",
					"output":25
				},
				{
					"input":9,
					"interpolation":"STEP",
					"output":26
				},
				{
					"input":7,
					"interpolation":"LINEAR",
					"output":97
				},
				{
					"input":9,
					"interpolation":"STEP",
					"output":25
				},
				{
					"input":9,
					"interpolation":"STEP",
					"output":23
				},
				{
					"input":7,
					"interpolation":"LINEAR",
					"output":98
				},
				{
					"input":9,
					"interpolation":"STEP",
					"output":25
				},
				{
					"input":9,
					"interpolation":"STEP",
					"output":29
				},
				{
					"input":9,
					"interpolation":"STEP",
					"output":30
				},
				{
					"input":9,
					"interpolation":"STEP",
					"output":31
				},
				{
					"input":9,
					"interpolation":"STEP",
					"output":32
				},
				{
					"input":9,
					"interpolation":"STEP",
					"output":33
				},
				{
					"input":9,
					"interpolation":"STEP",
					"output":34
				}
			]
		},
		{
			"channels":[
				{
					"sampler":0,
					"target":{
						"node":9,
						"path":"translation"
					}
				},
				{
					"sampler":1,
					"target":{
						"node":9,
						"path":"rotation"
					}
				},
				{
					"sampler":2,
					"target":{
						"node":9,
						"path":"scale"
					}
				},
				{
					"sampler":3,
					"target":{
						"node":8,
						"path":"translation"
					}
				},
				{
					"sampler":4,
					"target":{
						"node":8,
						"path":"rotation"
					}
				},
				{
					"sampler":5,
					"target":{
						"node":8,
						"path":"scale"
					}
				},
				{
					"sampler":6,
					"target":{
						"node":5,
						"path":"translation"
					}
				},
				{
					"sampler":7,
					"target":{
						"node":5,
						"path":"rotation"
					}
				},
				{
					"sampler":8,
					"target":{
						"node":5,
						"path":"scale"
					}
				},
				{
					"sampler":9,
					"target":{
						"node":0,
						"path":"translation"
					}
				},
				{
					"sampler":10,
					"target":{
						"node":0,
						"path":"rotation"
					}
				},
				{
					"sampler":11,
					"target":{
						"node":0,
						"path":"scale"
					}
				},
				{
					"sampler":12,
					"target":{
						"node":4,
						"path":"translation"
					}
				},
				{
					"sampler":13,
					"target":{
						"node":4,
						"path":"rotation"
					}
				},
				{
					"sampler":14,
					"target":{
						"node":4,
						"path":"scale"
					}
				},
				{
					"sampler":15,
					"target":{
						"node":1,
						"path":"translation"
					}
				},
				{
					"sampler":16,
					"target":{
						"node":1,
						"path":"rotation"
					}
				},
				{
					"sampler":17,
					"target":{
						"node":1,
						"path":"scale"
					}
				},
				{
					"sampler":18,
					"target":{
						"node":2,
						"path":"translation"
					}
				},
				{
					"sampler":19,
					"target":{
						"node":2,
						"path":"rotation"
					}
				},
				{
					"sampler":20,
					"target":{
						"node":2,
						"path":"scale"
					}
				},
				{
					"sampler":21,
					"target":{
						"node":3,
						"path":"translation"
					}
				},
				{
					"sampler":22,
					"target":{
						"node":3,
						"path":"rotation"
					}
				},
				{
					"sampler":23,
					"target":{
						"node":3,
						"path":"scale"
					}
				},
				{
					"sampler":24,
					"target":{
						"node":6,
						"path":"translation"
					}
				},
				{
					"sampler":25,
					"target":{
						"node":6,
						"path":"rotation"
					}
				},
				{
					"sampler":26,
					"target":{
						"node":6,
						"path":"scale"
					}
				},
				{
					"sampler":27,
					"target":{
						"node":7,
						"path":"translation"
					}
				},
				{
					"sampler":28,
					"target":{
						"node":7,
						"path":"rotation"
					}
				},
				{
					"sampler":29,
					"target":{
						"node":7,
						"path":"scale"
					}
				}
			],
			"name":"Idle",
			"samplers":[
				{
					"input":99,
					"interpolation":"STEP",
					"output":59
				},
				{
					"input":99,
					"interpolation":"STEP",
					"output":10
				},
				{
					"input":99,
					"interpolation":"STEP",
					"output":11
				},
				{
					"input":100,
					"interpolation":"LINEAR",
					"output":101
				},
				{
					"input":99,
					"interpolation":"STEP",
					"output":102
				},
				{
					"input":99,
					"interpolation":"STEP",
					"output":14
				},
				{
					"input":100,
					"interpolation":"LINEAR",
					"output":103
				},
				{
					"input":99,
					"interpolation":"STEP",
					"output":104
				},
				{
					"input":99,
					"interpolation":"STEP",
					"output":17
				},
				{
					"input":100,
					"interpolation":"LINEAR",
					"output":105
				},
				{
					"input":100,
					"interpolation":"LINEAR",
					"output":106
				},
				{
					"input":99,
					"interpolation":"STEP",
					"output":20
				},
				{
					"input":99,
					"interpolation":"STEP",
					"output":107
				},
				{
					"input":99,
					"interpolation":"STEP",
					"output":108
				},
				{
					"input":99,
					"interpolation":"STEP",
					"output":14
				},
				{
					"input":99,
					"interpolation":"STEP",
					"output":109
				},
				{
					"input":100,
					"interpolation":"LINEAR",
					"output":110
				},
				{
					"input":99,
					"interpolation":"STEP",
					"output":25
				},
				{
					"input":99,
					"interpolation":"STEP",
					"output":111
				},
				{
					"input":99,
					"interpolation":"STEP",
					"output":27
				},
				{
					"input":99,
					"interpolation":"STEP",
					"output":25
				},
				{
					"input":99,
					"interpolation":"STEP",
					"output":109
				},
				{
					"input":100,
					"interpolation":"LINEAR",
					"output":112
				},
				{
					"input":99,
					"interpolation":"STEP",
					"output":25
				},
				{
					"input":99,
					"interpolation":"STEP",
					"output":113
				},
				{
					"input":99,
					"interpolation":"STEP",
					"output":30
				},
				{
					"input":99,
					"interpolation":"STEP",
					"output":31
				},
				{
					"input":99,
					"interpolation":"STEP",
					"output":114
				},
				{
					"input":99,
					"interpolation":"STEP",
					"output":33
				},
				{
					"input":99,
					"interpolation":"STEP",
					"output":34
				}
			]
		},
		{
			"channels":[
				{
					"sampler":0,
					"target":{
						"node":9,
						"path":"translation"
					}
				},
				{
					"sampler":1,
					"target":{
						"node":9,
						"path":"rotation"
					}
				},
				{
					"sampler":2,
					"target":{
						"node":9,
						"path":"scale"
					}
				},
				{
					"sampler":3,
					"target":{
						"node":8,
						"path":"translation"
					}
				},
				{
					"sampler":4,
					"target":{
						"node":8,
						"path":"rotation"
					}
				},
				{
					"sampler":5,
					"target":{
						"node":8,
						"path":"scale"
					}
				},
				{
					"sampler":6,
					"target":{
						"node":5,
						"path":"translation"
					}
				},
				{
					"sampler":7,
					"target":{
						"node":5,
						"path":"rotation"
					}
				},
				{
					"sampler":8,
					"target":{
						"node":5,
						"path":"scale"
					}
				},
				{
					"sampler":9,
					"target":{
						"node":0,
						"path":"translation"
					}
				},
				{
					"sampler":10,
					"target":{
						"node":0,
						"path":"rotation"
					}
				},
				{
					"sampler":11,
					"target":{
						"node":0,
						"path":"scale"
					}
				},
				{
					"sampler":12,
					"target":{
						"node":4,
						"path":"translation"
					}
				},
				{
					"sampler":13,
					"target":{
						"node":4,
						"path":"rotation"
					}
				},
				{
					"sampler":14,
					"target":{
						"node":4,
						"path":"scale"
					}
				},
				{
					"sampler":15,
					"target":{
						"node":1,
						"path":"translation"
					}
				},
				{
					"sampler":16,
					"target":{
						"node":1,
						"path":"rotation"
					}
				},
				{
					"sampler":17,
					"target":{
						"node":1,
						"path":"scale"
					}
				},
				{
					"sampler":18,
					"target":{
						"node":2,
						"path":"translation"
					}
				},
				{
					"sampler":19,
					"target":{
						"node":2,
						"path":"rotation"
					}
				},
				{
					"sampler":20,
					"target":{
						"node":2,
						"path":"scale"
					}
				},
				{
					"sampler":21,
					"target":{
						"node":3,
						"path":"translation"
					}
				},
				{
					"sampler":22,
					"target":{
						"node":3,
						"path":"rotation"
					}
				},
				{
					"sampler":23,
					"target":{
						"node":3,
						"path":"scale"
					}
				},
				{
					"sampler":24,
					"target":{
						"node":6,
						"path":"translation"
					}
				},
				{
					"sampler":25,
					"target":{
						"node":6,
						"path":"rotation"
					}
				},
				{
					"sampler":26,
					"target":{
						"node":6,
						"path":"scale"
					}
				},
				{
					"sampler":27,
					"target":{
						"node":7,
						"path":"translation"
					}
				},
				{
					"sampler":28,
					"target":{
						"node":7,
						"path":"rotation"
					}
				},
				{
					"sampler":29,
					"target":{
						"node":7,
						"path":"scale"
					}
				}
			],
			"name":"MoveFWD",
			"samplers":[
				{
					"input":115,
					"interpolation":"LINEAR",
					"output":116
				},
				{
					"input":117,
					"interpolation":"STEP",
					"output":10
				},
				{
					"input":117,
					"interpolation":"STEP",
					"output":11
				},
				{
					"input":115,
					"interpolation":"LINEAR",
					"output":118
				},
				{
					"input":115,
					"interpolation":"LINEAR",
					"output":119
				},
				{
					"input":117,
					"interpolation":"STEP",
					"output":14
				},
				{
					"input":115,
					"interpolation":"LINEAR",
					"output":120
				},
				{
					"input":115,
					"interpolation":"LINEAR",
					"output":121
				},
				{
					"input":117,
					"interpolation":"STEP",
					"output":17
				},
				{
					"input":115,
					"interpolation":"LINEAR",
					"output":122
				},
				{
					"input":115,
					"interpolation":"LINEAR",
					"output":123
				},
				{
					"input":117,
					"interpolation":"STEP",
					"output":124
				},
				{
					"input":117,
					"interpolation":"STEP",
					"output":125
				},
				{
					"input":115,
					"interpolation":"LINEAR",
					"output":126
				},
				{
					"input":117,
					"interpolation":"STEP",
					"output":14
				},
				{
					"input":117,
					"interpolation":"STEP",
					"output":127
				},
				{
					"input":115,
					"interpolation":"LINEAR",
					"output":128
				},
				{
					"input":117,
					"interpolation":"STEP",
					"output":129
				},
				{
					"input":117,
					"interpolation":"STEP",
					"output":130
				},
				{
					"input":115,
					"interpolation":"LINEAR",
					"output":131
				},
				{
					"input":117,
					"interpolation":"STEP",
					"output":129
				},
				{
					"input":117,
					"interpolation":"STEP",
					"output":127
				},
				{
					"input":115,
					"interpolation":"LINEAR",
					"output":132
				},
				{
					"input":117,
					"interpolation":"STEP",
					"output":74
				},
				{
					"input":117,
					"interpolation":"STEP",
					"output":133
				},
				{
					"input":117,
					"interpolation":"STEP",
					"output":30
				},
				{
					"input":117,
					"interpolation":"STEP",
					"output":31
				},
				{
					"input":117,
					"interpolation":"STEP",
					"output":134
				},
				{
					"input":117,
					"interpolation":"STEP",
					"output":33
				},
				{
					"input":117,
					"interpolation":"STEP",
					"output":34
				}
			]
		},
		{
			"channels":[
				{
					"sampler":0,
					"target":{
						"node":9,
						"path":"translation"
					}
				},
				{
					"sampler":1,
					"target":{
						"node":9,
						"path":"rotation"
					}
				},
				{
					"sampler":2,
					"target":{
						"node":9,
						"path":"scale"
					}
				},
				{
					"sampler":3,
					"target":{
						"node":8,
						"path":"translation"
					}
				},
				{
					"sampler":4,
					"target":{
						"node":8,
						"path":"rotation"
					}
				},
				{
					"sampler":5,
					"target":{
						"node":8,
						"path":"scale"
					}
				},
				{
					"sampler":6,
					"target":{
						"node":5,
						"path":"translation"
					}
				},
				{
					"sampler":7,
					"target":{
						"node":5,
						"path":"rotation"
					}
				},
				{
					"sampler":8,
					"target":{
						"node":5,
						"path":"scale"
					}
				},
				{
					"sampler":9,
					"target":{
						"node":0,
						"path":"translation"
					}
				},
				{
					"sampler":10,
					"target":{
						"node":0,
						"path":"rotation"
					}
				},
				{
					"sampler":11,
					"target":{
						"node":0,
						"path":"scale"
					}
				},
				{
					"sampler":12,
					"target":{
						"node":4,
						"path":"translation"
					}
				},
				{
					"sampler":13,
					"target":{
						"node":4,
						"path":"rotation"
					}
				},
				{
					"sampler":14,
					"target":{
						"node":4,
						"path":"scale"
					}
				},
				{
					"sampler":15,
					"target":{
						"node":1,
						"path":"translation"
					}
				},
				{
					"sampler":16,
					"target":{
						"node":1,
						"path":"rotation"
					}
				},
				{
					"sampler":17,
					"target":{
						"node":1,
						"path":"scale"
					}
				},
				{
					"sampler":18,
					"target":{
						"node":2,
						"path":"translation"
					}
				},
				{
					"sampler":19,
					"target":{
						"node":2,
						"path":"rotation"
					}
				},
				{
					"sampler":20,
					"target":{
						"node":2,
						"path":"scale"
					}
				},
				{
					"sampler":21,
					"target":{
						"node":3,
						"path":"translation"
					}
				},
				{
					"sampler":22,
					"target":{
						"node":3,
						"path":"rotation"
					}
				},
				{
					"sampler":23,
					"target":{
						"node":3,
						"path":"scale"
					}
				},
				{
					"sampler":24,
					"target":{
						"node":6,
						"path":"translation"
					}
				},
				{
					"sampler":25,
					"target":{
						"node":6,
						"path":"rotation"
					}
				},
				{
					"sampler":26,
					"target":{
						"node":6,
						"path":"scale"
					}
				},
				{
					"sampler":27,
					"target":{
						"node":7,
						"path":"translation"
					}
				},
				{
					"sampler":28,
					"target":{
						"node":7,
						"path":"rotation"
					}
				},
				{
					"sampler":29,
					"target":{
						"node":7,
						"path":"scale"
					}
				}
			],
			"name":"Victory",
			"samplers":[
				{
					"input":135,
					"interpolation":"LINEAR",
					"output":136
				},
				{
					"input":135,
					"interpolation":"LINEAR",
					"output":137
				},
				{
					"input":138,
					"interpolation":"STEP",
					"output":11
				},
				{
					"input":135,
					"interpolation":"LINEAR",
					"output":139
				},
				{
					"input":138,
					"interpolation":"STEP",
					"output":102
				},
				{
					"input":138,
					"interpolation":"STEP",
					"output":14
				},
				{
					"input":135,
					"interpolation":"LINEAR",
					"output":140
				},
				{
					"input":138,
					"interpolation":"STEP",
					"output":104
				},
				{
					"input":138,
					"interpolation":"STEP",
					"output":17
				},
				{
					"input":135,
					"interpolation":"LINEAR",
					"output":141
				},
				{
					"input":138,
					"interpolation":"STEP",
					"output":142
				},
				{
					"input":138,
					"interpolation":"STEP",
					"output":20
				},
				{
					"input":135,
					"interpolation":"LINEAR",
					"output":143
				},
				{
					"input":138,
					"interpolation":"STEP",
					"output":108
				},
				{
					"input":138,
					"interpolation":"STEP",
					"output":14
				},
				{
					"input":138,
					"interpolation":"STEP",
					"output":109
				},
				{
					"input":138,
					"interpolation":"STEP",
					"output":27
				},
				{
					"input":138,
					"interpolation":"STEP",
					"output":25
				},
				{
					"input":138,
					"interpolation":"STEP",
					"output":111
				},
				{
					"input":138,
					"interpolation":"STEP",
					"output":27
				},
				{
					"input":138,
					"interpolation":"STEP",
					"output":25
				},
				{
					"input":138,
					"interpolation":"STEP",
					"output":109
				},
				{
					"input":135,
					"interpolation":"LINEAR",
					"output":144
				},
				{
					"input":138,
					"interpolation":"STEP",
					"output":25
				},
				{
					"input":138,
					"interpolation":"STEP",
					"output":113
				},
				{
					"input":138,
					"interpolation":"STEP",
					"output":30
				},
				{
					"input":138,
					"interpolation":"STEP",
					"output":31
				},
				{
					"input":138,
					"interpolation":"STEP",
					"output":114
				},
				{
					"input":138,
					"interpolation":"STEP",
					"output":33
				},
				{
					"input":138,
					"interpolation":"STEP",
					"output":34
				}
			]
		}
	],
	"materials":[
		{
			"name":"PBRDefault",
			"pbrMetallicRoughness":{
				"baseColorTexture":{
					"index":0
				},
				"metallicRoughnessTexture":{
					"index":1
				}
			}
		}
	],
	"meshes":[
		{
			"name":"Slime",
			"primitives":[
				{
					"attributes":{
						"POSITION":0,
						"NORMAL":1,
						"TEXCOORD_0":2,
						"JOINTS_0":3,
						"WEIGHTS_0":4
					},
					"indices":5,
					"material":0
				}
			]
		}
	],
	"textures":[
		{
			"sampler":0,
			"source":0
		},
		{
			"sampler":0,
			"source":1
		}
	],
	"images":[
		{
			"mimeType":"image/png",
			"name":"Albedo",
			"uri":"Albedo.png"
		},
		{
			"mimeType":"image/jpeg",
			"name":"Metallic-Smoothness",
			"uri":"Metallic-Smoothness.jpg"
		}
	],
	"skins":[
		{
			"inverseBindMatrices":6,
			"joints":[
				9,
				8,
				5,
				0,
				4,
				1,
				2,
				3,
				6,
				7
			],
			"name":"SlimePBR"
		}
	],
	"accessors":[
		{
			"bufferView":0,
			"componentType":5126,
			"count":684,
			"max":[
				0.48943883180618286,
				0.9395512342453003,
				0.4894390404224396
			],
			"min":[
				-0.48943862318992615,
				-1.2727626064190645e-08,
				-0.5317996740341187
			],
			"type":"VEC3"
		},
		{
			"bufferView":1,
			"componentType":5126,
			"count":684,
			"type":"VEC3"
		},
		{
			"bufferView":2,
			"componentType":5126,
			"count":684,
			"type":"VEC2"
		},
		{
			"bufferView":3,
			"componentType":5121,
			"count":684,
			"type":"VEC4"
		},
		{
			"bufferView":4,
			"componentType":5126,
			"count":684,
			"type":"VEC4"
		},
		{
			"bufferView":5,
			"componentType":5123,
			"count":3027,
			"type":"SCALAR"
		},
		{
			"bufferView":6,
			"componentType":5126,
			"count":10,
			"type":"MAT4"
		},
		{
			"bufferView":7,
			"componentType":5126,
			"count":21,
			"max":[
				0.8333333333333334
			],
			"min":[
				0
			],
			"type":"SCALAR"
		},
		{
			"bufferView":8,
			"componentType":5126,
			"count":21,
			"type":"VEC3"
		},
		{
			"bufferView":9,
			"componentType":5126,
			"count":2,
			"max":[
				0.8333333333333334
			],
			"min":[
				0
			],
			"type":"SCALAR"
		},
		{
			"bufferView":10,
			"componentType":5126,
			"count":2,
			"type":"VEC4"
		},
		{
			"bufferView":11,
			"componentType":5126,
			"count":2,
			"type":"VEC3"
		},
		{
			"bufferView":12,
			"componentType":5126,
			"count":21,
			"type":"VEC3"
		},
		{
			"bufferView":13,
			"componentType":5126,
			"count":21,
			"type":"VEC4"
		},
		{
			"bufferView":14,
			"componentType":5126,
			"count":2,
			"type":"VEC3"
		},
		{
			"bufferView":15,
			"componentType":5126,
			"count":21,
			"type":"VEC3"
		},
		{
			"bufferView":16,
			"componentType":5126,
			"count":21,
			"type":"VEC4"
		},
		{
			"bufferView":17,
			"componentType":5126,
			"count":2,
			"type":"VEC3"
		},
		{
			"bufferView":18,
			"componentType":5126,
			"count":21,
			"type":"VEC3"
		},
		{
			"bufferView":19,
			"componentType":5126,
			"count":21,
			"type":"VEC4"
		},
		{
			"bufferView":20,
			"componentType":5126,
			"count":2,
			"type":"VEC3"
		},
		{
			"bufferView":21,
			"componentType":5126,
			"count":21,
			"type":"VEC3"
		},
		{
			"bufferView":22,
			"componentType":5126,
			"count":21,
			"type":"VEC4"
		},
		{
			"bufferView":23,
			"componentType":5126,
			"count":2,
			"type":"VEC3"
		},
		{
			"bufferView":24,
			"componentType":5126,
			"count":21,
			"type":"VEC4"
		},
		{
			"bufferView":25,
			"componentType":5126,
			"count":2,
			"type":"VEC3"
		},
		{
			"bufferView":26,
			"componentType":5126,
			"count":2,
			"type":"VEC3"
		},
		{
			"bufferView":27,
			"componentType":5126,
			"count":2,
			"type":"VEC4"
		},
		{
			"bufferView":28,
			"componentType":5126,
			"count":21,
			"type":"VEC4"
		},
		{
			"bufferView":29,
			"componentType":5126,
			"count":2,
			"type":"VEC3"
		},
		{
			"bufferView":30,
			"componentType":5126,
			"count":2,
			"type":"VEC4"
		},
		{
			"bufferView":31,
			"componentType":5126,
			"count":2,
			"type":"VEC3"
		},
		{
			"bufferView":32,
			"componentType":5126,
			"count":2,
			"type":"VEC3"
		},
		{
			"bufferView":33,
			"componentType":5126,
			"count":2,
			"type":"VEC4"
		},
		{
			"bufferView":34,
			"componentType":5126,
			"count":2,
			"type":"VEC3"
		},
		{
			"bufferView":35,
			"componentType":5126,
			"count":33,
			"max":[
				1.3333333333333333
			],
			"min":[
				0
			],
			"type":"SCALAR"
		},
		{
			"bufferView":36,
			"componentType":5126,
			"count":33,
			"type":"VEC3"
		},
		{
			"bufferView":37,
			"componentType":5126,
			"count":33,
			"type":"VEC4"
		},
		{
			"bufferView":38,
			"componentType":5126,
			"count":2,
			"max":[
				1.3333333333333333
			],
			"min":[
				0
			],
			"type":"SCALAR"
		},
		{
			"bufferView":39,
			"componentType":5126,
			"count":33,
			"type":"VEC3"
		},
		{
			"bufferView":40,
			"componentType":5126,
			"count":33,
			"type":"VEC4"
		},
		{
			"bufferView":41,
			"componentType":5126,
			"count":33,
			"type":"VEC3"
		},
		{
			"bufferView":42,
			"componentType":5126,
			"count":33,
			"type":"VEC4"
		},
		{
			"bufferView":43,
			"componentType":5126,
			"count":33,
			"type":"VEC3"
		},
		{
			"bufferView":44,
			"componentType":5126,
			"count":33,
			"type":"VEC4"
		},
		{
			"bufferView":45,
			"componentType":5126,
			"count":2,
			"type":"VEC3"
		},
		{
			"bufferView":46,
			"componentType":5126,
			"count":33,
			"type":"VEC3"
		},
		{
			"bufferView":47,
			"componentType":5126,
			"count":33,
			"type":"VEC4"
		},
		{
			"bufferView":48,
			"componentType":5126,
			"count":2,
			"type":"VEC3"
		},
		{
			"bufferView":49,
			"componentType":5126,
			"count":2,
			"type":"VEC3"
		},
		{
			"bufferView":50,
			"componentType":5126,
			"count":33,
			"type":"VEC4"
		},
		{
			"bufferView":51,
			"componentType":5126,
			"count":2,
			"type":"VEC3"
		},
		{
			"bufferView":52,
			"componentType":5126,
			"count":2,
			"type":"VEC3"
		},
		{
			"bufferView":53,
			"componentType":5126,
			"count":33,
			"type":"VEC4"
		},
		{
			"bufferView":54,
			"componentType":5126,
			"count":2,
			"type":"VEC3"
		},
		{
			"bufferView":55,
			"componentType":5126,
			"count":33,
			"type":"VEC4"
		},
		{
			"bufferView":56,
			"componentType":5126,
			"count":2,
			"type":"VEC3"
		},
		{
			"bufferView":57,
			"componentType":5126,
			"count":2,
			"type":"VEC3"
		},
		{
			"bufferView":58,
			"componentType":5126,
			"count":2,
			"type":"VEC3"
		},
		{
			"bufferView":59,
			"componentType":5126,
			"count":2,
			"type":"VEC3"
		},
		{
			"bufferView":60,
			"componentType":5126,
			"count":2,
			"type":"VEC3"
		},
		{
			"bufferView":61,
			"componentType":5126,
			"count":33,
			"type":"VEC4"
		},
		{
			"bufferView":62,
			"componentType":5126,
			"count":2,
			"type":"VEC3"
		},
		{
			"bufferView":63,
			"componentType":5126,
			"count":2,
			"type":"VEC3"
		},
		{
			"bufferView":64,
			"componentType":5126,
			"count":33,
			"type":"VEC4"
		},
		{
			"bufferView":65,
			"componentType":5126,
			"count":2,
			"type":"VEC3"
		},
		{
			"bufferView":66,
			"componentType":5126,
			"count":2,
			"type":"VEC3"
		},
		{
			"bufferView":67,
			"componentType":5126,
			"count":33,
			"type":"VEC4"
		},
		{
			"bufferView":68,
			"componentType":5126,
			"count":2,
			"type":"VEC3"
		},
		{
			"bufferView":69,
			"componentType":5126,
			"count":2,
			"type":"VEC3"
		},
		{
			"bufferView":70,
			"componentType":5126,
			"count":2,
			"type":"VEC4"
		},
		{
			"bufferView":71,
			"componentType":5126,
			"count":2,
			"type":"VEC3"
		},
		{
			"bufferView":72,
			"componentType":5126,
			"count":2,
			"type":"VEC3"
		},
		{
			"bufferView":73,
			"componentType":5126,
			"count":2,
			"type":"VEC4"
		},
		{
			"bufferView":74,
			"componentType":5126,
			"count":2,
			"type":"VEC3"
		},
		{
			"bufferView":75,
			"componentType":5126,
			"count":2,
			"type":"VEC3"
		},
		{
			"bufferView":76,
			"componentType":5126,
			"count":33,
			"type":"VEC4"
		},
		{
			"bufferView":77,
			"componentType":5126,
			"count":2,
			"type":"VEC3"
		},
		{
			"bufferView":78,
			"componentType":5126,
			"count":33,
			"type":"VEC4"
		},
		{
			"bufferView":79,
			"componentType":5126,
			"count":2,
			"type":"VEC3"
		},
		{
			"bufferView":80,
			"componentType":5126,
			"count":2,
			"type":"VEC3"
		},
		{
			"bufferView":81,
			"componentType":5126,
			"count":2,
			"type":"VEC4"
		},
		{
			"bufferView":82,
			"componentType":5126,
			"count":2,
			"type":"VEC3"
		},
		{
			"bufferView":83,
			"componentType":5126,
			"count":2,
			"type":"VEC3"
		},
		{
			"bufferView":84,
			"componentType":5126,
			"count":2,
			"type":"VEC4"
		},
		{
			"bufferView":85,
			"componentType":5126,
			"count":2,
			"type":"VEC3"
		},
		{
			"bufferView":86,
			"componentType":5126,
			"count":21,
			"type":"VEC3"
		},
		{
			"bufferView":87,
			"componentType":5126,
			"count":21,
			"type":"VEC4"
		},
		{
			"bufferView":88,
			"componentType":5126,
			"count":21,
			"type":"VEC3"
		},
		{
			"bufferView":89,
			"componentType":5126,
			"count":21,
			"type":"VEC4"
		},
		{
			"bufferView":90,
			"componentType":5126,
			"count":2,
			"type":"VEC3"
		},
		{
			"bufferView":91,
			"componentType":5126,
			"count":21,
			"type":"VEC4"
		},
		{
			"bufferView":92,
			"componentType":5126,
			"count":21,
			"type":"VEC3"
		},
		{
			"bufferView":93,
			"componentType":5126,
			"count":21,
			"type":"VEC4"
		},
		{
			"bufferView":94,
			"componentType":5126,
			"count":2,
			"type":"VEC3"
		},
		{
			"bufferView":95,
			"componentType":5126,
			"count":21,
			"type":"VEC4"
		},
		{
			"bufferView":96,
			"componentType":5126,
			"count":21,
			"type":"VEC4"
		},
		{
			"bufferView":97,
			"componentType":5126,
			"count":21,
			"type":"VEC4"
		},
		{
			"bufferView":98,
			"componentType":5126,
			"count":21,
			"type":"VEC4"
		},
		{
			"bufferView":99,
			"componentType":5126,
			"count":2,
			"max":[
				1.6666666666666667
			],
			"min":[
				0
			],
			"type":"SCALAR"
		},
		{
			"bufferView":100,
			"componentType":5126,
			"count":41,
			"max":[
				1.6666666666666667
			],
			"min":[
				0
			],
			"type":"SCALAR"
		},
		{
			"bufferView":101,
			"componentType":5126,
			"count":41,
			"type":"VEC3"
		},
		{
			"bufferView":102,
			"componentType":5126,
			"count":2,
			"type":"VEC4"
		},
		{
			"bufferView":103,
			"componentType":5126,
			"count":41,
			"type":"VEC3"
		},
		{
			"bufferView":104,
			"componentType":5126,
			"count":2,
			"type":"VEC4"
		},
		{
			"bufferView":105,
			"componentType":5126,
			"count":41,
			"type":"VEC3"
		},
		{
			"bufferView":106,
			"componentType":5126,
			"count":41,
			"type":"VEC4"
		},
		{
			"bufferView":107,
			"componentType":5126,
			"count":2,
			"type":"VEC3"
		},
		{
			"bufferView":108,
			"componentType":5126,
			"count":2,
			"type":"VEC4"
		},
		{
			"bufferView":109,
			"componentType":5126,
			"count":2,
			"type":"VEC3"
		},
		{
			"bufferView":110,
			"componentType":5126,
			"count":41,
			"type":"VEC4"
		},
		{
			"bufferView":111,
			"componentType":5126,
			"count":2,
			"type":"VEC3"
		},
		{
			"bufferView":112,
			"componentType":5126,
			"count":41,
			"type":"VEC4"
		},
		{
			"bufferView":113,
			"componentType":5126,
			"count":2,
			"type":"VEC3"
		},
		{
			"bufferView":114,
			"componentType":5126,
			"count":2,
			"type":"VEC3"
		},
		{
			"bufferView":115,
			"componentType":5126,
			"count":25,
			"max":[
				1
			],
			"min":[
				0
			],
			"type":"SCALAR"
		},
		{
			"bufferView":116,
			"componentType":5126,
			"count":25,
			"type":"VEC3"
		},
		{
			"bufferView":117,
			"componentType":5126,
			"count":2,
			"max":[
				1
			],
			"min":[
				0
			],
			"type":"SCALAR"
		},
		{
			"bufferView":118,
			"componentType":5126,
			"count":25,
			"type":"VEC3"
		},
		{
			"bufferView":119,
			"componentType":5126,
			"count":25,
			"type":"VEC4"
		},
		{
			"bufferView":120,
			"componentType":5126,
			"count":25,
			"type":"VEC3"
		},
		{
			"bufferView":121,
			"componentType":5126,
			"count":25,
			"type":"VEC4"
		},
		{
			"bufferView":122,
			"componentType":5126,
			"count":25,
			"type":"VEC3"
		},
		{
			"bufferView":123,
			"componentType":5126,
			"count":25,
			"type":"VEC4"
		},
		{
			"bufferView":124,
			"componentType":5126,
			"count":2,
			"type":"VEC3"
		},
		{
			"bufferView":125,
			"componentType":5126,
			"count":2,
			"type":"VEC3"
		},
		{
			"bufferView":126,
			"componentType":5126,
			"count":25,
			"type":"VEC4"
		},
		{
			"bufferView":127,
			"componentType":5126,
			"count":2,
			"type":"VEC3"
		},
		{
			"bufferView":128,
			"componentType":5126,
			"count":25,
			"type":"VEC4"
		},
		{
			"bufferView":129,
			"componentType":5126,
			"count":2,
			"type":"VEC3"
		},
		{
			"bufferView":130,
			"componentType":5126,
			"count":2,
			"type":"VEC3"
		},
		{
			"bufferView":131,
			"componentType":5126,
			"count":25,
			"type":"VEC4"
		},
		{
			"bufferView":132,
			"componentType":5126,
			"count":25,
			"type":"VEC4"
		},
		{
			"bufferView":133,
			"componentType":5126,
			"count":2,
			"type":"VEC3"
		},
		{
			"bufferView":134,
			"componentType":5126,
			"count":2,
			"type":"VEC3"
		},
		{
			"bufferView":135,
			"componentType":5126,
			"count":65,
			"max":[
				2.6666666666666665
			],
			"min":[
				0
			],
			"type":"SCALAR"
		},
		{
			"bufferView":136,
			"componentType":5126,
			"count":65,
			"type":"VEC3"
		},
		{
			"bufferView":137,
			"componentType":5126,
			"count":65,
			"type":"VEC4"
		},
		{
			"bufferView":138,
			"componentType":5126,
			"count":2,
			"max":[
				2.6666666666666665
			],
			"min":[
				0
			],
			"type":"SCALAR"
		},
		{
			"bufferView":139,
			"componentType":5126,
			"count":65,
			"type":"VEC3"
		},
		{
			"bufferView":140,
			"componentType":5126,
			"count":65,
			"type":"VEC3"
		},
		{
			"bufferView":141,
			"componentType":5126,
			"count":65,
			"type":"VEC3"
		},
		{
			"bufferView":142,
			"componentType":5126,
			"count":2,
			"type":"VEC4"
		},
		{
			"bufferView":143,
			"componentType":5126,
			"count":65,
			"type":"VEC3"
		},
		{
			"bufferView":144,
			"componentType":5126,
			"count":65,
			"type":"VEC4"
		}
	],
	"bufferViews":[
		{
			"buffer":0,
			"byteLength":8208,
			"byteOffset":0,
			"target":34962
		},
		{
			"buffer":0,
			"byteLength":8208,
			"byteOffset":8208,
			"target":34962
		},
		{
			"buffer":0,
			"byteLength":5472,
			"byteOffset":16416,
			"target":34962
		},
		{
			"buffer":0,
			"byteLength":2736,
			"byteOffset":21888,
			"target":34962
		},
		{
			"buffer":0,
			"byteLength":10944,
			"byteOffset":24624,
			"target":34962
		},
		{
			"buffer":0,
			"byteLength":6054,
			"byteOffset":35568,
			"target":34963
		},
		{
			"buffer":0,
			"byteLength":640,
			"byteOffset":41624
		},
		{
			"buffer":0,
			"byteLength":84,
			"byteOffset":42264
		},
		{
			"buffer":0,
			"byteLength":252,
			"byteOffset":42348
		},
		{
			"buffer":0,
			"byteLength":8,
			"byteOffset":42600
		},
		{
			"buffer":0,
			"byteLength":32,
			"byteOffset":42608
		},
		{
			"buffer":0,
			"byteLength":24,
			"byteOffset":42640
		},
		{
			"buffer":0,
			"byteLength":252,
			"byteOffset":42664
		},
		{
			"buffer":0,
			"byteLength":336,
			"byteOffset":42916
		},
		{
			"buffer":0,
			"byteLength":24,
			"byteOffset":43252
		},
		{
			"buffer":0,
			"byteLength":252,
			"byteOffset":43276
		},
		{
			"buffer":0,
			"byteLength":336,
			"byteOffset":43528
		},
		{
			"buffer":0,
			"byteLength":24,
			"byteOffset":43864
		},
		{
			"buffer":0,
			"byteLength":252,
			"byteOffset":43888
		},
		{
			"buffer":0,
			"byteLength":336,
			"byteOffset":44140
		},
		{
			"buffer":0,
			"byteLength":24,
			"byteOffset":44476
		},
		{
			"buffer":0,
			"byteLength":252,
			"byteOffset":44500
		},
		{
			"buffer":0,
			"byteLength":336,
			"byteOffset":44752
		},
		{
			"buffer":0,
			"byteLength":24,
			"byteOffset":45088
		},
		{
			"buffer":0,
			"byteLength":336,
			"byteOffset":45112
		},
		{
			"buffer":0,
			"byteLength":24,
			"byteOffset":45448
		},
		{
			"buffer":0,
			"byteLength":24,
			"byteOffset":45472
		},
		{
			"buffer":0,
			"byteLength":32,
			"byteOffset":45496
		},
		{
			"buffer":0,
			"byteLength":336,
			"byteOffset":45528
		},
		{
			"buffer":0,
			"byteLength":24,
			"byteOffset":45864
		},
		{
			"buffer":0,
			"byteLength":32,
			"byteOffset":45888
		},
		{
			"buffer":0,
			"byteLength":24,
			"byteOffset":45920
		},
		{
			"buffer":0,
			"byteLength":24,
			"byteOffset":45944
		},
		{
			"buffer":0,
			"byteLength":32,
			"byteOffset":45968
		},
		{
			"buffer":0,
			"byteLength":24,
			"byteOffset":46000
		},
		{
			"buffer":0,
			"byteLength":132,
			"byteOffset":46024
		},
		{
			"buffer":0,
			"byteLength":396,
			"byteOffset":46156
		},
		{
			"buffer":0,
			"byteLength":528,
			"byteOffset":46552
		},
		{
			"buffer":0,
			"byteLength":8,
			"byteOffset":47080
		},
		{
			"buffer":0,
			"byteLength":396,
			"byteOffset":47088
		},
		{
			"buffer":0,
			"byteLength":528,
			"byteOffset":47484
		},
		{
			"buffer":0,
			"byteLength":396,
			"byteOffset":48012
		},
		{
			"buffer":0,
			"byteLength":528,
			"byteOffset":48408
		},
		{
			"buffer":0,
			"byteLength":396,
			"byteOffset":48936
		},
		{
			"buffer":0,
			"byteLength":528,
			"byteOffset":49332
		},
		{
			"buffer":0,
			"byteLength":24,
			"byteOffset":49860
		},
		{
			"buffer":0,
			"byteLength":396,
			"byteOffset":49884
		},
		{
			"buffer":0,
			"byteLength":528,
			"byteOffset":50280
		},
		{
			"buffer":0,
			"byteLength":24,
			"byteOffset":50808
		},
		{
			"buffer":0,
			"byteLength":24,
			"byteOffset":50832
		},
		{
			"buffer":0,
			"byteLength":528,
			"byteOffset":50856
		},
		{
			"buffer":0,
			"byteLength":24,
			"byteOffset":51384
		},
		{
			"buffer":0,
			"byteLength":24,
			"byteOffset":51408
		},
		{
			"buffer":0,
			"byteLength":528,
			"byteOffset":51432
		},
		{
			"buffer":0,
			"byteLength":24,
			"byteOffset":51960
		},
		{
			"buffer":0,
			"byteLength":528,
			"byteOffset":51984
		},
		{
			"buffer":0,
			"byteLength":24,
			"byteOffset":52512
		},
		{
			"buffer":0,
			"byteLength":24,
			"byteOffset":52536
		},
		{
			"buffer":0,
			"byteLength":24,
			"byteOffset":52560
		},
		{
			"buffer":0,
			"byteLength":24,
			"byteOffset":52584
		},
		{
			"buffer":0,
			"byteLength":24,
			"byteOffset":52608
		},
		{
			"buffer":0,
			"byteLength":528,
			"byteOffset":52632
		},
		{
			"buffer":0,
			"byteLength":24,
			"byteOffset":53160
		},
		{
			"buffer":0,
			"byteLength":24,
			"byteOffset":53184
		},
		{
			"buffer":0,
			"byteLength":528,
			"byteOffset":53208
		},
		{
			"buffer":0,
			"byteLength":24,
			"byteOffset":53736
		},
		{
			"buffer":0,
			"byteLength":24,
			"byteOffset":53760
		},
		{
			"buffer":0,
			"byteLength":528,
			"byteOffset":53784
		},
		{
			"buffer":0,
			"byteLength":24,
			"byteOffset":54312
		},
		{
			"buffer":0,
			"byteLength":24,
			"byteOffset":54336
		},
		{
			"buffer":0,
			"byteLength":32,
			"byteOffset":54360
		},
		{
			"buffer":0,
			"byteLength":24,
			"byteOffset":54392
		},
		{
			"buffer":0,
			"byteLength":24,
			"byteOffset":54416
		},
		{
			"buffer":0,
			"byteLength":32,
			"byteOffset":54440
		},
		{
			"buffer":0,
			"byteLength":24,
			"byteOffset":54472
		},
		{
			"buffer":0,
			"byteLength":24,
			"byteOffset":54496
		},
		{
			"buffer":0,
			"byteLength":528,
			"byteOffset":54520
		},
		{
			"buffer":0,
			"byteLength":24,
			"byteOffset":55048
		},
		{
			"buffer":0,
			"byteLength":528,
			"byteOffset":55072
		},
		{
			"buffer":0,
			"byteLength":24,
			"byteOffset":55600
		},
		{
			"buffer":0,
			"byteLength":24,
			"byteOffset":55624
		},
		{
			"buffer":0,
			"byteLength":32,
			"byteOffset":55648
		},
		{
			"buffer":0,
			"byteLength":24,
			"byteOffset":55680
		},
		{
			"buffer":0,
			"byteLength":24,
			"byteOffset":55704
		},
		{
			"buffer":0,
			"byteLength":32,
			"byteOffset":55728
		},
		{
			"buffer":0,
			"byteLength":24,
			"byteOffset":55760
		},
		{
			"buffer":0,
			"byteLength":252,
			"byteOffset":55784
		},
		{
			"buffer":0,
			"byteLength":336,
			"byteOffset":56036
		},
		{
			"buffer":0,
			"byteLength":252,
			"byteOffset":56372
		},
		{
			"buffer":0,
			"byteLength":336,
			"byteOffset":56624
		},
		{
			"buffer":0,
			"byteLength":24,
			"byteOffset":56960
		},
		{
			"buffer":0,
			"byteLength":336,
			"byteOffset":56984
		},
		{
			"buffer":0,
			"byteLength":252,
			"byteOffset":57320
		},
		{
			"buffer":0,
			"byteLength":336,
			"byteOffset":57572
		},
		{
			"buffer":0,
			"byteLength":24,
			"byteOffset":57908
		},
		{
			"buffer":0,
			"byteLength":336,
			"byteOffset":57932
		},
		{
			"buffer":0,
			"byteLength":336,
			"byteOffset":58268
		},
		{
			"buffer":0,
			"byteLength":336,
			"byteOffset":58604
		},
		{
			"buffer":0,
			"byteLength":336,
			"byteOffset":58940
		},
		{
			"buffer":0,
			"byteLength":8,
			"byteOffset":59276
		},
		{
			"buffer":0,
			"byteLength":164,
			"byteOffset":59284
		},
		{
			"buffer":0,
			"byteLength":492,
			"byteOffset":59448
		},
		{
			"buffer":0,
			"byteLength":32,
			"byteOffset":59940
		},
		{
			"buffer":0,
			"byteLength":492,
			"byteOffset":59972
		},
		{
			"buffer":0,
			"byteLength":32,
			"byteOffset":60464
		},
		{
			"buffer":0,
			"byteLength":492,
			"byteOffset":60496
		},
		{
			"buffer":0,
			"byteLength":656,
			"byteOffset":60988
		},
		{
			"buffer":0,
			"byteLength":24,
			"byteOffset":61644
		},
		{
			"buffer":0,
			"byteLength":32,
			"byteOffset":61668
		},
		{
			"buffer":0,
			"byteLength":24,
			"byteOffset":61700
		},
		{
			"buffer":0,
			"byteLength":656,
			"byteOffset":61724
		},
		{
			"buffer":0,
			"byteLength":24,
			"byteOffset":62380
		},
		{
			"buffer":0,
			"byteLength":656,
			"byteOffset":62404
		},
		{
			"buffer":0,
			"byteLength":24,
			"byteOffset":63060
		},
		{
			"buffer":0,
			"byteLength":24,
			"byteOffset":63084
		},
		{
			"buffer":0,
			"byteLength":100,
			"byteOffset":63108
		},
		{
			"buffer":0,
			"byteLength":300,
			"byteOffset":63208
		},
		{
			"buffer":0,
			"byteLength":8,
			"byteOffset":63508
		},
		{
			"buffer":0,
			"byteLength":300,
			"byteOffset":63516
		},
		{
			"buffer":0,
			"byteLength":400,
			"byteOffset":63816
		},
		{
			"buffer":0,
			"byteLength":300,
			"byteOffset":64216
		},
		{
			"buffer":0,
			"byteLength":400,
			"byteOffset":64516
		},
		{
			"buffer":0,
			"byteLength":300,
			"byteOffset":64916
		},
		{
			"buffer":0,
			"byteLength":400,
			"byteOffset":65216
		},
		{
			"buffer":0,
			"byteLength":24,
			"byteOffset":65616
		},
		{
			"buffer":0,
			"byteLength":24,
			"byteOffset":65640
		},
		{
			"buffer":0,
			"byteLength":400,
			"byteOffset":65664
		},
		{
			"buffer":0,
			"byteLength":24,
			"byteOffset":66064
		},
		{
			"buffer":0,
			"byteLength":400,
			"byteOffset":66088
		},
		{
			"buffer":0,
			"byteLength":24,
			"byteOffset":66488
		},
		{
			"buffer":0,
			"byteLength":24,
			"byteOffset":66512
		},
		{
			"buffer":0,
			"byteLength":400,
			"byteOffset":66536
		},
		{
			"buffer":0,
			"byteLength":400,
			"byteOffset":66936
		},
		{
			"buffer":0,
			"byteLength":24,
			"byteOffset":67336
		},
		{
			"buffer":0,
			"byteLength":24,
			"byteOffset":67360
		},
		{
			"buffer":0,
			"byteLength":260,
			"byteOffset":67384
		},
		{
			"buffer":0,
			"byteLength":780,
			"byteOffset":67644
		},
		{
			"buffer":0,
			"byteLength":1040,
			"byteOffset":68424
		},
		{
			"buffer":0,
			"byteLength":8,
			"byteOffset":69464
		},
		{
			"buffer":0,
			"byteLength":780,
			"byteOffset":69472
		},
		{
			"buffer":0,
			"byteLength":780,
			"byteOffset":70252
		},
		{
			"buffer":0,
			"byteLength":780,
			"byteOffset":71032
		},
		{
			"buffer":0,
			"byteLength":32,
			"byteOffset":71812
		},
		{
			"buffer":0,
			"byteLength":780,
			"byteOffset":71844
		},
		{
			"buffer":0,
			"byteLength":1040,
			"byteOffset":72624
		}
	],
	"samplers":[
		{
			"magFilter":9729,
			"minFilter":9987
		}
	],
	"buffers":[
		{
			"byteLength":73664,
			"uri":"Slime.bin"
		}
	]
}
