{
	"asset":{
		"generator":"Khronos glTF Blender I/O v5.1.19",
		"version":"2.0"
	},
	"scene":0,
	"scenes":[
		{
			"name":"Scene",
			"nodes":[
				28
			]
		}
	],
	"nodes":[
		{
			"name":"foot_02_L",
			"rotation":[
				0.4986499547958374,
				-0.5013464689254761,
				0.498649924993515,
				0.5013463497161865
			],
			"scale":[
				1,
				0.9999999403953552,
				1
			],
			"translation":[
				0.04577896371483803,
				-1.1542800493202776e-08,
				1.5478772041888078e-08
			]
		},
		{
			"children":[
				0
			],
			"name":"foot_01_L",
			"rotation":[
				-0.771275520324707,
				0.3753133714199066,
				-0.22244225442409515,
				0.4634580910205841
			],
			"scale":[
				1,
				1.0000001192092896,
				1
			],
			"translation":[
				0.08944302052259445,
				-2.9336661100387573e-08,
				-6.51925802230835e-09
			]
		},
		{
			"name":"foot_02_R",
			"rotation":[
				0.49864986538887024,
				-0.5013461709022522,
				0.4986501932144165,
				0.5013464689254761
			],
			"translation":[
				-0.04577895626425743,
				-6.353135262315845e-08,
				-5.205099684602033e-10
			]
		},
		{
			"children":[
				2
			],
			"name":"foot_01_R",
			"rotation":[
				0.37531328201293945,
				0.7712756395339966,
				0.4634580612182617,
				0.222442165017128
			],
			"scale":[
				0.9999999403953552,
				0.9999999403953552,
				1
			],
			"translation":[
				0.004025263711810112,
				-0.0677318200469017,
				0.05827735364437103
			]
		},
		{
			"name":"head",
			"rotation":[
				0.22176183760166168,
				0.8285817503929138,
				0.41268807649612427,
				0.30653315782546997
			],
			"scale":[
				0.9999998807907104,
				0.9999995231628418,
				0.9999999403953552
			],
			"translation":[
				-0.011930134147405624,
				0.0471523180603981,
				0.037315838038921356
			]
		},
		{
			"name":"wing_06_L",
			"rotation":[
				0.6908400654792786,
				0.03842214494943619,
				-0.5226267576217651,
				0.4981214106082916
			],
			"scale":[
				0.9999998807907104,
				0.9999998807907104,
				0.9999997615814209
			],
			"translation":[
				0.06632337719202042,
				-2.7474015951156616e-08,
				5.704350769519806e-08
			]
		},
		{
			"children":[
				5
			],
			"name":"wing_05_L",
			"rotation":[
				1.329859242105158e-05,
				0.017762724310159683,
				-0.0004890197305940092,
				0.99984210729599
			],
			"scale":[
				0.9999999403953552,
				1,
				1
			],
			"translation":[
				0.0656837671995163,
				-9.313225746154785e-10,
				-3.958120942115784e-08
			]
		},
		{
			"children":[
				6
			],
			"name":"wing_04_L",
			"rotation":[
				1.1931578569601697e-07,
				0.04223182052373886,
				0.0008669419912621379,
				0.9991074800491333
			],
			"translation":[
				0.061808615922927856,
				1.1175870895385742e-08,
				-5.541369318962097e-08
			]
		},
		{
			"children":[
				7
			],
			"name":"wing_03_L",
			"rotation":[
				-4.9469068471807986e-05,
				0.09891831874847412,
				-0.00025724308216013014,
				0.9950955510139465
			],
			"scale":[
				0.9999999403953552,
				1,
				0.9999999403953552
			],
			"translation":[
				0.07280413061380386,
				3.91155481338501e-08,
				3.91155481338501e-08
			]
		},
		{
			"children":[
				8
			],
			"name":"wing_02_L",
			"rotation":[
				-0.019229905679821968,
				0.2891528904438019,
				0.0632813572883606,
				0.9549954533576965
			],
			"scale":[
				1.0000001192092896,
				1,
				1
			],
			"translation":[
				0.09866637736558914,
				5.634501576423645e-08,
				5.122274160385132e-09
			]
		},
		{
			"children":[
				9
			],
			"name":"wing_01_L",
			"rotation":[
				-0.9241610765457153,
				-0.22049552202224731,
				-0.2967744469642639,
				0.09608834981918335
			],
			"scale":[
				1.0000001192092896,
				1.0000001192092896,
				1
			],
			"translation":[
				0.028545085340738297,
				-0.0027157217264175415,
				0.061013396829366684
			]
		},
		{
			"name":"wing_06_R",
			"rotation":[
				-0.038419052958488464,
				0.6908431053161621,
				0.49812155961990356,
				0.5226228833198547
			],
			"scale":[
				1.0000001192092896,
				1.0000003576278687,
				1.000000238418579
			],
			"translation":[
				0.06632291525602341,
				3.5178047141926072e-09,
				-3.3527612686157227e-08
			]
		},
		{
			"children":[
				11
			],
			"name":"wing_05_R",
			"rotation":[
				-1.3488591321220156e-05,
				-0.017767708748579025,
				-0.000489406636916101,
				0.9998420476913452
			],
			"scale":[
				0.9999999403953552,
				0.9999999403953552,
				1
			],
			"translation":[
				0.06568387150764465,
				4.656612873077393e-10,
				-5.029141902923584e-08
			]
		},
		{
			"children":[
				12
			],
			"name":"wing_04_R",
			"rotation":[
				9.818573687425669e-08,
				-0.0422322079539299,
				0.000867354916408658,
				0.9991074800491333
			],
			"scale":[
				1.0000001192092896,
				1,
				0.9999999403953552
			],
			"translation":[
				0.061809297651052475,
				-5.1601091399788857e-08,
				-5.494803190231323e-08
			]
		},
		{
			"children":[
				13
			],
			"name":"wing_03_R",
			"rotation":[
				4.926712790620513e-05,
				-0.09892068803310394,
				-0.0002570452634245157,
				0.9950953125953674
			],
			"translation":[
				0.0728033185005188,
				-1.7185811884701252e-08,
				-4.0978193283081055e-08
			]
		},
		{
			"children":[
				14
			],
			"name":"wing_02_R",
			"rotation":[
				0.019229605793952942,
				-0.28915050625801086,
				0.063280388712883,
				0.9549962282180786
			],
			"scale":[
				0.9999998807907104,
				0.9999999403953552,
				1.0000001192092896
			],
			"translation":[
				0.09866698831319809,
				-3.259629011154175e-08,
				-5.587935447692871e-08
			]
		},
		{
			"children":[
				15
			],
			"name":"wing_01_R",
			"rotation":[
				0.9240968227386475,
				0.24084922671318054,
				-0.2944905459880829,
				0.03622332215309143
			],
			"scale":[
				0.999999463558197,
				0.9999998807907104,
				0.9999999403953552
			],
			"translation":[
				0.028545020148158073,
				-0.0027157440781593323,
				-0.061013419181108475
			]
		},
		{
			"children":[
				10,
				16
			],
			"name":"wing_root",
			"rotation":[
				0.2217618077993393,
				0.8285817503929138,
				0.41268810629844666,
				0.3065330982208252
			],
			"scale":[
				1,
				0.9999997019767761,
				1
			],
			"translation":[
				-0.05103398486971855,
				0.03583991155028343,
				-0.033146731555461884
			]
		},
		{
			"children":[
				1,
				3,
				4,
				17
			],
			"name":"body",
			"rotation":[
				-0.2217618227005005,
				-0.8285817503929138,
				-0.41268810629844666,
				0.3065330684185028
			],
			"scale":[
				1,
				0.9999998211860657,
				0.9999999403953552
			],
			"translation":[
				0.12028451263904572,
				7.450580596923828e-09,
				8.945599816456706e-09
			]
		},
		{
			"children":[
				18
			],
			"name":"root",
			"rotation":[
				-8.557136332854043e-09,
				1.7114272665708086e-08,
				-2.928983286277023e-16,
				1
			]
		},
		{
			"mesh":0,
			"name":"eyes.001",
			"skin":0
		},
		{
			"mesh":1,
			"name":"fluffy",
			"skin":0
		},
		{
			"mesh":2,
			"name":"foot",
			"skin":0
		},
		{
			"mesh":3,
			"name":"head.001",
			"skin":0
		},
		{
			"name":"eyes"
		},
		{
			"name":"head"
		},
		{
			"children":[
				24,
				25
			],
			"name":"mesh"
		},
		{
			"mesh":4,
			"name":"wing",
			"skin":0
		},
		{
			"children":[
				20,
				21,
				22,
				23,
				26,
				27,
				19
			],
			"name":"Bat"
		}
	],
	"animations":[
		{
			"channels":[
				{
					"sampler":0,
					"target":{
						"node":19,
						"path":"translation"
					}
				},
				{
					"sampler":1,
					"target":{
						"node":19,
						"path":"rotation"
					}
				},
				{
					"sampler":2,
					"target":{
						"node":19,
						"path":"scale"
					}
				},
				{
					"sampler":3,
					"target":{
						"node":18,
						"path":"translation"
					}
				},
				{
					"sampler":4,
					"target":{
						"node":18,
						"path":"rotation"
					}
				},
				{
					"sampler":5,
					"target":{
						"node":18,
						"path":"scale"
					}
				},
				{
					"sampler":6,
					"target":{
						"node":1,
						"path":"translation"
					}
				},
				{
					"sampler":7,
					"target":{
						"node":1,
						"path":"rotation"
					}
				},
				{
					"sampler":8,
					"target":{
						"node":1,
						"path":"scale"
					}
				},
				{
					"sampler":9,
					"target":{
						"node":0,
						"path":"translation"
					}
				},
				{
					"sampler":10,
					"target":{
						"node":0,
						"path":"rotation"
					}
				},
				{
					"sampler":11,
					"target":{
						"node":0,
						"path":"scale"
					}
				},
				{
					"sampler":12,
					"target":{
						"node":3,
						"path":"translation"
					}
				},
				{
					"sampler":13,
					"target":{
						"node":3,
						"path":"rotation"
					}
				},
				{
					"sampler":14,
					"target":{
						"node":3,
						"path":"scale"
					}
				},
				{
					"sampler":15,
					"target":{
						"node":2,
						"path":"translation"
					}
				},
				{
					"sampler":16,
					"target":{
						"node":2,
						"path":"rotation"
					}
				},
				{
					"sampler":17,
					"target":{
						"node":2,
						"path":"scale"
					}
				},
				{
					"sampler":18,
					"target":{
						"node":4,
						"path":"translation"
					}
				},
				{
					"sampler":19,
					"target":{
						"node":4,
						"path":"rotation"
					}
				},
				{
					"sampler":20,
					"target":{
						"node":4,
						"path":"scale"
					}
				},
				{
					"sampler":21,
					"target":{
						"node":17,
						"path":"translation"
					}
				},
				{
					"sampler":22,
					"target":{
						"node":17,
						"path":"rotation"
					}
				},
				{
					"sampler":23,
					"target":{
						"node":17,
						"path":"scale"
					}
				},
				{
					"sampler":24,
					"target":{
						"node":10,
						"path":"translation"
					}
				},
				{
					"sampler":25,
					"target":{
						"node":10,
						"path":"rotation"
					}
				},
				{
					"sampler":26,
					"target":{
						"node":10,
						"path":"scale"
					}
				},
				{
					"sampler":27,
					"target":{
						"node":9,
						"path":"translation"
					}
				},
				{
					"sampler":28,
					"target":{
						"node":9,
						"path":"rotation"
					}
				},
				{
					"sampler":29,
					"target":{
						"node":9,
						"path":"scale"
					}
				},
				{
					"sampler":30,
					"target":{
						"node":8,
						"path":"translation"
					}
				},
				{
					"sampler":31,
					"target":{
						"node":8,
						"path":"rotation"
					}
				},
				{
					"sampler":32,
					"target":{
						"node":8,
						"path":"scale"
					}
				},
				{
					"sampler":33,
					"target":{
						"node":7,
						"path":"translation"
					}
				},
				{
					"sampler":34,
					"target":{
						"node":7,
						"path":"rotation"
					}
				},
				{
					"sampler":35,
					"target":{
						"node":7,
						"path":"scale"
					}
				},
				{
					"sampler":36,
					"target":{
						"node":6,
						"path":"translation"
					}
				},
				{
					"sampler":37,
					"target":{
						"node":6,
						"path":"rotation"
					}
				},
				{
					"sampler":38,
					"target":{
						"node":6,
						"path":"scale"
					}
				},
				{
					"sampler":39,
					"target":{
						"node":5,
						"path":"translation"
					}
				},
				{
					"sampler":40,
					"target":{
						"node":5,
						"path":"rotation"
					}
				},
				{
					"sampler":41,
					"target":{
						"node":5,
						"path":"scale"
					}
				},
				{
					"sampler":42,
					"target":{
						"node":16,
						"path":"translation"
					}
				},
				{
					"sampler":43,
					"target":{
						"node":16,
						"path":"rotation"
					}
				},
				{
					"sampler":44,
					"target":{
						"node":16,
						"path":"scale"
					}
				},
				{
					"sampler":45,
					"target":{
						"node":15,
						"path":"translation"
					}
				},
				{
					"sampler":46,
					"target":{
						"node":15,
						"path":"rotation"
					}
				},
				{
					"sampler":47,
					"target":{
						"node":15,
						"path":"scale"
					}
				},
				{
					"sampler":48,
					"target":{
						"node":14,
						"path":"translation"
					}
				},
				{
					"sampler":49,
					"target":{
						"node":14,
						"path":"rotation"
					}
				},
				{
					"sampler":50,
					"target":{
						"node":14,
						"path":"scale"
					}
				},
				{
					"sampler":51,
					"target":{
						"node":13,
						"path":"translation"
					}
				},
				{
					"sampler":52,
					"target":{
						"node":13,
						"path":"rotation"
					}
				},
				{
					"sampler":53,
					"target":{
						"node":13,
						"path":"scale"
					}
				},
				{
					"sampler":54,
					"target":{
						"node":12,
						"path":"translation"
					}
				},
				{
					"sampler":55,
					"target":{
						"node":12,
						"path":"rotation"
					}
				},
				{
					"sampler":56,
					"target":{
						"node":12,
						"path":"scale"
					}
				},
				{
					"sampler":57,
					"target":{
						"node":11,
						"path":"translation"
					}
				},
				{
					"sampler":58,
					"target":{
						"node":11,
						"path":"rotation"
					}
				},
				{
					"sampler":59,
					"target":{
						"node":11,
						"path":"scale"
					}
				},
				{
					"sampler":60,
					"target":{
						"node":23,
						"path":"weights"
					}
				}
			],
			"name":"Attack",
			"samplers":[
				{
					"input":39,
					"interpolation":"STEP",
					"output":40
				},
				{
					"input":39,
					"interpolation":"STEP",
					"output":41
				},
				{
					"input":39,
					"interpolation":"STEP",
					"output":42
				},
				{
					"input":39,
					"interpolation":"STEP",
					"output":43
				},
				{
					"input":44,
					"interpolation":"LINEAR",
					"output":45
				},
				{
					"input":39,
					"interpolation":"STEP",
					"output":46
				},
				{
					"input":39,
					"interpolation":"STEP",
					"output":47
				},
				{
					"input":44,
					"interpolation":"LINEAR",
					"output":48
				},
				{
					"input":39,
					"interpolation":"STEP",
					"output":49
				},
				{
					"input":39,
					"interpolation":"STEP",
					"output":50
				},
				{
					"input":39,
					"interpolation":"STEP",
					"output":51
				},
				{
					"input":39,
					"interpolation":"STEP",
					"output":52
				},
				{
					"input":39,
					"interpolation":"STEP",
					"output":53
				},
				{
					"input":44,
					"interpolation":"LINEAR",
					"output":54
				},
				{
					"input":39,
					"interpolation":"STEP",
					"output":55
				},
				{
					"input":39,
					"interpolation":"STEP",
					"output":56
				},
				{
					"input":39,
					"interpolation":"STEP",
					"output":57
				},
				{
					"input":39,
					"interpolation":"STEP",
					"output":58
				},
				{
					"input":39,
					"interpolation":"STEP",
					"output":59
				},
				{
					"input":44,
					"interpolation":"LINEAR",
					"output":60
				},
				{
					"input":39,
					"interpolation":"STEP",
					"output":61
				},
				{
					"input":39,
					"interpolation":"STEP",
					"output":62
				},
				{
					"input":39,
					"interpolation":"STEP",
					"output":63
				},
				{
					"input":39,
					"interpolation":"STEP",
					"output":64
				},
				{
					"input":39,
					"interpolation":"STEP",
					"output":65
				},
				{
					"input":44,
					"interpolation":"LINEAR",
					"output":66
				},
				{
					"input":39,
					"interpolation":"STEP",
					"output":67
				},
				{
					"input":39,
					"interpolation":"STEP",
					"output":68
				},
				{
					"input":44,
					"interpolation":"LINEAR",
					"output":69
				},
				{
					"input":39,
					"interpolation":"STEP",
					"output":70
				},
				{
					"input":39,
					"interpolation":"STEP",
					"output":71
				},
				{
					"input":44,
					"interpolation":"LINEAR",
					"output":72
				},
				{
					"input":39,
					"interpolation":"STEP",
					"output":73
				},
				{
					"input":39,
					"interpolation":"STEP",
					"output":74
				},
				{
					"input":44,
					"interpolation":"LINEAR",
					"output":75
				},
				{
					"input":39,
					"interpolation":"STEP",
					"output":76
				},
				{
					"input":39,
					"interpolation":"STEP",
					"output":77
				},
				{
					"input":44,
					"interpolation":"LINEAR",
					"output":78
				},
				{
					"input":39,
					"interpolation":"STEP",
					"output":79
				},
				{
					"input":39,
					"interpolation":"STEP",
					"output":80
				},
				{
					"input":39,
					"interpolation":"STEP",
					"output":81
				},
				{
					"input":39,
					"interpolation":"STEP",
					"output":82
				},
				{
					"input":39,
					"interpolation":"STEP",
					"output":83
				},
				{
					"input":44,
					"interpolation":"LINEAR",
					"output":84
				},
				{
					"input":39,
					"interpolation":"STEP",
					"output":85
				},
				{
					"input":39,
					"interpolation":"STEP",
					"output":86
				},
				{
					"input":44,
					"interpolation":"LINEAR",
					"output":87
				},
				{
					"input":39,
					"interpolation":"STEP",
					"output":88
				},
				{
					"input":39,
					"interpolation":"STEP",
					"output":89
				},
				{
					"input":44,
					"interpolation":"LINEAR",
					"output":90
				},
				{
					"input":39,
					"interpolation":"STEP",
					"output":91
				},
				{
					"input":39,
					"interpolation":"STEP",
					"output":92
				},
				{
					"input":44,
					"interpolation":"LINEAR",
					"output":93
				},
				{
					"input":39,
					"interpolation":"STEP",
					"output":94
				},
				{
					"input":39,
					"interpolation":"STEP",
					"output":95
				},
				{
					"input":44,
					"interpolation":"LINEAR",
					"output":96
				},
				{
					"input":39,
					"interpolation":"STEP",
					"output":97
				},
				{
					"input":39,
					"interpolation":"STEP",
					"output":98
				},
				{
					"input":39,
					"interpolation":"STEP",
					"output":99
				},
				{
					"input":39,
					"interpolation":"STEP",
					"output":100
				},
				{
					"input":44,
					"interpolation":"LINEAR",
					"output":101
				}
			]
		},
		{
			"channels":[
				{
					"sampler":0,
					"target":{
						"node":19,
						"path":"translation"
					}
				},
				{
					"sampler":1,
					"target":{
						"node":19,
						"path":"rotation"
					}
				},
				{
					"sampler":2,
					"target":{
						"node":19,
						"path":"scale"
					}
				},
				{
					"sampler":3,
					"target":{
						"node":18,
						"path":"translation"
					}
				},
				{
					"sampler":4,
					"target":{
						"node":18,
						"path":"rotation"
					}
				},
				{
					"sampler":5,
					"target":{
						"node":18,
						"path":"scale"
					}
				},
				{
					"sampler":6,
					"target":{
						"node":1,
						"path":"translation"
					}
				},
				{
					"sampler":7,
					"target":{
						"node":1,
						"path":"rotation"
					}
				},
				{
					"sampler":8,
					"target":{
						"node":1,
						"path":"scale"
					}
				},
				{
					"sampler":9,
					"target":{
						"node":0,
						"path":"translation"
					}
				},
				{
					"sampler":10,
					"target":{
						"node":0,
						"path":"rotation"
					}
				},
				{
					"sampler":11,
					"target":{
						"node":0,
						"path":"scale"
					}
				},
				{
					"sampler":12,
					"target":{
						"node":3,
						"path":"translation"
					}
				},
				{
					"sampler":13,
					"target":{
						"node":3,
						"path":"rotation"
					}
				},
				{
					"sampler":14,
					"target":{
						"node":3,
						"path":"scale"
					}
				},
				{
					"sampler":15,
					"target":{
						"node":2,
						"path":"translation"
					}
				},
				{
					"sampler":16,
					"target":{
						"node":2,
						"path":"rotation"
					}
				},
				{
					"sampler":17,
					"target":{
						"node":2,
						"path":"scale"
					}
				},
				{
					"sampler":18,
					"target":{
						"node":4,
						"path":"translation"
					}
				},
				{
					"sampler":19,
					"target":{
						"node":4,
						"path":"rotation"
					}
				},
				{
					"sampler":20,
					"target":{
						"node":4,
						"path":"scale"
					}
				},
				{
					"sampler":21,
					"target":{
						"node":17,
						"path":"translation"
					}
				},
				{
					"sampler":22,
					"target":{
						"node":17,
						"path":"rotation"
					}
				},
				{
					"sampler":23,
					"target":{
						"node":17,
						"path":"scale"
					}
				},
				{
					"sampler":24,
					"target":{
						"node":10,
						"path":"translation"
					}
				},
				{
					"sampler":25,
					"target":{
						"node":10,
						"path":"rotation"
					}
				},
				{
					"sampler":26,
					"target":{
						"node":10,
						"path":"scale"
					}
				},
				{
					"sampler":27,
					"target":{
						"node":9,
						"path":"translation"
					}
				},
				{
					"sampler":28,
					"target":{
						"node":9,
						"path":"rotation"
					}
				},
				{
					"sampler":29,
					"target":{
						"node":9,
						"path":"scale"
					}
				},
				{
					"sampler":30,
					"target":{
						"node":8,
						"path":"translation"
					}
				},
				{
					"sampler":31,
					"target":{
						"node":8,
						"path":"rotation"
					}
				},
				{
					"sampler":32,
					"target":{
						"node":8,
						"path":"scale"
					}
				},
				{
					"sampler":33,
					"target":{
						"node":7,
						"path":"translation"
					}
				},
				{
					"sampler":34,
					"target":{
						"node":7,
						"path":"rotation"
					}
				},
				{
					"sampler":35,
					"target":{
						"node":7,
						"path":"scale"
					}
				},
				{
					"sampler":36,
					"target":{
						"node":6,
						"path":"translation"
					}
				},
				{
					"sampler":37,
					"target":{
						"node":6,
						"path":"rotation"
					}
				},
				{
					"sampler":38,
					"target":{
						"node":6,
						"path":"scale"
					}
				},
				{
					"sampler":39,
					"target":{
						"node":5,
						"path":"translation"
					}
				},
				{
					"sampler":40,
					"target":{
						"node":5,
						"path":"rotation"
					}
				},
				{
					"sampler":41,
					"target":{
						"node":5,
						"path":"scale"
					}
				},
				{
					"sampler":42,
					"target":{
						"node":16,
						"path":"translation"
					}
				},
				{
					"sampler":43,
					"target":{
						"node":16,
						"path":"rotation"
					}
				},
				{
					"sampler":44,
					"target":{
						"node":16,
						"path":"scale"
					}
				},
				{
					"sampler":45,
					"target":{
						"node":15,
						"path":"translation"
					}
				},
				{
					"sampler":46,
					"target":{
						"node":15,
						"path":"rotation"
					}
				},
				{
					"sampler":47,
					"target":{
						"node":15,
						"path":"scale"
					}
				},
				{
					"sampler":48,
					"target":{
						"node":14,
						"path":"translation"
					}
				},
				{
					"sampler":49,
					"target":{
						"node":14,
						"path":"rotation"
					}
				},
				{
					"sampler":50,
					"target":{
						"node":14,
						"path":"scale"
					}
				},
				{
					"sampler":51,
					"target":{
						"node":13,
						"path":"translation"
					}
				},
				{
					"sampler":52,
					"target":{
						"node":13,
						"path":"rotation"
					}
				},
				{
					"sampler":53,
					"target":{
						"node":13,
						"path":"scale"
					}
				},
				{
					"sampler":54,
					"target":{
						"node":12,
						"path":"translation"
					}
				},
				{
					"sampler":55,
					"target":{
						"node":12,
						"path":"rotation"
					}
				},
				{
					"sampler":56,
					"target":{
						"node":12,
						"path":"scale"
					}
				},
				{
					"sampler":57,
					"target":{
						"node":11,
						"path":"translation"
					}
				},
				{
					"sampler":58,
					"target":{
						"node":11,
						"path":"rotation"
					}
				},
				{
					"sampler":59,
					"target":{
						"node":11,
						"path":"scale"
					}
				},
				{
					"sampler":60,
					"target":{
						"node":23,
						"path":"weights"
					}
				}
			],
			"name":"Damage",
			"samplers":[
				{
					"input":102,
					"interpolation":"STEP",
					"output":40
				},
				{
					"input":102,
					"interpolation":"STEP",
					"output":41
				},
				{
					"input":102,
					"interpolation":"STEP",
					"output":42
				},
				{
					"input":102,
					"interpolation":"STEP",
					"output":43
				},
				{
					"input":103,
					"interpolation":"LINEAR",
					"output":104
				},
				{
					"input":102,
					"interpolation":"STEP",
					"output":46
				},
				{
					"input":102,
					"interpolation":"STEP",
					"output":47
				},
				{
					"input":103,
					"interpolation":"LINEAR",
					"output":105
				},
				{
					"input":102,
					"interpolation":"STEP",
					"output":106
				},
				{
					"input":102,
					"interpolation":"STEP",
					"output":107
				},
				{
					"input":102,
					"interpolation":"STEP",
					"output":51
				},
				{
					"input":102,
					"interpolation":"STEP",
					"output":108
				},
				{
					"input":102,
					"interpolation":"STEP",
					"output":53
				},
				{
					"input":103,
					"interpolation":"LINEAR",
					"output":109
				},
				{
					"input":102,
					"interpolation":"STEP",
					"output":110
				},
				{
					"input":102,
					"interpolation":"STEP",
					"output":111
				},
				{
					"input":102,
					"interpolation":"STEP",
					"output":57
				},
				{
					"input":102,
					"interpolation":"STEP",
					"output":106
				},
				{
					"input":102,
					"interpolation":"STEP",
					"output":59
				},
				{
					"input":103,
					"interpolation":"LINEAR",
					"output":112
				},
				{
					"input":102,
					"interpolation":"STEP",
					"output":61
				},
				{
					"input":102,
					"interpolation":"STEP",
					"output":62
				},
				{
					"input":102,
					"interpolation":"STEP",
					"output":63
				},
				{
					"input":102,
					"interpolation":"STEP",
					"output":64
				},
				{
					"input":102,
					"interpolation":"STEP",
					"output":65
				},
				{
					"input":103,
					"interpolation":"LINEAR",
					"output":113
				},
				{
					"input":102,
					"interpolation":"STEP",
					"output":114
				},
				{
					"input":102,
					"interpolation":"STEP",
					"output":115
				},
				{
					"input":103,
					"interpolation":"LINEAR",
					"output":116
				},
				{
					"input":102,
					"interpolation":"STEP",
					"output":117
				},
				{
					"input":102,
					"interpolation":"STEP",
					"output":118
				},
				{
					"input":103,
					"interpolation":"LINEAR",
					"output":119
				},
				{
					"input":102,
					"interpolation":"STEP",
					"output":73
				},
				{
					"input":102,
					"interpolation":"STEP",
					"output":120
				},
				{
					"input":103,
					"interpolation":"LINEAR",
					"output":121
				},
				{
					"input":102,
					"interpolation":"STEP",
					"output":42
				},
				{
					"input":102,
					"interpolation":"STEP",
					"output":122
				},
				{
					"input":103,
					"interpolation":"LINEAR",
					"output":123
				},
				{
					"input":102,
					"interpolation":"STEP",
					"output":124
				},
				{
					"input":102,
					"interpolation":"STEP",
					"output":125
				},
				{
					"input":102,
					"interpolation":"STEP",
					"output":126
				},
				{
					"input":102,
					"interpolation":"STEP",
					"output":127
				},
				{
					"input":102,
					"interpolation":"STEP",
					"output":83
				},
				{
					"input":103,
					"interpolation":"LINEAR",
					"output":128
				},
				{
					"input":102,
					"interpolation":"STEP",
					"output":129
				},
				{
					"input":102,
					"interpolation":"STEP",
					"output":130
				},
				{
					"input":103,
					"interpolation":"LINEAR",
					"output":131
				},
				{
					"input":102,
					"interpolation":"STEP",
					"output":132
				},
				{
					"input":102,
					"interpolation":"STEP",
					"output":133
				},
				{
					"input":103,
					"interpolation":"LINEAR",
					"output":134
				},
				{
					"input":102,
					"interpolation":"STEP",
					"output":135
				},
				{
					"input":102,
					"interpolation":"STEP",
					"output":136
				},
				{
					"input":103,
					"interpolation":"LINEAR",
					"output":137
				},
				{
					"input":102,
					"interpolation":"STEP",
					"output":138
				},
				{
					"input":102,
					"interpolation":"STEP",
					"output":139
				},
				{
					"input":103,
					"interpolation":"LINEAR",
					"output":140
				},
				{
					"input":102,
					"interpolation":"STEP",
					"output":141
				},
				{
					"input":102,
					"interpolation":"STEP",
					"output":142
				},
				{
					"input":102,
					"interpolation":"STEP",
					"output":143
				},
				{
					"input":102,
					"interpolation":"STEP",
					"output":144
				},
				{
					"input":103,
					"interpolation":"LINEAR",
					"output":145
				}
			]
		},
		{
			"channels":[
				{
					"sampler":0,
					"target":{
						"node":19,
						"path":"translation"
					}
				},
				{
					"sampler":1,
					"target":{
						"node":19,
						"path":"rotation"
					}
				},
				{
					"sampler":2,
					"target":{
						"node":19,
						"path":"scale"
					}
				},
				{
					"sampler":3,
					"target":{
						"node":18,
						"path":"translation"
					}
				},
				{
					"sampler":4,
					"target":{
						"node":18,
						"path":"rotation"
					}
				},
				{
					"sampler":5,
					"target":{
						"node":18,
						"path":"scale"
					}
				},
				{
					"sampler":6,
					"target":{
						"node":1,
						"path":"translation"
					}
				},
				{
					"sampler":7,
					"target":{
						"node":1,
						"path":"rotation"
					}
				},
				{
					"sampler":8,
					"target":{
						"node":1,
						"path":"scale"
					}
				},
				{
					"sampler":9,
					"target":{
						"node":0,
						"path":"translation"
					}
				},
				{
					"sampler":10,
					"target":{
						"node":0,
						"path":"rotation"
					}
				},
				{
					"sampler":11,
					"target":{
						"node":0,
						"path":"scale"
					}
				},
				{
					"sampler":12,
					"target":{
						"node":3,
						"path":"translation"
					}
				},
				{
					"sampler":13,
					"target":{
						"node":3,
						"path":"rotation"
					}
				},
				{
					"sampler":14,
					"target":{
						"node":3,
						"path":"scale"
					}
				},
				{
					"sampler":15,
					"target":{
						"node":2,
						"path":"translation"
					}
				},
				{
					"sampler":16,
					"target":{
						"node":2,
						"path":"rotation"
					}
				},
				{
					"sampler":17,
					"target":{
						"node":2,
						"path":"scale"
					}
				},
				{
					"sampler":18,
					"target":{
						"node":4,
						"path":"translation"
					}
				},
				{
					"sampler":19,
					"target":{
						"node":4,
						"path":"rotation"
					}
				},
				{
					"sampler":20,
					"target":{
						"node":4,
						"path":"scale"
					}
				},
				{
					"sampler":21,
					"target":{
						"node":17,
						"path":"translation"
					}
				},
				{
					"sampler":22,
					"target":{
						"node":17,
						"path":"rotation"
					}
				},
				{
					"sampler":23,
					"target":{
						"node":17,
						"path":"scale"
					}
				},
				{
					"sampler":24,
					"target":{
						"node":10,
						"path":"translation"
					}
				},
				{
					"sampler":25,
					"target":{
						"node":10,
						"path":"rotation"
					}
				},
				{
					"sampler":26,
					"target":{
						"node":10,
						"path":"scale"
					}
				},
				{
					"sampler":27,
					"target":{
						"node":9,
						"path":"translation"
					}
				},
				{
					"sampler":28,
					"target":{
						"node":9,
						"path":"rotation"
					}
				},
				{
					"sampler":29,
					"target":{
						"node":9,
						"path":"scale"
					}
				},
				{
					"sampler":30,
					"target":{
						"node":8,
						"path":"translation"
					}
				},
				{
					"sampler":31,
					"target":{
						"node":8,
						"path":"rotation"
					}
				},
				{
					"sampler":32,
					"target":{
						"node":8,
						"path":"scale"
					}
				},
				{
					"sampler":33,
					"target":{
						"node":7,
						"path":"translation"
					}
				},
				{
					"sampler":34,
					"target":{
						"node":7,
						"path":"rotation"
					}
				},
				{
					"sampler":35,
					"target":{
						"node":7,
						"path":"scale"
					}
				},
				{
					"sampler":36,
					"target":{
						"node":6,
						"path":"translation"
					}
				},
				{
					"sampler":37,
					"target":{
						"node":6,
						"path":"rotation"
					}
				},
				{
					"sampler":38,
					"target":{
						"node":6,
						"path":"scale"
					}
				},
				{
					"sampler":39,
					"target":{
						"node":5,
						"path":"translation"
					}
				},
				{
					"sampler":40,
					"target":{
						"node":5,
						"path":"rotation"
					}
				},
				{
					"sampler":41,
					"target":{
						"node":5,
						"path":"scale"
					}
				},
				{
					"sampler":42,
					"target":{
						"node":16,
						"path":"translation"
					}
				},
				{
					"sampler":43,
					"target":{
						"node":16,
						"path":"rotation"
					}
				},
				{
					"sampler":44,
					"target":{
						"node":16,
						"path":"scale"
					}
				},
				{
					"sampler":45,
					"target":{
						"node":15,
						"path":"translation"
					}
				},
				{
					"sampler":46,
					"target":{
						"node":15,
						"path":"rotation"
					}
				},
				{
					"sampler":47,
					"target":{
						"node":15,
						"path":"scale"
					}
				},
				{
					"sampler":48,
					"target":{
						"node":14,
						"path":"translation"
					}
				},
				{
					"sampler":49,
					"target":{
						"node":14,
						"path":"rotation"
					}
				},
				{
					"sampler":50,
					"target":{
						"node":14,
						"path":"scale"
					}
				},
				{
					"sampler":51,
					"target":{
						"node":13,
						"path":"translation"
					}
				},
				{
					"sampler":52,
					"target":{
						"node":13,
						"path":"rotation"
					}
				},
				{
					"sampler":53,
					"target":{
						"node":13,
						"path":"scale"
					}
				},
				{
					"sampler":54,
					"target":{
						"node":12,
						"path":"translation"
					}
				},
				{
					"sampler":55,
					"target":{
						"node":12,
						"path":"rotation"
					}
				},
				{
					"sampler":56,
					"target":{
						"node":12,
						"path":"scale"
					}
				},
				{
					"sampler":57,
					"target":{
						"node":11,
						"path":"translation"
					}
				},
				{
					"sampler":58,
					"target":{
						"node":11,
						"path":"rotation"
					}
				},
				{
					"sampler":59,
					"target":{
						"node":11,
						"path":"scale"
					}
				},
				{
					"sampler":60,
					"target":{
						"node":20,
						"path":"weights"
					}
				},
				{
					"sampler":61,
					"target":{
						"node":23,
						"path":"weights"
					}
				}
			],
			"name":"Down",
			"samplers":[
				{
					"input":146,
					"interpolation":"LINEAR",
					"output":147
				},
				{
					"input":148,
					"interpolation":"STEP",
					"output":41
				},
				{
					"input":148,
					"interpolation":"STEP",
					"output":42
				},
				{
					"input":146,
					"interpolation":"LINEAR",
					"output":149
				},
				{
					"input":146,
					"interpolation":"LINEAR",
					"output":150
				},
				{
					"input":148,
					"interpolation":"STEP",
					"output":151
				},
				{
					"input":148,
					"interpolation":"STEP",
					"output":152
				},
				{
					"input":146,
					"interpolation":"LINEAR",
					"output":153
				},
				{
					"input":148,
					"interpolation":"STEP",
					"output":154
				},
				{
					"input":148,
					"interpolation":"STEP",
					"output":155
				},
				{
					"input":148,
					"interpolation":"STEP",
					"output":51
				},
				{
					"input":148,
					"interpolation":"STEP",
					"output":156
				},
				{
					"input":148,
					"interpolation":"STEP",
					"output":157
				},
				{
					"input":146,
					"interpolation":"LINEAR",
					"output":158
				},
				{
					"input":148,
					"interpolation":"STEP",
					"output":159
				},
				{
					"input":148,
					"interpolation":"STEP",
					"output":160
				},
				{
					"input":148,
					"interpolation":"STEP",
					"output":161
				},
				{
					"input":148,
					"interpolation":"STEP",
					"output":162
				},
				{
					"input":148,
					"interpolation":"STEP",
					"output":163
				},
				{
					"input":146,
					"interpolation":"LINEAR",
					"output":164
				},
				{
					"input":148,
					"interpolation":"STEP",
					"output":61
				},
				{
					"input":148,
					"interpolation":"STEP",
					"output":165
				},
				{
					"input":148,
					"interpolation":"STEP",
					"output":166
				},
				{
					"input":148,
					"interpolation":"STEP",
					"output":167
				},
				{
					"input":148,
					"interpolation":"STEP",
					"output":168
				},
				{
					"input":146,
					"interpolation":"LINEAR",
					"output":169
				},
				{
					"input":148,
					"interpolation":"STEP",
					"output":170
				},
				{
					"input":148,
					"interpolation":"STEP",
					"output":171
				},
				{
					"input":146,
					"interpolation":"LINEAR",
					"output":172
				},
				{
					"input":148,
					"interpolation":"STEP",
					"output":173
				},
				{
					"input":148,
					"interpolation":"STEP",
					"output":174
				},
				{
					"input":146,
					"interpolation":"LINEAR",
					"output":175
				},
				{
					"input":148,
					"interpolation":"STEP",
					"output":176
				},
				{
					"input":148,
					"interpolation":"STEP",
					"output":177
				},
				{
					"input":146,
					"interpolation":"LINEAR",
					"output":178
				},
				{
					"input":148,
					"interpolation":"STEP",
					"output":179
				},
				{
					"input":148,
					"interpolation":"STEP",
					"output":180
				},
				{
					"input":146,
					"interpolation":"LINEAR",
					"output":181
				},
				{
					"input":148,
					"interpolation":"STEP",
					"output":182
				},
				{
					"input":148,
					"interpolation":"STEP",
					"output":183
				},
				{
					"input":148,
					"interpolation":"STEP",
					"output":126
				},
				{
					"input":148,
					"interpolation":"STEP",
					"output":184
				},
				{
					"input":148,
					"interpolation":"STEP",
					"output":185
				},
				{
					"input":146,
					"interpolation":"LINEAR",
					"output":186
				},
				{
					"input":148,
					"interpolation":"STEP",
					"output":85
				},
				{
					"input":148,
					"interpolation":"STEP",
					"output":187
				},
				{
					"input":146,
					"interpolation":"LINEAR",
					"output":188
				},
				{
					"input":148,
					"interpolation":"STEP",
					"output":189
				},
				{
					"input":148,
					"interpolation":"STEP",
					"output":190
				},
				{
					"input":146,
					"interpolation":"LINEAR",
					"output":191
				},
				{
					"input":148,
					"interpolation":"STEP",
					"output":192
				},
				{
					"input":148,
					"interpolation":"STEP",
					"output":193
				},
				{
					"input":146,
					"interpolation":"LINEAR",
					"output":194
				},
				{
					"input":148,
					"interpolation":"STEP",
					"output":195
				},
				{
					"input":148,
					"interpolation":"STEP",
					"output":196
				},
				{
					"input":146,
					"interpolation":"LINEAR",
					"output":197
				},
				{
					"input":148,
					"interpolation":"STEP",
					"output":198
				},
				{
					"input":148,
					"interpolation":"STEP",
					"output":199
				},
				{
					"input":148,
					"interpolation":"STEP",
					"output":143
				},
				{
					"input":148,
					"interpolation":"STEP",
					"output":200
				},
				{
					"input":148,
					"interpolation":"LINEAR",
					"output":201
				},
				{
					"input":148,
					"interpolation":"LINEAR",
					"output":202
				}
			]
		},
		{
			"channels":[
				{
					"sampler":0,
					"target":{
						"node":19,
						"path":"translation"
					}
				},
				{
					"sampler":1,
					"target":{
						"node":19,
						"path":"rotation"
					}
				},
				{
					"sampler":2,
					"target":{
						"node":19,
						"path":"scale"
					}
				},
				{
					"sampler":3,
					"target":{
						"node":18,
						"path":"translation"
					}
				},
				{
					"sampler":4,
					"target":{
						"node":18,
						"path":"rotation"
					}
				},
				{
					"sampler":5,
					"target":{
						"node":18,
						"path":"scale"
					}
				},
				{
					"sampler":6,
					"target":{
						"node":1,
						"path":"translation"
					}
				},
				{
					"sampler":7,
					"target":{
						"node":1,
						"path":"rotation"
					}
				},
				{
					"sampler":8,
					"target":{
						"node":1,
						"path":"scale"
					}
				},
				{
					"sampler":9,
					"target":{
						"node":0,
						"path":"translation"
					}
				},
				{
					"sampler":10,
					"target":{
						"node":0,
						"path":"rotation"
					}
				},
				{
					"sampler":11,
					"target":{
						"node":0,
						"path":"scale"
					}
				},
				{
					"sampler":12,
					"target":{
						"node":3,
						"path":"translation"
					}
				},
				{
					"sampler":13,
					"target":{
						"node":3,
						"path":"rotation"
					}
				},
				{
					"sampler":14,
					"target":{
						"node":3,
						"path":"scale"
					}
				},
				{
					"sampler":15,
					"target":{
						"node":2,
						"path":"translation"
					}
				},
				{
					"sampler":16,
					"target":{
						"node":2,
						"path":"rotation"
					}
				},
				{
					"sampler":17,
					"target":{
						"node":2,
						"path":"scale"
					}
				},
				{
					"sampler":18,
					"target":{
						"node":4,
						"path":"translation"
					}
				},
				{
					"sampler":19,
					"target":{
						"node":4,
						"path":"rotation"
					}
				},
				{
					"sampler":20,
					"target":{
						"node":4,
						"path":"scale"
					}
				},
				{
					"sampler":21,
					"target":{
						"node":17,
						"path":"translation"
					}
				},
				{
					"sampler":22,
					"target":{
						"node":17,
						"path":"rotation"
					}
				},
				{
					"sampler":23,
					"target":{
						"node":17,
						"path":"scale"
					}
				},
				{
					"sampler":24,
					"target":{
						"node":10,
						"path":"translation"
					}
				},
				{
					"sampler":25,
					"target":{
						"node":10,
						"path":"rotation"
					}
				},
				{
					"sampler":26,
					"target":{
						"node":10,
						"path":"scale"
					}
				},
				{
					"sampler":27,
					"target":{
						"node":9,
						"path":"translation"
					}
				},
				{
					"sampler":28,
					"target":{
						"node":9,
						"path":"rotation"
					}
				},
				{
					"sampler":29,
					"target":{
						"node":9,
						"path":"scale"
					}
				},
				{
					"sampler":30,
					"target":{
						"node":8,
						"path":"translation"
					}
				},
				{
					"sampler":31,
					"target":{
						"node":8,
						"path":"rotation"
					}
				},
				{
					"sampler":32,
					"target":{
						"node":8,
						"path":"scale"
					}
				},
				{
					"sampler":33,
					"target":{
						"node":7,
						"path":"translation"
					}
				},
				{
					"sampler":34,
					"target":{
						"node":7,
						"path":"rotation"
					}
				},
				{
					"sampler":35,
					"target":{
						"node":7,
						"path":"scale"
					}
				},
				{
					"sampler":36,
					"target":{
						"node":6,
						"path":"translation"
					}
				},
				{
					"sampler":37,
					"target":{
						"node":6,
						"path":"rotation"
					}
				},
				{
					"sampler":38,
					"target":{
						"node":6,
						"path":"scale"
					}
				},
				{
					"sampler":39,
					"target":{
						"node":5,
						"path":"translation"
					}
				},
				{
					"sampler":40,
					"target":{
						"node":5,
						"path":"rotation"
					}
				},
				{
					"sampler":41,
					"target":{
						"node":5,
						"path":"scale"
					}
				},
				{
					"sampler":42,
					"target":{
						"node":16,
						"path":"translation"
					}
				},
				{
					"sampler":43,
					"target":{
						"node":16,
						"path":"rotation"
					}
				},
				{
					"sampler":44,
					"target":{
						"node":16,
						"path":"scale"
					}
				},
				{
					"sampler":45,
					"target":{
						"node":15,
						"path":"translation"
					}
				},
				{
					"sampler":46,
					"target":{
						"node":15,
						"path":"rotation"
					}
				},
				{
					"sampler":47,
					"target":{
						"node":15,
						"path":"scale"
					}
				},
				{
					"sampler":48,
					"target":{
						"node":14,
						"path":"translation"
					}
				},
				{
					"sampler":49,
					"target":{
						"node":14,
						"path":"rotation"
					}
				},
				{
					"sampler":50,
					"target":{
						"node":14,
						"path":"scale"
					}
				},
				{
					"sampler":51,
					"target":{
						"node":13,
						"path":"translation"
					}
				},
				{
					"sampler":52,
					"target":{
						"node":13,
						"path":"rotation"
					}
				},
				{
					"sampler":53,
					"target":{
						"node":13,
						"path":"scale"
					}
				},
				{
					"sampler":54,
					"target":{
						"node":12,
						"path":"translation"
					}
				},
				{
					"sampler":55,
					"target":{
						"node":12,
						"path":"rotation"
					}
				},
				{
					"sampler":56,
					"target":{
						"node":12,
						"path":"scale"
					}
				},
				{
					"sampler":57,
					"target":{
						"node":11,
						"path":"translation"
					}
				},
				{
					"sampler":58,
					"target":{
						"node":11,
						"path":"rotation"
					}
				},
				{
					"sampler":59,
					"target":{
						"node":11,
						"path":"scale"
					}
				},
				{
					"sampler":60,
					"target":{
						"node":23,
						"path":"weights"
					}
				}
			],
			"name":"Idle",
			"samplers":[
				{
					"input":148,
					"interpolation":"STEP",
					"output":40
				},
				{
					"input":148,
					"interpolation":"STEP",
					"output":41
				},
				{
					"input":148,
					"interpolation":"STEP",
					"output":42
				},
				{
					"input":148,
					"interpolation":"STEP",
					"output":43
				},
				{
					"input":146,
					"interpolation":"LINEAR",
					"output":203
				},
				{
					"input":148,
					"interpolation":"STEP",
					"output":204
				},
				{
					"input":148,
					"interpolation":"STEP",
					"output":205
				},
				{
					"input":148,
					"interpolation":"LINEAR",
					"output":206
				},
				{
					"input":148,
					"interpolation":"STEP",
					"output":207
				},
				{
					"input":148,
					"interpolation":"STEP",
					"output":208
				},
				{
					"input":148,
					"interpolation":"STEP",
					"output":209
				},
				{
					"input":148,
					"interpolation":"STEP",
					"output":210
				},
				{
					"input":148,
					"interpolation":"STEP",
					"output":211
				},
				{
					"input":148,
					"interpolation":"LINEAR",
					"output":212
				},
				{
					"input":148,
					"interpolation":"STEP",
					"output":213
				},
				{
					"input":148,
					"interpolation":"STEP",
					"output":214
				},
				{
					"input":148,
					"interpolation":"STEP",
					"output":215
				},
				{
					"input":148,
					"interpolation":"STEP",
					"output":216
				},
				{
					"input":148,
					"interpolation":"STEP",
					"output":217
				},
				{
					"input":146,
					"interpolation":"LINEAR",
					"output":218
				},
				{
					"input":148,
					"interpolation":"STEP",
					"output":219
				},
				{
					"input":148,
					"interpolation":"STEP",
					"output":220
				},
				{
					"input":148,
					"interpolation":"STEP",
					"output":221
				},
				{
					"input":148,
					"interpolation":"STEP",
					"output":222
				},
				{
					"input":148,
					"interpolation":"STEP",
					"output":223
				},
				{
					"input":146,
					"interpolation":"LINEAR",
					"output":224
				},
				{
					"input":148,
					"interpolation":"STEP",
					"output":225
				},
				{
					"input":148,
					"interpolation":"STEP",
					"output":226
				},
				{
					"input":146,
					"interpolation":"LINEAR",
					"output":227
				},
				{
					"input":148,
					"interpolation":"STEP",
					"output":228
				},
				{
					"input":148,
					"interpolation":"STEP",
					"output":229
				},
				{
					"input":146,
					"interpolation":"LINEAR",
					"output":230
				},
				{
					"input":148,
					"interpolation":"STEP",
					"output":231
				},
				{
					"input":148,
					"interpolation":"STEP",
					"output":232
				},
				{
					"input":146,
					"interpolation":"LINEAR",
					"output":233
				},
				{
					"input":148,
					"interpolation":"STEP",
					"output":234
				},
				{
					"input":148,
					"interpolation":"STEP",
					"output":235
				},
				{
					"input":146,
					"interpolation":"LINEAR",
					"output":236
				},
				{
					"input":148,
					"interpolation":"STEP",
					"output":237
				},
				{
					"input":148,
					"interpolation":"STEP",
					"output":238
				},
				{
					"input":148,
					"interpolation":"STEP",
					"output":239
				},
				{
					"input":148,
					"interpolation":"STEP",
					"output":240
				},
				{
					"input":148,
					"interpolation":"STEP",
					"output":241
				},
				{
					"input":146,
					"interpolation":"LINEAR",
					"output":242
				},
				{
					"input":148,
					"interpolation":"STEP",
					"output":243
				},
				{
					"input":148,
					"interpolation":"STEP",
					"output":244
				},
				{
					"input":146,
					"interpolation":"LINEAR",
					"output":245
				},
				{
					"input":148,
					"interpolation":"STEP",
					"output":246
				},
				{
					"input":148,
					"interpolation":"STEP",
					"output":247
				},
				{
					"input":146,
					"interpolation":"LINEAR",
					"output":248
				},
				{
					"input":148,
					"interpolation":"STEP",
					"output":249
				},
				{
					"input":148,
					"interpolation":"STEP",
					"output":250
				},
				{
					"input":146,
					"interpolation":"LINEAR",
					"output":251
				},
				{
					"input":148,
					"interpolation":"STEP",
					"output":252
				},
				{
					"input":148,
					"interpolation":"STEP",
					"output":253
				},
				{
					"input":146,
					"interpolation":"LINEAR",
					"output":254
				},
				{
					"input":148,
					"interpolation":"STEP",
					"output":255
				},
				{
					"input":148,
					"interpolation":"STEP",
					"output":256
				},
				{
					"input":148,
					"interpolation":"STEP",
					"output":99
				},
				{
					"input":148,
					"interpolation":"STEP",
					"output":257
				},
				{
					"input":146,
					"interpolation":"LINEAR",
					"output":258
				}
			]
		}
	],
	"materials":[
		{
			"name":"M_Bat",
			"pbrMetallicRoughness":{
				"baseColorTexture":{
					"index":0
				}
			}
		}
	],
	"meshes":[
		{
			"extras":{
				"targetNames":[
					"eye_blendshape.down_eyes"
				]
			},
			"name":"eyes",
			"primitives":[
				{
					"attributes":{
						"POSITION":0,
						"NORMAL":1,
						"TEXCOORD_0":2,
						"JOINTS_0":3,
						"WEIGHTS_0":4
					},
					"indices":5,
					"material":0,
					"targets":[
						{
							"POSITION":6,
							"NORMAL":7
						}
					]
				}
			],
			"weights":[
				0
			]
		},
		{
			"name":"fluffy",
			"primitives":[
				{
					"attributes":{
						"POSITION":9,
						"NORMAL":10,
						"TEXCOORD_0":11,
						"JOINTS_0":12,
						"WEIGHTS_0":13
					},
					"indices":14,
					"material":0
				}
			]
		},
		{
			"name":"foot",
			"primitives":[
				{
					"attributes":{
						"POSITION":15,
						"NORMAL":16,
						"TEXCOORD_0":17,
						"JOINTS_0":18,
						"WEIGHTS_0":19
					},
					"indices":20,
					"material":0
				}
			]
		},
		{
			"extras":{
				"targetNames":[
					"head_blendShape.bite_open",
					"head_blendShape.bite_close",
					"head_blendShape.down_mouse"
				]
			},
			"name":"head",
			"primitives":[
				{
					"attributes":{
						"POSITION":21,
						"NORMAL":22,
						"TEXCOORD_0":23,
						"JOINTS_0":24,
						"WEIGHTS_0":25
					},
					"indices":26,
					"material":0,
					"targets":[
						{
							"POSITION":27,
							"NORMAL":28
						},
						{
							"POSITION":29,
							"NORMAL":30
						},
						{
							"POSITION":31,
							"NORMAL":32
						}
					]
				}
			],
			"weights":[
				0,
				0,
				0
			]
		},
		{
			"name":"wing",
			"primitives":[
				{
					"attributes":{
						"POSITION":33,
						"NORMAL":34,
						"TEXCOORD_0":35,
						"JOINTS_0":36,
						"WEIGHTS_0":37
					},
					"indices":38,
					"material":0
				}
			]
		}
	],
	"textures":[
		{
			"sampler":0,
			"source":0
		}
	],
	"images":[
		{
			"mimeType":"image/png",
			"name":"T_Bat_C",
			"uri":"T_Bat_C.png"
		}
	],
	"skins":[
		{
			"inverseBindMatrices":8,
			"joints":[
				19,
				18,
				1,
				0,
				3,
				2,
				4,
				17,
				10,
				9,
				8,
				7,
				6,
				5,
				16,
				15,
				14,
				13,
				12,
				11
			],
			"name":"Bat"
		}
	],
	"accessors":[
		{
			"bufferView":0,
			"componentType":5126,
			"count":146,
			"max":[
				0.2314188927412033,
				0.19466835260391235,
				0.07438850402832031
			],
			"min":[
				0.174569234251976,
				0.13862350583076477,
				-0.07438850402832031
			],
			"type":"VEC3"
		},
		{
			"bufferView":1,
			"componentType":5126,
			"count":146,
			"type":"VEC3"
		},
		{
			"bufferView":2,
			"componentType":5126,
			"count":146,
			"type":"VEC2"
		},
		{
			"bufferView":3,
			"componentType":5121,
			"count":146,
			"type":"VEC4"
		},
		{
			"bufferView":4,
			"componentType":5126,
			"count":146,
			"type":"VEC4"
		},
		{
			"bufferView":5,
			"componentType":5123,
			"count":456,
			"type":"SCALAR"
		},
		{
			"bufferView":6,
			"componentType":5126,
			"count":146,
			"max":[
				0.024821743369102478,
				0.031950369477272034,
				7.450580596923828e-09
			],
			"min":[
				-0.029000848531723022,
				-0.0318375825881958,
				-7.450580596923828e-09
			],
			"type":"VEC3"
		},
		{
			"componentType":5126,
			"count":146,
			"sparse":{
				"count":48,
				"indices":{
					"bufferView":7,
					"componentType":5121
				},
				"values":{
					"bufferView":8
				}
			},
			"type":"VEC3"
		},
		{
			"bufferView":9,
			"componentType":5126,
			"count":20,
			"type":"MAT4"
		},
		{
			"bufferView":10,
			"componentType":5126,
			"count":746,
			"max":[
				0.24954839050769806,
				0.10582589358091354,
				0.13607501983642578
			],
			"min":[
				-0.0023932282347232103,
				-0.12732219696044922,
				-0.1376224309206009
			],
			"type":"VEC3"
		},
		{
			"bufferView":11,
			"componentType":5126,
			"count":746,
			"type":"VEC3"
		},
		{
			"bufferView":12,
			"componentType":5126,
			"count":746,
			"type":"VEC2"
		},
		{
			"bufferView":13,
			"componentType":5121,
			"count":746,
			"type":"VEC4"
		},
		{
			"bufferView":14,
			"componentType":5126,
			"count":746,
			"type":"VEC4"
		},
		{
			"bufferView":15,
			"componentType":5123,
			"count":4272,
			"type":"SCALAR"
		},
		{
			"bufferView":16,
			"componentType":5126,
			"count":620,
			"max":[
				0.03582003340125084,
				0.06385233998298645,
				0.10833846032619476
			],
			"min":[
				-0.019354606047272682,
				-0.052926890552043915,
				-0.10833846032619476
			],
			"type":"VEC3"
		},
		{
			"bufferView":17,
			"componentType":5126,
			"count":620,
			"type":"VEC3"
		},
		{
			"bufferView":18,
			"componentType":5126,
			"count":620,
			"type":"VEC2"
		},
		{
			"bufferView":19,
			"componentType":5121,
			"count":620,
			"type":"VEC4"
		},
		{
			"bufferView":20,
			"componentType":5126,
			"count":620,
			"type":"VEC4"
		},
		{
			"bufferView":21,
			"componentType":5123,
			"count":2664,
			"type":"SCALAR"
		},
		{
			"bufferView":22,
			"componentType":5126,
			"count":1048,
			"max":[
				0.34007135033607483,
				0.20350557565689087,
				0.11529405415058136
			],
			"min":[
				0.05193720757961273,
				-0.013486912474036217,
				-0.11529403924942017
			],
			"type":"VEC3"
		},
		{
			"bufferView":23,
			"componentType":5126,
			"count":1048,
			"type":"VEC3"
		},
		{
			"bufferView":24,
			"componentType":5126,
			"count":1048,
			"type":"VEC2"
		},
		{
			"bufferView":25,
			"componentType":5121,
			"count":1048,
			"type":"VEC4"
		},
		{
			"bufferView":26,
			"componentType":5126,
			"count":1048,
			"type":"VEC4"
		},
		{
			"bufferView":27,
			"componentType":5123,
			"count":5040,
			"type":"SCALAR"
		},
		{
			"componentType":5126,
			"count":1048,
			"max":[
				0.01343485713005066,
				0,
				0.0051574185490608215
			],
			"min":[
				-0.0029312297701835632,
				-0.015988826751708984,
				-0.0051574185490608215
			],
			"sparse":{
				"count":477,
				"indices":{
					"bufferView":28,
					"componentType":5123
				},
				"values":{
					"bufferView":29
				}
			},
			"type":"VEC3"
		},
		{
			"componentType":5126,
			"count":1048,
			"sparse":{
				"count":463,
				"indices":{
					"bufferView":30,
					"componentType":5123
				},
				"values":{
					"bufferView":31
				}
			},
			"type":"VEC3"
		},
		{
			"componentType":5126,
			"count":1048,
			"max":[
				0.06473875045776367,
				0.06380036473274231,
				0.010825920850038528
			],
			"min":[
				-0.02587062120437622,
				0,
				-0.010825924575328827
			],
			"sparse":{
				"count":447,
				"indices":{
					"bufferView":32,
					"componentType":5123
				},
				"values":{
					"bufferView":33
				}
			},
			"type":"VEC3"
		},
		{
			"componentType":5126,
			"count":1048,
			"sparse":{
				"count":449,
				"indices":{
					"bufferView":34,
					"componentType":5123
				},
				"values":{
					"bufferView":35
				}
			},
			"type":"VEC3"
		},
		{
			"componentType":5126,
			"count":1048,
			"max":[
				0.08568675071001053,
				0.07194651663303375,
				0.025614913552999496
			],
			"min":[
				-0.011430934071540833,
				-0.0004952400922775269,
				-0.025614915415644646
			],
			"sparse":{
				"count":458,
				"indices":{
					"bufferView":36,
					"componentType":5123
				},
				"values":{
					"bufferView":37
				}
			},
			"type":"VEC3"
		},
		{
			"componentType":5126,
			"count":1048,
			"sparse":{
				"count":460,
				"indices":{
					"bufferView":38,
					"componentType":5123
				},
				"values":{
					"bufferView":39
				}
			},
			"type":"VEC3"
		},
		{
			"bufferView":40,
			"componentType":5126,
			"count":590,
			"max":[
				0.34576496481895447,
				0.04946348816156387,
				0.37895891070365906
			],
			"min":[
				-0.038023725152015686,
				-0.10548371076583862,
				-0.37672144174575806
			],
			"type":"VEC3"
		},
		{
			"bufferView":41,
			"componentType":5126,
			"count":590,
			"type":"VEC3"
		},
		{
			"bufferView":42,
			"componentType":5126,
			"count":590,
			"type":"VEC2"
		},
		{
			"bufferView":43,
			"componentType":5121,
			"count":590,
			"type":"VEC4"
		},
		{
			"bufferView":44,
			"componentType":5126,
			"count":590,
			"type":"VEC4"
		},
		{
			"bufferView":45,
			"componentType":5123,
			"count":2544,
			"type":"SCALAR"
		},
		{
			"bufferView":46,
			"componentType":5126,
			"count":2,
			"max":[
				0.5
			],
			"min":[
				0
			],
			"type":"SCALAR"
		},
		{
			"bufferView":47,
			"componentType":5126,
			"count":2,
			"type":"VEC3"
		},
		{
			"bufferView":48,
			"componentType":5126,
			"count":2,
			"type":"VEC4"
		},
		{
			"bufferView":49,
			"componentType":5126,
			"count":2,
			"type":"VEC3"
		},
		{
			"bufferView":50,
			"componentType":5126,
			"count":2,
			"type":"VEC3"
		},
		{
			"bufferView":51,
			"componentType":5126,
			"count":13,
			"max":[
				0.5
			],
			"min":[
				0
			],
			"type":"SCALAR"
		},
		{
			"bufferView":52,
			"componentType":5126,
			"count":13,
			"type":"VEC4"
		},
		{
			"bufferView":53,
			"componentType":5126,
			"count":2,
			"type":"VEC3"
		},
		{
			"bufferView":54,
			"componentType":5126,
			"count":2,
			"type":"VEC3"
		},
		{
			"bufferView":55,
			"componentType":5126,
			"count":13,
			"type":"VEC4"
		},
		{
			"bufferView":56,
			"componentType":5126,
			"count":2,
			"type":"VEC3"
		},
		{
			"bufferView":57,
			"componentType":5126,
			"count":2,
			"type":"VEC3"
		},
		{
			"bufferView":58,
			"componentType":5126,
			"count":2,
			"type":"VEC4"
		},
		{
			"bufferView":59,
			"componentType":5126,
			"count":2,
			"type":"VEC3"
		},
		{
			"bufferView":60,
			"componentType":5126,
			"count":2,
			"type":"VEC3"
		},
		{
			"bufferView":61,
			"componentType":5126,
			"count":13,
			"type":"VEC4"
		},
		{
			"bufferView":62,
			"componentType":5126,
			"count":2,
			"type":"VEC3"
		},
		{
			"bufferView":63,
			"componentType":5126,
			"count":2,
			"type":"VEC3"
		},
		{
			"bufferView":64,
			"componentType":5126,
			"count":2,
			"type":"VEC4"
		},
		{
			"bufferView":65,
			"componentType":5126,
			"count":2,
			"type":"VEC3"
		},
		{
			"bufferView":66,
			"componentType":5126,
			"count":2,
			"type":"VEC3"
		},
		{
			"bufferView":67,
			"componentType":5126,
			"count":13,
			"type":"VEC4"
		},
		{
			"bufferView":68,
			"componentType":5126,
			"count":2,
			"type":"VEC3"
		},
		{
			"bufferView":69,
			"componentType":5126,
			"count":2,
			"type":"VEC3"
		},
		{
			"bufferView":70,
			"componentType":5126,
			"count":2,
			"type":"VEC4"
		},
		{
			"bufferView":71,
			"componentType":5126,
			"count":2,
			"type":"VEC3"
		},
		{
			"bufferView":72,
			"componentType":5126,
			"count":2,
			"type":"VEC3"
		},
		{
			"bufferView":73,
			"componentType":5126,
			"count":13,
			"type":"VEC4"
		},
		{
			"bufferView":74,
			"componentType":5126,
			"count":2,
			"type":"VEC3"
		},
		{
			"bufferView":75,
			"componentType":5126,
			"count":2,
			"type":"VEC3"
		},
		{
			"bufferView":76,
			"componentType":5126,
			"count":13,
			"type":"VEC4"
		},
		{
			"bufferView":77,
			"componentType":5126,
			"count":2,
			"type":"VEC3"
		},
		{
			"bufferView":78,
			"componentType":5126,
			"count":2,
			"type":"VEC3"
		},
		{
			"bufferView":79,
			"componentType":5126,
			"count":13,
			"type":"VEC4"
		},
		{
			"bufferView":80,
			"componentType":5126,
			"count":2,
			"type":"VEC3"
		},
		{
			"bufferView":81,
			"componentType":5126,
			"count":2,
			"type":"VEC3"
		},
		{
			"bufferView":82,
			"componentType":5126,
			"count":13,
			"type":"VEC4"
		},
		{
			"bufferView":83,
			"componentType":5126,
			"count":2,
			"type":"VEC3"
		},
		{
			"bufferView":84,
			"componentType":5126,
			"count":2,
			"type":"VEC3"
		},
		{
			"bufferView":85,
			"componentType":5126,
			"count":13,
			"type":"VEC4"
		},
		{
			"bufferView":86,
			"componentType":5126,
			"count":2,
			"type":"VEC3"
		},
		{
			"bufferView":87,
			"componentType":5126,
			"count":2,
			"type":"VEC3"
		},
		{
			"bufferView":88,
			"componentType":5126,
			"count":2,
			"type":"VEC4"
		},
		{
			"bufferView":89,
			"componentType":5126,
			"count":2,
			"type":"VEC3"
		},
		{
			"bufferView":90,
			"componentType":5126,
			"count":2,
			"type":"VEC3"
		},
		{
			"bufferView":91,
			"componentType":5126,
			"count":13,
			"type":"VEC4"
		},
		{
			"bufferView":92,
			"componentType":5126,
			"count":2,
			"type":"VEC3"
		},
		{
			"bufferView":93,
			"componentType":5126,
			"count":2,
			"type":"VEC3"
		},
		{
			"bufferView":94,
			"componentType":5126,
			"count":13,
			"type":"VEC4"
		},
		{
			"bufferView":95,
			"componentType":5126,
			"count":2,
			"type":"VEC3"
		},
		{
			"bufferView":96,
			"componentType":5126,
			"count":2,
			"type":"VEC3"
		},
		{
			"bufferView":97,
			"componentType":5126,
			"count":13,
			"type":"VEC4"
		},
		{
			"bufferView":98,
			"componentType":5126,
			"count":2,
			"type":"VEC3"
		},
		{
			"bufferView":99,
			"componentType":5126,
			"count":2,
			"type":"VEC3"
		},
		{
			"bufferView":100,
			"componentType":5126,
			"count":13,
			"type":"VEC4"
		},
		{
			"bufferView":101,
			"componentType":5126,
			"count":2,
			"type":"VEC3"
		},
		{
			"bufferView":102,
			"componentType":5126,
			"count":2,
			"type":"VEC3"
		},
		{
			"bufferView":103,
			"componentType":5126,
			"count":13,
			"type":"VEC4"
		},
		{
			"bufferView":104,
			"componentType":5126,
			"count":2,
			"type":"VEC3"
		},
		{
			"bufferView":105,
			"componentType":5126,
			"count":2,
			"type":"VEC3"
		},
		{
			"bufferView":106,
			"componentType":5126,
			"count":2,
			"type":"VEC4"
		},
		{
			"bufferView":107,
			"componentType":5126,
			"count":2,
			"type":"VEC3"
		},
		{
			"bufferView":108,
			"componentType":5126,
			"count":39,
			"type":"SCALAR"
		},
		{
			"bufferView":109,
			"componentType":5126,
			"count":2,
			"max":[
				0.625
			],
			"min":[
				0
			],
			"type":"SCALAR"
		},
		{
			"bufferView":110,
			"componentType":5126,
			"count":16,
			"max":[
				0.625
			],
			"min":[
				0
			],
			"type":"SCALAR"
		},
		{
			"bufferView":111,
			"componentType":5126,
			"count":16,
			"type":"VEC4"
		},
		{
			"bufferView":112,
			"componentType":5126,
			"count":16,
			"type":"VEC4"
		},
		{
			"bufferView":113,
			"componentType":5126,
			"count":2,
			"type":"VEC3"
		},
		{
			"bufferView":114,
			"componentType":5126,
			"count":2,
			"type":"VEC3"
		},
		{
			"bufferView":115,
			"componentType":5126,
			"count":2,
			"type":"VEC3"
		},
		{
			"bufferView":116,
			"componentType":5126,
			"count":16,
			"type":"VEC4"
		},
		{
			"bufferView":117,
			"componentType":5126,
			"count":2,
			"type":"VEC3"
		},
		{
			"bufferView":118,
			"componentType":5126,
			"count":2,
			"type":"VEC3"
		},
		{
			"bufferView":119,
			"componentType":5126,
			"count":16,
			"type":"VEC4"
		},
		{
			"bufferView":120,
			"componentType":5126,
			"count":16,
			"type":"VEC4"
		},
		{
			"bufferView":121,
			"componentType":5126,
			"count":2,
			"type":"VEC3"
		},
		{
			"bufferView":122,
			"componentType":5126,
			"count":2,
			"type":"VEC3"
		},
		{
			"bufferView":123,
			"componentType":5126,
			"count":16,
			"type":"VEC4"
		},
		{
			"bufferView":124,
			"componentType":5126,
			"count":2,
			"type":"VEC3"
		},
		{
			"bufferView":125,
			"componentType":5126,
			"count":2,
			"type":"VEC3"
		},
		{
			"bufferView":126,
			"componentType":5126,
			"count":16,
			"type":"VEC4"
		},
		{
			"bufferView":127,
			"componentType":5126,
			"count":2,
			"type":"VEC3"
		},
		{
			"bufferView":128,
			"componentType":5126,
			"count":16,
			"type":"VEC4"
		},
		{
			"bufferView":129,
			"componentType":5126,
			"count":2,
			"type":"VEC3"
		},
		{
			"bufferView":130,
			"componentType":5126,
			"count":16,
			"type":"VEC4"
		},
		{
			"bufferView":131,
			"componentType":5126,
			"count":2,
			"type":"VEC3"
		},
		{
			"bufferView":132,
			"componentType":5126,
			"count":2,
			"type":"VEC3"
		},
		{
			"bufferView":133,
			"componentType":5126,
			"count":2,
			"type":"VEC4"
		},
		{
			"bufferView":134,
			"componentType":5126,
			"count":2,
			"type":"VEC3"
		},
		{
			"bufferView":135,
			"componentType":5126,
			"count":16,
			"type":"VEC4"
		},
		{
			"bufferView":136,
			"componentType":5126,
			"count":2,
			"type":"VEC3"
		},
		{
			"bufferView":137,
			"componentType":5126,
			"count":2,
			"type":"VEC3"
		},
		{
			"bufferView":138,
			"componentType":5126,
			"count":16,
			"type":"VEC4"
		},
		{
			"bufferView":139,
			"componentType":5126,
			"count":2,
			"type":"VEC3"
		},
		{
			"bufferView":140,
			"componentType":5126,
			"count":2,
			"type":"VEC3"
		},
		{
			"bufferView":141,
			"componentType":5126,
			"count":16,
			"type":"VEC4"
		},
		{
			"bufferView":142,
			"componentType":5126,
			"count":2,
			"type":"VEC3"
		},
		{
			"bufferView":143,
			"componentType":5126,
			"count":2,
			"type":"VEC3"
		},
		{
			"bufferView":144,
			"componentType":5126,
			"count":16,
			"type":"VEC4"
		},
		{
			"bufferView":145,
			"componentType":5126,
			"count":2,
			"type":"VEC3"
		},
		{
			"bufferView":146,
			"componentType":5126,
			"count":2,
			"type":"VEC3"
		},
		{
			"bufferView":147,
			"componentType":5126,
			"count":16,
			"type":"VEC4"
		},
		{
			"bufferView":148,
			"componentType":5126,
			"count":2,
			"type":"VEC3"
		},
		{
			"bufferView":149,
			"componentType":5126,
			"count":2,
			"type":"VEC3"
		},
		{
			"bufferView":150,
			"componentType":5126,
			"count":2,
			"type":"VEC4"
		},
		{
			"bufferView":151,
			"componentType":5126,
			"count":2,
			"type":"VEC3"
		},
		{
			"bufferView":152,
			"componentType":5126,
			"count":48,
			"type":"SCALAR"
		},
		{
			"bufferView":153,
			"componentType":5126,
			"count":73,
			"max":[
				3
			],
			"min":[
				0
			],
			"type":"SCALAR"
		},
		{
			"bufferView":154,
			"componentType":5126,
			"count":73,
			"type":"VEC3"
		},
		{
			"bufferView":155,
			"componentType":5126,
			"count":2,
			"max":[
				3
			],
			"min":[
				0
			],
			"type":"SCALAR"
		},
		{
			"bufferView":156,
			"componentType":5126,
			"count":73,
			"type":"VEC3"
		},
		{
			"bufferView":157,
			"componentType":5126,
			"count":73,
			"type":"VEC4"
		},
		{
			"bufferView":158,
			"componentType":5126,
			"count":2,
			"type":"VEC3"
		},
		{
			"bufferView":159,
			"componentType":5126,
			"count":2,
			"type":"VEC3"
		},
		{
			"bufferView":160,
			"componentType":5126,
			"count":73,
			"type":"VEC4"
		},
		{
			"bufferView":161,
			"componentType":5126,
			"count":2,
			"type":"VEC3"
		},
		{
			"bufferView":162,
			"componentType":5126,
			"count":2,
			"type":"VEC3"
		},
		{
			"bufferView":163,
			"componentType":5126,
			"count":2,
			"type":"VEC3"
		},
		{
			"bufferView":164,
			"componentType":5126,
			"count":2,
			"type":"VEC3"
		},
		{
			"bufferView":165,
			"componentType":5126,
			"count":73,
			"type":"VEC4"
		},
		{
			"bufferView":166,
			"componentType":5126,
			"count":2,
			"type":"VEC3"
		},
		{
			"bufferView":167,
			"componentType":5126,
			"count":2,
			"type":"VEC3"
		},
		{
			"bufferView":168,
			"componentType":5126,
			"count":2,
			"type":"VEC4"
		},
		{
			"bufferView":169,
			"componentType":5126,
			"count":2,
			"type":"VEC3"
		},
		{
			"bufferView":170,
			"componentType":5126,
			"count":2,
			"type":"VEC3"
		},
		{
			"bufferView":171,
			"componentType":5126,
			"count":73,
			"type":"VEC4"
		},
		{
			"bufferView":172,
			"componentType":5126,
			"count":2,
			"type":"VEC3"
		},
		{
			"bufferView":173,
			"componentType":5126,
			"count":2,
			"type":"VEC4"
		},
		{
			"bufferView":174,
			"componentType":5126,
			"count":2,
			"type":"VEC3"
		},
		{
			"bufferView":175,
			"componentType":5126,
			"count":2,
			"type":"VEC3"
		},
		{
			"bufferView":176,
			"componentType":5126,
			"count":73,
			"type":"VEC4"
		},
		{
			"bufferView":177,
			"componentType":5126,
			"count":2,
			"type":"VEC3"
		},
		{
			"bufferView":178,
			"componentType":5126,
			"count":2,
			"type":"VEC3"
		},
		{
			"bufferView":179,
			"componentType":5126,
			"count":73,
			"type":"VEC4"
		},
		{
			"bufferView":180,
			"componentType":5126,
			"count":2,
			"type":"VEC3"
		},
		{
			"bufferView":181,
			"componentType":5126,
			"count":2,
			"type":"VEC3"
		},
		{
			"bufferView":182,
			"componentType":5126,
			"count":73,
			"type":"VEC4"
		},
		{
			"bufferView":183,
			"componentType":5126,
			"count":2,
			"type":"VEC3"
		},
		{
			"bufferView":184,
			"componentType":5126,
			"count":2,
			"type":"VEC3"
		},
		{
			"bufferView":185,
			"componentType":5126,
			"count":73,
			"type":"VEC4"
		},
		{
			"bufferView":186,
			"componentType":5126,
			"count":2,
			"type":"VEC3"
		},
		{
			"bufferView":187,
			"componentType":5126,
			"count":2,
			"type":"VEC3"
		},
		{
			"bufferView":188,
			"componentType":5126,
			"count":73,
			"type":"VEC4"
		},
		{
			"bufferView":189,
			"componentType":5126,
			"count":2,
			"type":"VEC3"
		},
		{
			"bufferView":190,
			"componentType":5126,
			"count":2,
			"type":"VEC3"
		},
		{
			"bufferView":191,
			"componentType":5126,
			"count":2,
			"type":"VEC3"
		},
		{
			"bufferView":192,
			"componentType":5126,
			"count":2,
			"type":"VEC3"
		},
		{
			"bufferView":193,
			"componentType":5126,
			"count":73,
			"type":"VEC4"
		},
		{
			"bufferView":194,
			"componentType":5126,
			"count":2,
			"type":"VEC3"
		},
		{
			"bufferView":195,
			"componentType":5126,
			"count":73,
			"type":"VEC4"
		},
		{
			"bufferView":196,
			"componentType":5126,
			"count":2,
			"type":"VEC3"
		},
		{
			"bufferView":197,
			"componentType":5126,
			"count":2,
			"type":"VEC3"
		},
		{
			"bufferView":198,
			"componentType":5126,
			"count":73,
			"type":"VEC4"
		},
		{
			"bufferView":199,
			"componentType":5126,
			"count":2,
			"type":"VEC3"
		},
		{
			"bufferView":200,
			"componentType":5126,
			"count":2,
			"type":"VEC3"
		},
		{
			"bufferView":201,
			"componentType":5126,
			"count":73,
			"type":"VEC4"
		},
		{
			"bufferView":202,
			"componentType":5126,
			"count":2,
			"type":"VEC3"
		},
		{
			"bufferView":203,
			"componentType":5126,
			"count":2,
			"type":"VEC3"
		},
		{
			"bufferView":204,
			"componentType":5126,
			"count":73,
			"type":"VEC4"
		},
		{
			"bufferView":205,
			"componentType":5126,
			"count":2,
			"type":"VEC3"
		},
		{
			"bufferView":206,
			"componentType":5126,
			"count":2,
			"type":"VEC3"
		},
		{
			"bufferView":207,
			"componentType":5126,
			"count":2,
			"type":"VEC3"
		},
		{
			"bufferView":208,
			"componentType":5126,
			"count":2,
			"type":"SCALAR"
		},
		{
			"bufferView":209,
			"componentType":5126,
			"count":6,
			"type":"SCALAR"
		},
		{
			"bufferView":210,
			"componentType":5126,
			"count":73,
			"type":"VEC4"
		},
		{
			"bufferView":211,
			"componentType":5126,
			"count":2,
			"type":"VEC3"
		},
		{
			"bufferView":212,
			"componentType":5126,
			"count":2,
			"type":"VEC3"
		},
		{
			"bufferView":213,
			"componentType":5126,
			"count":2,
			"type":"VEC4"
		},
		{
			"bufferView":214,
			"componentType":5126,
			"count":2,
			"type":"VEC3"
		},
		{
			"bufferView":215,
			"componentType":5126,
			"count":2,
			"type":"VEC3"
		},
		{
			"bufferView":216,
			"componentType":5126,
			"count":2,
			"type":"VEC4"
		},
		{
			"bufferView":217,
			"componentType":5126,
			"count":2,
			"type":"VEC3"
		},
		{
			"bufferView":218,
			"componentType":5126,
			"count":2,
			"type":"VEC3"
		},
		{
			"bufferView":219,
			"componentType":5126,
			"count":2,
			"type":"VEC4"
		},
		{
			"bufferView":220,
			"componentType":5126,
			"count":2,
			"type":"VEC3"
		},
		{
			"bufferView":221,
			"componentType":5126,
			"count":2,
			"type":"VEC3"
		},
		{
			"bufferView":222,
			"componentType":5126,
			"count":2,
			"type":"VEC4"
		},
		{
			"bufferView":223,
			"componentType":5126,
			"count":2,
			"type":"VEC3"
		},
		{
			"bufferView":224,
			"componentType":5126,
			"count":2,
			"type":"VEC3"
		},
		{
			"bufferView":225,
			"componentType":5126,
			"count":73,
			"type":"VEC4"
		},
		{
			"bufferView":226,
			"componentType":5126,
			"count":2,
			"type":"VEC3"
		},
		{
			"bufferView":227,
			"componentType":5126,
			"count":2,
			"type":"VEC3"
		},
		{
			"bufferView":228,
			"componentType":5126,
			"count":2,
			"type":"VEC4"
		},
		{
			"bufferView":229,
			"componentType":5126,
			"count":2,
			"type":"VEC3"
		},
		{
			"bufferView":230,
			"componentType":5126,
			"count":2,
			"type":"VEC3"
		},
		{
			"bufferView":231,
			"componentType":5126,
			"count":73,
			"type":"VEC4"
		},
		{
			"bufferView":232,
			"componentType":5126,
			"count":2,
			"type":"VEC3"
		},
		{
			"bufferView":233,
			"componentType":5126,
			"count":2,
			"type":"VEC3"
		},
		{
			"bufferView":234,
			"componentType":5126,
			"count":73,
			"type":"VEC4"
		},
		{
			"bufferView":235,
			"componentType":5126,
			"count":2,
			"type":"VEC3"
		},
		{
			"bufferView":236,
			"componentType":5126,
			"count":2,
			"type":"VEC3"
		},
		{
			"bufferView":237,
			"componentType":5126,
			"count":73,
			"type":"VEC4"
		},
		{
			"bufferView":238,
			"componentType":5126,
			"count":2,
			"type":"VEC3"
		},
		{
			"bufferView":239,
			"componentType":5126,
			"count":2,
			"type":"VEC3"
		},
		{
			"bufferView":240,
			"componentType":5126,
			"count":73,
			"type":"VEC4"
		},
		{
			"bufferView":241,
			"componentType":5126,
			"count":2,
			"type":"VEC3"
		},
		{
			"bufferView":242,
			"componentType":5126,
			"count":2,
			"type":"VEC3"
		},
		{
			"bufferView":243,
			"componentType":5126,
			"count":73,
			"type":"VEC4"
		},
		{
			"bufferView":244,
			"componentType":5126,
			"count":2,
			"type":"VEC3"
		},
		{
			"bufferView":245,
			"componentType":5126,
			"count":2,
			"type":"VEC3"
		},
		{
			"bufferView":246,
			"componentType":5126,
			"count":2,
			"type":"VEC4"
		},
		{
			"bufferView":247,
			"componentType":5126,
			"count":2,
			"type":"VEC3"
		},
		{
			"bufferView":248,
			"componentType":5126,
			"count":2,
			"type":"VEC3"
		},
		{
			"bufferView":249,
			"componentType":5126,
			"count":73,
			"type":"VEC4"
		},
		{
			"bufferView":250,
			"componentType":5126,
			"count":2,
			"type":"VEC3"
		},
		{
			"bufferView":251,
			"componentType":5126,
			"count":2,
			"type":"VEC3"
		},
		{
			"bufferView":252,
			"componentType":5126,
			"count":73,
			"type":"VEC4"
		},
		{
			"bufferView":253,
			"componentType":5126,
			"count":2,
			"type":"VEC3"
		},
		{
			"bufferView":254,
			"componentType":5126,
			"count":2,
			"type":"VEC3"
		},
		{
			"bufferView":255,
			"componentType":5126,
			"count":73,
			"type":"VEC4"
		},
		{
			"bufferView":256,
			"componentType":5126,
			"count":2,
			"type":"VEC3"
		},
		{
			"bufferView":257,
			"componentType":5126,
			"count":2,
			"type":"VEC3"
		},
		{
			"bufferView":258,
			"componentType":5126,
			"count":73,
			"type":"VEC4"
		},
		{
			"bufferView":259,
			"componentType":5126,
			"count":2,
			"type":"VEC3"
		},
		{
			"bufferView":260,
			"componentType":5126,
			"count":2,
			"type":"VEC3"
		},
		{
			"bufferView":261,
			"componentType":5126,
			"count":73,
			"type":"VEC4"
		},
		{
			"bufferView":262,
			"componentType":5126,
			"count":2,
			"type":"VEC3"
		},
		{
			"bufferView":263,
			"componentType":5126,
			"count":2,
			"type":"VEC3"
		},
		{
			"bufferView":264,
			"componentType":5126,
			"count":2,
			"type":"VEC3"
		},
		{
			"bufferView":265,
			"componentType":5126,
			"count":219,
			"type":"SCALAR"
		}
	],
	"bufferViews":[
		{
			"buffer":0,
			"byteLength":1752,
			"byteOffset":0,
			"target":34962
		},
		{
			"buffer":0,
			"byteLength":1752,
			"byteOffset":1752,
			"target":34962
		},
		{
			"buffer":0,
			"byteLength":1168,
			"byteOffset":3504,
			"target":34962
		},
		{
			"buffer":0,
			"byteLength":584,
			"byteOffset":4672,
			"target":34962
		},
		{
			"buffer":0,
			"byteLength":2336,
			"byteOffset":5256,
			"target":34962
		},
		{
			"buffer":0,
			"byteLength":912,
			"byteOffset":7592,
			"target":34963
		},
		{
			"buffer":0,
			"byteLength":1752,
			"byteOffset":8504,
			"target":34962
		},
		{
			"buffer":0,
			"byteLength":48,
			"byteOffset":10256
		},
		{
			"buffer":0,
			"byteLength":576,
			"byteOffset":10304
		},
		{
			"buffer":0,
			"byteLength":1280,
			"byteOffset":10880
		},
		{
			"buffer":0,
			"byteLength":8952,
			"byteOffset":12160,
			"target":34962
		},
		{
			"buffer":0,
			"byteLength":8952,
			"byteOffset":21112,
			"target":34962
		},
		{
			"buffer":0,
			"byteLength":5968,
			"byteOffset":30064,
			"target":34962
		},
		{
			"buffer":0,
			"byteLength":2984,
			"byteOffset":36032,
			"target":34962
		},
		{
			"buffer":0,
			"byteLength":11936,
			"byteOffset":39016,
			"target":34962
		},
		{
			"buffer":0,
			"byteLength":8544,
			"byteOffset":50952,
			"target":34963
		},
		{
			"buffer":0,
			"byteLength":7440,
			"byteOffset":59496,
			"target":34962
		},
		{
			"buffer":0,
			"byteLength":7440,
			"byteOffset":66936,
			"target":34962
		},
		{
			"buffer":0,
			"byteLength":4960,
			"byteOffset":74376,
			"target":34962
		},
		{
			"buffer":0,
			"byteLength":2480,
			"byteOffset":79336,
			"target":34962
		},
		{
			"buffer":0,
			"byteLength":9920,
			"byteOffset":81816,
			"target":34962
		},
		{
			"buffer":0,
			"byteLength":5328,
			"byteOffset":91736,
			"target":34963
		},
		{
			"buffer":0,
			"byteLength":12576,
			"byteOffset":97064,
			"target":34962
		},
		{
			"buffer":0,
			"byteLength":12576,
			"byteOffset":109640,
			"target":34962
		},
		{
			"buffer":0,
			"byteLength":8384,
			"byteOffset":122216,
			"target":34962
		},
		{
			"buffer":0,
			"byteLength":4192,
			"byteOffset":130600,
			"target":34962
		},
		{
			"buffer":0,
			"byteLength":16768,
			"byteOffset":134792,
			"target":34962
		},
		{
			"buffer":0,
			"byteLength":10080,
			"byteOffset":151560,
			"target":34963
		},
		{
			"buffer":0,
			"byteLength":954,
			"byteOffset":161640
		},
		{
			"buffer":0,
			"byteLength":5724,
			"byteOffset":162596
		},
		{
			"buffer":0,
			"byteLength":926,
			"byteOffset":168320
		},
		{
			"buffer":0,
			"byteLength":5556,
			"byteOffset":169248
		},
		{
			"buffer":0,
			"byteLength":894,
			"byteOffset":174804
		},
		{
			"buffer":0,
			"byteLength":5364,
			"byteOffset":175700
		},
		{
			"buffer":0,
			"byteLength":898,
			"byteOffset":181064
		},
		{
			"buffer":0,
			"byteLength":5388,
			"byteOffset":181964
		},
		{
			"buffer":0,
			"byteLength":916,
			"byteOffset":187352
		},
		{
			"buffer":0,
			"byteLength":5496,
			"byteOffset":188268
		},
		{
			"buffer":0,
			"byteLength":920,
			"byteOffset":193764
		},
		{
			"buffer":0,
			"byteLength":5520,
			"byteOffset":194684
		},
		{
			"buffer":0,
			"byteLength":7080,
			"byteOffset":200204,
			"target":34962
		},
		{
			"buffer":0,
			"byteLength":7080,
			"byteOffset":207284,
			"target":34962
		},
		{
			"buffer":0,
			"byteLength":4720,
			"byteOffset":214364,
			"target":34962
		},
		{
			"buffer":0,
			"byteLength":2360,
			"byteOffset":219084,
			"target":34962
		},
		{
			"buffer":0,
			"byteLength":9440,
			"byteOffset":221444,
			"target":34962
		},
		{
			"buffer":0,
			"byteLength":5088,
			"byteOffset":230884,
			"target":34963
		},
		{
			"buffer":0,
			"byteLength":8,
			"byteOffset":235972
		},
		{
			"buffer":0,
			"byteLength":24,
			"byteOffset":235980
		},
		{
			"buffer":0,
			"byteLength":32,
			"byteOffset":236004
		},
		{
			"buffer":0,
			"byteLength":24,
			"byteOffset":236036
		},
		{
			"buffer":0,
			"byteLength":24,
			"byteOffset":236060
		},
		{
			"buffer":0,
			"byteLength":52,
			"byteOffset":236084
		},
		{
			"buffer":0,
			"byteLength":208,
			"byteOffset":236136
		},
		{
			"buffer":0,
			"byteLength":24,
			"byteOffset":236344
		},
		{
			"buffer":0,
			"byteLength":24,
			"byteOffset":236368
		},
		{
			"buffer":0,
			"byteLength":208,
			"byteOffset":236392
		},
		{
			"buffer":0,
			"byteLength":24,
			"byteOffset":236600
		},
		{
			"buffer":0,
			"byteLength":24,
			"byteOffset":236624
		},
		{
			"buffer":0,
			"byteLength":32,
			"byteOffset":236648
		},
		{
			"buffer":0,
			"byteLength":24,
			"byteOffset":236680
		},
		{
			"buffer":0,
			"byteLength":24,
			"byteOffset":236704
		},
		{
			"buffer":0,
			"byteLength":208,
			"byteOffset":236728
		},
		{
			"buffer":0,
			"byteLength":24,
			"byteOffset":236936
		},
		{
			"buffer":0,
			"byteLength":24,
			"byteOffset":236960
		},
		{
			"buffer":0,
			"byteLength":32,
			"byteOffset":236984
		},
		{
			"buffer":0,
			"byteLength":24,
			"byteOffset":237016
		},
		{
			"buffer":0,
			"byteLength":24,
			"byteOffset":237040
		},
		{
			"buffer":0,
			"byteLength":208,
			"byteOffset":237064
		},
		{
			"buffer":0,
			"byteLength":24,
			"byteOffset":237272
		},
		{
			"buffer":0,
			"byteLength":24,
			"byteOffset":237296
		},
		{
			"buffer":0,
			"byteLength":32,
			"byteOffset":237320
		},
		{
			"buffer":0,
			"byteLength":24,
			"byteOffset":237352
		},
		{
			"buffer":0,
			"byteLength":24,
			"byteOffset":237376
		},
		{
			"buffer":0,
			"byteLength":208,
			"byteOffset":237400
		},
		{
			"buffer":0,
			"byteLength":24,
			"byteOffset":237608
		},
		{
			"buffer":0,
			"byteLength":24,
			"byteOffset":237632
		},
		{
			"buffer":0,
			"byteLength":208,
			"byteOffset":237656
		},
		{
			"buffer":0,
			"byteLength":24,
			"byteOffset":237864
		},
		{
			"buffer":0,
			"byteLength":24,
			"byteOffset":237888
		},
		{
			"buffer":0,
			"byteLength":208,
			"byteOffset":237912
		},
		{
			"buffer":0,
			"byteLength":24,
			"byteOffset":238120
		},
		{
			"buffer":0,
			"byteLength":24,
			"byteOffset":238144
		},
		{
			"buffer":0,
			"byteLength":208,
			"byteOffset":238168
		},
		{
			"buffer":0,
			"byteLength":24,
			"byteOffset":238376
		},
		{
			"buffer":0,
			"byteLength":24,
			"byteOffset":238400
		},
		{
			"buffer":0,
			"byteLength":208,
			"byteOffset":238424
		},
		{
			"buffer":0,
			"byteLength":24,
			"byteOffset":238632
		},
		{
			"buffer":0,
			"byteLength":24,
			"byteOffset":238656
		},
		{
			"buffer":0,
			"byteLength":32,
			"byteOffset":238680
		},
		{
			"buffer":0,
			"byteLength":24,
			"byteOffset":238712
		},
		{
			"buffer":0,
			"byteLength":24,
			"byteOffset":238736
		},
		{
			"buffer":0,
			"byteLength":208,
			"byteOffset":238760
		},
		{
			"buffer":0,
			"byteLength":24,
			"byteOffset":238968
		},
		{
			"buffer":0,
			"byteLength":24,
			"byteOffset":238992
		},
		{
			"buffer":0,
			"byteLength":208,
			"byteOffset":239016
		},
		{
			"buffer":0,
			"byteLength":24,
			"byteOffset":239224
		},
		{
			"buffer":0,
			"byteLength":24,
			"byteOffset":239248
		},
		{
			"buffer":0,
			"byteLength":208,
			"byteOffset":239272
		},
		{
			"buffer":0,
			"byteLength":24,
			"byteOffset":239480
		},
		{
			"buffer":0,
			"byteLength":24,
			"byteOffset":239504
		},
		{
			"buffer":0,
			"byteLength":208,
			"byteOffset":239528
		},
		{
			"buffer":0,
			"byteLength":24,
			"byteOffset":239736
		},
		{
			"buffer":0,
			"byteLength":24,
			"byteOffset":239760
		},
		{
			"buffer":0,
			"byteLength":208,
			"byteOffset":239784
		},
		{
			"buffer":0,
			"byteLength":24,
			"byteOffset":239992
		},
		{
			"buffer":0,
			"byteLength":24,
			"byteOffset":240016
		},
		{
			"buffer":0,
			"byteLength":32,
			"byteOffset":240040
		},
		{
			"buffer":0,
			"byteLength":24,
			"byteOffset":240072
		},
		{
			"buffer":0,
			"byteLength":156,
			"byteOffset":240096
		},
		{
			"buffer":0,
			"byteLength":8,
			"byteOffset":240252
		},
		{
			"buffer":0,
			"byteLength":64,
			"byteOffset":240260
		},
		{
			"buffer":0,
			"byteLength":256,
			"byteOffset":240324
		},
		{
			"buffer":0,
			"byteLength":256,
			"byteOffset":240580
		},
		{
			"buffer":0,
			"byteLength":24,
			"byteOffset":240836
		},
		{
			"buffer":0,
			"byteLength":24,
			"byteOffset":240860
		},
		{
			"buffer":0,
			"byteLength":24,
			"byteOffset":240884
		},
		{
			"buffer":0,
			"byteLength":256,
			"byteOffset":240908
		},
		{
			"buffer":0,
			"byteLength":24,
			"byteOffset":241164
		},
		{
			"buffer":0,
			"byteLength":24,
			"byteOffset":241188
		},
		{
			"buffer":0,
			"byteLength":256,
			"byteOffset":241212
		},
		{
			"buffer":0,
			"byteLength":256,
			"byteOffset":241468
		},
		{
			"buffer":0,
			"byteLength":24,
			"byteOffset":241724
		},
		{
			"buffer":0,
			"byteLength":24,
			"byteOffset":241748
		},
		{
			"buffer":0,
			"byteLength":256,
			"byteOffset":241772
		},
		{
			"buffer":0,
			"byteLength":24,
			"byteOffset":242028
		},
		{
			"buffer":0,
			"byteLength":24,
			"byteOffset":242052
		},
		{
			"buffer":0,
			"byteLength":256,
			"byteOffset":242076
		},
		{
			"buffer":0,
			"byteLength":24,
			"byteOffset":242332
		},
		{
			"buffer":0,
			"byteLength":256,
			"byteOffset":242356
		},
		{
			"buffer":0,
			"byteLength":24,
			"byteOffset":242612
		},
		{
			"buffer":0,
			"byteLength":256,
			"byteOffset":242636
		},
		{
			"buffer":0,
			"byteLength":24,
			"byteOffset":242892
		},
		{
			"buffer":0,
			"byteLength":24,
			"byteOffset":242916
		},
		{
			"buffer":0,
			"byteLength":32,
			"byteOffset":242940
		},
		{
			"buffer":0,
			"byteLength":24,
			"byteOffset":242972
		},
		{
			"buffer":0,
			"byteLength":256,
			"byteOffset":242996
		},
		{
			"buffer":0,
			"byteLength":24,
			"byteOffset":243252
		},
		{
			"buffer":0,
			"byteLength":24,
			"byteOffset":243276
		},
		{
			"buffer":0,
			"byteLength":256,
			"byteOffset":243300
		},
		{
			"buffer":0,
			"byteLength":24,
			"byteOffset":243556
		},
		{
			"buffer":0,
			"byteLength":24,
			"byteOffset":243580
		},
		{
			"buffer":0,
			"byteLength":256,
			"byteOffset":243604
		},
		{
			"buffer":0,
			"byteLength":24,
			"byteOffset":243860
		},
		{
			"buffer":0,
			"byteLength":24,
			"byteOffset":243884
		},
		{
			"buffer":0,
			"byteLength":256,
			"byteOffset":243908
		},
		{
			"buffer":0,
			"byteLength":24,
			"byteOffset":244164
		},
		{
			"buffer":0,
			"byteLength":24,
			"byteOffset":244188
		},
		{
			"buffer":0,
			"byteLength":256,
			"byteOffset":244212
		},
		{
			"buffer":0,
			"byteLength":24,
			"byteOffset":244468
		},
		{
			"buffer":0,
			"byteLength":24,
			"byteOffset":244492
		},
		{
			"buffer":0,
			"byteLength":32,
			"byteOffset":244516
		},
		{
			"buffer":0,
			"byteLength":24,
			"byteOffset":244548
		},
		{
			"buffer":0,
			"byteLength":192,
			"byteOffset":244572
		},
		{
			"buffer":0,
			"byteLength":292,
			"byteOffset":244764
		},
		{
			"buffer":0,
			"byteLength":876,
			"byteOffset":245056
		},
		{
			"buffer":0,
			"byteLength":8,
			"byteOffset":245932
		},
		{
			"buffer":0,
			"byteLength":876,
			"byteOffset":245940
		},
		{
			"buffer":0,
			"byteLength":1168,
			"byteOffset":246816
		},
		{
			"buffer":0,
			"byteLength":24,
			"byteOffset":247984
		},
		{
			"buffer":0,
			"byteLength":24,
			"byteOffset":248008
		},
		{
			"buffer":0,
			"byteLength":1168,
			"byteOffset":248032
		},
		{
			"buffer":0,
			"byteLength":24,
			"byteOffset":249200
		},
		{
			"buffer":0,
			"byteLength":24,
			"byteOffset":249224
		},
		{
			"buffer":0,
			"byteLength":24,
			"byteOffset":249248
		},
		{
			"buffer":0,
			"byteLength":24,
			"byteOffset":249272
		},
		{
			"buffer":0,
			"byteLength":1168,
			"byteOffset":249296
		},
		{
			"buffer":0,
			"byteLength":24,
			"byteOffset":250464
		},
		{
			"buffer":0,
			"byteLength":24,
			"byteOffset":250488
		},
		{
			"buffer":0,
			"byteLength":32,
			"byteOffset":250512
		},
		{
			"buffer":0,
			"byteLength":24,
			"byteOffset":250544
		},
		{
			"buffer":0,
			"byteLength":24,
			"byteOffset":250568
		},
		{
			"buffer":0,
			"byteLength":1168,
			"byteOffset":250592
		},
		{
			"buffer":0,
			"byteLength":24,
			"byteOffset":251760
		},
		{
			"buffer":0,
			"byteLength":32,
			"byteOffset":251784
		},
		{
			"buffer":0,
			"byteLength":24,
			"byteOffset":251816
		},
		{
			"buffer":0,
			"byteLength":24,
			"byteOffset":251840
		},
		{
			"buffer":0,
			"byteLength":1168,
			"byteOffset":251864
		},
		{
			"buffer":0,
			"byteLength":24,
			"byteOffset":253032
		},
		{
			"buffer":0,
			"byteLength":24,
			"byteOffset":253056
		},
		{
			"buffer":0,
			"byteLength":1168,
			"byteOffset":253080
		},
		{
			"buffer":0,
			"byteLength":24,
			"byteOffset":254248
		},
		{
			"buffer":0,
			"byteLength":24,
			"byteOffset":254272
		},
		{
			"buffer":0,
			"byteLength":1168,
			"byteOffset":254296
		},
		{
			"buffer":0,
			"byteLength":24,
			"byteOffset":255464
		},
		{
			"buffer":0,
			"byteLength":24,
			"byteOffset":255488
		},
		{
			"buffer":0,
			"byteLength":1168,
			"byteOffset":255512
		},
		{
			"buffer":0,
			"byteLength":24,
			"byteOffset":256680
		},
		{
			"buffer":0,
			"byteLength":24,
			"byteOffset":256704
		},
		{
			"buffer":0,
			"byteLength":1168,
			"byteOffset":256728
		},
		{
			"buffer":0,
			"byteLength":24,
			"byteOffset":257896
		},
		{
			"buffer":0,
			"byteLength":24,
			"byteOffset":257920
		},
		{
			"buffer":0,
			"byteLength":24,
			"byteOffset":257944
		},
		{
			"buffer":0,
			"byteLength":24,
			"byteOffset":257968
		},
		{
			"buffer":0,
			"byteLength":1168,
			"byteOffset":257992
		},
		{
			"buffer":0,
			"byteLength":24,
			"byteOffset":259160
		},
		{
			"buffer":0,
			"byteLength":1168,
			"byteOffset":259184
		},
		{
			"buffer":0,
			"byteLength":24,
			"byteOffset":260352
		},
		{
			"buffer":0,
			"byteLength":24,
			"byteOffset":260376
		},
		{
			"buffer":0,
			"byteLength":1168,
			"byteOffset":260400
		},
		{
			"buffer":0,
			"byteLength":24,
			"byteOffset":261568
		},
		{
			"buffer":0,
			"byteLength":24,
			"byteOffset":261592
		},
		{
			"buffer":0,
			"byteLength":1168,
			"byteOffset":261616
		},
		{
			"buffer":0,
			"byteLength":24,
			"byteOffset":262784
		},
		{
			"buffer":0,
			"byteLength":24,
			"byteOffset":262808
		},
		{
			"buffer":0,
			"byteLength":1168,
			"byteOffset":262832
		},
		{
			"buffer":0,
			"byteLength":24,
			"byteOffset":264000
		},
		{
			"buffer":0,
			"byteLength":24,
			"byteOffset":264024
		},
		{
			"buffer":0,
			"byteLength":24,
			"byteOffset":264048
		},
		{
			"buffer":0,
			"byteLength":8,
			"byteOffset":264072
		},
		{
			"buffer":0,
			"byteLength":24,
			"byteOffset":264080
		},
		{
			"buffer":0,
			"byteLength":1168,
			"byteOffset":264104
		},
		{
			"buffer":0,
			"byteLength":24,
			"byteOffset":265272
		},
		{
			"buffer":0,
			"byteLength":24,
			"byteOffset":265296
		},
		{
			"buffer":0,
			"byteLength":32,
			"byteOffset":265320
		},
		{
			"buffer":0,
			"byteLength":24,
			"byteOffset":265352
		},
		{
			"buffer":0,
			"byteLength":24,
			"byteOffset":265376
		},
		{
			"buffer":0,
			"byteLength":32,
			"byteOffset":265400
		},
		{
			"buffer":0,
			"byteLength":24,
			"byteOffset":265432
		},
		{
			"buffer":0,
			"byteLength":24,
			"byteOffset":265456
		},
		{
			"buffer":0,
			"byteLength":32,
			"byteOffset":265480
		},
		{
			"buffer":0,
			"byteLength":24,
			"byteOffset":265512
		},
		{
			"buffer":0,
			"byteLength":24,
			"byteOffset":265536
		},
		{
			"buffer":0,
			"byteLength":32,
			"byteOffset":265560
		},
		{
			"buffer":0,
			"byteLength":24,
			"byteOffset":265592
		},
		{
			"buffer":0,
			"byteLength":24,
			"byteOffset":265616
		},
		{
			"buffer":0,
			"byteLength":1168,
			"byteOffset":265640
		},
		{
			"buffer":0,
			"byteLength":24,
			"byteOffset":266808
		},
		{
			"buffer":0,
			"byteLength":24,
			"byteOffset":266832
		},
		{
			"buffer":0,
			"byteLength":32,
			"byteOffset":266856
		},
		{
			"buffer":0,
			"byteLength":24,
			"byteOffset":266888
		},
		{
			"buffer":0,
			"byteLength":24,
			"byteOffset":266912
		},
		{
			"buffer":0,
			"byteLength":1168,
			"byteOffset":266936
		},
		{
			"buffer":0,
			"byteLength":24,
			"byteOffset":268104
		},
		{
			"buffer":0,
			"byteLength":24,
			"byteOffset":268128
		},
		{
			"buffer":0,
			"byteLength":1168,
			"byteOffset":268152
		},
		{
			"buffer":0,
			"byteLength":24,
			"byteOffset":269320
		},
		{
			"buffer":0,
			"byteLength":24,
			"byteOffset":269344
		},
		{
			"buffer":0,
			"byteLength":1168,
			"byteOffset":269368
		},
		{
			"buffer":0,
			"byteLength":24,
			"byteOffset":270536
		},
		{
			"buffer":0,
			"byteLength":24,
			"byteOffset":270560
		},
		{
			"buffer":0,
			"byteLength":1168,
			"byteOffset":270584
		},
		{
			"buffer":0,
			"byteLength":24,
			"byteOffset":271752
		},
		{
			"buffer":0,
			"byteLength":24,
			"byteOffset":271776
		},
		{
			"buffer":0,
			"byteLength":1168,
			"byteOffset":271800
		},
		{
			"buffer":0,
			"byteLength":24,
			"byteOffset":272968
		},
		{
			"buffer":0,
			"byteLength":24,
			"byteOffset":272992
		},
		{
			"buffer":0,
			"byteLength":32,
			"byteOffset":273016
		},
		{
			"buffer":0,
			"byteLength":24,
			"byteOffset":273048
		},
		{
			"buffer":0,
			"byteLength":24,
			"byteOffset":273072
		},
		{
			"buffer":0,
			"byteLength":1168,
			"byteOffset":273096
		},
		{
			"buffer":0,
			"byteLength":24,
			"byteOffset":274264
		},
		{
			"buffer":0,
			"byteLength":24,
			"byteOffset":274288
		},
		{
			"buffer":0,
			"byteLength":1168,
			"byteOffset":274312
		},
		{
			"buffer":0,
			"byteLength":24,
			"byteOffset":275480
		},
		{
			"buffer":0,
			"byteLength":24,
			"byteOffset":275504
		},
		{
			"buffer":0,
			"byteLength":1168,
			"byteOffset":275528
		},
		{
			"buffer":0,
			"byteLength":24,
			"byteOffset":276696
		},
		{
			"buffer":0,
			"byteLength":24,
			"byteOffset":276720
		},
		{
			"buffer":0,
			"byteLength":1168,
			"byteOffset":276744
		},
		{
			"buffer":0,
			"byteLength":24,
			"byteOffset":277912
		},
		{
			"buffer":0,
			"byteLength":24,
			"byteOffset":277936
		},
		{
			"buffer":0,
			"byteLength":1168,
			"byteOffset":277960
		},
		{
			"buffer":0,
			"byteLength":24,
			"byteOffset":279128
		},
		{
			"buffer":0,
			"byteLength":24,
			"byteOffset":279152
		},
		{
			"buffer":0,
			"byteLength":24,
			"byteOffset":279176
		},
		{
			"buffer":0,
			"byteLength":876,
			"byteOffset":279200
		}
	],
	"samplers":[
		{
			"magFilter":9729,
			"minFilter":9987
		}
	],
	"buffers":[
		{
			"byteLength":280076,
			"uri":"Bat.bin"
		}
	]
}
