{
	"asset":{
		"generator":"Khronos glTF Blender I/O v5.1.19",
		"version":"2.0"
	},
	"scene":0,
	"scenes":[
		{
			"name":"Scene",
			"nodes":[
				13
			]
		}
	],
	"nodes":[
		{
			"name":"Head",
			"rotation":[
				0.4662970006465912,
				-0.5315703749656677,
				0.4662972390651703,
				0.5315702557563782
			],
			"scale":[
				1,
				0.9999998211860657,
				1
			],
			"translation":[
				0.21255914866924286,
				0.013263783417642117,
				1.1849095926663722e-07
			]
		},
		{
			"name":"WingLeft03",
			"rotation":[
				-2.9144467816877295e-07,
				0.23727041482925415,
				-1.8215293096091045e-07,
				0.9714436531066895
			],
			"scale":[
				0.9999999403953552,
				1,
				0.9999999403953552
			],
			"translation":[
				0.2734909951686859,
				-3.203749656677246e-07,
				1.878943294286728e-07
			]
		},
		{
			"children":[
				1
			],
			"name":"WingLeft02",
			"rotation":[
				-2.8173253951990773e-08,
				0.007277323864400387,
				1.1734975657873292e-07,
				0.9999735355377197
			],
			"scale":[
				0.9999999403953552,
				1,
				1
			],
			"translation":[
				0.32611244916915894,
				-2.3096799850463867e-07,
				-3.1013041734695435e-07
			]
		},
		{
			"children":[
				2
			],
			"name":"WingLeft01",
			"rotation":[
				0.4774695634841919,
				-0.7366451025009155,
				0.3645361363887787,
				0.3106288015842438
			],
			"scale":[
				1,
				1,
				0.9999999403953552
			],
			"translation":[
				-0.05692712590098381,
				-0.0997786745429039,
				0.1276525855064392
			]
		},
		{
			"name":"WingRight03",
			"rotation":[
				-1.2499044999003672e-07,
				0.23727038502693176,
				1.4955713822928374e-07,
				0.9714436531066895
			],
			"scale":[
				1,
				1,
				0.9999999403953552
			],
			"translation":[
				-0.2734937071800232,
				6.034970283508301e-07,
				-4.0959566831588745e-06
			]
		},
		{
			"children":[
				4
			],
			"name":"WingRight02",
			"rotation":[
				5.9140553787528916e-08,
				0.007277630269527435,
				9.313472659755462e-09,
				0.9999735355377197
			],
			"scale":[
				1,
				1,
				0.9999999403953552
			],
			"translation":[
				-0.32611244916915894,
				3.501772880554199e-07,
				7.385388016700745e-07
			]
		},
		{
			"children":[
				5
			],
			"name":"WingRight01",
			"rotation":[
				-0.7366447448730469,
				-0.4774700999259949,
				-0.3106291592121124,
				0.364535927772522
			],
			"translation":[
				-0.05692719668149948,
				-0.0997786745429039,
				-0.12765225768089294
			]
		},
		{
			"children":[
				0,
				3,
				6
			],
			"name":"Spine",
			"rotation":[
				0.9578975439071655,
				-0.287110298871994,
				9.617060925393162e-08,
				9.02884522702152e-08
			],
			"scale":[
				1.0000004768371582,
				1.0000001192092896,
				1
			],
			"translation":[
				0.16183896362781525,
				-1.475291355745867e-07,
				-5.652621837270999e-08
			]
		},
		{
			"name":"Tail02",
			"rotation":[
				0.054744698107242584,
				-0.7049842476844788,
				0.05474467575550079,
				0.7049846053123474
			],
			"scale":[
				1,
				1,
				0.9999999403953552
			],
			"translation":[
				0.20328480005264282,
				-7.588096195831895e-08,
				-7.243235700116202e-08
			]
		},
		{
			"children":[
				8
			],
			"name":"Tail01",
			"rotation":[
				-0.5947919487953186,
				0.8038797378540039,
				1.8694640857574996e-07,
				6.007449826483935e-08
			],
			"translation":[
				-0.1496545374393463,
				-0.10353489965200424,
				6.442998312650161e-08
			]
		},
		{
			"children":[
				7,
				9
			],
			"name":"Body",
			"rotation":[
				-1.146729289303039e-07,
				-1.7797714235712192e-07,
				-0.652100145816803,
				0.7581328749656677
			],
			"scale":[
				0.9999998807907104,
				0.9999998807907104,
				0.9999999403953552
			],
			"translation":[
				0.6223025918006897,
				-2.5376357370987535e-07,
				6.46677875693058e-08
			]
		},
		{
			"children":[
				10
			],
			"name":"Root",
			"rotation":[
				0.5630960464477539,
				0.4145037531852722,
				0.5757494568824768,
				0.42381852865219116
			],
			"scale":[
				1,
				0.9999998211860657,
				0.9999990463256836
			]
		},
		{
			"mesh":0,
			"name":"Swarm09.001",
			"skin":0
		},
		{
			"children":[
				12,
				11
			],
			"name":"Swarm"
		}
	],
	"animations":[
		{
			"channels":[
				{
					"sampler":0,
					"target":{
						"node":11,
						"path":"translation"
					}
				},
				{
					"sampler":1,
					"target":{
						"node":11,
						"path":"rotation"
					}
				},
				{
					"sampler":2,
					"target":{
						"node":11,
						"path":"scale"
					}
				},
				{
					"sampler":3,
					"target":{
						"node":10,
						"path":"translation"
					}
				},
				{
					"sampler":4,
					"target":{
						"node":10,
						"path":"rotation"
					}
				},
				{
					"sampler":5,
					"target":{
						"node":10,
						"path":"scale"
					}
				},
				{
					"sampler":6,
					"target":{
						"node":7,
						"path":"translation"
					}
				},
				{
					"sampler":7,
					"target":{
						"node":7,
						"path":"rotation"
					}
				},
				{
					"sampler":8,
					"target":{
						"node":7,
						"path":"scale"
					}
				},
				{
					"sampler":9,
					"target":{
						"node":0,
						"path":"translation"
					}
				},
				{
					"sampler":10,
					"target":{
						"node":0,
						"path":"rotation"
					}
				},
				{
					"sampler":11,
					"target":{
						"node":0,
						"path":"scale"
					}
				},
				{
					"sampler":12,
					"target":{
						"node":3,
						"path":"translation"
					}
				},
				{
					"sampler":13,
					"target":{
						"node":3,
						"path":"rotation"
					}
				},
				{
					"sampler":14,
					"target":{
						"node":3,
						"path":"scale"
					}
				},
				{
					"sampler":15,
					"target":{
						"node":2,
						"path":"translation"
					}
				},
				{
					"sampler":16,
					"target":{
						"node":2,
						"path":"rotation"
					}
				},
				{
					"sampler":17,
					"target":{
						"node":2,
						"path":"scale"
					}
				},
				{
					"sampler":18,
					"target":{
						"node":1,
						"path":"translation"
					}
				},
				{
					"sampler":19,
					"target":{
						"node":1,
						"path":"rotation"
					}
				},
				{
					"sampler":20,
					"target":{
						"node":1,
						"path":"scale"
					}
				},
				{
					"sampler":21,
					"target":{
						"node":6,
						"path":"translation"
					}
				},
				{
					"sampler":22,
					"target":{
						"node":6,
						"path":"rotation"
					}
				},
				{
					"sampler":23,
					"target":{
						"node":6,
						"path":"scale"
					}
				},
				{
					"sampler":24,
					"target":{
						"node":5,
						"path":"translation"
					}
				},
				{
					"sampler":25,
					"target":{
						"node":5,
						"path":"rotation"
					}
				},
				{
					"sampler":26,
					"target":{
						"node":5,
						"path":"scale"
					}
				},
				{
					"sampler":27,
					"target":{
						"node":4,
						"path":"translation"
					}
				},
				{
					"sampler":28,
					"target":{
						"node":4,
						"path":"rotation"
					}
				},
				{
					"sampler":29,
					"target":{
						"node":4,
						"path":"scale"
					}
				},
				{
					"sampler":30,
					"target":{
						"node":9,
						"path":"translation"
					}
				},
				{
					"sampler":31,
					"target":{
						"node":9,
						"path":"rotation"
					}
				},
				{
					"sampler":32,
					"target":{
						"node":9,
						"path":"scale"
					}
				},
				{
					"sampler":33,
					"target":{
						"node":8,
						"path":"translation"
					}
				},
				{
					"sampler":34,
					"target":{
						"node":8,
						"path":"rotation"
					}
				},
				{
					"sampler":35,
					"target":{
						"node":8,
						"path":"scale"
					}
				}
			],
			"name":"Attack",
			"samplers":[
				{
					"input":7,
					"interpolation":"STEP",
					"output":8
				},
				{
					"input":7,
					"interpolation":"STEP",
					"output":9
				},
				{
					"input":7,
					"interpolation":"STEP",
					"output":10
				},
				{
					"input":11,
					"interpolation":"LINEAR",
					"output":12
				},
				{
					"input":11,
					"interpolation":"LINEAR",
					"output":13
				},
				{
					"input":7,
					"interpolation":"LINEAR",
					"output":14
				},
				{
					"input":7,
					"interpolation":"LINEAR",
					"output":15
				},
				{
					"input":7,
					"interpolation":"LINEAR",
					"output":16
				},
				{
					"input":7,
					"interpolation":"STEP",
					"output":17
				},
				{
					"input":11,
					"interpolation":"LINEAR",
					"output":18
				},
				{
					"input":11,
					"interpolation":"LINEAR",
					"output":19
				},
				{
					"input":7,
					"interpolation":"LINEAR",
					"output":20
				},
				{
					"input":7,
					"interpolation":"LINEAR",
					"output":21
				},
				{
					"input":11,
					"interpolation":"LINEAR",
					"output":22
				},
				{
					"input":7,
					"interpolation":"LINEAR",
					"output":23
				},
				{
					"input":7,
					"interpolation":"LINEAR",
					"output":24
				},
				{
					"input":11,
					"interpolation":"LINEAR",
					"output":25
				},
				{
					"input":7,
					"interpolation":"LINEAR",
					"output":26
				},
				{
					"input":7,
					"interpolation":"LINEAR",
					"output":27
				},
				{
					"input":11,
					"interpolation":"LINEAR",
					"output":28
				},
				{
					"input":7,
					"interpolation":"STEP",
					"output":29
				},
				{
					"input":7,
					"interpolation":"LINEAR",
					"output":30
				},
				{
					"input":11,
					"interpolation":"LINEAR",
					"output":31
				},
				{
					"input":7,
					"interpolation":"LINEAR",
					"output":32
				},
				{
					"input":7,
					"interpolation":"LINEAR",
					"output":33
				},
				{
					"input":11,
					"interpolation":"LINEAR",
					"output":34
				},
				{
					"input":7,
					"interpolation":"LINEAR",
					"output":35
				},
				{
					"input":7,
					"interpolation":"LINEAR",
					"output":36
				},
				{
					"input":11,
					"interpolation":"LINEAR",
					"output":37
				},
				{
					"input":7,
					"interpolation":"LINEAR",
					"output":38
				},
				{
					"input":11,
					"interpolation":"LINEAR",
					"output":39
				},
				{
					"input":11,
					"interpolation":"LINEAR",
					"output":40
				},
				{
					"input":7,
					"interpolation":"LINEAR",
					"output":41
				},
				{
					"input":11,
					"interpolation":"LINEAR",
					"output":42
				},
				{
					"input":11,
					"interpolation":"LINEAR",
					"output":43
				},
				{
					"input":7,
					"interpolation":"LINEAR",
					"output":44
				}
			]
		},
		{
			"channels":[
				{
					"sampler":0,
					"target":{
						"node":11,
						"path":"translation"
					}
				},
				{
					"sampler":1,
					"target":{
						"node":11,
						"path":"rotation"
					}
				},
				{
					"sampler":2,
					"target":{
						"node":11,
						"path":"scale"
					}
				},
				{
					"sampler":3,
					"target":{
						"node":10,
						"path":"translation"
					}
				},
				{
					"sampler":4,
					"target":{
						"node":10,
						"path":"rotation"
					}
				},
				{
					"sampler":5,
					"target":{
						"node":10,
						"path":"scale"
					}
				},
				{
					"sampler":6,
					"target":{
						"node":7,
						"path":"translation"
					}
				},
				{
					"sampler":7,
					"target":{
						"node":7,
						"path":"rotation"
					}
				},
				{
					"sampler":8,
					"target":{
						"node":7,
						"path":"scale"
					}
				},
				{
					"sampler":9,
					"target":{
						"node":0,
						"path":"translation"
					}
				},
				{
					"sampler":10,
					"target":{
						"node":0,
						"path":"rotation"
					}
				},
				{
					"sampler":11,
					"target":{
						"node":0,
						"path":"scale"
					}
				},
				{
					"sampler":12,
					"target":{
						"node":3,
						"path":"translation"
					}
				},
				{
					"sampler":13,
					"target":{
						"node":3,
						"path":"rotation"
					}
				},
				{
					"sampler":14,
					"target":{
						"node":3,
						"path":"scale"
					}
				},
				{
					"sampler":15,
					"target":{
						"node":2,
						"path":"translation"
					}
				},
				{
					"sampler":16,
					"target":{
						"node":2,
						"path":"rotation"
					}
				},
				{
					"sampler":17,
					"target":{
						"node":2,
						"path":"scale"
					}
				},
				{
					"sampler":18,
					"target":{
						"node":1,
						"path":"translation"
					}
				},
				{
					"sampler":19,
					"target":{
						"node":1,
						"path":"rotation"
					}
				},
				{
					"sampler":20,
					"target":{
						"node":1,
						"path":"scale"
					}
				},
				{
					"sampler":21,
					"target":{
						"node":6,
						"path":"translation"
					}
				},
				{
					"sampler":22,
					"target":{
						"node":6,
						"path":"rotation"
					}
				},
				{
					"sampler":23,
					"target":{
						"node":6,
						"path":"scale"
					}
				},
				{
					"sampler":24,
					"target":{
						"node":5,
						"path":"translation"
					}
				},
				{
					"sampler":25,
					"target":{
						"node":5,
						"path":"rotation"
					}
				},
				{
					"sampler":26,
					"target":{
						"node":5,
						"path":"scale"
					}
				},
				{
					"sampler":27,
					"target":{
						"node":4,
						"path":"translation"
					}
				},
				{
					"sampler":28,
					"target":{
						"node":4,
						"path":"rotation"
					}
				},
				{
					"sampler":29,
					"target":{
						"node":4,
						"path":"scale"
					}
				},
				{
					"sampler":30,
					"target":{
						"node":9,
						"path":"translation"
					}
				},
				{
					"sampler":31,
					"target":{
						"node":9,
						"path":"rotation"
					}
				},
				{
					"sampler":32,
					"target":{
						"node":9,
						"path":"scale"
					}
				},
				{
					"sampler":33,
					"target":{
						"node":8,
						"path":"translation"
					}
				},
				{
					"sampler":34,
					"target":{
						"node":8,
						"path":"rotation"
					}
				},
				{
					"sampler":35,
					"target":{
						"node":8,
						"path":"scale"
					}
				}
			],
			"name":"Die",
			"samplers":[
				{
					"input":45,
					"interpolation":"STEP",
					"output":8
				},
				{
					"input":45,
					"interpolation":"STEP",
					"output":9
				},
				{
					"input":45,
					"interpolation":"STEP",
					"output":10
				},
				{
					"input":46,
					"interpolation":"LINEAR",
					"output":47
				},
				{
					"input":46,
					"interpolation":"LINEAR",
					"output":48
				},
				{
					"input":45,
					"interpolation":"LINEAR",
					"output":49
				},
				{
					"input":45,
					"interpolation":"LINEAR",
					"output":50
				},
				{
					"input":46,
					"interpolation":"LINEAR",
					"output":51
				},
				{
					"input":45,
					"interpolation":"STEP",
					"output":52
				},
				{
					"input":46,
					"interpolation":"LINEAR",
					"output":53
				},
				{
					"input":46,
					"interpolation":"LINEAR",
					"output":54
				},
				{
					"input":45,
					"interpolation":"STEP",
					"output":55
				},
				{
					"input":45,
					"interpolation":"LINEAR",
					"output":56
				},
				{
					"input":46,
					"interpolation":"LINEAR",
					"output":57
				},
				{
					"input":45,
					"interpolation":"LINEAR",
					"output":58
				},
				{
					"input":45,
					"interpolation":"LINEAR",
					"output":59
				},
				{
					"input":46,
					"interpolation":"LINEAR",
					"output":60
				},
				{
					"input":45,
					"interpolation":"LINEAR",
					"output":61
				},
				{
					"input":45,
					"interpolation":"LINEAR",
					"output":62
				},
				{
					"input":46,
					"interpolation":"LINEAR",
					"output":63
				},
				{
					"input":45,
					"interpolation":"STEP",
					"output":64
				},
				{
					"input":45,
					"interpolation":"LINEAR",
					"output":65
				},
				{
					"input":46,
					"interpolation":"LINEAR",
					"output":66
				},
				{
					"input":45,
					"interpolation":"LINEAR",
					"output":67
				},
				{
					"input":45,
					"interpolation":"LINEAR",
					"output":68
				},
				{
					"input":46,
					"interpolation":"LINEAR",
					"output":69
				},
				{
					"input":45,
					"interpolation":"LINEAR",
					"output":70
				},
				{
					"input":45,
					"interpolation":"LINEAR",
					"output":71
				},
				{
					"input":46,
					"interpolation":"LINEAR",
					"output":72
				},
				{
					"input":45,
					"interpolation":"LINEAR",
					"output":73
				},
				{
					"input":46,
					"interpolation":"LINEAR",
					"output":74
				},
				{
					"input":46,
					"interpolation":"LINEAR",
					"output":75
				},
				{
					"input":45,
					"interpolation":"LINEAR",
					"output":76
				},
				{
					"input":46,
					"interpolation":"LINEAR",
					"output":77
				},
				{
					"input":46,
					"interpolation":"LINEAR",
					"output":78
				},
				{
					"input":45,
					"interpolation":"LINEAR",
					"output":79
				}
			]
		},
		{
			"channels":[
				{
					"sampler":0,
					"target":{
						"node":11,
						"path":"translation"
					}
				},
				{
					"sampler":1,
					"target":{
						"node":11,
						"path":"rotation"
					}
				},
				{
					"sampler":2,
					"target":{
						"node":11,
						"path":"scale"
					}
				},
				{
					"sampler":3,
					"target":{
						"node":10,
						"path":"translation"
					}
				},
				{
					"sampler":4,
					"target":{
						"node":10,
						"path":"rotation"
					}
				},
				{
					"sampler":5,
					"target":{
						"node":10,
						"path":"scale"
					}
				},
				{
					"sampler":6,
					"target":{
						"node":7,
						"path":"translation"
					}
				},
				{
					"sampler":7,
					"target":{
						"node":7,
						"path":"rotation"
					}
				},
				{
					"sampler":8,
					"target":{
						"node":7,
						"path":"scale"
					}
				},
				{
					"sampler":9,
					"target":{
						"node":0,
						"path":"translation"
					}
				},
				{
					"sampler":10,
					"target":{
						"node":0,
						"path":"rotation"
					}
				},
				{
					"sampler":11,
					"target":{
						"node":0,
						"path":"scale"
					}
				},
				{
					"sampler":12,
					"target":{
						"node":3,
						"path":"translation"
					}
				},
				{
					"sampler":13,
					"target":{
						"node":3,
						"path":"rotation"
					}
				},
				{
					"sampler":14,
					"target":{
						"node":3,
						"path":"scale"
					}
				},
				{
					"sampler":15,
					"target":{
						"node":2,
						"path":"translation"
					}
				},
				{
					"sampler":16,
					"target":{
						"node":2,
						"path":"rotation"
					}
				},
				{
					"sampler":17,
					"target":{
						"node":2,
						"path":"scale"
					}
				},
				{
					"sampler":18,
					"target":{
						"node":1,
						"path":"translation"
					}
				},
				{
					"sampler":19,
					"target":{
						"node":1,
						"path":"rotation"
					}
				},
				{
					"sampler":20,
					"target":{
						"node":1,
						"path":"scale"
					}
				},
				{
					"sampler":21,
					"target":{
						"node":6,
						"path":"translation"
					}
				},
				{
					"sampler":22,
					"target":{
						"node":6,
						"path":"rotation"
					}
				},
				{
					"sampler":23,
					"target":{
						"node":6,
						"path":"scale"
					}
				},
				{
					"sampler":24,
					"target":{
						"node":5,
						"path":"translation"
					}
				},
				{
					"sampler":25,
					"target":{
						"node":5,
						"path":"rotation"
					}
				},
				{
					"sampler":26,
					"target":{
						"node":5,
						"path":"scale"
					}
				},
				{
					"sampler":27,
					"target":{
						"node":4,
						"path":"translation"
					}
				},
				{
					"sampler":28,
					"target":{
						"node":4,
						"path":"rotation"
					}
				},
				{
					"sampler":29,
					"target":{
						"node":4,
						"path":"scale"
					}
				},
				{
					"sampler":30,
					"target":{
						"node":9,
						"path":"translation"
					}
				},
				{
					"sampler":31,
					"target":{
						"node":9,
						"path":"rotation"
					}
				},
				{
					"sampler":32,
					"target":{
						"node":9,
						"path":"scale"
					}
				},
				{
					"sampler":33,
					"target":{
						"node":8,
						"path":"translation"
					}
				},
				{
					"sampler":34,
					"target":{
						"node":8,
						"path":"rotation"
					}
				},
				{
					"sampler":35,
					"target":{
						"node":8,
						"path":"scale"
					}
				}
			],
			"name":"GetHit",
			"samplers":[
				{
					"input":80,
					"interpolation":"STEP",
					"output":8
				},
				{
					"input":80,
					"interpolation":"STEP",
					"output":9
				},
				{
					"input":80,
					"interpolation":"STEP",
					"output":10
				},
				{
					"input":81,
					"interpolation":"LINEAR",
					"output":82
				},
				{
					"input":81,
					"interpolation":"LINEAR",
					"output":83
				},
				{
					"input":80,
					"interpolation":"LINEAR",
					"output":84
				},
				{
					"input":80,
					"interpolation":"LINEAR",
					"output":85
				},
				{
					"input":81,
					"interpolation":"LINEAR",
					"output":86
				},
				{
					"input":80,
					"interpolation":"LINEAR",
					"output":87
				},
				{
					"input":81,
					"interpolation":"LINEAR",
					"output":88
				},
				{
					"input":81,
					"interpolation":"LINEAR",
					"output":89
				},
				{
					"input":80,
					"interpolation":"LINEAR",
					"output":90
				},
				{
					"input":80,
					"interpolation":"LINEAR",
					"output":91
				},
				{
					"input":81,
					"interpolation":"LINEAR",
					"output":92
				},
				{
					"input":80,
					"interpolation":"STEP",
					"output":93
				},
				{
					"input":80,
					"interpolation":"LINEAR",
					"output":94
				},
				{
					"input":81,
					"interpolation":"LINEAR",
					"output":95
				},
				{
					"input":80,
					"interpolation":"STEP",
					"output":96
				},
				{
					"input":80,
					"interpolation":"LINEAR",
					"output":97
				},
				{
					"input":81,
					"interpolation":"LINEAR",
					"output":98
				},
				{
					"input":80,
					"interpolation":"STEP",
					"output":99
				},
				{
					"input":80,
					"interpolation":"LINEAR",
					"output":100
				},
				{
					"input":81,
					"interpolation":"LINEAR",
					"output":101
				},
				{
					"input":80,
					"interpolation":"LINEAR",
					"output":102
				},
				{
					"input":80,
					"interpolation":"LINEAR",
					"output":103
				},
				{
					"input":81,
					"interpolation":"LINEAR",
					"output":104
				},
				{
					"input":80,
					"interpolation":"LINEAR",
					"output":105
				},
				{
					"input":80,
					"interpolation":"LINEAR",
					"output":106
				},
				{
					"input":81,
					"interpolation":"LINEAR",
					"output":107
				},
				{
					"input":80,
					"interpolation":"LINEAR",
					"output":108
				},
				{
					"input":81,
					"interpolation":"LINEAR",
					"output":109
				},
				{
					"input":81,
					"interpolation":"LINEAR",
					"output":110
				},
				{
					"input":80,
					"interpolation":"LINEAR",
					"output":111
				},
				{
					"input":81,
					"interpolation":"LINEAR",
					"output":112
				},
				{
					"input":81,
					"interpolation":"LINEAR",
					"output":113
				},
				{
					"input":80,
					"interpolation":"LINEAR",
					"output":114
				}
			]
		},
		{
			"channels":[
				{
					"sampler":0,
					"target":{
						"node":11,
						"path":"translation"
					}
				},
				{
					"sampler":1,
					"target":{
						"node":11,
						"path":"rotation"
					}
				},
				{
					"sampler":2,
					"target":{
						"node":11,
						"path":"scale"
					}
				},
				{
					"sampler":3,
					"target":{
						"node":10,
						"path":"translation"
					}
				},
				{
					"sampler":4,
					"target":{
						"node":10,
						"path":"rotation"
					}
				},
				{
					"sampler":5,
					"target":{
						"node":10,
						"path":"scale"
					}
				},
				{
					"sampler":6,
					"target":{
						"node":7,
						"path":"translation"
					}
				},
				{
					"sampler":7,
					"target":{
						"node":7,
						"path":"rotation"
					}
				},
				{
					"sampler":8,
					"target":{
						"node":7,
						"path":"scale"
					}
				},
				{
					"sampler":9,
					"target":{
						"node":0,
						"path":"translation"
					}
				},
				{
					"sampler":10,
					"target":{
						"node":0,
						"path":"rotation"
					}
				},
				{
					"sampler":11,
					"target":{
						"node":0,
						"path":"scale"
					}
				},
				{
					"sampler":12,
					"target":{
						"node":3,
						"path":"translation"
					}
				},
				{
					"sampler":13,
					"target":{
						"node":3,
						"path":"rotation"
					}
				},
				{
					"sampler":14,
					"target":{
						"node":3,
						"path":"scale"
					}
				},
				{
					"sampler":15,
					"target":{
						"node":2,
						"path":"translation"
					}
				},
				{
					"sampler":16,
					"target":{
						"node":2,
						"path":"rotation"
					}
				},
				{
					"sampler":17,
					"target":{
						"node":2,
						"path":"scale"
					}
				},
				{
					"sampler":18,
					"target":{
						"node":1,
						"path":"translation"
					}
				},
				{
					"sampler":19,
					"target":{
						"node":1,
						"path":"rotation"
					}
				},
				{
					"sampler":20,
					"target":{
						"node":1,
						"path":"scale"
					}
				},
				{
					"sampler":21,
					"target":{
						"node":6,
						"path":"translation"
					}
				},
				{
					"sampler":22,
					"target":{
						"node":6,
						"path":"rotation"
					}
				},
				{
					"sampler":23,
					"target":{
						"node":6,
						"path":"scale"
					}
				},
				{
					"sampler":24,
					"target":{
						"node":5,
						"path":"translation"
					}
				},
				{
					"sampler":25,
					"target":{
						"node":5,
						"path":"rotation"
					}
				},
				{
					"sampler":26,
					"target":{
						"node":5,
						"path":"scale"
					}
				},
				{
					"sampler":27,
					"target":{
						"node":4,
						"path":"translation"
					}
				},
				{
					"sampler":28,
					"target":{
						"node":4,
						"path":"rotation"
					}
				},
				{
					"sampler":29,
					"target":{
						"node":4,
						"path":"scale"
					}
				},
				{
					"sampler":30,
					"target":{
						"node":9,
						"path":"translation"
					}
				},
				{
					"sampler":31,
					"target":{
						"node":9,
						"path":"rotation"
					}
				},
				{
					"sampler":32,
					"target":{
						"node":9,
						"path":"scale"
					}
				},
				{
					"sampler":33,
					"target":{
						"node":8,
						"path":"translation"
					}
				},
				{
					"sampler":34,
					"target":{
						"node":8,
						"path":"rotation"
					}
				},
				{
					"sampler":35,
					"target":{
						"node":8,
						"path":"scale"
					}
				}
			],
			"name":"Idle",
			"samplers":[
				{
					"input":115,
					"interpolation":"STEP",
					"output":8
				},
				{
					"input":115,
					"interpolation":"STEP",
					"output":9
				},
				{
					"input":115,
					"interpolation":"STEP",
					"output":10
				},
				{
					"input":116,
					"interpolation":"LINEAR",
					"output":117
				},
				{
					"input":116,
					"interpolation":"LINEAR",
					"output":118
				},
				{
					"input":115,
					"interpolation":"STEP",
					"output":119
				},
				{
					"input":116,
					"interpolation":"LINEAR",
					"output":120
				},
				{
					"input":116,
					"interpolation":"LINEAR",
					"output":121
				},
				{
					"input":115,
					"interpolation":"STEP",
					"output":122
				},
				{
					"input":115,
					"interpolation":"STEP",
					"output":123
				},
				{
					"input":116,
					"interpolation":"LINEAR",
					"output":124
				},
				{
					"input":115,
					"interpolation":"STEP",
					"output":125
				},
				{
					"input":115,
					"interpolation":"STEP",
					"output":126
				},
				{
					"input":116,
					"interpolation":"LINEAR",
					"output":127
				},
				{
					"input":115,
					"interpolation":"STEP",
					"output":128
				},
				{
					"input":116,
					"interpolation":"LINEAR",
					"output":129
				},
				{
					"input":116,
					"interpolation":"LINEAR",
					"output":130
				},
				{
					"input":115,
					"interpolation":"STEP",
					"output":64
				},
				{
					"input":116,
					"interpolation":"LINEAR",
					"output":131
				},
				{
					"input":116,
					"interpolation":"LINEAR",
					"output":132
				},
				{
					"input":115,
					"interpolation":"STEP",
					"output":64
				},
				{
					"input":115,
					"interpolation":"STEP",
					"output":133
				},
				{
					"input":116,
					"interpolation":"LINEAR",
					"output":134
				},
				{
					"input":115,
					"interpolation":"STEP",
					"output":135
				},
				{
					"input":116,
					"interpolation":"LINEAR",
					"output":136
				},
				{
					"input":116,
					"interpolation":"LINEAR",
					"output":137
				},
				{
					"input":115,
					"interpolation":"STEP",
					"output":138
				},
				{
					"input":116,
					"interpolation":"LINEAR",
					"output":139
				},
				{
					"input":116,
					"interpolation":"LINEAR",
					"output":140
				},
				{
					"input":115,
					"interpolation":"STEP",
					"output":141
				},
				{
					"input":116,
					"interpolation":"LINEAR",
					"output":142
				},
				{
					"input":116,
					"interpolation":"LINEAR",
					"output":143
				},
				{
					"input":115,
					"interpolation":"STEP",
					"output":144
				},
				{
					"input":116,
					"interpolation":"LINEAR",
					"output":145
				},
				{
					"input":116,
					"interpolation":"LINEAR",
					"output":146
				},
				{
					"input":115,
					"interpolation":"STEP",
					"output":147
				}
			]
		},
		{
			"channels":[
				{
					"sampler":0,
					"target":{
						"node":11,
						"path":"translation"
					}
				},
				{
					"sampler":1,
					"target":{
						"node":11,
						"path":"rotation"
					}
				},
				{
					"sampler":2,
					"target":{
						"node":11,
						"path":"scale"
					}
				},
				{
					"sampler":3,
					"target":{
						"node":10,
						"path":"translation"
					}
				},
				{
					"sampler":4,
					"target":{
						"node":10,
						"path":"rotation"
					}
				},
				{
					"sampler":5,
					"target":{
						"node":10,
						"path":"scale"
					}
				},
				{
					"sampler":6,
					"target":{
						"node":7,
						"path":"translation"
					}
				},
				{
					"sampler":7,
					"target":{
						"node":7,
						"path":"rotation"
					}
				},
				{
					"sampler":8,
					"target":{
						"node":7,
						"path":"scale"
					}
				},
				{
					"sampler":9,
					"target":{
						"node":0,
						"path":"translation"
					}
				},
				{
					"sampler":10,
					"target":{
						"node":0,
						"path":"rotation"
					}
				},
				{
					"sampler":11,
					"target":{
						"node":0,
						"path":"scale"
					}
				},
				{
					"sampler":12,
					"target":{
						"node":3,
						"path":"translation"
					}
				},
				{
					"sampler":13,
					"target":{
						"node":3,
						"path":"rotation"
					}
				},
				{
					"sampler":14,
					"target":{
						"node":3,
						"path":"scale"
					}
				},
				{
					"sampler":15,
					"target":{
						"node":2,
						"path":"translation"
					}
				},
				{
					"sampler":16,
					"target":{
						"node":2,
						"path":"rotation"
					}
				},
				{
					"sampler":17,
					"target":{
						"node":2,
						"path":"scale"
					}
				},
				{
					"sampler":18,
					"target":{
						"node":1,
						"path":"translation"
					}
				},
				{
					"sampler":19,
					"target":{
						"node":1,
						"path":"rotation"
					}
				},
				{
					"sampler":20,
					"target":{
						"node":1,
						"path":"scale"
					}
				},
				{
					"sampler":21,
					"target":{
						"node":6,
						"path":"translation"
					}
				},
				{
					"sampler":22,
					"target":{
						"node":6,
						"path":"rotation"
					}
				},
				{
					"sampler":23,
					"target":{
						"node":6,
						"path":"scale"
					}
				},
				{
					"sampler":24,
					"target":{
						"node":5,
						"path":"translation"
					}
				},
				{
					"sampler":25,
					"target":{
						"node":5,
						"path":"rotation"
					}
				},
				{
					"sampler":26,
					"target":{
						"node":5,
						"path":"scale"
					}
				},
				{
					"sampler":27,
					"target":{
						"node":4,
						"path":"translation"
					}
				},
				{
					"sampler":28,
					"target":{
						"node":4,
						"path":"rotation"
					}
				},
				{
					"sampler":29,
					"target":{
						"node":4,
						"path":"scale"
					}
				},
				{
					"sampler":30,
					"target":{
						"node":9,
						"path":"translation"
					}
				},
				{
					"sampler":31,
					"target":{
						"node":9,
						"path":"rotation"
					}
				},
				{
					"sampler":32,
					"target":{
						"node":9,
						"path":"scale"
					}
				},
				{
					"sampler":33,
					"target":{
						"node":8,
						"path":"translation"
					}
				},
				{
					"sampler":34,
					"target":{
						"node":8,
						"path":"rotation"
					}
				},
				{
					"sampler":35,
					"target":{
						"node":8,
						"path":"scale"
					}
				}
			],
			"name":"Walk",
			"samplers":[
				{
					"input":115,
					"interpolation":"STEP",
					"output":8
				},
				{
					"input":115,
					"interpolation":"STEP",
					"output":9
				},
				{
					"input":115,
					"interpolation":"STEP",
					"output":10
				},
				{
					"input":116,
					"interpolation":"LINEAR",
					"output":148
				},
				{
					"input":116,
					"interpolation":"LINEAR",
					"output":149
				},
				{
					"input":115,
					"interpolation":"STEP",
					"output":150
				},
				{
					"input":116,
					"interpolation":"LINEAR",
					"output":151
				},
				{
					"input":116,
					"interpolation":"LINEAR",
					"output":152
				},
				{
					"input":115,
					"interpolation":"STEP",
					"output":153
				},
				{
					"input":116,
					"interpolation":"LINEAR",
					"output":154
				},
				{
					"input":116,
					"interpolation":"LINEAR",
					"output":155
				},
				{
					"input":115,
					"interpolation":"STEP",
					"output":156
				},
				{
					"input":115,
					"interpolation":"STEP",
					"output":157
				},
				{
					"input":116,
					"interpolation":"LINEAR",
					"output":158
				},
				{
					"input":115,
					"interpolation":"STEP",
					"output":159
				},
				{
					"input":116,
					"interpolation":"LINEAR",
					"output":160
				},
				{
					"input":116,
					"interpolation":"LINEAR",
					"output":161
				},
				{
					"input":115,
					"interpolation":"STEP",
					"output":162
				},
				{
					"input":116,
					"interpolation":"LINEAR",
					"output":163
				},
				{
					"input":116,
					"interpolation":"LINEAR",
					"output":164
				},
				{
					"input":115,
					"interpolation":"STEP",
					"output":165
				},
				{
					"input":115,
					"interpolation":"STEP",
					"output":166
				},
				{
					"input":116,
					"interpolation":"LINEAR",
					"output":167
				},
				{
					"input":115,
					"interpolation":"STEP",
					"output":168
				},
				{
					"input":116,
					"interpolation":"LINEAR",
					"output":169
				},
				{
					"input":116,
					"interpolation":"LINEAR",
					"output":170
				},
				{
					"input":115,
					"interpolation":"STEP",
					"output":171
				},
				{
					"input":116,
					"interpolation":"LINEAR",
					"output":172
				},
				{
					"input":116,
					"interpolation":"LINEAR",
					"output":173
				},
				{
					"input":115,
					"interpolation":"STEP",
					"output":174
				},
				{
					"input":116,
					"interpolation":"LINEAR",
					"output":175
				},
				{
					"input":116,
					"interpolation":"LINEAR",
					"output":176
				},
				{
					"input":115,
					"interpolation":"STEP",
					"output":177
				},
				{
					"input":116,
					"interpolation":"LINEAR",
					"output":178
				},
				{
					"input":116,
					"interpolation":"LINEAR",
					"output":179
				},
				{
					"input":115,
					"interpolation":"STEP",
					"output":180
				}
			]
		}
	],
	"materials":[
		{
			"name":"PBR_Default",
			"pbrMetallicRoughness":{
				"baseColorTexture":{
					"index":0
				},
				"metallicRoughnessTexture":{
					"index":1
				}
			}
		}
	],
	"meshes":[
		{
			"name":"Swarm09",
			"primitives":[
				{
					"attributes":{
						"POSITION":0,
						"NORMAL":1,
						"TEXCOORD_0":2,
						"JOINTS_0":3,
						"WEIGHTS_0":4
					},
					"indices":5,
					"material":0
				}
			]
		}
	],
	"textures":[
		{
			"sampler":0,
			"source":0
		},
		{
			"sampler":0,
			"source":1
		}
	],
	"images":[
		{
			"mimeType":"image/jpeg",
			"name":"Albedo",
			"uri":"Albedo.jpg"
		},
		{
			"mimeType":"image/jpeg",
			"name":"Metallic-Smoothness",
			"uri":"Metallic-Smoothness.jpg"
		}
	],
	"skins":[
		{
			"inverseBindMatrices":6,
			"joints":[
				11,
				10,
				7,
				0,
				3,
				2,
				1,
				6,
				5,
				4,
				9,
				8
			],
			"name":"Swarm"
		}
	],
	"accessors":[
		{
			"bufferView":0,
			"componentType":5126,
			"count":889,
			"max":[
				0.6908389925956726,
				1.211911678314209,
				0.5585318207740784
			],
			"min":[
				-0.7025612592697144,
				0.11299765110015869,
				-0.6061244010925293
			],
			"type":"VEC3"
		},
		{
			"bufferView":1,
			"componentType":5126,
			"count":889,
			"type":"VEC3"
		},
		{
			"bufferView":2,
			"componentType":5126,
			"count":889,
			"type":"VEC2"
		},
		{
			"bufferView":3,
			"componentType":5121,
			"count":889,
			"type":"VEC4"
		},
		{
			"bufferView":4,
			"componentType":5126,
			"count":889,
			"type":"VEC4"
		},
		{
			"bufferView":5,
			"componentType":5123,
			"count":3414,
			"type":"SCALAR"
		},
		{
			"bufferView":6,
			"componentType":5126,
			"count":12,
			"type":"MAT4"
		},
		{
			"bufferView":7,
			"componentType":5126,
			"count":2,
			"max":[
				0.5
			],
			"min":[
				0
			],
			"type":"SCALAR"
		},
		{
			"bufferView":8,
			"componentType":5126,
			"count":2,
			"type":"VEC3"
		},
		{
			"bufferView":9,
			"componentType":5126,
			"count":2,
			"type":"VEC4"
		},
		{
			"bufferView":10,
			"componentType":5126,
			"count":2,
			"type":"VEC3"
		},
		{
			"bufferView":11,
			"componentType":5126,
			"count":13,
			"max":[
				0.5
			],
			"min":[
				0
			],
			"type":"SCALAR"
		},
		{
			"bufferView":12,
			"componentType":5126,
			"count":13,
			"type":"VEC3"
		},
		{
			"bufferView":13,
			"componentType":5126,
			"count":13,
			"type":"VEC4"
		},
		{
			"bufferView":14,
			"componentType":5126,
			"count":2,
			"type":"VEC3"
		},
		{
			"bufferView":15,
			"componentType":5126,
			"count":2,
			"type":"VEC3"
		},
		{
			"bufferView":16,
			"componentType":5126,
			"count":2,
			"type":"VEC4"
		},
		{
			"bufferView":17,
			"componentType":5126,
			"count":2,
			"type":"VEC3"
		},
		{
			"bufferView":18,
			"componentType":5126,
			"count":13,
			"type":"VEC3"
		},
		{
			"bufferView":19,
			"componentType":5126,
			"count":13,
			"type":"VEC4"
		},
		{
			"bufferView":20,
			"componentType":5126,
			"count":2,
			"type":"VEC3"
		},
		{
			"bufferView":21,
			"componentType":5126,
			"count":2,
			"type":"VEC3"
		},
		{
			"bufferView":22,
			"componentType":5126,
			"count":13,
			"type":"VEC4"
		},
		{
			"bufferView":23,
			"componentType":5126,
			"count":2,
			"type":"VEC3"
		},
		{
			"bufferView":24,
			"componentType":5126,
			"count":2,
			"type":"VEC3"
		},
		{
			"bufferView":25,
			"componentType":5126,
			"count":13,
			"type":"VEC4"
		},
		{
			"bufferView":26,
			"componentType":5126,
			"count":2,
			"type":"VEC3"
		},
		{
			"bufferView":27,
			"componentType":5126,
			"count":2,
			"type":"VEC3"
		},
		{
			"bufferView":28,
			"componentType":5126,
			"count":13,
			"type":"VEC4"
		},
		{
			"bufferView":29,
			"componentType":5126,
			"count":2,
			"type":"VEC3"
		},
		{
			"bufferView":30,
			"componentType":5126,
			"count":2,
			"type":"VEC3"
		},
		{
			"bufferView":31,
			"componentType":5126,
			"count":13,
			"type":"VEC4"
		},
		{
			"bufferView":32,
			"componentType":5126,
			"count":2,
			"type":"VEC3"
		},
		{
			"bufferView":33,
			"componentType":5126,
			"count":2,
			"type":"VEC3"
		},
		{
			"bufferView":34,
			"componentType":5126,
			"count":13,
			"type":"VEC4"
		},
		{
			"bufferView":35,
			"componentType":5126,
			"count":2,
			"type":"VEC3"
		},
		{
			"bufferView":36,
			"componentType":5126,
			"count":2,
			"type":"VEC3"
		},
		{
			"bufferView":37,
			"componentType":5126,
			"count":13,
			"type":"VEC4"
		},
		{
			"bufferView":38,
			"componentType":5126,
			"count":2,
			"type":"VEC3"
		},
		{
			"bufferView":39,
			"componentType":5126,
			"count":13,
			"type":"VEC3"
		},
		{
			"bufferView":40,
			"componentType":5126,
			"count":13,
			"type":"VEC4"
		},
		{
			"bufferView":41,
			"componentType":5126,
			"count":2,
			"type":"VEC3"
		},
		{
			"bufferView":42,
			"componentType":5126,
			"count":13,
			"type":"VEC3"
		},
		{
			"bufferView":43,
			"componentType":5126,
			"count":13,
			"type":"VEC4"
		},
		{
			"bufferView":44,
			"componentType":5126,
			"count":2,
			"type":"VEC3"
		},
		{
			"bufferView":45,
			"componentType":5126,
			"count":2,
			"max":[
				0.625
			],
			"min":[
				0
			],
			"type":"SCALAR"
		},
		{
			"bufferView":46,
			"componentType":5126,
			"count":16,
			"max":[
				0.625
			],
			"min":[
				0
			],
			"type":"SCALAR"
		},
		{
			"bufferView":47,
			"componentType":5126,
			"count":16,
			"type":"VEC3"
		},
		{
			"bufferView":48,
			"componentType":5126,
			"count":16,
			"type":"VEC4"
		},
		{
			"bufferView":49,
			"componentType":5126,
			"count":2,
			"type":"VEC3"
		},
		{
			"bufferView":50,
			"componentType":5126,
			"count":2,
			"type":"VEC3"
		},
		{
			"bufferView":51,
			"componentType":5126,
			"count":16,
			"type":"VEC4"
		},
		{
			"bufferView":52,
			"componentType":5126,
			"count":2,
			"type":"VEC3"
		},
		{
			"bufferView":53,
			"componentType":5126,
			"count":16,
			"type":"VEC3"
		},
		{
			"bufferView":54,
			"componentType":5126,
			"count":16,
			"type":"VEC4"
		},
		{
			"bufferView":55,
			"componentType":5126,
			"count":2,
			"type":"VEC3"
		},
		{
			"bufferView":56,
			"componentType":5126,
			"count":2,
			"type":"VEC3"
		},
		{
			"bufferView":57,
			"componentType":5126,
			"count":16,
			"type":"VEC4"
		},
		{
			"bufferView":58,
			"componentType":5126,
			"count":2,
			"type":"VEC3"
		},
		{
			"bufferView":59,
			"componentType":5126,
			"count":2,
			"type":"VEC3"
		},
		{
			"bufferView":60,
			"componentType":5126,
			"count":16,
			"type":"VEC4"
		},
		{
			"bufferView":61,
			"componentType":5126,
			"count":2,
			"type":"VEC3"
		},
		{
			"bufferView":62,
			"componentType":5126,
			"count":2,
			"type":"VEC3"
		},
		{
			"bufferView":63,
			"componentType":5126,
			"count":16,
			"type":"VEC4"
		},
		{
			"bufferView":64,
			"componentType":5126,
			"count":2,
			"type":"VEC3"
		},
		{
			"bufferView":65,
			"componentType":5126,
			"count":2,
			"type":"VEC3"
		},
		{
			"bufferView":66,
			"componentType":5126,
			"count":16,
			"type":"VEC4"
		},
		{
			"bufferView":67,
			"componentType":5126,
			"count":2,
			"type":"VEC3"
		},
		{
			"bufferView":68,
			"componentType":5126,
			"count":2,
			"type":"VEC3"
		},
		{
			"bufferView":69,
			"componentType":5126,
			"count":16,
			"type":"VEC4"
		},
		{
			"bufferView":70,
			"componentType":5126,
			"count":2,
			"type":"VEC3"
		},
		{
			"bufferView":71,
			"componentType":5126,
			"count":2,
			"type":"VEC3"
		},
		{
			"bufferView":72,
			"componentType":5126,
			"count":16,
			"type":"VEC4"
		},
		{
			"bufferView":73,
			"componentType":5126,
			"count":2,
			"type":"VEC3"
		},
		{
			"bufferView":74,
			"componentType":5126,
			"count":16,
			"type":"VEC3"
		},
		{
			"bufferView":75,
			"componentType":5126,
			"count":16,
			"type":"VEC4"
		},
		{
			"bufferView":76,
			"componentType":5126,
			"count":2,
			"type":"VEC3"
		},
		{
			"bufferView":77,
			"componentType":5126,
			"count":16,
			"type":"VEC3"
		},
		{
			"bufferView":78,
			"componentType":5126,
			"count":16,
			"type":"VEC4"
		},
		{
			"bufferView":79,
			"componentType":5126,
			"count":2,
			"type":"VEC3"
		},
		{
			"bufferView":80,
			"componentType":5126,
			"count":2,
			"max":[
				0.375
			],
			"min":[
				0
			],
			"type":"SCALAR"
		},
		{
			"bufferView":81,
			"componentType":5126,
			"count":10,
			"max":[
				0.375
			],
			"min":[
				0
			],
			"type":"SCALAR"
		},
		{
			"bufferView":82,
			"componentType":5126,
			"count":10,
			"type":"VEC3"
		},
		{
			"bufferView":83,
			"componentType":5126,
			"count":10,
			"type":"VEC4"
		},
		{
			"bufferView":84,
			"componentType":5126,
			"count":2,
			"type":"VEC3"
		},
		{
			"bufferView":85,
			"componentType":5126,
			"count":2,
			"type":"VEC3"
		},
		{
			"bufferView":86,
			"componentType":5126,
			"count":10,
			"type":"VEC4"
		},
		{
			"bufferView":87,
			"componentType":5126,
			"count":2,
			"type":"VEC3"
		},
		{
			"bufferView":88,
			"componentType":5126,
			"count":10,
			"type":"VEC3"
		},
		{
			"bufferView":89,
			"componentType":5126,
			"count":10,
			"type":"VEC4"
		},
		{
			"bufferView":90,
			"componentType":5126,
			"count":2,
			"type":"VEC3"
		},
		{
			"bufferView":91,
			"componentType":5126,
			"count":2,
			"type":"VEC3"
		},
		{
			"bufferView":92,
			"componentType":5126,
			"count":10,
			"type":"VEC4"
		},
		{
			"bufferView":93,
			"componentType":5126,
			"count":2,
			"type":"VEC3"
		},
		{
			"bufferView":94,
			"componentType":5126,
			"count":2,
			"type":"VEC3"
		},
		{
			"bufferView":95,
			"componentType":5126,
			"count":10,
			"type":"VEC4"
		},
		{
			"bufferView":96,
			"componentType":5126,
			"count":2,
			"type":"VEC3"
		},
		{
			"bufferView":97,
			"componentType":5126,
			"count":2,
			"type":"VEC3"
		},
		{
			"bufferView":98,
			"componentType":5126,
			"count":10,
			"type":"VEC4"
		},
		{
			"bufferView":99,
			"componentType":5126,
			"count":2,
			"type":"VEC3"
		},
		{
			"bufferView":100,
			"componentType":5126,
			"count":2,
			"type":"VEC3"
		},
		{
			"bufferView":101,
			"componentType":5126,
			"count":10,
			"type":"VEC4"
		},
		{
			"bufferView":102,
			"componentType":5126,
			"count":2,
			"type":"VEC3"
		},
		{
			"bufferView":103,
			"componentType":5126,
			"count":2,
			"type":"VEC3"
		},
		{
			"bufferView":104,
			"componentType":5126,
			"count":10,
			"type":"VEC4"
		},
		{
			"bufferView":105,
			"componentType":5126,
			"count":2,
			"type":"VEC3"
		},
		{
			"bufferView":106,
			"componentType":5126,
			"count":2,
			"type":"VEC3"
		},
		{
			"bufferView":107,
			"componentType":5126,
			"count":10,
			"type":"VEC4"
		},
		{
			"bufferView":108,
			"componentType":5126,
			"count":2,
			"type":"VEC3"
		},
		{
			"bufferView":109,
			"componentType":5126,
			"count":10,
			"type":"VEC3"
		},
		{
			"bufferView":110,
			"componentType":5126,
			"count":10,
			"type":"VEC4"
		},
		{
			"bufferView":111,
			"componentType":5126,
			"count":2,
			"type":"VEC3"
		},
		{
			"bufferView":112,
			"componentType":5126,
			"count":10,
			"type":"VEC3"
		},
		{
			"bufferView":113,
			"componentType":5126,
			"count":10,
			"type":"VEC4"
		},
		{
			"bufferView":114,
			"componentType":5126,
			"count":2,
			"type":"VEC3"
		},
		{
			"bufferView":115,
			"componentType":5126,
			"count":2,
			"max":[
				0.6666666666666666
			],
			"min":[
				0
			],
			"type":"SCALAR"
		},
		{
			"bufferView":116,
			"componentType":5126,
			"count":17,
			"max":[
				0.6666666666666666
			],
			"min":[
				0
			],
			"type":"SCALAR"
		},
		{
			"bufferView":117,
			"componentType":5126,
			"count":17,
			"type":"VEC3"
		},
		{
			"bufferView":118,
			"componentType":5126,
			"count":17,
			"type":"VEC4"
		},
		{
			"bufferView":119,
			"componentType":5126,
			"count":2,
			"type":"VEC3"
		},
		{
			"bufferView":120,
			"componentType":5126,
			"count":17,
			"type":"VEC3"
		},
		{
			"bufferView":121,
			"componentType":5126,
			"count":17,
			"type":"VEC4"
		},
		{
			"bufferView":122,
			"componentType":5126,
			"count":2,
			"type":"VEC3"
		},
		{
			"bufferView":123,
			"componentType":5126,
			"count":2,
			"type":"VEC3"
		},
		{
			"bufferView":124,
			"componentType":5126,
			"count":17,
			"type":"VEC4"
		},
		{
			"bufferView":125,
			"componentType":5126,
			"count":2,
			"type":"VEC3"
		},
		{
			"bufferView":126,
			"componentType":5126,
			"count":2,
			"type":"VEC3"
		},
		{
			"bufferView":127,
			"componentType":5126,
			"count":17,
			"type":"VEC4"
		},
		{
			"bufferView":128,
			"componentType":5126,
			"count":2,
			"type":"VEC3"
		},
		{
			"bufferView":129,
			"componentType":5126,
			"count":17,
			"type":"VEC3"
		},
		{
			"bufferView":130,
			"componentType":5126,
			"count":17,
			"type":"VEC4"
		},
		{
			"bufferView":131,
			"componentType":5126,
			"count":17,
			"type":"VEC3"
		},
		{
			"bufferView":132,
			"componentType":5126,
			"count":17,
			"type":"VEC4"
		},
		{
			"bufferView":133,
			"componentType":5126,
			"count":2,
			"type":"VEC3"
		},
		{
			"bufferView":134,
			"componentType":5126,
			"count":17,
			"type":"VEC4"
		},
		{
			"bufferView":135,
			"componentType":5126,
			"count":2,
			"type":"VEC3"
		},
		{
			"bufferView":136,
			"componentType":5126,
			"count":17,
			"type":"VEC3"
		},
		{
			"bufferView":137,
			"componentType":5126,
			"count":17,
			"type":"VEC4"
		},
		{
			"bufferView":138,
			"componentType":5126,
			"count":2,
			"type":"VEC3"
		},
		{
			"bufferView":139,
			"componentType":5126,
			"count":17,
			"type":"VEC3"
		},
		{
			"bufferView":140,
			"componentType":5126,
			"count":17,
			"type":"VEC4"
		},
		{
			"bufferView":141,
			"componentType":5126,
			"count":2,
			"type":"VEC3"
		},
		{
			"bufferView":142,
			"componentType":5126,
			"count":17,
			"type":"VEC3"
		},
		{
			"bufferView":143,
			"componentType":5126,
			"count":17,
			"type":"VEC4"
		},
		{
			"bufferView":144,
			"componentType":5126,
			"count":2,
			"type":"VEC3"
		},
		{
			"bufferView":145,
			"componentType":5126,
			"count":17,
			"type":"VEC3"
		},
		{
			"bufferView":146,
			"componentType":5126,
			"count":17,
			"type":"VEC4"
		},
		{
			"bufferView":147,
			"componentType":5126,
			"count":2,
			"type":"VEC3"
		},
		{
			"bufferView":148,
			"componentType":5126,
			"count":17,
			"type":"VEC3"
		},
		{
			"bufferView":149,
			"componentType":5126,
			"count":17,
			"type":"VEC4"
		},
		{
			"bufferView":150,
			"componentType":5126,
			"count":2,
			"type":"VEC3"
		},
		{
			"bufferView":151,
			"componentType":5126,
			"count":17,
			"type":"VEC3"
		},
		{
			"bufferView":152,
			"componentType":5126,
			"count":17,
			"type":"VEC4"
		},
		{
			"bufferView":153,
			"componentType":5126,
			"count":2,
			"type":"VEC3"
		},
		{
			"bufferView":154,
			"componentType":5126,
			"count":17,
			"type":"VEC3"
		},
		{
			"bufferView":155,
			"componentType":5126,
			"count":17,
			"type":"VEC4"
		},
		{
			"bufferView":156,
			"componentType":5126,
			"count":2,
			"type":"VEC3"
		},
		{
			"bufferView":157,
			"componentType":5126,
			"count":2,
			"type":"VEC3"
		},
		{
			"bufferView":158,
			"componentType":5126,
			"count":17,
			"type":"VEC4"
		},
		{
			"bufferView":159,
			"componentType":5126,
			"count":2,
			"type":"VEC3"
		},
		{
			"bufferView":160,
			"componentType":5126,
			"count":17,
			"type":"VEC3"
		},
		{
			"bufferView":161,
			"componentType":5126,
			"count":17,
			"type":"VEC4"
		},
		{
			"bufferView":162,
			"componentType":5126,
			"count":2,
			"type":"VEC3"
		},
		{
			"bufferView":163,
			"componentType":5126,
			"count":17,
			"type":"VEC3"
		},
		{
			"bufferView":164,
			"componentType":5126,
			"count":17,
			"type":"VEC4"
		},
		{
			"bufferView":165,
			"componentType":5126,
			"count":2,
			"type":"VEC3"
		},
		{
			"bufferView":166,
			"componentType":5126,
			"count":2,
			"type":"VEC3"
		},
		{
			"bufferView":167,
			"componentType":5126,
			"count":17,
			"type":"VEC4"
		},
		{
			"bufferView":168,
			"componentType":5126,
			"count":2,
			"type":"VEC3"
		},
		{
			"bufferView":169,
			"componentType":5126,
			"count":17,
			"type":"VEC3"
		},
		{
			"bufferView":170,
			"componentType":5126,
			"count":17,
			"type":"VEC4"
		},
		{
			"bufferView":171,
			"componentType":5126,
			"count":2,
			"type":"VEC3"
		},
		{
			"bufferView":172,
			"componentType":5126,
			"count":17,
			"type":"VEC3"
		},
		{
			"bufferView":173,
			"componentType":5126,
			"count":17,
			"type":"VEC4"
		},
		{
			"bufferView":174,
			"componentType":5126,
			"count":2,
			"type":"VEC3"
		},
		{
			"bufferView":175,
			"componentType":5126,
			"count":17,
			"type":"VEC3"
		},
		{
			"bufferView":176,
			"componentType":5126,
			"count":17,
			"type":"VEC4"
		},
		{
			"bufferView":177,
			"componentType":5126,
			"count":2,
			"type":"VEC3"
		},
		{
			"bufferView":178,
			"componentType":5126,
			"count":17,
			"type":"VEC3"
		},
		{
			"bufferView":179,
			"componentType":5126,
			"count":17,
			"type":"VEC4"
		},
		{
			"bufferView":180,
			"componentType":5126,
			"count":2,
			"type":"VEC3"
		}
	],
	"bufferViews":[
		{
			"buffer":0,
			"byteLength":10668,
			"byteOffset":0,
			"target":34962
		},
		{
			"buffer":0,
			"byteLength":10668,
			"byteOffset":10668,
			"target":34962
		},
		{
			"buffer":0,
			"byteLength":7112,
			"byteOffset":21336,
			"target":34962
		},
		{
			"buffer":0,
			"byteLength":3556,
			"byteOffset":28448,
			"target":34962
		},
		{
			"buffer":0,
			"byteLength":14224,
			"byteOffset":32004,
			"target":34962
		},
		{
			"buffer":0,
			"byteLength":6828,
			"byteOffset":46228,
			"target":34963
		},
		{
			"buffer":0,
			"byteLength":768,
			"byteOffset":53056
		},
		{
			"buffer":0,
			"byteLength":8,
			"byteOffset":53824
		},
		{
			"buffer":0,
			"byteLength":24,
			"byteOffset":53832
		},
		{
			"buffer":0,
			"byteLength":32,
			"byteOffset":53856
		},
		{
			"buffer":0,
			"byteLength":24,
			"byteOffset":53888
		},
		{
			"buffer":0,
			"byteLength":52,
			"byteOffset":53912
		},
		{
			"buffer":0,
			"byteLength":156,
			"byteOffset":53964
		},
		{
			"buffer":0,
			"byteLength":208,
			"byteOffset":54120
		},
		{
			"buffer":0,
			"byteLength":24,
			"byteOffset":54328
		},
		{
			"buffer":0,
			"byteLength":24,
			"byteOffset":54352
		},
		{
			"buffer":0,
			"byteLength":32,
			"byteOffset":54376
		},
		{
			"buffer":0,
			"byteLength":24,
			"byteOffset":54408
		},
		{
			"buffer":0,
			"byteLength":156,
			"byteOffset":54432
		},
		{
			"buffer":0,
			"byteLength":208,
			"byteOffset":54588
		},
		{
			"buffer":0,
			"byteLength":24,
			"byteOffset":54796
		},
		{
			"buffer":0,
			"byteLength":24,
			"byteOffset":54820
		},
		{
			"buffer":0,
			"byteLength":208,
			"byteOffset":54844
		},
		{
			"buffer":0,
			"byteLength":24,
			"byteOffset":55052
		},
		{
			"buffer":0,
			"byteLength":24,
			"byteOffset":55076
		},
		{
			"buffer":0,
			"byteLength":208,
			"byteOffset":55100
		},
		{
			"buffer":0,
			"byteLength":24,
			"byteOffset":55308
		},
		{
			"buffer":0,
			"byteLength":24,
			"byteOffset":55332
		},
		{
			"buffer":0,
			"byteLength":208,
			"byteOffset":55356
		},
		{
			"buffer":0,
			"byteLength":24,
			"byteOffset":55564
		},
		{
			"buffer":0,
			"byteLength":24,
			"byteOffset":55588
		},
		{
			"buffer":0,
			"byteLength":208,
			"byteOffset":55612
		},
		{
			"buffer":0,
			"byteLength":24,
			"byteOffset":55820
		},
		{
			"buffer":0,
			"byteLength":24,
			"byteOffset":55844
		},
		{
			"buffer":0,
			"byteLength":208,
			"byteOffset":55868
		},
		{
			"buffer":0,
			"byteLength":24,
			"byteOffset":56076
		},
		{
			"buffer":0,
			"byteLength":24,
			"byteOffset":56100
		},
		{
			"buffer":0,
			"byteLength":208,
			"byteOffset":56124
		},
		{
			"buffer":0,
			"byteLength":24,
			"byteOffset":56332
		},
		{
			"buffer":0,
			"byteLength":156,
			"byteOffset":56356
		},
		{
			"buffer":0,
			"byteLength":208,
			"byteOffset":56512
		},
		{
			"buffer":0,
			"byteLength":24,
			"byteOffset":56720
		},
		{
			"buffer":0,
			"byteLength":156,
			"byteOffset":56744
		},
		{
			"buffer":0,
			"byteLength":208,
			"byteOffset":56900
		},
		{
			"buffer":0,
			"byteLength":24,
			"byteOffset":57108
		},
		{
			"buffer":0,
			"byteLength":8,
			"byteOffset":57132
		},
		{
			"buffer":0,
			"byteLength":64,
			"byteOffset":57140
		},
		{
			"buffer":0,
			"byteLength":192,
			"byteOffset":57204
		},
		{
			"buffer":0,
			"byteLength":256,
			"byteOffset":57396
		},
		{
			"buffer":0,
			"byteLength":24,
			"byteOffset":57652
		},
		{
			"buffer":0,
			"byteLength":24,
			"byteOffset":57676
		},
		{
			"buffer":0,
			"byteLength":256,
			"byteOffset":57700
		},
		{
			"buffer":0,
			"byteLength":24,
			"byteOffset":57956
		},
		{
			"buffer":0,
			"byteLength":192,
			"byteOffset":57980
		},
		{
			"buffer":0,
			"byteLength":256,
			"byteOffset":58172
		},
		{
			"buffer":0,
			"byteLength":24,
			"byteOffset":58428
		},
		{
			"buffer":0,
			"byteLength":24,
			"byteOffset":58452
		},
		{
			"buffer":0,
			"byteLength":256,
			"byteOffset":58476
		},
		{
			"buffer":0,
			"byteLength":24,
			"byteOffset":58732
		},
		{
			"buffer":0,
			"byteLength":24,
			"byteOffset":58756
		},
		{
			"buffer":0,
			"byteLength":256,
			"byteOffset":58780
		},
		{
			"buffer":0,
			"byteLength":24,
			"byteOffset":59036
		},
		{
			"buffer":0,
			"byteLength":24,
			"byteOffset":59060
		},
		{
			"buffer":0,
			"byteLength":256,
			"byteOffset":59084
		},
		{
			"buffer":0,
			"byteLength":24,
			"byteOffset":59340
		},
		{
			"buffer":0,
			"byteLength":24,
			"byteOffset":59364
		},
		{
			"buffer":0,
			"byteLength":256,
			"byteOffset":59388
		},
		{
			"buffer":0,
			"byteLength":24,
			"byteOffset":59644
		},
		{
			"buffer":0,
			"byteLength":24,
			"byteOffset":59668
		},
		{
			"buffer":0,
			"byteLength":256,
			"byteOffset":59692
		},
		{
			"buffer":0,
			"byteLength":24,
			"byteOffset":59948
		},
		{
			"buffer":0,
			"byteLength":24,
			"byteOffset":59972
		},
		{
			"buffer":0,
			"byteLength":256,
			"byteOffset":59996
		},
		{
			"buffer":0,
			"byteLength":24,
			"byteOffset":60252
		},
		{
			"buffer":0,
			"byteLength":192,
			"byteOffset":60276
		},
		{
			"buffer":0,
			"byteLength":256,
			"byteOffset":60468
		},
		{
			"buffer":0,
			"byteLength":24,
			"byteOffset":60724
		},
		{
			"buffer":0,
			"byteLength":192,
			"byteOffset":60748
		},
		{
			"buffer":0,
			"byteLength":256,
			"byteOffset":60940
		},
		{
			"buffer":0,
			"byteLength":24,
			"byteOffset":61196
		},
		{
			"buffer":0,
			"byteLength":8,
			"byteOffset":61220
		},
		{
			"buffer":0,
			"byteLength":40,
			"byteOffset":61228
		},
		{
			"buffer":0,
			"byteLength":120,
			"byteOffset":61268
		},
		{
			"buffer":0,
			"byteLength":160,
			"byteOffset":61388
		},
		{
			"buffer":0,
			"byteLength":24,
			"byteOffset":61548
		},
		{
			"buffer":0,
			"byteLength":24,
			"byteOffset":61572
		},
		{
			"buffer":0,
			"byteLength":160,
			"byteOffset":61596
		},
		{
			"buffer":0,
			"byteLength":24,
			"byteOffset":61756
		},
		{
			"buffer":0,
			"byteLength":120,
			"byteOffset":61780
		},
		{
			"buffer":0,
			"byteLength":160,
			"byteOffset":61900
		},
		{
			"buffer":0,
			"byteLength":24,
			"byteOffset":62060
		},
		{
			"buffer":0,
			"byteLength":24,
			"byteOffset":62084
		},
		{
			"buffer":0,
			"byteLength":160,
			"byteOffset":62108
		},
		{
			"buffer":0,
			"byteLength":24,
			"byteOffset":62268
		},
		{
			"buffer":0,
			"byteLength":24,
			"byteOffset":62292
		},
		{
			"buffer":0,
			"byteLength":160,
			"byteOffset":62316
		},
		{
			"buffer":0,
			"byteLength":24,
			"byteOffset":62476
		},
		{
			"buffer":0,
			"byteLength":24,
			"byteOffset":62500
		},
		{
			"buffer":0,
			"byteLength":160,
			"byteOffset":62524
		},
		{
			"buffer":0,
			"byteLength":24,
			"byteOffset":62684
		},
		{
			"buffer":0,
			"byteLength":24,
			"byteOffset":62708
		},
		{
			"buffer":0,
			"byteLength":160,
			"byteOffset":62732
		},
		{
			"buffer":0,
			"byteLength":24,
			"byteOffset":62892
		},
		{
			"buffer":0,
			"byteLength":24,
			"byteOffset":62916
		},
		{
			"buffer":0,
			"byteLength":160,
			"byteOffset":62940
		},
		{
			"buffer":0,
			"byteLength":24,
			"byteOffset":63100
		},
		{
			"buffer":0,
			"byteLength":24,
			"byteOffset":63124
		},
		{
			"buffer":0,
			"byteLength":160,
			"byteOffset":63148
		},
		{
			"buffer":0,
			"byteLength":24,
			"byteOffset":63308
		},
		{
			"buffer":0,
			"byteLength":120,
			"byteOffset":63332
		},
		{
			"buffer":0,
			"byteLength":160,
			"byteOffset":63452
		},
		{
			"buffer":0,
			"byteLength":24,
			"byteOffset":63612
		},
		{
			"buffer":0,
			"byteLength":120,
			"byteOffset":63636
		},
		{
			"buffer":0,
			"byteLength":160,
			"byteOffset":63756
		},
		{
			"buffer":0,
			"byteLength":24,
			"byteOffset":63916
		},
		{
			"buffer":0,
			"byteLength":8,
			"byteOffset":63940
		},
		{
			"buffer":0,
			"byteLength":68,
			"byteOffset":63948
		},
		{
			"buffer":0,
			"byteLength":204,
			"byteOffset":64016
		},
		{
			"buffer":0,
			"byteLength":272,
			"byteOffset":64220
		},
		{
			"buffer":0,
			"byteLength":24,
			"byteOffset":64492
		},
		{
			"buffer":0,
			"byteLength":204,
			"byteOffset":64516
		},
		{
			"buffer":0,
			"byteLength":272,
			"byteOffset":64720
		},
		{
			"buffer":0,
			"byteLength":24,
			"byteOffset":64992
		},
		{
			"buffer":0,
			"byteLength":24,
			"byteOffset":65016
		},
		{
			"buffer":0,
			"byteLength":272,
			"byteOffset":65040
		},
		{
			"buffer":0,
			"byteLength":24,
			"byteOffset":65312
		},
		{
			"buffer":0,
			"byteLength":24,
			"byteOffset":65336
		},
		{
			"buffer":0,
			"byteLength":272,
			"byteOffset":65360
		},
		{
			"buffer":0,
			"byteLength":24,
			"byteOffset":65632
		},
		{
			"buffer":0,
			"byteLength":204,
			"byteOffset":65656
		},
		{
			"buffer":0,
			"byteLength":272,
			"byteOffset":65860
		},
		{
			"buffer":0,
			"byteLength":204,
			"byteOffset":66132
		},
		{
			"buffer":0,
			"byteLength":272,
			"byteOffset":66336
		},
		{
			"buffer":0,
			"byteLength":24,
			"byteOffset":66608
		},
		{
			"buffer":0,
			"byteLength":272,
			"byteOffset":66632
		},
		{
			"buffer":0,
			"byteLength":24,
			"byteOffset":66904
		},
		{
			"buffer":0,
			"byteLength":204,
			"byteOffset":66928
		},
		{
			"buffer":0,
			"byteLength":272,
			"byteOffset":67132
		},
		{
			"buffer":0,
			"byteLength":24,
			"byteOffset":67404
		},
		{
			"buffer":0,
			"byteLength":204,
			"byteOffset":67428
		},
		{
			"buffer":0,
			"byteLength":272,
			"byteOffset":67632
		},
		{
			"buffer":0,
			"byteLength":24,
			"byteOffset":67904
		},
		{
			"buffer":0,
			"byteLength":204,
			"byteOffset":67928
		},
		{
			"buffer":0,
			"byteLength":272,
			"byteOffset":68132
		},
		{
			"buffer":0,
			"byteLength":24,
			"byteOffset":68404
		},
		{
			"buffer":0,
			"byteLength":204,
			"byteOffset":68428
		},
		{
			"buffer":0,
			"byteLength":272,
			"byteOffset":68632
		},
		{
			"buffer":0,
			"byteLength":24,
			"byteOffset":68904
		},
		{
			"buffer":0,
			"byteLength":204,
			"byteOffset":68928
		},
		{
			"buffer":0,
			"byteLength":272,
			"byteOffset":69132
		},
		{
			"buffer":0,
			"byteLength":24,
			"byteOffset":69404
		},
		{
			"buffer":0,
			"byteLength":204,
			"byteOffset":69428
		},
		{
			"buffer":0,
			"byteLength":272,
			"byteOffset":69632
		},
		{
			"buffer":0,
			"byteLength":24,
			"byteOffset":69904
		},
		{
			"buffer":0,
			"byteLength":204,
			"byteOffset":69928
		},
		{
			"buffer":0,
			"byteLength":272,
			"byteOffset":70132
		},
		{
			"buffer":0,
			"byteLength":24,
			"byteOffset":70404
		},
		{
			"buffer":0,
			"byteLength":24,
			"byteOffset":70428
		},
		{
			"buffer":0,
			"byteLength":272,
			"byteOffset":70452
		},
		{
			"buffer":0,
			"byteLength":24,
			"byteOffset":70724
		},
		{
			"buffer":0,
			"byteLength":204,
			"byteOffset":70748
		},
		{
			"buffer":0,
			"byteLength":272,
			"byteOffset":70952
		},
		{
			"buffer":0,
			"byteLength":24,
			"byteOffset":71224
		},
		{
			"buffer":0,
			"byteLength":204,
			"byteOffset":71248
		},
		{
			"buffer":0,
			"byteLength":272,
			"byteOffset":71452
		},
		{
			"buffer":0,
			"byteLength":24,
			"byteOffset":71724
		},
		{
			"buffer":0,
			"byteLength":24,
			"byteOffset":71748
		},
		{
			"buffer":0,
			"byteLength":272,
			"byteOffset":71772
		},
		{
			"buffer":0,
			"byteLength":24,
			"byteOffset":72044
		},
		{
			"buffer":0,
			"byteLength":204,
			"byteOffset":72068
		},
		{
			"buffer":0,
			"byteLength":272,
			"byteOffset":72272
		},
		{
			"buffer":0,
			"byteLength":24,
			"byteOffset":72544
		},
		{
			"buffer":0,
			"byteLength":204,
			"byteOffset":72568
		},
		{
			"buffer":0,
			"byteLength":272,
			"byteOffset":72772
		},
		{
			"buffer":0,
			"byteLength":24,
			"byteOffset":73044
		},
		{
			"buffer":0,
			"byteLength":204,
			"byteOffset":73068
		},
		{
			"buffer":0,
			"byteLength":272,
			"byteOffset":73272
		},
		{
			"buffer":0,
			"byteLength":24,
			"byteOffset":73544
		},
		{
			"buffer":0,
			"byteLength":204,
			"byteOffset":73568
		},
		{
			"buffer":0,
			"byteLength":272,
			"byteOffset":73772
		},
		{
			"buffer":0,
			"byteLength":24,
			"byteOffset":74044
		}
	],
	"samplers":[
		{
			"magFilter":9729,
			"minFilter":9987
		}
	],
	"buffers":[
		{
			"byteLength":74068,
			"uri":"Swarm.bin"
		}
	]
}
